<?xml version="1.0" encoding="utf-8" ?>
<svg baseProfile="full" height="200mm" version="1.1" viewBox="0,0,200,200" width="200mm" xmlns="http://www.w3.org/2000/svg" xmlns:ev="http://www.w3.org/2001/xml-events" xmlns:xlink="http://www.w3.org/1999/xlink"><defs /><rect fill="#1a1a1a" height="200" width="200" x="0" y="0" /><text alignment-baseline="middle" fill="#e1ed5e" style="dominant-baseline: central; font-size:9.0px; font-family:Arial;" text-anchor="middle" x="100.0" y="100.0">2023</text><line stroke="#e1ed5e" stroke-width="0.3" x1="100.0" x2="100.0" y1="15.0" y2="10.0" /><path d="M 100.0 14.0 a86.0,86.0 0 0,1 42.46469731375804,11.215312516191453" fill="none" id="id145" stroke="none" /><text fill="#e1ed5e" style="font-size:6.75px; font-family:Arial;" text-anchor="middle"><textPath startOffset="22.20632615414155" xlink:href="#id145">January</textPath></text><line stroke="#e1ed5e" stroke-width="0.3" x1="143.23703022742887" x2="145.7803849466894" y1="26.81831364943548" y2="22.513508569990506" /><path d="M 143.74570117128098 25.957352633546492 a86.0,86.0 0 0,1 28.547481713284135,27.462654790039103" fill="none" id="id146" stroke="none" /><text fill="#e1ed5e" style="font-size:6.75px; font-family:Arial;" text-anchor="middle"><textPath startOffset="19.985693538727396" xlink:href="#id146">February</textPath></text><line stroke="#e1ed5e" stroke-width="0.3" x1="172.23445277983987" x2="176.4835382374775" y1="55.19839476539836" y2="52.563006222186495" /><path d="M 173.08426987136738 54.67131705675599 a86.0,86.0 0 0,1 12.851231095245387,41.99856678651699" fill="none" id="id147" stroke="none" /><text fill="#e1ed5e" style="font-size:6.75px; font-family:Arial;" text-anchor="middle"><textPath startOffset="22.20632615414155" xlink:href="#id147">March</textPath></text><line stroke="#e1ed5e" stroke-width="0.3" x1="184.98032266829074" x2="189.97916517819016" y1="98.17113171792111" y2="98.06355123074" /><path d="M 185.9800911702706 98.14961562048488 a86.0,86.0 0 0,1 -9.607161424134198,41.387399972396054" fill="none" id="id148" stroke="none" /><text fill="#e1ed5e" style="font-size:6.75px; font-family:Arial;" text-anchor="middle"><textPath startOffset="21.466115282336823" xlink:href="#id148">April</textPath></text><path d="M 120.99513854157772 99.54816195383933 l 20.82748758751011 -0.4482300166459841 a41.832310226081745,41.832310226081745 0 0,0 0.009296718765458975,0.720041113728337 l -20.832117313393283 0.0896526448571843" fill="#ff5507" stroke="none" /><path d="M 120.49622156327973 104.57218783832717 l 25.7028776373973 5.733660917984064 a47.33463093277436,47.33463093277436 0 0,0 -0.18424314020624402,0.7937146259175232 l -25.600373931260506 -6.175244201250153" fill="#ffb710" stroke="none" /><path d="M 118.81262510543309 109.33194174019688 l 23.492543747846188 11.653400222205729 a47.224060488097024,47.224060488097024 0 0,0 -0.36749613252659563,0.7251047338420996 l -23.288468945533324 -12.056059167750524" fill="#ffb510" stroke="none" /><line stroke="#e1ed5e" stroke-width="0.3" x1="174.80103733775053" x2="179.2010983576182" y1="140.37084112569926" y2="142.7455964860345" /><path d="M 175.68104954172406 140.8457921977663 a86.0,86.0 0 0,1 -30.038265399797805,32.042727171017184" fill="none" id="id149" stroke="none" /><text fill="#e1ed5e" style="font-size:6.75px; font-family:Arial;" text-anchor="middle"><textPath startOffset="22.206326154141568" xlink:href="#id149">May</textPath></text><path d="M 118.48025628344425 109.97397251340804 l 24.020551711634575 12.964123378709347 a48.29570294954334,48.29570294954334 0 0,0 -0.40113856745346044,0.7281830185013097 l -23.793836734729606 -13.375676915608462" fill="#ffc712" stroke="none" /><path d="M 115.80600337817218 113.82643327865902 l 18.385118417595937 16.082535669464818 a45.42663572391076,45.42663572391076 0 0,0 -0.5198995184043145,0.5841126203442009 l -18.105560049543286 -16.396622459549885" fill="#ff950d" stroke="none" /><line stroke="#e1ed5e" stroke-width="0.3" x1="143.8653032363475" x2="146.44561519142675" y1="172.8068346515853" y2="177.08958963109032" /><path d="M 144.38136562736335 173.6633856474863 a86.0,86.0 0 0,1 -40.68145358897372,12.25698825130547" fill="none" id="id150" stroke="none" /><text fill="#e1ed5e" style="font-size:6.75px; font-family:Arial;" text-anchor="middle"><textPath startOffset="21.466115282336833" xlink:href="#id150">June</textPath></text><path d="M 107.93186726928326 119.44442032107085 l 9.968374289636996 24.436775481112218 a47.39175026201527,47.39175026201527 0 0,0 -0.757994765833252,0.30162176055418344 l -9.546258447761877 -24.60474408607247" fill="#ffb811" stroke="none" /><path d="M 103.41894727170886 120.7198165907248 l 3.5598890517373833 21.573964841657506 a42.86569845785297,42.86569845785297 0 0,0 -0.7290519128817512,0.11386291508226651 l -3.188001275247115 -21.63204606408688" fill="#ff6809" stroke="none" /><line stroke="#e1ed5e" stroke-width="0.3" x1="102.19456741930631" x2="102.32365962044197" y1="184.97166512339345" y2="189.96999836594603" /><path d="M 102.22038585953345 185.97133177190398 a86.0,86.0 0 0,1 -42.740103519485714,-10.115201625700543" fill="none" id="id151" stroke="none" /><text fill="#e1ed5e" style="font-size:6.75px; font-family:Arial;" text-anchor="middle"><textPath startOffset="22.20632615414155" xlink:href="#id151">July</textPath></text><path d="M 100.18074693466247 120.99922214144158 l 0.16208770252445273 18.831388084468376 a39.832085641563104,39.832085641563104 0 0,0 -0.6856692743738034,0.0 l 0.16208770252443977 -18.831388084468376" fill="#ff3004" stroke="none" /><line stroke="#e1ed5e" stroke-width="0.3" x1="58.666819895761336" x2="56.23545636021788" y1="174.27360380694188" y2="178.64263932499728" /><path d="M 58.180547188652646 175.14741091055294 a86.0,86.0 0 0,1 -31.652253787137756,-30.449443065178592" fill="none" id="id152" stroke="none" /><text fill="#e1ed5e" style="font-size:6.75px; font-family:Arial;" text-anchor="middle"><textPath startOffset="22.20632615414155" xlink:href="#id152">August</textPath></text><line stroke="#e1ed5e" stroke-width="0.3" x1="26.63291911575756" x2="22.317208475507996" y1="142.92168965132927" y2="145.44649492493687" /><path d="M 25.769776987707644 143.4266507060508 a86.0,86.0 0 0,1 -11.730757126820373,-40.83630448921669" fill="none" id="id153" stroke="none" /><text fill="#e1ed5e" style="font-size:6.75px; font-family:Arial;" text-anchor="middle"><textPath startOffset="21.46611528233685" xlink:href="#id153">September</textPath></text><line stroke="#e1ed5e" stroke-width="0.3" x1="15.007084014347285" x2="10.007500721073583" y1="101.09737516637583" y2="101.16192664675087" /><path d="M 14.007167355692545 101.11028546245083 a86.0,86.0 0 0,1 10.666146001902534,-42.60595125391555" fill="none" id="id154" stroke="none" /><text fill="#e1ed5e" style="font-size:6.75px; font-family:Arial;" text-anchor="middle"><textPath startOffset="22.20632615414155" xlink:href="#id154">October</textPath></text><path d="M 79.00175016825051 100.2711162175752 l -22.449169475012322 0.28984958101448527 a43.45104057493637,43.45104057493637 0 0,0 -0.0032189000760163363,-0.7479590157155724 l 22.450832672377842 0.09661891290476257" fill="#ff720a" stroke="none" /><path d="M 79.00019446554 99.90962569577889 l -21.87440441246104 -0.09413820884119936 a42.874606977092384,42.874606977092384 0 0,0 0.009528356456801586,-0.7379817081964957 l 21.86954304888652 0.470656175098167" fill="#ff6809" stroke="none" /><path d="M 79.01574976396665 99.18683210126434 l -22.812792478490525 -0.8840263681269028 a43.829914657882924,43.829914657882924 0 0,0 0.03570341386809802,-0.7536426371725189 l 22.79419545638893 1.276580111922431" fill="#ff790b" stroke="none" /><path d="M 79.03285615573316 98.82574320788736 l -25.619533000907587 -1.4348120497726147 a46.659679592753406,46.659679592753406 0 0,0 0.05181315009649774,-0.8015264989497387 l 25.591039259806678 1.8755976129753653" fill="#ffab0f" stroke="none" /><path d="M 79.46518482838121 95.60439243477599 l -24.364660173182873 -5.215410203904555 a45.916604282078154,45.916604282078154 0 0,0 0.17209021365742033,-0.7714466843263331 l 24.271275572523415 5.634035057780847" fill="#ff9e0e" stroke="none" /><path d="M 80.2630227832202 92.82701384747504 l -25.325525414583886 -9.204025576408293 a47.946174577032494,47.946174577032494 0 0,0 0.2885798316874678,-0.7732504760568051 l 25.16334099439479 9.63859918949444" fill="#ffc111" stroke="none" /><line stroke="#e1ed5e" stroke-width="0.3" x1="26.266209847984243" x2="21.928928074336255" y1="57.711370442889674" y2="55.22380399835377" /><path d="M 25.398753493254645 57.213857153982495 a86.0,86.0 0 0,1 29.58750427330803,-30.492523968695096" fill="none" id="id155" stroke="none" /><text fill="#e1ed5e" style="font-size:6.75px; font-family:Arial;" text-anchor="middle"><textPath startOffset="21.46611528233685" xlink:href="#id155">November</textPath></text><path d="M 81.78341655067845 89.55222093294921 l -22.881417989345938 -13.123207244574248 a47.37760143734092,47.37760143734092 0 0,0 0.41182489472321004,-0.7039422400829626 l 22.652133420152403 13.515128897011103" fill="#ffb711" stroke="none" /><path d="M 82.34701348167596 88.62581576622439 l -22.264242267034334 -14.345311662012442 a47.485551729300795,47.485551729300795 0 0,0 0.44863301118946697,-0.6832988549832741 l 22.014012620486948 14.726428580973383" fill="#ffb911" stroke="none" /><path d="M 82.54541684631803 88.32363383020206 l -22.0357905602405 -14.740997086949571 a47.511753256475515,47.511753256475515 0 0,0 0.46058240743818896,-0.6758478500315537 l 21.778783687133572 15.11812296025154" fill="#ffba11" stroke="none" /><path d="M 82.95767976084542 87.72973835380427 l -13.266762044733898 -9.55190603170939 a37.34765683485551,37.34765683485551 0 0,0 0.3801233619342553,-0.5184878384871024 l 13.10037607028601 9.778856313867992" fill="#ff0000" stroke="none" /><path d="M 83.84228863543731 86.58626213691792 l -20.886807451675423 -17.339718084574557 a48.1463542446474,48.1463542446474 0 0,0 0.5348587354554944,-0.6331040396497908 l 20.585238102732802 17.696681073853462" fill="#ffc412" stroke="none" /><path d="M 84.07557802195018 86.31012108654704 l -20.679416073706452 -17.777643825325455 a48.27054948345561,48.27054948345561 0 0,0 0.5470849298395598,-0.6254126479992539 l 20.37033928028905 18.13097202952765" fill="#ffc712" stroke="none" /><path d="M 84.80347519578584 85.50635884689758 l -19.82176842943251 -18.904953753401617 a48.39160053900285,48.39160053900285 0 0,0 0.5800902472509741,-0.5978339911644417 l 19.493413918478417 19.24335194011618" fill="#ffc912" stroke="none" /><path d="M 85.57189188830299 84.74124197986013 l -26.077813510962887 -27.57915611510582 a58.956056295852676,58.956056295852676 0 0,0 0.7433856623661155,-0.6908959560730594 l 25.599219964801915 28.023956657253528" fill="#90ff24" stroke="none" /><path d="M 85.83668400450813 84.49514656593479 l -26.6853074543 -29.212917444868495 a60.56640215601137,60.56640215601137 0 0,0 0.775795080990987,-0.696516483616916 l 26.17850138571304 29.66793293725469" fill="#79ff26" stroke="none" /><path d="M 86.37877921826538 84.01681056812374 l -17.07938069173532 -20.0410067019244 a47.3314867495134,47.3314867495134 0 0,0 0.6246459436736845,-0.5231230139710555 l 16.731877211102525 20.332030873289266" fill="#ffb710" stroke="none" /><path d="M 87.80319425747018 82.90503203632743 l -19.051840322032728 -26.702942297300286 a53.80273993112741,53.80273993112741 0 0,0 0.7585388523183614,-0.5314049410735951 l 18.589370330130706 27.026932081137826" fill="#ddff1b" stroke="none" /><path d="M 88.70189139769569 82.29822771554957 l -14.41570317545102 -22.586390688439366 a47.79472974996257,47.79472974996257 0 0,0 0.6973042768063401,-0.4366518741653148 l 14.024779746272438 22.831186903927613" fill="#ffbe11" stroke="none" /><line stroke="#e1ed5e" stroke-width="0.3" x1="56.762969772571076" x2="54.21961505331055" y1="26.818313649435495" y2="22.513508569990535" /><path d="M 56.25429882871897 25.957352633546506 a86.0,86.0 0 0,1 42.265352541879196,-11.944610805530505" fill="none" id="id156" stroke="none" /><text fill="#e1ed5e" style="font-size:6.75px; font-family:Arial;" text-anchor="middle"><textPath startOffset="22.20632615414155" xlink:href="#id156">December</textPath></text><path d="M 89.63071344664047 81.73862282372117 l -29.68549183595776 -52.27919590129731 a81.11940410241053,81.11940410241053 0 0,0 1.2201745554657986,-0.6790258190617603 l 28.781193191419916 52.78243711791925" fill="#48f6ff" stroke="none" /><path d="M 90.91171255644093 81.06846463323043 l -7.88155046978111 -16.417818251268717 a39.21163347806558,39.21163347806558 0 0,0 0.6109952783122273,-0.28687047571982216 l 7.597776980169274 16.551053709628547" fill="#ff2403" stroke="none" /><path d="M 91.90106846888425 80.62456947434976 l -24.29679459334727 -58.12629157695071 a84.0,84.0 0 0,0 1.338864521646478,-0.5461564552656921 l 23.29264620211241 58.53590891839998" fill="#4dd2ff" stroke="none" /><path d="M 92.23578459929587 80.48803036053334 l -8.883297802123186 -22.324295253020566 a45.02680041922443,45.02680041922443 0 0,0 0.7226090365465839,-0.28036107977512237 l 8.497705600576927 22.47389903668624" fill="#ff8e0d" stroke="none" /><path d="M 94.28887869178378 79.79150937346287 l -15.4066596832366 -54.5156232887264 a77.65084593502021,77.65084593502021 0 0,0 1.289381613385956,-0.35243670161100626 l 14.465980180626921 54.772746531163705" fill="#43ffdb" stroke="none" /><path d="M 94.63758080256005 79.69619591428918 l -13.414210582087271 -50.79041633917671 a73.53196586315318,73.53196586315318 0 0,0 1.2265520971133625,-0.31267543987585766 l 12.53794959628891 51.01379477522143" fill="#3cffa2" stroke="none" /><path d="M 96.75951476605007 79.25152402106235 l -8.148841118083276 -52.17614708542851 a73.80865399011827,73.80865399011827 0 0,0 1.2569649609369085,-0.18524396104446383 l 7.249507176717718 52.308685530633944" fill="#3cffa6" stroke="none" /><path d="M 99.27714615592234 79.0124445844662 l -0.799046254053807 -23.199748709819737 a44.21350501572091,44.21350501572091 0 0,0 0.7608372893980552,-0.019650182496502275 l 0.39958232946087274 23.2100656844586" fill="#ff800b" stroke="none" /><path d="M 99.63851952072746 79.00311137660856 l -0.4527391010422744 -26.29772014015671 a47.301617008534215,47.301617008534215 0 0,0 0.8142195803148037,-0.007008244986064938 l 6.442038216380202e-15 26.301617008534215" fill="#ffb610" stroke="none" /></svg>