<?xml version="1.0" encoding="utf-8" ?>
<svg baseProfile="full" height="200mm" version="1.1" viewBox="0,0,200,200" width="200mm" xmlns="http://www.w3.org/2000/svg" xmlns:ev="http://www.w3.org/2001/xml-events" xmlns:xlink="http://www.w3.org/1999/xlink"><defs /><rect fill="#1a1a1a" height="200" width="200" x="0" y="0" /><text alignment-baseline="middle" fill="#e1ed5e" style="dominant-baseline: central; font-size:9.0px; font-family:Arial;" text-anchor="middle" x="100.0" y="100.0">2024</text><line stroke="#e1ed5e" stroke-width="0.3" x1="100.0" x2="100.0" y1="15.0" y2="10.0" /><path d="M 100.0 14.0 a86.0,86.0 0 0,1 42.35913384403234,11.155469271406648" fill="none" id="id157" stroke="none" /><text fill="#e1ed5e" style="font-size:6.75px; font-family:Arial;" text-anchor="middle"><textPath startOffset="22.145653131862478" xlink:href="#id157">January</textPath></text><path d="M 100.0 79.0 l 0.0 -41.99874579442973 a62.99874579442973,62.99874579442973 0 0,0 1.0814572444401649,0.009283009773235585 l -0.7209643195913101 41.99255718285093" fill="#37ff2e" stroke="none" /><path d="M 101.80034050326958 79.07731436759882 l 3.6292106205345553 -42.17692862506578 a63.33278254464374,63.33278254464374 0 0,0 1.0823887289197462,0.10250333798401835 l -4.3526989128393145 42.10841353157657" fill="#33ff2f" stroke="none" /><path d="M 102.15924093988457 79.11130261209362 l 4.214326262772853 -40.76978366373261 a61.987019967749,61.987019967749 0 0,0 1.0575106581523337,0.11849627500211883 l -4.913572822525984 40.69143162822352" fill="#43ff2d" stroke="none" /><path d="M 104.29559338865022 79.4440306129975 l 3.622148744195191 -17.33329297357964 a38.7077103780534,38.7077103780534 0 0,0 0.6492528743700948,0.14150164212883243 l -3.91916403518442 17.268559873317084" fill="#ff7c0b" stroke="none" /><path d="M 109.06512990194946 81.05736502329252 l 9.34738315525218 -19.532435719347898 a42.653859170631684,42.653859170631684 0 0,0 0.6577626248489646,0.3217446607190961 l -9.681306029363212 19.369097308531583" fill="#ffb911" stroke="none" /><line stroke="#e1ed5e" stroke-width="0.3" x1="143.13028292997686" x2="145.6673583964461" y1="26.7553504044142" y2="22.446841604673864" /><path d="M 143.63769802327073 25.89364864446614 a86.0,86.0 0 0,1 29.32050498858742,28.57503671076993" fill="none" id="id158" stroke="none" /><text fill="#e1ed5e" style="font-size:6.75px; font-family:Arial;" text-anchor="middle"><textPath startOffset="20.669276256404974" xlink:href="#id158">February</textPath></text><path d="M 113.59037401385872 83.9905735841838 l 13.565482723434984 -15.980104538285287 a41.961537695845195,41.961537695845195 0 0,0 0.5451413592443256,0.47088012232517873 l -13.83780356244217 15.74488028349539" fill="#ffae10" stroke="none" /><path d="M 113.86319453409587 84.22622945171908 l 13.91618438798184 -15.834063274789843 a42.08026915649698,42.08026915649698 0 0,0 0.5384971430017311,0.48152746581030775 l -14.185946557806947 15.59284027909615" fill="#ffb010" stroke="none" /><path d="M 114.13192950727249 84.46653392183569 l 14.152748578832648 -15.556349884773455 a42.030937070733216,42.030937070733216 0 0,0 0.5295302206043923,0.49012526676426027 l -14.417708570751007 15.31110687187682" fill="#ffaf10" stroke="none" /><path d="M 114.39649973595853 84.71141617570332 l 14.860228042637287 -15.781047215981337 a42.67643487089646,42.67643487089646 0 0,0 0.5290404858129231,0.5068088180288344 l -15.128941014315522 15.523626267646922" fill="#ffb911" stroke="none" /><path d="M 114.65682725009322 84.96080404539774 l 8.78896087276896 -9.018248120654071 a33.592641993987776,33.592641993987776 0 0,0 0.4095232273639237,0.40602304987172777 l -8.942476020262847 8.866045060553684" fill="#ff2803" stroke="none" /><path d="M 114.91283532996326 85.21462403516908 l 20.871022350668245 -20.69263861614568 a50.39021719655193,50.39021719655193 0 0,0 0.6037544637871335,0.6195052677108358 l -21.22316361560619 20.3313106563671" fill="#d6ff1c" stroke="none" /><path d="M 115.16444852881244 85.47280134310134 l 21.718873923669143 -20.806189918070586 a51.076685712010516,51.076685712010516 0 0,0 0.6011097574195201,0.6383577315641982 l -22.072839514824924 20.430290726561893" fill="#ccff1d" stroke="none" /><line stroke="#e1ed5e" stroke-width="0.3" x1="172.87174338648825" x2="177.1583165268699" y1="56.24261187166439" y2="53.66864786411523" /><path d="M 173.72905801456457 55.72781907015455 a86.0,86.0 0 0,1 12.242430191666344,42.057860355516425" fill="none" id="id159" stroke="none" /><text fill="#e1ed5e" style="font-size:6.75px; font-family:Arial;" text-anchor="middle"><textPath startOffset="22.145653131862474" xlink:href="#id159">March</textPath></text><path d="M 119.31412917781788 91.75594674310238 l 19.7863027485284 -8.445596077057873 a42.513388146761955,42.513388146761955 0 0,0 0.28073848557832853,0.6736701661308048 l -19.92836707864321 8.10469340148579" fill="#ffb610" stroke="none" /><path d="M 119.4528033332814 92.08871423366111 l 20.32802651285608 -8.267231414084819 a42.94483486293325,42.94483486293325 0 0,0 0.2718639642875867,0.6852747846904929 l -20.46694915210979 7.917055612180761" fill="#ffbd11" stroke="none" /><path d="M 120.16314734710363 94.1308016681162 l 25.228921859266407 -7.343771462985581 a47.27602476558301,47.27602476558301 0 0,0 0.2201295709665767,0.7811621896677245 l -25.351269922307566 6.909601349414843" fill="#fffd17" stroke="none" /><path d="M 120.26092885502905 94.47779374421319 l 28.348601496867516 -7.726537398602631 a50.38269196313034,50.38269196313034 0 0,0 0.22026957655192095,0.8363994600251026 l -28.477060554224167 7.2387574342047305" fill="#d6ff1c" stroke="none" /><path d="M 120.51834098615036 95.52812308129327 l 22.0076577673314 -4.796466579386487 a43.524277836395854,43.524277836395854 0 0,0 0.15283713725581455,0.7313810294355899 l -22.08675261541158 4.417969098665493" fill="#ffc612" stroke="none" /><path d="M 120.592083275326 95.88100663000786 l 22.747998266963425 -4.550236748240403 a44.1986223646752,44.1986223646752 0 0,0 0.14243260244944536,0.7452675623044127 l -22.822757161695026 4.159066620902675" fill="#ffd013" stroke="none" /><path d="M 120.7213421655516 96.59031103205396 l 30.547592297610283 -5.026594687849585 a51.95839222790707,51.95839222790707 0 0,0 0.1372654319856687,0.8813425409248595 l -30.62937922173422 4.501463964993284" fill="#c0ff1e" stroke="none" /><path d="M 120.77682067341334 96.94652285012252 l 20.960056753887994 -3.08040654362628 a42.185204355875854,42.185204355875854 0 0,0 0.09914624548578127,0.7173728426881878 l -21.009847515928985 2.7201453927380066" fill="#ffb210" stroke="none" /><path d="M 120.96210409425399 98.7389718711861 l 21.051826623772918 -1.2664256133890743 a42.089884732535694,42.089884732535694 0 0,0 0.037196255266282445,0.7215974151064263 l -21.070464468495775 0.9048564049059175" fill="#ffb010" stroke="none" /><path d="M 120.98066250479742 99.09900007780936 l 22.225777173563742 -0.9544705034661549 a43.24626226832036,43.24626226832036 0 0,0 0.02548504913270766,0.7419693988710903 l -22.238886909693296 0.5727948400309447" fill="#ffc212" stroke="none" /><line stroke="#e1ed5e" stroke-width="0.3" x1="184.99686870605535" x2="189.99668451229388" y1="99.2704041080226" y2="99.22748670261217" /><path d="M 185.99683186730306 99.26182062694052 a86.0,86.0 0 0,1 -10.086455211305974,41.156179273409016" fill="none" id="id160" stroke="none" /><text fill="#e1ed5e" style="font-size:6.75px; font-family:Arial;" text-anchor="middle"><textPath startOffset="21.40746469413373" xlink:href="#id160">April</textPath></text><path d="M 120.98066250479742 100.90099992219065 l 21.412964981205725 0.9195648506106897 a42.43270092174156,42.43270092174156 0 0,0 -0.037499213532007,0.7274747245255315 l -21.394024178217144 -1.2870113685129518" fill="#ffb510" stroke="none" /><path d="M 120.96210409425399 101.26102812881392 l 42.07152006255533 2.5309181741628612 a63.147578188767895,63.147578188767895 0 0,0 -0.0743819498290185,1.0814972259199107 l -42.02187415156124 -3.2527588242371155" fill="#35ff2f" stroke="none" /><path d="M 120.82617615685814 102.69636545807757 l 26.38772832520228 3.4164197324231464 a47.607971173179905,47.607971173179905 0 0,0 -0.1118911634799005,0.8095887204198028 l -26.325192645167167 -3.8688967610430343" fill="#fdff18" stroke="none" /><path d="M 120.77682067341334 103.0534771498775 l 10.111074463211743 1.4859797521203075 a31.219685055045687,31.219685055045687 0 0,0 -0.0824772163222459,0.5295628939516831 l -10.084075754751229 -1.6593308280034413" fill="#ff0000" stroke="none" /><path d="M 120.51834098615036 104.47187691870673 l 42.575016310734014 9.27902664655222 a64.57444605920647,64.57444605920647 0 0,0 -0.24534949602167516,1.0810551494916163 l -42.409455953154676 -10.008516129982853" fill="#31ff3c" stroke="none" /><path d="M 120.16314734710363 105.8691983318838 l 20.578203674011426 5.990015179550932 a42.43228285321813,42.43228285321813 0 0,0 -0.20958250134203188,0.6976319839532545 l -20.472344852665767 -6.34238476709491" fill="#ffb510" stroke="none" /><path d="M 119.83427380445688 106.89939002012753 l 39.6590709396994 13.79548356277137 a62.98996635543787,62.98996635543787 0 0,0 -0.3640215050396989,1.018232936972048 l -39.41640926461576 -14.47425145612434" fill="#37ff2e" stroke="none" /><path d="M 119.0197475246899 108.90220220490707 l 37.93385292480755 17.754958561330756 a62.883358881965314,62.883358881965314 0 0,0 -0.46599785577069536,0.9737562922175452 l -37.62347581107694 -18.403527355613406" fill="#38ff2e" stroke="none" /><line stroke="#e1ed5e" stroke-width="0.3" x1="174.33088141563837" x2="178.70328620479359" y1="141.23008692659167" y2="143.65538615756765" /><path d="M 175.20536237346943 141.71514677278685 a86.0,86.0 0 0,1 -30.301960400862466,31.631185727798858" fill="none" id="id161" stroke="none" /><text fill="#e1ed5e" style="font-size:6.75px; font-family:Arial;" text-anchor="middle"><textPath startOffset="22.145653131862474" xlink:href="#id161">May</textPath></text><path d="M 118.18653347947321 110.5 l 36.34989524939084 20.98662180725049 a62.973243614501,62.973243614501 0 0,0 -0.5485458007378625,0.9315506932195443 l -35.984275738523216 -21.607523668763584" fill="#37ff2e" stroke="none" /><path d="M 118.00360718960297 110.81064883170644 l 18.135862789789385 10.89006451960634 a42.15426728514264,42.15426728514264 0 0,0 -0.3778468351415877,0.6171844089117235 l -17.94624799019239 -11.19978604464262" fill="#ffb110" stroke="none" /><path d="M 117.81537515405839 111.11811171558189 l 17.84871403372396 11.138917642226088 a42.03929844120165,42.03929844120165 0 0,0 -0.3873266907062773,0.6089418910436079 l -17.65486965139179 -11.443673207948368" fill="#ffaf10" stroke="none" /><path d="M 117.21940702142032 112.02048342749411 l 17.314021031452214 12.086531354590694 a42.115386912464416,42.115386912464416 0 0,0 -0.4189175450277483,0.5892599895629788 l -17.103988387894503 -12.381968570863176" fill="#ffb010" stroke="none" /><path d="M 116.57777611688842 112.89097897827486 l 16.573485716746678 12.887642737174389 a41.99456510919552,41.99456510919552 0 0,0 -0.4474092355016977,0.5652869533498043 l -16.34981005060342 -13.170249634438875" fill="#ffaf10" stroke="none" /><path d="M 115.89218393027572 113.72728997021213 l 15.939324847351052 13.768009171612883 a42.06229220998985,42.06229220998985 0 0,0 -0.47668381764374096,0.5423786808370923 l -15.700629965748725 -14.039600130261269" fill="#ffb010" stroke="none" /><path d="M 114.65682725009322 115.03919595460226 l 28.431869706935615 29.173603030328767 a61.73659692221935,61.73659692221935 0 0,0 -0.7653207051379327,0.7331599232673981 l -27.92687651593237 -29.657375083901744" fill="#46ff2d" stroke="none" /><path d="M 114.39649973595853 115.28858382429668 l 14.637248671440707 15.544250850882044 a42.35117755967431,42.35117755967431 0 0,0 -0.533564796765991,0.4938596102267064 l -14.368254103360748 -15.79322820724113" fill="#ffb410" stroke="none" /><path d="M 112.7482090630111 116.68781488649013 l 13.177116974788468 17.249269111135632 a42.70653580458283,42.70653580458283 0 0,0 -0.586395331106038,0.44004198855141946 l -12.879068654771665 -17.472930126951066" fill="#ffb911" stroke="none" /><path d="M 112.45986205192187 116.90419585922612 l 12.505007378382617 16.965444164981108 a42.076088471262764,42.076088471262764 0 0,0 -0.5850960401330328,0.4235644117363388 l -12.211930327875617 -17.177609348090524" fill="#ffb010" stroke="none" /><line stroke="#e1ed5e" stroke-width="0.3" x1="143.1302829299769" x2="145.66735839644613" y1="173.24464959558577" y2="177.55315839532614" /><path d="M 143.63769802327073 174.10635135553383 a86.0,86.0 0 0,1 -40.68552437913181,11.842963189579606" fill="none" id="id162" stroke="none" /><text fill="#e1ed5e" style="font-size:6.75px; font-family:Arial;" text-anchor="middle"><textPath startOffset="21.407464694133747" xlink:href="#id162">June</textPath></text><path d="M 110.65571695917076 118.09573695890943 l 16.44337648808828 27.92444814224095 a53.40616352451673,53.40616352451673 0 0,0 -0.7939907864301603,0.4584107942795375 l -15.96159323379772 -28.20260583379666" fill="#adff20" stroke="none" /><path d="M 109.71004243097381 118.62028667847754 l 8.262167258112553 15.843795125018591 a38.868666759570786,38.868666759570786 0 0,0 -0.594270039275444,0.3034385163957132 l -7.988969997123527 -15.98329159308714" fill="#ff7e0b" stroke="none" /><path d="M 109.3889696526874 118.78422872680471 l 9.390278063580443 18.78684642506052 a42.002926479663955,42.002926479663955 0 0,0 -0.6477246305446667,0.3168345746945523 l -9.066393183773707 -18.945274749852295" fill="#ffaf10" stroke="none" /><path d="M 108.4095320186766 119.2426549942271 l 8.85050885244845 20.25169628854324 a43.101192490692995,43.101192490692995 0 0,0 -0.6805163642019714,0.29047196987346646 l -8.501557413076046 -20.40064290807611" fill="#ffbf11" stroke="none" /><path d="M 108.07796709384702 119.3841803445677 l 8.80582198558224 21.130767118462565 a43.89217813700702,43.89217813700702 0 0,0 -0.6979808132137124,0.2838627203570179 l -8.441786711178086 -21.278817095398875" fill="#ffcb12" stroke="none" /><path d="M 106.72888874123015 119.89276391827305 l 6.763316174617817 19.99454250772969 a42.107443610519404,42.107443610519404 0 0,0 -0.686706762494433,0.22573415256136703 l -6.41908667447565 -20.107697581693074" fill="#ffb010" stroke="none" /><path d="M 106.38641147887787 120.00534299687104 l 6.489649840066166 20.32873569288464 a42.3394716410185,42.3394716410185 0 0,0 -0.6942854123262352,0.2150913954822699 l -6.139723794868307 -20.43714367617355" fill="#ffb410" stroke="none" /><path d="M 106.0420521117495 120.11202640906438 l 10.080030439702975 33.55314298154536 a56.03456033126954,56.03456033126954 0 0,0 -0.9236096199651307,0.26884929954101794 l -9.502560807356238 -33.72123597538889" fill="#8bff24" stroke="none" /><path d="M 105.69591212413111 120.21278271476187 l 9.607790773934518 34.0946600035647 a56.422527921004956,56.422527921004956 0 0,0 -0.9345145055812853,0.25470608409760087 l -9.021094867418537 -34.25456658180644" fill="#86ff25" stroke="none" /><path d="M 104.9986988182912 120.39639698878246 l 5.111547944526839 20.85685993368261 a42.47408970556032,42.47408970556032 0 0,0 -0.709656779849958,0.16747706774936016 l -4.752759010937002 -20.941533145078196" fill="#ffb610" stroke="none" /><path d="M 104.64783097203109 120.47920084513623 l 4.655695948492284 20.51385538260984 a42.03553582449086,42.03553582449086 0 0,0 -0.7050712169018286,0.15366699008638052 l -4.302862314971319 -20.59075383082994" fill="#ffaf10" stroke="none" /><path d="M 103.94208987418118 120.62667999033965 l 3.945150563896553 20.642694812254874 a42.016304672413455,42.016304672413455 0 0,0 -0.709605899611499,0.12931383312544098 l -3.5902099307339967 -20.70737681931168" fill="#ffaf10" stroke="none" /><path d="M 103.2317021107853 120.74984581791261 l 3.4135822618312743 21.9176468596446 a43.18187971571341,43.18187971571341 0 0,0 -0.7334234470125575,0.1077879898873551 l -3.0368337092110314 -21.973015922830836" fill="#ffc111" stroke="none" /><path d="M 101.08105385017728 120.97215588758144 l 0.9537963514992088 18.503394410340913 a39.52796082100695,39.52796082100695 0 0,0 -0.6779501535098279,0.029114096631683864 l -0.6360204373885514 -18.517041075398428" fill="#ff880c" stroke="none" /><line stroke="#e1ed5e" stroke-width="0.3" x1="101.45913802915013" x2="101.54496967792366" y1="184.9874750549273" y2="189.98673829345242" /><path d="M 101.47630435890484 185.9873277026323 a86.0,86.0 0 0,1 -42.54439059252881,-10.42667462771756" fill="none" id="id163" stroke="none" /><text fill="#e1ed5e" style="font-size:6.75px; font-family:Arial;" text-anchor="middle"><textPath startOffset="22.145653131862474" xlink:href="#id163">July</textPath></text><path d="M 99.63950707515114 120.99690560180557 l -0.3674471492158448 21.401954307348948 a42.40510839919572,42.40510839919572 0 0,0 -0.727725546783667,-0.01874362866491487 l 0.7347860100702558 -21.392492961333986" fill="#ffb510" stroke="none" /><path d="M 98.55909050195518 120.95050786540614 l -1.4789180004618423 21.503143148829988 a42.55394079353388,42.55394079353388 0 0,0 -0.7283431293188081,-0.05637836457316149 l 1.8478301245558866 -21.474587017261772" fill="#ffb711" stroke="none" /><path d="M 98.19965949673042 120.92268563240118 l -1.8002688208223596 20.921852573707053 a41.999163862953154,41.999163862953154 0 0,0 -0.717786583232294,-0.06797513571199548 l 2.159154967439669 -20.887865682489874" fill="#ffaf10" stroke="none" /><path d="M 97.12497278360702 120.80226474461374 l -2.8957466894740267 20.95218053043425 a42.15134080547869,42.15134080547869 0 0,0 -0.715920239537552,-0.10521562114458162 l 3.2549920346192636 -20.899383835990786" fill="#ffb110" stroke="none" /><path d="M 96.76829788921471 120.74984581791261 l -3.420466300091577 21.961847323551684 a43.22661304771954,43.22661304771954 0 0,0 -0.7322227965663722,-0.12048698253154176 l 3.796966599711013 -21.899894342524473" fill="#ffc112" stroke="none" /><path d="M 96.41257539226777 120.69131181640829 l -3.581211194882141 20.655474502239198 a41.9636280384623,41.9636280384623 0 0,0 -0.7087162533059791,-0.12915170993289288 l 3.935262181739177 -20.59095461837494" fill="#ffae10" stroke="none" /><path d="M 96.05791012581884 120.62667999033965 l -3.3764116314008574 17.66681239124013 a38.98656208317573,38.98656208317573 0 0,0 -0.6562803196889577,-0.13127444414010303 l 3.679188436620773 -17.606248550437165" fill="#ff800b" stroke="none" /><path d="M 95.70440661134978 120.55596938700252 l -4.279772784304286 20.480262068084016 a41.92265732316697,41.92265732316697 0 0,0 -0.7031778811626855,-0.15325434637425264 l 4.630713082086108 -20.403776263576045" fill="#ffae10" stroke="none" /><path d="M 94.30408787586889 120.21278271476187 l -5.691376349709636 20.196686851478432 a41.98327725906313,41.98327725906313 0 0,0 -0.6920043366967467,-0.2014323770331617 l 6.03724069878799 -20.096010780142752" fill="#ffae10" stroke="none" /><path d="M 93.27111125876986 119.89276391827306 l -6.742016711938268 19.931574430984142 a42.04097071529533,42.04097071529533 0 0,0 -0.6816527555324919,-0.23711421275512218 l 7.083175239515781 -19.81290178566043" fill="#ffaf10" stroke="none" /><path d="M 92.25597844496254 119.51999308798841 l -7.741863200599552 19.514552624863402 a41.99414704067209,41.99414704067209 0 0,0 -0.6677980028735759,-0.27158763415268156 l 8.07571566466357 -19.37877773413143" fill="#ffaf10" stroke="none" /><path d="M 91.26138138417905 119.09545874513695 l -8.764539942765618 19.152101522565747 a42.06229220998985,42.06229220998985 0 0,0 -0.6539911012855713,-0.3061008573482063 l 9.092019757922678 -18.998824433647012" fill="#ffb010" stroke="none" /><path d="M 90.93487009805054 118.94263497670748 l -9.069822091582374 18.952439848388206 a42.01086978160897,42.01086978160897 0 0,0 -0.6478471237314242,-0.31689449225041194 l 9.393829464575868 -18.793951606040576" fill="#ffaf10" stroke="none" /><line stroke="#e1ed5e" stroke-width="0.3" x1="58.13341422392154" x2="55.67067388415222" y1="173.97424548756322" y2="178.32567169271397" /><path d="M 57.64086615596768 174.84453072859336 a86.0,86.0 0 0,1 -31.369924170532247,-30.572349798747897" fill="none" id="id164" stroke="none" /><text fill="#e1ed5e" style="font-size:6.75px; font-family:Arial;" text-anchor="middle"><textPath startOffset="22.145653131862474" xlink:href="#id164">August</textPath></text><path d="M 87.54013794807813 116.9041958592261 l -9.59338187290873 13.015264972936428 a37.168800143337776,37.168800143337776 0 0,0 -0.5103577346240251,-0.38298195859261197 l 9.815392596443521 -12.848663987079801" fill="#ff6309" stroke="none" /><path d="M 86.96720088162412 116.46651593811092 l -13.006853389406965 16.43373435713879 a41.95819314765782,41.95819314765782 0 0,0 -0.5609395430233364,-0.4518531890327831 l 13.287043702785564 -16.208032874312597" fill="#ffae10" stroke="none" /><path d="M 86.68645165197938 116.24036423190432 l -13.358871291372564 16.2956508533862 a42.07148971750513,42.07148971750513 0 0,0 -0.5545937216118783,-0.4626618073778497 l 13.636639347146335 -16.06392686209648" fill="#ffb010" stroke="none" /><path d="M 85.60350026404147 115.28858382429668 l -14.449808428815293 15.345195808754871 a42.07776074535646,42.07776074535646 0 0,0 -0.5216189931044143,-0.49969919589503964 l 14.711099907785023 -15.09488448255425" fill="#ffb010" stroke="none" /><path d="M 84.83555147118756 114.52719865689866 l -15.14573108721688 14.509267771255775 a41.97407975154785,41.97407975154785 0 0,0 -0.49398328308972944,-0.5245931281792755 l 15.392570204042864 -14.24713318313201" fill="#ffae10" stroke="none" /><path d="M 84.1078160697243 113.72728997021213 l -15.89060202030674 13.725923554057738 a41.99790965738289,41.99790965738289 0 0,0 -0.4665876497335516,-0.5496390781681655 l 16.123884233547404 -13.451117693440018" fill="#ffaf10" stroke="none" /><path d="M 83.4222238831116 112.89097897827486 l -18.77215077399639 14.59733798419848 a44.77973761223149,44.77973761223149 0 0,0 -0.4666646205252553,-0.6108789684031204 l 19.019967371875943 -14.27293810255449" fill="#ffd814" stroke="none" /><path d="M 83.20337586046588 112.60449989151573 l -18.887215489902758 14.173318615446295 a44.61376440843304,44.61376440843304 0 0,0 -0.4544187669393626,-0.6165063310043754 l 19.12773627642595 -13.847005975173039" fill="#ffd614" stroke="none" /><path d="M 82.18462484594161 111.11811171558189 l -17.893047650300517 11.166585097869971 a42.09155700662937,42.09155700662937 0 0,0 -0.3772847359332962,-0.616266262098375 l 18.08210035068922 -10.85778171964704" fill="#ffb010" stroke="none" /><path d="M 81.99639281039703 110.81064883170644 l -15.644869778148353 9.39429478815844 a39.24869104736119,39.24869104736119 0 0,0 -0.3418865445503187,-0.5805980961842767 l 15.803830032828442 -9.124345523680605" fill="#ff840c" stroke="none" /><line stroke="#e1ed5e" stroke-width="0.3" x1="26.387840678322732" x2="22.057713659400548" y1="142.50000000000003" y2="145.00000000000006" /><path d="M 25.521815274538298 143.00000000000003 a86.0,86.0 0 0,1 -11.493303480769221,-40.785679425670985" fill="none" id="id165" stroke="none" /><text fill="#e1ed5e" style="font-size:6.75px; font-family:Arial;" text-anchor="middle"><textPath startOffset="21.40746469413373" xlink:href="#id165">September</textPath></text><path d="M 81.81346652052679 110.50000000000001 l -18.37371744572687 10.608070713304544 a42.21614142660907,42.21614142660907 0 0,0 -0.3569608654716458,-0.6307156459588861 l 18.553111676219896 -10.291098297246537" fill="#ffb210" stroke="none" /><path d="M 81.29705330413844 109.54985784667822 l -18.901403238412843 9.651191171363763 a42.22283052298381,42.22283052298381 0 0,0 -0.3240704518162215,-0.6483579898218588 l 19.064293603440802 -9.32530132537815" fill="#ffb210" stroke="none" /><path d="M 80.68587082218212 108.24405325689762 l -19.507151272684887 8.326442911393102 a42.209870398757744,42.209870398757744 0 0,0 -0.27873419665581567,-0.6688606023525407 l 19.647211313877186 -7.990349799599279" fill="#ffb210" stroke="none" /><path d="M 79.83685265289637 105.86919833188381 l -20.368267059917827 5.928905690837293 a42.21363301546853,42.21363301546853 0 0,0 -0.1965577472030008,-0.6975141028397367 l 20.467043299195403 -5.57838366409456" fill="#ffb210" stroke="none" /><path d="M 79.64726062577567 105.17358676015961 l -20.42891374866151 5.192949988263963 a42.078596882403296,42.078596882403296 0 0,0 -0.1719461180572765,-0.7015988384303473 l 20.51504739323508 -4.841495325225516" fill="#ffb010" stroke="none" /><path d="M 79.34024301695615 103.76489593502545 l -15.64853922744658 2.851685127509177 a36.906253110628896,36.906253110628896 0 0,0 -0.10823230159504169,-0.6242551539853063 l 15.695186346533855 -2.582636940603278" fill="#ff5f08" stroke="none" /><path d="M 79.2786578344484 103.40968896794605 l -22.90811596698079 3.769521764806193 a44.21618124265892,44.21618124265892 0 0,0 -0.11681179803269719,-0.7500155384998121 l 22.969449257151755 -3.3757180443749313" fill="#ffd013" stroke="none" /><path d="M 79.0935383218832 101.97986365728391 l -22.823091966737934 2.161370538329332 a43.925205550357354,43.925205550357354 0 0,0 -0.06464614170564927,-0.7512861582564816 l 22.856831731141323 -1.7692633326971885" fill="#ffcc13" stroke="none" /><path d="M 79.03789590574601 101.26102812881392 l -21.54759576362626 1.2962498537392815 a42.58655013836077,42.58655013836077 0 0,0 -0.03763517529028339,-0.7301123463136174 l 21.566672528373115 -0.9261657140489333" fill="#ffb811" stroke="none" /><line stroke="#e1ed5e" stroke-width="0.3" x1="15.003131293944662" x2="10.003315487706104" y1="100.72959589197737" y2="100.7725132973878" /><path d="M 14.003168132696942 100.73817937305945 a86.0,86.0 0 0,1 10.791469493833604,-42.45332614584628" fill="none" id="id166" stroke="none" /><text fill="#e1ed5e" style="font-size:6.75px; font-family:Arial;" text-anchor="middle"><textPath startOffset="22.145653131862435" xlink:href="#id166">October</textPath></text><path d="M 79.00077361379809 99.81974689727619 l -25.517544532009676 -0.21903742981742075 a46.51848460114272,46.51848460114272 0 0,0 0.013708705899074893,-0.7984633923299066 l 25.510024394511937 0.6570477381163797" fill="#fff216" stroke="none" /><path d="M 79.00696218219943 99.45929381324524 l -27.694962016925622 -0.713323980762433 a48.70414684159185,48.70414684159185 0 0,0 0.028701383891240762,-0.8356094760368497 l 27.67863594603753 1.1886397213634212" fill="#edff1a" stroke="none" /><path d="M 79.01933749520258 99.09900007780938 l -21.01950707514135 -0.9026680751790904 a42.03888037267822,42.03888037267822 0 0,0 0.03715118098772808,-0.7207229861441087 l 21.000914304697055 1.263362854699911" fill="#ffaf10" stroke="none" /><path d="M 79.03789590574601 98.7389718711861 l -25.143591283926213 -1.512576014595906 a46.189046604686354,46.189046604686354 0 0,0 0.05440638336010485,-0.7910568734960856 l 25.113920939401044 1.9439763122463165" fill="#ffed16" stroke="none" /><path d="M 79.34024301695615 96.23510406497455 l -22.04376451321331 -4.017108210738863 a43.40680058131433,43.40680058131433 0 0,0 0.13988091121459362,-0.7319160355216112 l 21.97155730971656 4.394926811293789" fill="#ffc412" stroke="none" /><path d="M 79.407916724674 95.88100663000787 l -25.719299248022196 -5.144580160589405 a47.228783022436346,47.228783022436346 0 0,0 0.1658456464311303,-0.7936314549727981 l 25.627195890766696 5.585328066847612" fill="#fffc17" stroke="none" /><path d="M 79.83685265289637 94.1308016681162 l -23.506076835003125 -6.842276385434959 a45.48167466305668,45.48167466305668 0 0,0 0.2246441270690436,-0.7477672374701916 l 23.38515638793045 7.244781226495874" fill="#ffe315" stroke="none" /><path d="M 79.94057633289273 93.78553927170692 l -28.327830965935803 -8.776034445306637 a50.656108777448196,50.656108777448196 0 0,0 0.2644617563539862,-0.8284226850891909 l 28.173004493804562 9.26102616408722" fill="#d2ff1c" stroke="none" /><path d="M 80.68587082218212 91.75594674310238 l -19.43870917530176 -8.297229049838917 a42.13545420158866,42.13545420158866 0 0,0 0.2896634263111808,-0.6628066061907882 l 19.293411866973603 8.62969772580557" fill="#ffb110" stroke="none" /><path d="M 81.29705330413844 90.45014215332179 l -19.62671908248401 -10.021542609426492 a43.03722800660947,43.03722800660947 0 0,0 0.34161707820892995,-0.655095791365787 l 19.451793935300138 10.356984643896764" fill="#ffbe11" stroke="none" /><line stroke="#e1ed5e" stroke-width="0.3" x1="26.387840678322718" x2="22.05771365940052" y1="57.49999999999999" y2="54.99999999999999" /><path d="M 25.521815274538284 56.99999999999999 a86.0,86.0 0 0,1 29.574782752854787,-30.34633250058573" fill="none" id="id167" stroke="none" /><text fill="#e1ed5e" style="font-size:6.75px; font-family:Arial;" text-anchor="middle"><textPath startOffset="21.40746469413373" xlink:href="#id167">November</textPath></text><path d="M 81.99639281039701 89.18935116829357 l -18.150199440216113 -10.898673266262142 a42.170990026079515,42.170990026079515 0 0,0 0.3779967282638222,-0.6174292480619781 l 17.960434747496898 11.208639630448664" fill="#ffb110" stroke="none" /><path d="M 82.37810715431573 88.57770195909679 l -17.64329268768596 -11.436169159943152 a42.02550217992873,42.02550217992873 0 0,0 0.39759239167787935,-0.6020055561251532 l 17.44437585708735 11.737354594407366" fill="#ffaf10" stroke="none" /><path d="M 82.576782715395 88.27688183743585 l -18.36841580943128 -12.359089912937177 a43.139236726324384,43.139236726324384 0 0,0 0.4186771043227939,-0.6108624075238066 l 18.153548968293173 12.67258705553102" fill="#ffc011" stroke="none" /><path d="M 84.34580500576568 86.00192230759919 l -23.97259942150238 -21.436446225091043 a53.159085027174456,53.159085027174456 0 0,0 0.614119821368346,-0.6750252616420455 l 23.60108189929217 21.844809062290746" fill="#b0ff20" stroke="none" /><path d="M 84.58840730492382 85.73525988315684 l -17.286535319344267 -16.000159018597625 a44.554816746630564,44.554816746630564 0 0,0 0.524355382756153,-0.5568472455124049 l 17.009324102851842 16.29454772405454" fill="#ffd513" stroke="none" /><path d="M 85.08716467003674 85.21462403516908 l -17.912265469491008 -17.759170103364628 a46.22374629213036,46.22374629213036 0 0,0 0.5635072634594005,-0.5586909910029011 l 17.60476628590163 18.064041104596203" fill="#ffed16" stroke="none" /><path d="M 85.34317274990677 84.96080404539775 l -7.487292453612157 -7.682621651870232 a31.727638311003165,31.727638311003165 0 0,0 0.39331320051753865,-0.37678514899126236 l 7.354306767229318 7.810018931167063" fill="#ff0901" stroke="none" /><path d="M 85.60350026404147 84.71141617570332 l -17.294944955638577 -18.366632205079704 a46.227926977364575,46.227926977364575 0 0,0 0.5824063434325341,-0.5390666166593074 l 16.97710884089209 18.66081656787138" fill="#ffee16" stroke="none" /><path d="M 86.13680546590413 84.22622945171909 l -18.121426073714144 -20.618856367584254 a48.45037924787482,48.45037924787482 0 0,0 0.629440841528214,-0.5436960073367486 l 17.76480575242308 20.926896507385713" fill="#f1ff19" stroke="none" /><path d="M 86.40962598614128 83.9905735841838 l -16.82218340637614 -19.81648975393259 a46.993828512273296,46.993828512273296 0 0,0 0.6194808508662438,-0.5167929583925682 l 16.479528221347987 20.102344896237042" fill="#fff917" stroke="none" /><path d="M 86.96720088162412 83.53348406188908 l -26.018636467318018 -32.873697214662286 a62.92432959726066,62.92432959726066 0 0,0 0.8527446878035487,-0.6630994270161737 l 25.450481834879227 33.315497693299264" fill="#38ff2e" stroke="none" /><path d="M 87.25179093698888 83.31218511350988 l -25.435000543389037 -33.295232185782474 a62.89882741733193,62.89882741733193 0 0,0 0.8636518517526707,-0.6481004505007625 l 24.859695702725613 33.72695166354723" fill="#38ff2e" stroke="none" /><path d="M 88.12776184653039 82.6780497279521 l -23.841144607486072 -34.78494248356084 a63.170990026079515,63.170990026079515 0 0,0 0.8997465524470689,-0.6053896348992184 l 23.240501766942014 35.189081792517165" fill="#35ff2f" stroke="none" /><path d="M 88.72937992617638 82.28071324371311 l -23.708442983028394 -37.27361023703088 a65.17479245884016,65.17479245884016 0 0,0 0.9491804491714269,-0.5923588013654664 l 23.065098405067268 37.67510483523788" fill="#32ff45" stroke="none" /><path d="M 89.03521579738668 82.08984904055464 l -6.627199307028337 -10.825032014667455 a33.692560371085584,33.692560371085584 0 0,0 0.4958698456387453,-0.2977555948081742 l 6.440396704832158 10.937201610011552" fill="#ff2a04" stroke="none" /><line stroke="#e1ed5e" stroke-width="0.3" x1="56.869717070023135" x2="54.33264160355391" y1="26.7553504044142" y2="22.446841604673864" /><path d="M 56.362301976729285 25.89364864446614 a86.0,86.0 0 0,1 42.16139366436587,-11.88097634709845" fill="none" id="id168" stroke="none" /><text fill="#e1ed5e" style="font-size:6.75px; font-family:Arial;" text-anchor="middle"><textPath startOffset="22.145653131862474" xlink:href="#id168">December</textPath></text><path d="M 89.34428304082924 81.90426304109057 l -13.15444662933604 -22.339126213333877 a46.92442913738528,46.92442913738528 0 0,0 0.6976266770496482,-0.40277494978847633 l 12.76902748442599 22.561648060398525" fill="#fff817" stroke="none" /><path d="M 90.28995756902619 81.37971332152246 l -20.114446360067483 -38.5721030845952 a64.50170213613107,64.50170213613107 0 0,0 0.9861781290024079,-0.5035495794660034 l 19.449341009351492 38.91171061573404" fill="#31ff3b" stroke="none" /><path d="M 91.26138138417902 80.90454125486306 l -26.215855847462933 -57.286376235410835 a84.0,84.0 0 0,0 1.3163463885775248,-0.5887849963606175 l 25.22859605602979 57.7279649826813" fill="#4dd2ff" stroke="none" /><path d="M 91.5904679813234 80.7573450057729 l -16.822914632332978 -38.49412090332485 a63.009615576038705,63.009615576038705 0 0,0 0.994846592952824,-0.42464085329643614 l 16.159632964209724 38.777236406280686" fill="#37ff2e" stroke="none" /><path d="M 93.27111125876988 80.10723608172694 l -13.428976322233218 -39.70038232396566 a62.91011526746432,62.91011526746432 0 0,0 1.02596590719357,-0.33725537196682426 l 12.745487677391887 39.92505861733452" fill="#38ff2e" stroke="none" /></svg>