<?xml version="1.0" encoding="utf-8" ?>
<svg baseProfile="full" height="200mm" version="1.1" viewBox="0,0,200,200" width="200mm" xmlns="http://www.w3.org/2000/svg" xmlns:ev="http://www.w3.org/2001/xml-events" xmlns:xlink="http://www.w3.org/1999/xlink"><defs /><rect fill="#1a1a1a" height="200" width="200" x="0" y="0" /><text alignment-baseline="middle" fill="#e1ed5e" style="dominant-baseline: central; font-size:9.0px; font-family:Arial;" text-anchor="middle" x="100.0" y="100.0">2024</text><line stroke="#e1ed5e" stroke-width="0.3" x1="100.0" x2="100.0" y1="15.0" y2="10.0" /><path d="M 100.0 14.0 a86.0,86.0 0 0,1 42.35913384403234,11.155469271406648" fill="none" id="id157" stroke="none" /><text fill="#e1ed5e" style="font-size:6.75px; font-family:Arial;" text-anchor="middle"><textPath startOffset="22.145653131862478" xlink:href="#id157">January</textPath></text><path d="M 100.0 79.0 l 0.0 -39.97522122775879 a60.97522122775879,60.97522122775879 0 0,0 1.0467207544619401,0.008984838784402193 l -0.6862278296130854 39.96933078716882" fill="#4cff2c" stroke="none" /><path d="M 101.80034050326958 79.07731436759882 l 3.4543530930212274 -40.14481910357462 a61.293163888555526,61.293163888555526 0 0,0 1.0475306324341207,0.09920224000500336 l -4.1429832888403615 40.079605108064435" fill="#48ff2c" stroke="none" /><path d="M 102.15924093988457 79.11130261209362 l 4.011277515402439 -38.80547122389864 a60.012240953505845,60.012240953505845 0 0,0 1.0238205427677867,0.1147212273024243 l -4.676833959771022 38.73089423608925" fill="#57ff2a" stroke="none" /><path d="M 104.29559338865022 79.4440306129975 l 3.4476314620865574 -16.498164602722543 a37.85454235382546,37.85454235382546 0 0,0 0.6349425008904817,0.13838276283421744 l -3.730336379596173 16.436550381754607" fill="#ff750a" stroke="none" /><path d="M 109.06512990194946 81.05736502329252 l 8.897020672017085 -18.591351342245776 a41.610563349145096,41.610563349145096 0 0,0 0.6416740220501007,0.31387491888000424 l -9.214854943329252 18.43588267326855" fill="#ffaf10" stroke="none" /><line stroke="#e1ed5e" stroke-width="0.3" x1="143.13028292997686" x2="145.6673583964461" y1="26.7553504044142" y2="22.446841604673864" /><path d="M 143.63769802327073 25.89364864446614 a86.0,86.0 0 0,1 29.32050498858742,28.57503671076993" fill="none" id="id158" stroke="none" /><text fill="#e1ed5e" style="font-size:6.75px; font-family:Arial;" text-anchor="middle"><textPath startOffset="20.669276256404974" xlink:href="#id158">February</textPath></text><path d="M 113.59037401385872 83.9905735841838 l 12.911889692729249 -15.21017359155023 a40.951598335028194,40.951598335028194 0 0,0 0.5320207791573704,0.45954687774273323 l -13.17108995164948 14.986282581342778" fill="#ffa50f" stroke="none" /><path d="M 113.86319453409587 84.22622945171908 l 13.245694342368655 -15.071168683042087 a41.064609243246316,41.064609243246316 0 0,0 0.5254998411186839,0.46990519832114647 l -13.502459210310713 14.841567954837553" fill="#ffa60f" stroke="none" /><path d="M 114.13192950727249 84.46653392183569 l 13.470860729720174 -14.806835689429485 a41.01765400673315,41.01765400673315 0 0,0 0.5167642905107644,0.47830931245386843 l -13.723054791544904 14.573408630843243" fill="#ffa60f" stroke="none" /><path d="M 114.39649973595853 84.71141617570332 l 14.1442534119235 -15.020706969497889 a41.632051338735856,41.632051338735856 0 0,0 0.516093734920991,0.49440612354171687 l -14.400019632709803 14.775688715650592" fill="#ffaf10" stroke="none" /><path d="M 114.65682725009322 84.96080404539774 l 8.365503507432202 -8.58374355926077 a32.98592100858383,32.98592100858383 0 0,0 0.40212677619772746,0.3986898158569998 l -8.511622203759892 8.438873733175111" fill="#ff2603" stroke="none" /><path d="M 114.91283532996326 85.21462403516908 l 19.865444073049375 -19.69565497301584 a48.9741790413148,48.9741790413148 0 0,0 0.5867880880760993,0.6020962715751936 l -20.200618962276284 19.351736009372907" fill="#e5ff1a" stroke="none" /><path d="M 115.16444852881244 85.47280134310134 l 20.672445652689618 -19.803735305637343 a49.627573095167406,49.627573095167406 0 0,0 0.5840554845856174,0.6202466848121669 l -21.009356971011496 19.44594716088068" fill="#dcff1b" stroke="none" /><line stroke="#e1ed5e" stroke-width="0.3" x1="172.87174338648825" x2="177.1583165268699" y1="56.24261187166439" y2="53.66864786411523" /><path d="M 173.72905801456457 55.72781907015455 a86.0,86.0 0 0,1 12.242430191666344,42.057860355516425" fill="none" id="id159" stroke="none" /><text fill="#e1ed5e" style="font-size:6.75px; font-family:Arial;" text-anchor="middle"><textPath startOffset="22.145653131862474" xlink:href="#id159">March</textPath></text><path d="M 119.31412917781788 91.75594674310238 l 18.832986906879004 -8.038682231921744 a41.476860302802535,41.476860302802535 0 0,0 0.273893741608067,0.6572452723437276 l -18.968206493023555 7.714204450136738" fill="#ffad10" stroke="none" /><path d="M 119.4528033332814 92.08871423366111 l 19.348610097850703 -7.868911284559116 a41.887519659426104,41.887519659426104 0 0,0 0.2651705888526961,0.6684031061581177 l -19.480839361669524 7.535607161187432" fill="#ffb310" stroke="none" /><path d="M 120.16314734710363 94.1308016681162 l 24.013377389849943 -6.989944183473362 a46.01003025498829,46.01003025498829 0 0,0 0.2142347684774694,0.7602436152125506 l -24.129830650401992 6.576692644357799" fill="#ffef16" stroke="none" /><path d="M 120.26092885502905 94.47779374421319 l 26.982749005927555 -7.354268228520704 a48.967016378117876,48.967016378117876 0 0,0 0.21408034271991802,0.8128979310527793 l -27.105018829452202 6.8899897930951255" fill="#e5ff1a" stroke="none" /><path d="M 120.51834098615036 95.52812308129327 l 20.947315718903177 -4.565369965118258 a42.43904472558915,42.43904472558915 0 0,0 0.14902630040438217,0.7131447955630161 l -21.022599730131923 4.2051087182698375" fill="#ffbb11" stroke="none" /><path d="M 120.592083275326 95.88100663000786 l 21.651986172671467 -4.331003633773101 a43.08089893318006,43.08089893318006 0 0,0 0.13883067441076027,0.7264207527760989 l -21.723143139364385 3.958680315963687" fill="#ffc512" stroke="none" /><path d="M 120.7213421655516 96.59031103205396 l 29.07579112122704 -4.784410364361755 a50.46679846640686,50.46679846640686 0 0,0 0.13332488930833994,0.8560414301818257 l -29.153637502673647 4.2845807522484884" fill="#d1ff1d" stroke="none" /><path d="M 120.77682067341334 96.94652285012252 l 19.950188745735833 -2.931990723142697 a41.16448860227007,41.16448860227007 0 0,0 0.09674729693916584,0.7000152460397598 l -19.99758055923021 2.589087168902852" fill="#ffa80f" stroke="none" /><path d="M 120.96210409425399 98.7389718711861 l 20.037537088675617 -1.2054084736607258 a41.07376153510906,41.07376153510906 0 0,0 0.036298272815780366,0.7041767954646255 l -20.055276950947967 0.8612598848193695" fill="#ffa70f" stroke="none" /><path d="M 120.98066250479742 99.09900007780936 l 21.154926002336016 -0.9084835465846304 a42.17442411303617,42.17442411303617 0 0,0 0.02485341424411896,0.7235800382639453 l -21.16740410357698 0.545197243756565" fill="#ffb711" stroke="none" /><line stroke="#e1ed5e" stroke-width="0.3" x1="184.99686870605535" x2="189.99668451229388" y1="99.2704041080226" y2="99.22748670261217" /><path d="M 185.99683186730306 99.26182062694052 a86.0,86.0 0 0,1 -10.086455211305974,41.156179273409016" fill="none" id="id160" stroke="none" /><text fill="#e1ed5e" style="font-size:6.75px; font-family:Arial;" text-anchor="middle"><textPath startOffset="21.40746469413373" xlink:href="#id160">April</textPath></text><path d="M 120.98066250479742 100.90099992219065 l 20.381275585126637 0.8752596688567952 a41.4000606363022,41.4000606363022 0 0,0 -0.036586634371965784,0.7097709326182138 l -20.3632473612981 -1.2250023948517397" fill="#ffac0f" stroke="none" /><path d="M 120.96210409425399 101.26102812881392 l 40.04448918833667 2.4089770303315667 a61.1168827887646,61.1168827887646 0 0,0 -0.07198998029204692,1.046718513817496 l -39.997235246879555 -3.0960389683034064" fill="#4aff2c" stroke="none" /><path d="M 120.82617615685814 102.69636545807757 l 25.116351870628073 3.251814596535149 a46.32598328711921,46.32598328711921 0 0,0 -0.10887815719957242,0.7877881079027488 l -25.05682919687329 -3.682491012637983" fill="#fff417" stroke="none" /><path d="M 120.77682067341334 103.0534771498775 l 9.623916878271157 1.4143843633268207 a30.7272945471542,30.7272945471542 0 0,0 -0.0811764024811459,0.5212107359509345 l -9.598218983651742 -1.5793832812092057" fill="#ff0000" stroke="none" /><path d="M 120.51834098615036 104.47187691870673 l 40.5237266876374 8.831957620586614 a62.47500331604777,62.47500331604777 0 0,0 -0.23737269946521578,1.045907912046117 l -40.36614312661452 -9.52629986657175" fill="#3bff2e" stroke="none" /><path d="M 120.16314734710363 105.8691983318838 l 19.58673357449614 5.701412683422088 a41.39966271056903,41.39966271056903 0 0,0 -0.2044821603308918,0.6806546075231823 l -19.48597509416162 -6.036804894535995" fill="#ffac0f" stroke="none" /><path d="M 119.83427380445688 106.89939002012753 l 37.74827329991676 13.130808954748302 a60.966864787362375,60.966864787362375 0 0,0 -0.352329921121343,0.9855294959219253 l -37.51730320875147 -13.776873407051148" fill="#4cff2c" stroke="none" /><path d="M 119.0197475246899 108.90220220490707 l 36.10617731569422 16.899514091514174 a60.86539372540597,60.86539372540597 0 0,0 -0.451043701719514,0.9425078617327198 l -35.81075435601479 -17.516834455311997" fill="#4dff2c" stroke="none" /><line stroke="#e1ed5e" stroke-width="0.3" x1="174.33088141563837" x2="178.70328620479359" y1="141.23008692659167" y2="143.65538615756765" /><path d="M 175.20536237346943 141.71514677278685 a86.0,86.0 0 0,1 -30.301960400862466,31.631185727798858" fill="none" id="id161" stroke="none" /><text fill="#e1ed5e" style="font-size:6.75px; font-family:Arial;" text-anchor="middle"><textPath startOffset="22.145653131862474" xlink:href="#id161">May</textPath></text><path d="M 118.18653347947321 110.5 l 34.59853566372404 19.975473879017933 a60.95094775803588,60.95094775803588 0 0,0 -0.5309300351167618,0.9016352720207021 l -34.25053191847751 -20.566460319332183" fill="#4cff2c" stroke="none" /><path d="M 118.00360718960297 110.81064883170644 l 17.26206612756193 10.365374730156066 a41.13504209801606,41.13504209801606 0 0,0 -0.3687110812534373,0.602261841513989 l -17.081587081853087 -10.660173687794613" fill="#ffa80f" stroke="none" /><path d="M 117.81537515405839 111.11811171558189 l 16.98875236945171 10.60223796123051 a41.025612521396404,41.025612521396404 0 0,0 -0.3779871530048367,0.5942585865209636 l -16.804247524820983 -10.892310222430146" fill="#ffa60f" stroke="none" /><path d="M 117.21940702142032 112.02048342749411 l 16.479821194235942 11.50419508098948 a41.09803500483196,41.09803500483196 0 0,0 -0.40879804726650243,0.5750256486623623 l -16.279908048439477 -11.785397956361345" fill="#ffa70f" stroke="none" /><path d="M 116.57777611688842 112.89097897827486 l 15.774965311700324 12.266708440402851 a40.98303446794803,40.98303446794803 0 0,0 -0.4366324087930438,0.551670784854573 l -15.56206647226572 -12.535699169172107" fill="#ffa50f" stroke="none" /><path d="M 115.89218393027572 113.72728997021213 l 15.171358690394019 13.10465829610639 a41.04749843672033,41.04749843672033 0 0,0 -0.4651833561960331,0.5292932668201906 l -14.944164270239401 -13.363163840737874" fill="#ffa60f" stroke="none" /><path d="M 114.65682725009322 115.03919595460226 l 27.06200530407999 27.768001474531694 a59.77388343934159,59.77388343934159 0 0,0 -0.7409898326638279,0.7098514978238076 l -26.58134298555085 -28.22846510266108" fill="#5aff2a" stroke="none" /><path d="M 114.39649973595853 115.28858382429668 l 13.932017319530662 14.795319594191342 a41.322465118335536,41.322465118335536 0 0,0 -0.5206044783918402,0.48186373302591107 l -13.675983069824854 -15.032301073349633" fill="#ffaa0f" stroke="none" /><path d="M 112.7482090630111 116.68781488649013 l 12.542235636976768 16.41818905997538 a41.66070199152355,41.66070199152355 0 0,0 -0.5720351856731001,0.429265867704279 l -12.258547462392903 -16.631073954943673" fill="#ffaf10" stroke="none" /><path d="M 112.45986205192187 116.90419585922612 l 11.902508680911643 16.148038968636495 a41.060629985914694,41.060629985914694 0 0,0 -0.5709754134235794,0.4133421669503747 l -11.623552257114095 -16.349981906959947" fill="#ffa60f" stroke="none" /><line stroke="#e1ed5e" stroke-width="0.3" x1="143.1302829299769" x2="145.66735839644613" y1="173.24464959558577" y2="177.55315839532614" /><path d="M 143.63769802327073 174.10635135553383 a86.0,86.0 0 0,1 -40.68552437913181,11.842963189579606" fill="none" id="id162" stroke="none" /><text fill="#e1ed5e" style="font-size:6.75px; font-family:Arial;" text-anchor="middle"><textPath startOffset="21.407464694133747" xlink:href="#id162">June</textPath></text><path d="M 110.65571695917076 118.09573695890943 l 15.651124823109297 26.57903161234906 a51.84481528034815,51.84481528034815 0 0,0 -0.7707781825195712,0.44500899116316667 l -15.192554172729329 -26.843787500788398" fill="#beff1f" stroke="none" /><path d="M 109.71004243097381 118.62028667847754 l 7.864091122635371 15.080431646935187 a38.00774376109297,38.00774376109297 0 0,0 -0.5811072326558274,0.29671749354702665 l -7.604056668265962 -15.21320709215505" fill="#ff770b" stroke="none" /><path d="M 109.3889696526874 118.78422872680471 l 8.937848878134469 17.881684983872287 a40.990992982611274,40.990992982611274 0 0,0 -0.6321196642851951,0.30920140372221333 l -8.629568964587206 -18.032480137691724" fill="#ffa50f" stroke="none" /><path d="M 108.4095320186766 119.2426549942271 l 8.424086068822294 19.275957509170905 a42.03634388362883,42.03634388362883 0 0,0 -0.6637036761850142,0.2832956331032545 l -8.091947317466849 -19.417727791933565" fill="#ffb510" stroke="none" /><path d="M 108.07796709384702 119.3841803445677 l 8.381552241795747 20.11267418335205 a42.78921937077204,42.78921937077204 0 0,0 -0.680441377048233,0.27672958436071815 l -8.035056403557073 -20.25359102429206" fill="#ffc011" stroke="none" /><path d="M 106.72888874123015 119.89276391827305 l 6.43745557633973 19.03119355055431 a41.090474415901866,41.090474415901866 0 0,0 -0.6701215803197089,0.22028227375695877 l -6.109811258372287 -19.13889674571329" fill="#ffa70f" stroke="none" /><path d="M 106.38641147887787 120.00534299687104 l 6.176974648651099 19.349285109163432 a41.311323197806985,41.311323197806985 0 0,0 -0.6774257672205999,0.20986823433164656 l -5.843908248558874 -19.452469931301724" fill="#ffaa0f" stroke="none" /><path d="M 106.0420521117495 120.11202640906438 l 9.594368574289957 31.93653258454668 a54.34657436473999,54.34657436473999 0 0,0 -0.8957867894149136,0.260750479062127 l -9.044721772493437 -32.09652675791133" fill="#9dff22" stroke="none" /><path d="M 105.69591212413111 120.21278271476187 l 9.144881696657514 32.451958994177495 a54.71584944511467,54.71584944511467 0 0,0 -0.9062471476508536,0.24700168999430427 l -8.586453148071966 -32.60416117831594" fill="#99ff23" stroke="none" /><path d="M 104.9986988182912 120.39639698878246 l 4.865270522574911 19.851964009742435 a41.439455283885266,41.439455283885266 0 0,0 -0.6923701155071147,0.16339746203359581 l -4.523768253327917 -19.932557615422255" fill="#ffac0f" stroke="none" /><path d="M 104.64783097203109 120.47920084513623 l 4.431381746995962 19.52548562206924 a41.02203118979794,41.02203118979794 0 0,0 -0.688071482460422,0.14996197708732847 l -4.095547847916404 -19.598679057290287" fill="#ffa60f" stroke="none" /><path d="M 103.94208987418118 120.62667999033965 l 3.7550708618898514 19.648117491319052 a41.003726606072476,41.003726606072476 0 0,0 -0.692504648673443,0.12619741553188543 l -3.4172314796653516 -19.709683080782302" fill="#ffa60f" stroke="none" /><path d="M 103.2317021107853 120.74984581791261 l 3.2491138369650274 20.861641590316022 a42.113143550129166,42.113143550129166 0 0,0 -0.7152714775367001,0.10512027547180303 l -2.890517253820642 -20.91434293908671" fill="#ffb610" stroke="none" /><path d="M 101.08105385017728 120.97215588758144 l 0.9078418756606532 17.61188985590985 a38.63527264229003,38.63527264229003 0 0,0 -0.6626395208531615,0.028456592187808934 l -0.6053765942066622 -17.62487901652349" fill="#ff810b" stroke="none" /><line stroke="#e1ed5e" stroke-width="0.3" x1="101.45913802915013" x2="101.54496967792366" y1="184.9874750549273" y2="189.98673829345242" /><path d="M 101.47630435890484 185.9873277026323 a86.0,86.0 0 0,1 -42.54439059252881,-10.42667462771756" fill="none" id="id163" stroke="none" /><text fill="#e1ed5e" style="font-size:6.75px; font-family:Arial;" text-anchor="middle"><textPath startOffset="22.145653131862474" xlink:href="#id163">July</textPath></text><path d="M 99.63950707515114 120.99690560180557 l -0.3497433268914628 20.370795412088945 a41.373797537913475,41.373797537913475 0 0,0 -0.7100269418569835,-0.018287775383277357 l 0.6993835828191902 -20.361789919355623" fill="#ffab0f" stroke="none" /><path d="M 98.55909050195518 120.95050786540614 l -1.4076628510658493 20.46710891496792 a41.51545909891929,41.51545909891929 0 0,0 -0.7105687236329585,-0.05500251315987869 l 1.758800569474044 -20.43992863481299" fill="#ffad10" stroke="none" /><path d="M 98.19965949673042 120.92268563240118 l -1.7135307976590841 19.91382526569209 a40.98741165101281,40.98741165101281 0 0,0 -0.7004952351079339,-0.0663376270668717 l 2.0551255961520334 -19.881475883120032" fill="#ffa50f" stroke="none" /><path d="M 97.12497278360702 120.80226474461374 l -2.7562278906582804 19.9426920034154 a41.132256617883925,41.132256617883925 0 0,0 -0.6986115850143502,-0.10267184498592458 l 3.0981645812803156 -19.892439085130594" fill="#ffa70f" stroke="none" /><path d="M 96.76829788921471 120.74984581791261 l -3.25566619816512 20.90371244956748 a42.15572160357754,42.15572160357754 0 0,0 -0.7140827880678341,-0.11750205103619016 l 3.6140264892860174 -20.844744400035623" fill="#ffb711" stroke="none" /><path d="M 96.41257539226777 120.69131181640829 l -3.408666308262166 19.660281448234482 a40.95358796369401,40.95358796369401 0 0,0 -0.6916578660563693,-0.12604310353123696 l 3.7456589078695925 -19.598870170771878" fill="#ffa50f" stroke="none" /><path d="M 96.05791012581884 120.62667999033965 l -3.2137341096297356 16.815614856356063 a38.119958817844754,38.119958817844754 0 0,0 -0.6416923530249173,-0.1283564422474608 l 3.501922948185611 -16.757969017445742" fill="#ff790b" stroke="none" /><path d="M 95.70440661134978 120.55596938700252 l -4.073570784577951 19.493510853429328 a40.91459124184411,40.91459124184411 0 0,0 -0.6862693687639531,-0.14956921479482346 l 4.40760256996104 -19.420710180500787" fill="#ffa40f" stroke="none" /><path d="M 94.30408787586889 120.21278271476187 l -5.4171624501285 19.223598459521096 a40.97229047315265,40.97229047315265 0 0,0 -0.6753403865273461,-0.19658174400186104 l 5.746362849037453 -19.12777302121672" fill="#ffa50f" stroke="none" /><path d="M 93.27111125876986 119.89276391827306 l -6.417182334447823 18.97125931321994 a41.027204224329054,41.027204224329054 0 0,0 -0.6652155346435306,-0.2313964940789562 l 6.741903641136375 -18.858304386572392" fill="#ffa60f" stroke="none" /><path d="M 92.25597844496254 119.51999308798841 l -7.368855624256721 18.57432986589613 a40.98263654221486,40.98263654221486 0 0,0 -0.6517127924726795,-0.26504591911485653 l 7.686622877919842 -18.44509669020198" fill="#ffa50f" stroke="none" /><path d="M 91.26138138417905 119.09545874513695 l -8.342259192369799 18.229341873409084 a41.04749843672033,41.04749843672033 0 0,0 -0.638212928901503,-0.2987158759858343 l 8.653960835142792 -18.083449765852723" fill="#ffa60f" stroke="none" /><path d="M 90.93487009805054 118.94263497670748 l -8.632832665577041 18.039300017516087 a40.998553571541365,40.998553571541365 0 0,0 -0.6322362556773167,-0.3092584344145737 l 8.941229170516428 -17.888447833004292" fill="#ffa50f" stroke="none" /><line stroke="#e1ed5e" stroke-width="0.3" x1="58.13341422392154" x2="55.67067388415222" y1="173.97424548756322" y2="178.32567169271397" /><path d="M 57.64086615596768 174.84453072859336 a86.0,86.0 0 0,1 -31.369924170532247,-30.572349798747897" fill="none" id="id164" stroke="none" /><text fill="#e1ed5e" style="font-size:6.75px; font-family:Arial;" text-anchor="middle"><textPath startOffset="22.145653131862474" xlink:href="#id164">August</textPath></text><path d="M 87.54013794807813 116.9041958592261 l -9.131167025058174 12.388181760895328 a36.38977773005476,36.38977773005476 0 0,0 -0.499661125841088,-0.37495502394645414 l 9.34248113981003 -12.22960770968486" fill="#ff5e08" stroke="none" /><path d="M 86.96720088162412 116.46651593811092 l -12.380175452466219 15.641947255767182 a40.94841492916291,40.94841492916291 0 0,0 -0.5474398069778849,-0.44097875727074143 l 12.646866029799364 -15.42712020470303" fill="#ffa50f" stroke="none" /><path d="M 86.68645165197938 116.24036423190432 l -12.715232922422201 15.510516697401645 a41.056252802849905,41.056252802849905 0 0,0 -0.5412106913793612,-0.45149720757391976 l 12.979617947963455 -15.289957305915856" fill="#ffa60f" stroke="none" /><path d="M 85.60350026404147 115.28858382429668 l -13.753608059344389 14.605855142455503 a41.062221688847345,41.062221688847345 0 0,0 -0.5090298141478571,-0.48763904723340695 l 14.00231035935756 -14.367603964916514" fill="#ffa60f" stroke="none" /><path d="M 84.83555147118756 114.52719865689866 l -14.416000749906669 13.810202615280645 a40.963536107023074,40.963536107023074 0 0,0 -0.4820904275421483,-0.5119633277219257 l 14.65094701118507 -13.560697827614229" fill="#ffa50f" stroke="none" /><path d="M 84.1078160697243 113.72728997021213 l -15.12498335815264 13.06460038865105 a40.98621787381333,40.98621787381333 0 0,0 -0.4553479738686962,-0.5363987682611288 l 15.347025895528448 -12.803034837940366" fill="#ffa50f" stroke="none" /><path d="M 83.4222238831116 112.89097897827486 l -17.86769737802211 13.89402955295142 a43.63401570227576,43.63401570227576 0 0,0 -0.45472466935879474,-0.5952491890486421 l 18.1035740247352 -13.585259450661908" fill="#ffcd13" stroke="none" /><path d="M 83.20337586046588 112.60449989151573 l -17.977218207438785 13.490439689728136 a43.47603918621029,43.47603918621029 0 0,0 -0.4428303323059348,-0.600784393800818 l 18.20615055932855 -13.179848986658438" fill="#ffcb12" stroke="none" /><path d="M 82.18462484594161 111.11811171558189 l -17.030949965997788 10.628572382396015 a41.0753532380417,41.0753532380417 0 0,0 -0.3681760643195178,-0.601387931560515 l 17.21089399477271 -10.334647334710944" fill="#ffa70f" stroke="none" /><path d="M 81.99639281039703 110.81064883170644 l -14.891090641661625 8.94167207453187 a38.36945825253757,38.36945825253757 0 0,0 -0.33422774487939877,-0.5675917799695174 l 15.042392096670794 -8.684729126268792" fill="#ff7d0b" stroke="none" /><line stroke="#e1ed5e" stroke-width="0.3" x1="26.387840678322732" x2="22.057713659400548" y1="142.50000000000003" y2="145.00000000000006" /><path d="M 25.521815274538298 143.00000000000003 a86.0,86.0 0 0,1 -11.493303480769221,-40.785679425670985" fill="none" id="id165" stroke="none" /><text fill="#e1ed5e" style="font-size:6.75px; font-family:Arial;" text-anchor="middle"><textPath startOffset="21.40746469413373" xlink:href="#id165">September</textPath></text><path d="M 81.81346652052679 110.50000000000001 l -17.488460804624268 10.096967553262052 a41.19393510652409,41.19393510652409 0 0,0 -0.34831754468539006,-0.615443726316574 l 17.659211714331036 -9.795267056846358" fill="#ffa80f" stroke="none" /><path d="M 81.29705330413844 109.54985784667822 l -17.99072238178224 9.18619103711017 a41.20030191825468,41.20030191825468 0 0,0 -0.3162222970898537,-0.6326564230986935 l 18.145764592083832 -8.876002757847724" fill="#ffa90f" stroke="none" /><path d="M 80.68587082218212 108.24405325689762 l -18.567285115270263 7.925269936689134 a41.187966220526654,41.187966220526654 0 0,0 -0.27198602051863313,-0.652667436210568 l 18.700596980325383 -7.605369991037286" fill="#ffa80f" stroke="none" /><path d="M 79.83685265289637 105.86919833188381 l -19.386911831407065 5.643247486242156 a41.191547552125115,41.191547552125115 0 0,0 -0.19179864921088766,-0.680625742988589 l 19.48092897269253 -5.309613819350571" fill="#ffa80f" stroke="none" /><path d="M 79.64726062577567 105.17358676015961 l -19.444636526595012 4.942750567400795 a41.063017540313666,41.063017540313666 0 0,0 -0.1677961478018638,-0.6846655436074415 l 19.526620200913168 -4.608229199185254" fill="#ffa60f" stroke="none" /><path d="M 79.34024301695615 103.76489593502545 l -14.894583294708896 2.7142892409708144 a36.13988036962879,36.13988036962879 0 0,0 -0.1059848156367813,-0.611292252224212 l 14.938982927837912 -2.45820395582601" fill="#ff5a08" stroke="none" /><path d="M 79.2786578344484 103.40968896794605 l -21.804389306612737 3.5879039628598832 a43.097611813972875,43.097611813972875 0 0,0 -0.11385672361158992,-0.7310418408889475 l 21.862767522362596 -3.2130739400394854" fill="#ffc512" stroke="none" /><path d="M 79.0935383218832 101.97986365728391 l -21.72346181330107 2.0572344195177013 a42.82065550369187,42.82065550369187 0 0,0 -0.06302053977748395,-0.7323941997382686 l 21.755575975776296 -1.6840191724037707" fill="#ffc111" stroke="none" /><path d="M 79.03789590574601 101.26102812881392 l -20.509419776328674 1.2337957643618571 a41.54649730610595,41.54649730610595 0 0,0 -0.03671604541181484,-0.7122814722188481 l 20.52757741119706 -0.8815424987662782" fill="#ffae10" stroke="none" /><line stroke="#e1ed5e" stroke-width="0.3" x1="15.003131293944662" x2="10.003315487706104" y1="100.72959589197737" y2="100.7725132973878" /><path d="M 14.003168132696942 100.73817937305945 a86.0,86.0 0 0,1 10.791469493833604,-42.45332614584628" fill="none" id="id166" stroke="none" /><text fill="#e1ed5e" style="font-size:6.75px; font-family:Arial;" text-anchor="middle"><textPath startOffset="22.145653131862435" xlink:href="#id166">October</textPath></text><path d="M 79.00077361379809 99.81974689727619 l -24.2880940504553 -0.20848407609525318 a45.288988826498056,45.288988826498056 0 0,0 0.013346381199049198,-0.7773597950073501 l 24.280936237657585 0.6253907870716556" fill="#ffe515" stroke="none" /><path d="M 79.00696218219943 99.45929381324524 l -26.36060226512321 -0.6789556068559022 a47.369344559470946,47.369344559470946 0 0,0 0.027914784079880548,-0.8127084807847709 l 26.345062794046477 1.1313703522048115" fill="#fbff18" stroke="none" /><path d="M 79.01933749520258 99.09900007780938 l -20.006774715131133 -0.8591769901210999 a41.025214595663236,41.025214595663236 0 0,0 0.036255370242791476,-0.7033444970101036 l 19.98907775543177 1.2024932805079156" fill="#ffa60f" stroke="none" /><path d="M 79.03789590574601 98.7389718711861 l -23.93215809241157 -1.4396992020483752 a44.975423348766114,44.975423348766114 0 0,0 0.052976848503465575,-0.7702717504203259 l 23.90391728274304 1.8503143766230261" fill="#ffe115" stroke="none" /><path d="M 79.34024301695615 96.23510406497455 l -20.98168282028066 -3.823561546483863 a42.32722759457053,42.32722759457053 0 0,0 0.13640192517816618,-0.713712510499454 l 20.912954602820335 4.1831766220166315" fill="#ffba11" stroke="none" /><path d="M 79.407916724674 95.88100663000787 l -24.48012810418206 -4.896711226809451 a45.965064647140935,45.965064647140935 0 0,0 0.1614080518660067,-0.7723959585513657 l 24.392462341491687 5.316223636646225" fill="#ffef16" stroke="none" /><path d="M 79.83685265289637 94.1308016681162 l -22.373540064155268 -6.5126114372089 a44.30213300825538,44.30213300825538 0 0,0 0.2188181079669008,-0.7283743146891792 l 22.258445636184735 6.895723355488803" fill="#ffd714" stroke="none" /><path d="M 79.94057633289273 93.78553927170692 l -26.96297921153709 -8.353199882937783 a49.22725980760607,49.22725980760607 0 0,0 0.25700212478636647,-0.8050554954500508 l 26.815612370973465 8.814824412079227" fill="#e1ff1b" stroke="none" /><path d="M 80.68587082218212 91.75594674310238 l -18.50214059887032 -7.897463616370384 a41.117135440023745,41.117135440023745 0 0,0 0.28266291552659006,-0.6467880675239427 l 18.36384380132675 8.213913753670194" fill="#ffa70f" stroke="none" /><path d="M 81.29705330413844 90.45014215332179 l -18.68109207683606 -9.538698722483472 a41.975461246454984,41.975461246454984 0 0,0 0.3331890805161503,-0.6389339945167318 l 18.51459492734497 9.85797896010469" fill="#ffb410" stroke="none" /><line stroke="#e1ed5e" stroke-width="0.3" x1="26.387840678322718" x2="22.05771365940052" y1="57.49999999999999" y2="54.99999999999999" /><path d="M 25.521815274538284 56.99999999999999 a86.0,86.0 0 0,1 29.574782752854787,-30.34633250058573" fill="none" id="id167" stroke="none" /><text fill="#e1ed5e" style="font-size:6.75px; font-family:Arial;" text-anchor="middle"><textPath startOffset="21.40746469413373" xlink:href="#id167">November</textPath></text><path d="M 81.99639281039701 89.18935116829357 l -17.27571202963906 -10.373568702274747 a41.150959127342546,41.150959127342546 0 0,0 0.3688537524358386,-0.602494884168276 l 17.09509031274783 10.668600702567566" fill="#ffa80f" stroke="none" /><path d="M 82.37810715431573 88.57770195909679 l -16.79322834611618 -10.88516772392363 a41.01248097220204,41.01248097220204 0 0,0 0.388008460400246,-0.5874942626511792 l 16.603895446795207 11.17184186491387" fill="#ffa60f" stroke="none" /><path d="M 82.576782715395 88.27688183743585 l -17.483414604320515 -11.763621605789771 a42.07255512534661,42.07255512534661 0 0,0 0.40832469204519667,-0.595757928625203 l 17.278900175460002 12.062014269485008" fill="#ffb610" stroke="none" /><path d="M 84.34580500576568 86.00192230759919 l -22.81758531480004 -20.403625488707398 a51.60964117204919,51.60964117204919 0 0,0 0.596219886050735,-0.6553500971208552 l 22.46396772790744 20.792313161385913" fill="#c1ff1e" stroke="none" /><path d="M 84.58840730492382 85.73525988315684 l -16.453659760094652 -15.2292618350663 a43.4199316578344,43.4199316578344 0 0,0 0.5109991813715975,-0.5426634224868723 l 16.189804744986784 15.509466717497684" fill="#ffca12" stroke="none" /><path d="M 85.08716467003674 85.21462403516908 l -17.049241859222768 -16.90352271894648 a45.008451184618586,45.008451184618586 0 0,0 0.5486917697951376,-0.544002124728721 l 16.756558169297655 17.193704853903874" fill="#ffe115" stroke="none" /><path d="M 85.34317274990677 84.96080404539775 l -7.126550247359332 -7.312468368601014 a31.210774312946484,31.210774312946484 0 0,0 0.3869058710051664,-0.37064707225806703 l 6.999971890488865 7.433727571164649" fill="#ff0801" stroke="none" /><path d="M 85.60350026404147 84.71141617570332 l -16.46166421510756 -17.481716935088055 a45.012430441950215,45.012430441950215 0 0,0 0.5670928102734066,-0.5248926389849946 l 16.159141633520203 17.761727320205416" fill="#ffe115" stroke="none" /><path d="M 86.13680546590413 84.22622945171909 l -17.24832498105877 -19.6254275970994 a47.12780363944139,47.12780363944139 0 0,0 0.6122586622165104,-0.5288544500802537 l 16.90888683907941 19.918626179644363" fill="#ffff18" stroke="none" /><path d="M 86.40962598614128 83.9905735841838 l -16.011680598638463 -18.861719484397927 a45.74143038510368,45.74143038510368 0 0,0 0.6029715201306197,-0.5030202875182159 l 15.685534744345933 19.133801955828027" fill="#ffec16" stroke="none" /><path d="M 86.96720088162412 83.53348406188908 l -24.765043078110637 -31.289822919063823 a60.90439044725589,60.90439044725589 0 0,0 0.8253706594924396,-0.6418132170311251 l 24.22426247398295 31.71033718771575" fill="#4dff2c" stroke="none" /><path d="M 87.25179093698888 83.31218511350988 l -24.209527080329984 -31.691048084411527 a60.880116977532985,60.880116977532985 0 0,0 0.8359333221540666,-0.6272999491371429 l 23.661940769265165 32.10196706081267" fill="#4dff2c" stroke="none" /><path d="M 88.12776184653039 82.6780497279521 l -22.692464071954436 -33.108983253486485 a61.139166629821695,61.139166629821695 0 0,0 0.8708072229350644,-0.5859179624823004 l 22.120760560922385 33.4936508900259" fill="#4aff2c" stroke="none" /><path d="M 88.72937992617638 82.28071324371311 l -22.566156090736524 -35.477745513538274 a63.04642466886894,63.04642466886894 0 0,0 0.9181837245380081,-0.5730145526863712 l 21.95380823740882 35.859895863066185" fill="#34ff2f" stroke="none" /><path d="M 89.03521579738668 82.08984904055464 l -6.307896900436589 -10.303475530007281 a33.08102525880963,33.08102525880963 0 0,0 0.4868695850949611,-0.2923511969501214 l 6.130094558784193 10.410240727493326" fill="#ff2803" stroke="none" /><line stroke="#e1ed5e" stroke-width="0.3" x1="56.869717070023135" x2="54.33264160355391" y1="26.7553504044142" y2="22.446841604673864" /><path d="M 56.362301976729285 25.89364864446614 a86.0,86.0 0 0,1 42.16139366436587,-11.88097634709845" fill="none" id="id168" stroke="none" /><text fill="#e1ed5e" style="font-size:6.75px; font-family:Arial;" text-anchor="middle"><textPath startOffset="22.145653131862474" xlink:href="#id168">December</textPath></text><path d="M 89.34428304082924 81.90426304109057 l -12.52065756225981 -21.262813817913738 a45.675374713398725,45.675374713398725 0 0,0 0.6790569532772247,-0.3920537147696907 l 12.153808141122186 21.474614429959605" fill="#ffeb16" stroke="none" /><path d="M 90.28995756902619 81.37971332152246 l -19.14532036392929 -36.71367620294783 a62.405764238477516,62.405764238477516 0 0,0 0.9541329573873878,-0.48718708650848636 l 18.512260184828317 37.03692124112915" fill="#3cff2e" stroke="none" /><path d="M 91.26138138417902 80.90454125486306 l -24.95276031115096 -54.52628453611816 a80.96462250743741,80.96462250743741 0 0,0 1.2687796242881884,-0.5675089877188132 l 24.013067284007153 54.94659727474682" fill="#49f3ff" stroke="none" /><path d="M 91.5904679813234 80.7573450057729 l -16.01237659369353 -36.63945124957984 a60.98556729682102,60.98556729682102 0 0,0 0.962889287450432,-0.41100017987631404 l 15.381052231072667 36.90892607911556" fill="#4cff2c" stroke="none" /><path d="M 93.27111125876988 80.10723608172694 l -12.781960251175084 -37.78759427710385 a60.890860972328376,60.890860972328376 0 0,0 0.9930350175273245,-0.326430334442948 l 12.131402495999998 38.00144553294882" fill="#4dff2c" stroke="none" /><path d="M 93.95794788825049 79.88797359093562 l -18.126156335248517 -60.33607922719316 a84.0,84.0 0 0,0 1.3845599504735029,-0.4030252227899176 l 17.08773637239339 60.638348144285594" fill="#4dd2ff" stroke="none" /><path d="M 95.70440661134978 79.44403061299748 l -4.864745064762132 -23.279566192424106 a44.78242936818236,44.78242936818236 0 0,0 0.7538450556244413,-0.15079012378698844 l 4.464403523606713 23.359645712873963" fill="#ffde14" stroke="none" /><path d="M 96.05791012581881 79.37332000966035 l -7.513951324216493 -39.316168421907186 a61.02774742453623,61.02774742453623 0 0,0 1.0306867762430032,-0.1878254646144495 l 6.837929814422452 39.439362060453" fill="#4bff2c" stroke="none" /><path d="M 96.41257539226777 79.30868818359171 l -4.099658112336129 -23.645738550206865 a44.998503041289524,44.998503041289524 0 0,0 0.7622371362248288,-0.12542583070054822 l 3.693143473058227 23.712630379403084" fill="#ffe115" stroke="none" /></svg>