<?xml version="1.0" encoding="utf-8" ?>
<svg baseProfile="full" height="200mm" version="1.1" viewBox="0,0,200,200" width="200mm" xmlns="http://www.w3.org/2000/svg" xmlns:ev="http://www.w3.org/2001/xml-events" xmlns:xlink="http://www.w3.org/1999/xlink"><defs /><rect fill="#1a1a1a" height="200" width="200" x="0" y="0" /><text alignment-baseline="middle" fill="#e1ed5e" style="dominant-baseline: central; font-size:9.0px; font-family:Arial;" text-anchor="middle" x="100.0" y="100.0">2015</text><line stroke="#e1ed5e" stroke-width="0.3" x1="100.0" x2="100.0" y1="15.0" y2="10.0" /><path d="M 100.0 14.0 a86.0,86.0 0 0,1 42.46469731375804,11.215312516191453" fill="none" id="id49" stroke="none" /><text fill="#e1ed5e" style="font-size:6.75px; font-family:Arial;" text-anchor="middle"><textPath startOffset="22.20632615414155" xlink:href="#id49">January</textPath></text><path d="M 100.72285384407766 79.0124445844662 l 0.643178424163981 -18.67423536557551 a39.68530826543199,39.68530826543199 0 0,0 0.6825101380722,0.02939032224360153 l -0.9645293946255125 18.660397316807714" fill="#ffba11" stroke="none" /><path d="M 106.74666289553966 80.11325718540242 l 4.0679095408557675 -11.990738545055992 a33.661978474491136,33.661978474491136 0 0,0 0.5471161443894541,0.19087807987037722 l -4.2737076893084955 11.918939612013407" fill="#ff6209" stroke="none" /><line stroke="#e1ed5e" stroke-width="0.3" x1="143.23703022742887" x2="145.7803849466894" y1="26.81831364943548" y2="22.513508569990506" /><path d="M 143.74570117128098 25.957352633546492 a86.0,86.0 0 0,1 28.547481713284135,27.462654790039103" fill="none" id="id50" stroke="none" /><text fill="#e1ed5e" style="font-size:6.75px; font-family:Arial;" text-anchor="middle"><textPath startOffset="19.985693538727396" xlink:href="#id50">February</textPath></text><path d="M 114.16331599549186 84.49514656593476 l 11.933543092433077 -13.063878307606096 a38.693907628754545,38.693907628754545 0 0,0 0.48789722310783984,0.453447295918475 l -12.156648199335763 12.85652642561298" fill="#ffac0f" stroke="none" /><path d="M 114.42810811169701 84.74124197986012 l 12.297208504521912 -13.005179018695067 a38.8984920681043,38.8984920681043 0 0,0 0.4825575705690723,0.4642200005575896 l -12.519249318703405 12.791575931375176" fill="#ffae10" stroke="none" /><path d="M 115.19652480421416 85.50635884689758 l 21.27180538158185 -20.287922261922905 a50.39539919609396,50.39539919609396 0 0,0 0.5933042620770423,0.6328956198404319 l -21.617876965629353 19.91875722520442" fill="#b7ff1f" stroke="none" /><path d="M 115.4437574822437 85.77008943001954 l 12.952382691887385 -11.934352607235017 a38.61229654391843,38.61229654391843 0 0,0 0.446167586038156,0.4926693921935509 l -13.155893918541576 11.709630427771918" fill="#ffaa0f" stroke="none" /><path d="M 115.9244219780498 86.31012108654704 l 14.371597987311498 -12.354949932268324 a39.952245685874615,39.952245685874615 0 0,0 0.44383023266045984,0.5253550042082576 l -14.582138833459075 12.10573597843096" fill="#ffbd11" stroke="none" /><path d="M 116.82858285166822 87.43820079747576 l 16.15157816096066 -12.056444886073754 a41.15518147724191,41.15518147724191 0 0,0 0.4188762366892038,0.5713467161014911 l -16.356717010163493 11.77663572630077" fill="#ffce13" stroke="none" /><line stroke="#e1ed5e" stroke-width="0.3" x1="172.23445277983987" x2="176.4835382374775" y1="55.19839476539836" y2="52.563006222186495" /><path d="M 173.08426987136738 54.67131705675599 a86.0,86.0 0 0,1 12.851231095245387,41.99856678651699" fill="none" id="id51" stroke="none" /><text fill="#e1ed5e" style="font-size:6.75px; font-family:Arial;" text-anchor="middle"><textPath startOffset="22.20632615414155" xlink:href="#id51">March</textPath></text><path d="M 117.84615892207809 88.93136811851018 l 18.143461543466245 -11.253026365922903 a42.34984307135288,42.34984307135288 0 0,0 0.3788984027697536,0.622809349526503 l -18.334475744522223 10.939049243189318" fill="#ffdf14" stroke="none" /><path d="M 118.89224826269711 90.83032412892265 l 21.23712775424689 -10.307803244551655 a44.60649069596312,44.60649069596312 0 0,0 0.32932718494681046,0.6936470404012585 l -21.411413133035456 9.940713788509855" fill="#fffd17" stroke="none" /><path d="M 119.04729006885535 91.15688171328212 l 19.287774010089915 -8.954768181831865 a42.265138124513754,42.265138124513754 0 0,0 0.3006816051917364,0.6625120601828659 l -19.439057932245 8.621434112806936" fill="#ffdd14" stroke="none" /><path d="M 119.47837535516314 92.15188598940014 l 22.070576653791598 -8.892548721355572 a44.79470059892692,44.79470059892692 0 0,0 0.28200706429981887,0.7176772186621126 l -22.220377267973117 8.511322497797677" fill="#ffff18" stroke="none" /><path d="M 119.97218684219823 93.5106431181261 l 20.33175834962343 -6.606188746840503 a42.378075856970014,42.378075856970014 0 0,0 0.21944682656668882,0.695706409469476 l -20.442460659958325 6.255232170944607" fill="#ffdf14" stroke="none" /><path d="M 120.37134235888165 94.90015583598534 l 23.20266360263529 -5.808648565169506 a44.918695541577975,44.918695541577975 0 0,0 0.1813158112855419,0.7516710946621568 l -23.29921221418165 5.408392238847942" fill="#fdff18" stroke="none" /><path d="M 120.53481517161879 95.60439243477599 l 22.621280730012213 -4.842228765191239 a44.13373124423441,44.13373124423441 0 0,0 0.15262012556450488,0.7442299341868972 l -22.701280151491716 4.45212317484093" fill="#fff717" stroke="none" /><path d="M 120.6074358757038 95.95851677861258 l 20.83959854293901 -4.087014433029821 a42.23658528122306,42.23658528122306 0 0,0 0.13377789973809734,0.7146468896924095 l -20.90686216658697 3.7276894658748483" fill="#ffdd14" stroke="none" /><path d="M 120.73433829027371 96.67025291283417 l 23.642087512974562 -3.796705297693273 a44.94500518038532,44.94500518038532 0 0,0 0.11609531668457333,0.7649230830958169 l -23.703938723098435 3.389183102205373" fill="#fdff18" stroke="none" /><path d="M 120.87857604477298 97.74499172005257 l 23.85169142891931 -2.576122123827961 a44.99040619116856,44.99040619116856 0 0,0 0.07653269647012359,0.7706738090719054 l -23.89250125107166 2.1651727840516206" fill="#fcff18" stroke="none" /><path d="M 120.91429891909075 98.10471618934814 l 23.16371138443157 -2.0991287994574597 a44.25862994283963,44.25862994283963 0 0,0 0.06222661402401456,0.7593223053265069 l -23.196412482275075 1.7000925769231843" fill="#fff817" stroke="none" /><path d="M 120.96714384426684 98.82574320788733 l 22.52380404719525 -1.261436945493453 a43.559099537080485,43.559099537080485 0 0,0 0.035482810556067675,0.748986049921095 l -22.542180465984814 0.8735397889493584" fill="#ffef16" stroke="none" /><line stroke="#e1ed5e" stroke-width="0.3" x1="184.98032266829074" x2="189.97916517819016" y1="98.17113171792111" y2="98.06355123074" /><path d="M 185.9800911702706 98.14961562048488 a86.0,86.0 0 0,1 -9.607161424134198,41.387399972396054" fill="none" id="id52" stroke="none" /><text fill="#e1ed5e" style="font-size:6.75px; font-family:Arial;" text-anchor="middle"><textPath startOffset="21.466115282336823" xlink:href="#id52">April</textPath></text><path d="M 120.99513854157772 99.54816195383933 l 29.439083168938065 -0.6335608499783106 a50.445899836450536,50.445899836450536 0 0,0 0.011210983594149947,0.8683030343043097 l -29.44562715964993 0.12672155761353832" fill="#b6ff1f" stroke="none" /><path d="M 120.9904718944345 100.63252640178507 l 25.33053144590364 0.763309657417907 a46.34202961416115,46.34202961416115 0 0,0 -0.030889979711649286,0.7971331198183688 l -25.313639333340788 -1.199220024250282" fill="#eaff1a" stroke="none" /><path d="M 120.89721153311464 102.0752229133903 l 23.812186253417703 2.3646980101964226 a44.929312795123934,44.929312795123934 0 0,0 -0.08305011989743108,0.768940965416964 l -23.767953832019224 -2.774235297498178" fill="#fdff18" stroke="none" /><path d="M 120.76222939487914 103.15116336523771 l 23.741950822065377 3.6034071402862025 a45.01384542000794,45.01384542000794 0 0,0 -0.12286260232985748,0.7650655419895349 l -23.676406465374228 -4.011551911968942" fill="#fcff18" stroke="none" /><path d="M 120.49622156327973 104.57218783832717 l 23.723367980795846 5.2920824568115306 a45.30646673381267,45.30646673381267 0 0,0 -0.17634880716705154,0.759706045798573 l -23.62875860769824 -5.699657159958669" fill="#f8ff18" stroke="none" /><path d="M 120.32669344350535 105.2749913415812 l 24.76073546702365 6.4256720141300185 a46.580916357728405,46.580916357728405 0 0,0 -0.2080878747276799,0.7743723924511621 l -24.646459515954195 -6.850935339756728" fill="#e7ff1a" stroke="none" /><path d="M 119.9155931802556 106.66101706037122 l 24.27840593848068 8.120213879201275 a46.60036851995742,46.60036851995742 0 0,0 -0.26098241044625803,0.7585370479152146 l -24.13503269709119 -8.536923630205791" fill="#e7ff1a" stroke="none" /><path d="M 119.54520255179757 107.68017299344265 l 24.225563265500984 9.51929335342321 a47.02873146120106,47.02873146120106 0 0,0 -0.30254565119997584,0.750893494690061 l -24.058115000043617 -9.934886215956084" fill="#e1ff1b" stroke="none" /><path d="M 119.12269723197855 108.67885076344098 l 23.436285376918384 10.636576041979406 a46.7370593146375,46.7370593146375 0 0,0 -0.33878889342620105,0.7297211363651737 l -23.24972186665235 -11.03841724562341" fill="#e5ff1a" stroke="none" /><path d="M 118.64920377521936 109.65438752849418 l 23.554796791181236 12.193932733963067 a47.52395987393771,47.52395987393771 0 0,0 -0.38233589618679065,0.7232354285409305 l -23.34140838676955 -12.597583177590131" fill="#dbff1b" stroke="none" /><line stroke="#e1ed5e" stroke-width="0.3" x1="174.80103733775053" x2="179.2010983576182" y1="140.37084112569926" y2="142.7455964860345" /><path d="M 175.68104954172406 140.8457921977663 a86.0,86.0 0 0,1 -30.038265399797805,32.042727171017184" fill="none" id="id53" stroke="none" /><text fill="#e1ed5e" style="font-size:6.75px; font-family:Arial;" text-anchor="middle"><textPath startOffset="22.206326154141568" xlink:href="#id53">May</textPath></text><path d="M 118.12598468904814 110.60418214915192 l 22.87938180840715 13.385045630262152 a47.50708506152783,47.50708506152783 0 0,0 -0.4190105092012389,0.7022857148607353 l -22.645590423507684 -13.776893439008992" fill="#dbff1b" stroke="none" /><path d="M 117.75023020441432 111.22182372390056 l 22.540732882153197 14.25041411283477 a47.667563466726065,47.667563466726065 0 0,0 -0.4444322429262264,0.6897687105672056 l -22.29209577584992 -14.636304423323429" fill="#d9ff1c" stroke="none" /><path d="M 117.14729908036423 112.12312394758627 l 11.453382818037982 8.097530629837243 a35.02675943608074,35.02675943608074 0 0,0 -0.35230282859518036,0.4893178156425512 l -11.312300197067199 -8.293482050930926" fill="#ff760a" stroke="none" /><path d="M 116.27256486870786 113.27417163493432 l 22.133449802929665 18.055126154222638 a49.56356386419071,49.56356386419071 0 0,0 -0.5449726264654029,0.6564546355308265 l -21.81938117657072 -18.433442046867235" fill="#c1ff1e" stroke="none" /><path d="M 115.32070863581623 114.36230785411682 l 19.60338575408524 18.37707823285553 a47.8702388787291,47.8702388787291 0 0,0 -0.5687290944841378,0.5963101818176626 l -19.28415010822214 -18.7117955312557" fill="#d6ff1c" stroke="none" /><path d="M 114.55890576462653 115.13401014063108 l 18.36135938272397 19.08666788468937 a47.4847202991079,47.4847202991079 0 0,0 -0.593930211264336,0.5615980860050596 l -18.030093337068823 -19.399900607440347" fill="#dbff1b" stroke="none" /><path d="M 114.0293411484842 115.62618273729858 l 20.474902889825675 22.805388414082937 a51.64812211318958,51.64812211318958 0 0,0 -0.6666484979425907,0.5882397895425647 l -20.079312038976497 -23.154451345397792" fill="#a7ff21" stroke="none" /><path d="M 113.48314897796784 116.09983520530334 l 10.694515262390057 12.770008965000107 a37.65670392555733,37.65670392555733 0 0,0 -0.5005290917224496,0.41190136664050336 l -10.473116042122916 -12.952205450497788" fill="#ff9d0e" stroke="none" /><path d="M 113.20401910651253 116.32954008644616 l 8.822691935841922 10.911109751851013 a35.031828427247405,35.031828427247405 0 0,0 -0.4721665025116038,0.37511762588948033 l -8.633567940612968 -11.06136129174562" fill="#ff760a" stroke="none" /><path d="M 112.63410532772338 116.77436683061366 l 17.72663200644323 23.53574077737706 a50.46463263357863,50.46463263357863 0 0,0 -0.6983705097916066,0.5166378074629426 l -17.318876526233055 -23.837388533579773" fill="#b6ff1f" stroke="none" /><path d="M 111.7513745106137 117.40417183066458 l 16.190558117304995 23.97874863518595 a49.93293207159037,49.93293207159037 0 0,0 -0.7164788475842322,0.4748431117813986 l -15.775404570980799 -24.253889768058666" fill="#bcff1f" stroke="none" /><path d="M 111.45004920935366 117.60387380957326 l 8.869674724493676 13.63667803754024 a37.26745578195479,37.26745578195479 0 0,0 -0.5407653318177602,0.34514202019223444 l -8.633627590628986 -13.787334486556283" fill="#ff970d" stroke="none" /><line stroke="#e1ed5e" stroke-width="0.3" x1="143.8653032363475" x2="146.44561519142675" y1="172.8068346515853" y2="177.08958963109032" /><path d="M 144.38136562736335 173.6633856474863 a86.0,86.0 0 0,1 -40.68145358897372,12.25698825130547" fill="none" id="id54" stroke="none" /><text fill="#e1ed5e" style="font-size:6.75px; font-family:Arial;" text-anchor="middle"><textPath startOffset="21.466115282336833" xlink:href="#id54">June</textPath></text><path d="M 110.21172684928248 118.3499491758327 l 15.216343254752735 27.34298806536881 a52.29178963225594,52.29178963225594 0 0,0 -0.7902962455162609,0.43093252533682874 l -14.743424197367824 -27.600861242465413" fill="#9fff22" stroke="none" /><path d="M 109.57404056367764 118.69057910512821 l 14.431824715552356 28.174014898236653 a52.65521568567317,52.65521568567317 0 0,0 -0.8102536756641285,0.4062780135683813 l -13.944717132205467 -28.418260752714335" fill="#9bff22" stroke="none" /><path d="M 108.92500713936063 119.00905698771935 l 11.828113772854088 25.19228111021082 a48.83083367345408,48.83083367345408 0 0,0 -0.763928174051793,0.35068195639634014 l -11.392717603034875 -25.392150136941233" fill="#caff1d" stroke="none" /><path d="M 108.2653958097858 119.30500536409082 l 11.728872150961886 27.394446073711073 a50.79969995854108,50.79969995854108 0 0,0 -0.8068166564351948,0.33724942782467976 l -11.25558403502923 -27.592280544555727" fill="#b2ff20" stroke="none" /><path d="M 106.57524785965236 119.94407469862006 l 10.604039828963273 32.16422665276792 a54.867139484533766,54.867139484533766 0 0,0 -0.8995040466877638,0.2879927903478558 l -10.04881443718457 -32.34199228977548" fill="#81ff25" stroke="none" /><path d="M 105.18746579009965 120.34920634021253 l 7.486117337052575 29.366274890807272 a51.30544594205102,51.30544594205102 0 0,0 -0.8576480129877029,0.21078901511989145 l -6.979516039321662 -29.490785164241192" fill="#abff21" stroke="none" /><path d="M 103.7750983002368 120.6578951692458 l 5.050519554530451 27.637188547162154 a49.094873884075106,49.094873884075106 0 0,0 -0.8326280871077782,0.14476306563018387 l -4.574042495950623 -27.720030191313345" fill="#c7ff1e" stroke="none" /><path d="M 102.70371172650421 120.8252237178851 l 3.9736728155757897 30.607044587937644 a51.86391507980232,51.86391507980232 0 0,0 -0.8863112788253826,0.10731995276314804 l -3.4462341136990267 -30.670910069426142" fill="#a5ff21" stroke="none" /><path d="M 101.26447882468166 120.96189622390904 l 1.7401441648600282 28.847237839368255 a49.89967530398181,49.89967530398181 0 0,0 -0.8578275317633649,0.04433988493693726 l -1.2433285646831838 -28.872917531067394" fill="#bdff1f" stroke="none" /><line stroke="#e1ed5e" stroke-width="0.3" x1="102.19456741930631" x2="102.32365962044197" y1="184.97166512339345" y2="189.96999836594603" /><path d="M 102.22038585953345 185.97133177190398 a86.0,86.0 0 0,1 -42.740103519485714,-10.115201625700543" fill="none" id="id55" stroke="none" /><text fill="#e1ed5e" style="font-size:6.75px; font-family:Arial;" text-anchor="middle"><textPath startOffset="22.20632615414155" xlink:href="#id55">July</textPath></text><path d="M 100.54218724476979 120.99299961872073 l 0.773033955911109 29.93117543477145 a50.94115636384235,50.94115636384235 0 0,0 -0.8767708263511081,0.015094404899994739 l -0.25770343966733295 -29.940047316950604" fill="#b0ff20" stroke="none" /><path d="M 99.45781275523022 120.99299961872073 l -0.7912374429922965 30.63599798646658 a51.646213947533184,51.646213947533184 0 0,0 -0.8885107624905206,-0.030602107175154384 l 1.3184685571574601 -30.617839080865334" fill="#a7ff21" stroke="none" /><path d="M 99.09653310690486 120.98055641714683 l -0.6366062072729318 14.783444251552844 a35.79714470436473,35.79714470436473 0 0,0 -0.6153903026192646,-0.03180864940689843 l 0.8909845783056853 -14.770295795383744" fill="#ff820b" stroke="none" /><path d="M 97.65516085044442 120.86867818915974 l -2.943019440543858 26.19238322628273 a47.35720589326334,47.35720589326334 0 0,0 -0.809295357904826,-0.09799439729221734 l 3.3934422215000732 -26.13784330026516" fill="#ddff1b" stroke="none" /><path d="M 96.58105272829116 120.7198165907248 l -4.817493456699762 29.195413943879117 a50.59020849132017,50.59020849132017 0 0,0 -0.8579883232203386,-0.14917226774767658 l 5.319330751392151 -29.108163097610436" fill="#b4ff20" stroke="none" /><path d="M 95.86986931433489 120.58985236759428 l -6.01136690818219 29.968339160914706 a51.565305235976325,51.565305235976325 0 0,0 -0.868773585070875,-0.1820599516789531 l 6.526331954682452 -29.860423228509212" fill="#a8ff21" stroke="none" /><path d="M 95.51606077576429 120.51570834832081 l -3.480212842573955 15.923282653434658 a37.29916598758322,37.29916598758322 0 0,0 -0.6260573550035311,-0.14248861573104638 l 3.7537903469703484 -15.861017304125925" fill="#ff980e" stroke="none" /><path d="M 94.46302465271185 120.25689768951611 l -8.094630854749905 29.614021875567488 a51.70038013317195,51.70038013317195 0 0,0 -0.8564262307368548,-0.242034607416632 l 8.603188253591373 -29.470298474812335" fill="#a7ff21" stroke="none" /><path d="M 93.42475214034765 119.94407469862007 l -8.842845723405564 26.822163881940455 a49.24224487886229,49.24224487886229 0 0,0 -0.8027195638167358,-0.2723260589839173 l 9.303235020159525 -26.665974836058414" fill="#c5ff1e" stroke="none" /><path d="M 92.40401165467489 119.57807347666478 l -10.349349630298724 26.67464960269229 a49.611989955201935,49.611989955201935 0 0,0 -0.7935058000750176,-0.3157523339432032 l 10.806976506415598 -26.492550424343023" fill="#c0ff1e" stroke="none" /><path d="M 90.42595943632237 118.69057910512821 l -13.062070943865454 25.499961967921156 a49.65075492387591,49.65075492387591 0 0,0 -0.757313738025945,-0.3961907548774929 l 13.499075584417895 -25.271341794098948" fill="#c0ff1e" stroke="none" /><line stroke="#e1ed5e" stroke-width="0.3" x1="58.666819895761336" x2="56.23545636021788" y1="174.27360380694188" y2="178.64263932499728" /><path d="M 58.180547188652646 175.14741091055294 a86.0,86.0 0 0,1 -31.652253787137756,-30.449443065178592" fill="none" id="id56" stroke="none" /><text fill="#e1ed5e" style="font-size:6.75px; font-family:Arial;" text-anchor="middle"><textPath startOffset="22.20632615414155" xlink:href="#id56">August</textPath></text><path d="M 89.4739219176387 118.17145234162733 l -8.835024658539194 15.252141230908725 a38.62627223336181,38.62627223336181 0 0,0 -0.5724636638774517,-0.3382216231067081 l 9.096256193445027 -15.097801035508267" fill="#ffab0f" stroke="none" /><path d="M 88.54995079064634 117.60387380957326 l -16.16539274798487 24.853476942723102 a50.6481911562758,50.6481911562758 0 0,0 -0.726741974211467,-0.4816449524787363 l 16.5908094209363 -24.571533969153045" fill="#b3ff20" stroke="none" /><path d="M 87.65650970185807 116.9893568818739 l -16.698832581789457 22.983971258549985 a49.409750868469175,49.409750868469175 0 0,0 -0.6837722004881684,-0.5058383272365442 l 17.09198975269619 -22.693122982573673" fill="#c3ff1e" stroke="none" /><path d="M 86.24171649860922 115.8653595955263 l -13.729405777484786 15.832059258749357 a41.955922393809914,41.955922393809914 0 0,0 -0.5415463621761867,-0.4778517001046251 l 13.99989449256756 -15.593384416872443" fill="#ffd914" stroke="none" /><path d="M 85.70375840098266 115.38237550388516 l -12.873538638171775 13.851584979491683 a39.91016667067166,39.91016667067166 0 0,0 -0.4991890775178805,-0.4720144306043764 l 13.11006355008047 -13.627935912141378" fill="#ffbd11" stroke="none" /><path d="M 85.18274418774928 114.88116024355367 l -19.88647644541141 19.97224360661629 a49.184436487109835,49.184436487109835 0 0,0 -0.5948023212982018,-0.6025316111672976 l 20.227319391765146 -19.626971501468326" fill="#c6ff1e" stroke="none" /><path d="M 84.67929136418377 114.36230785411682 l -14.93372408204197 13.999531469015373 a41.469562680001545,41.469562680001545 0 0,0 -0.48371992082440696,-0.5249824382102627 l 15.172490410862109 -13.74039777600377" fill="#ffd213" stroke="none" /><path d="M 83.95833913139862 113.55231037782056 l -16.22048030312838 13.703380550550591 a42.2340909807174,42.2340909807174 0 0,0 -0.4643819308718078,-0.5593779510628465 l 16.453958233893722 -13.422141342373983" fill="#ffdd14" stroke="none" /><path d="M 83.28015986056508 112.70617746262583 l -16.988969736234353 12.910701452619803 a42.33802485464308,42.33802485464308 0 0,0 -0.43595813643809644,-0.5840371670192858 l 17.208689139367536 -12.616351406091212" fill="#ffde14" stroke="none" /><path d="M 82.24976979558568 111.22182372390057 l -24.76050101614169 15.653767557871003 a50.293733960118644,50.293733960118644 0 0,0 -0.4563207010731033,-0.7357342658041832 l 25.02628635688275 -15.225236960701555" fill="#b8ff1f" stroke="none" /><line stroke="#e1ed5e" stroke-width="0.3" x1="26.63291911575756" x2="22.317208475507996" y1="142.92168965132927" y2="145.44649492493687" /><path d="M 25.769776987707644 143.4266507060508 a86.0,86.0 0 0,1 -11.730757126820373,-40.83630448921669" fill="none" id="id57" stroke="none" /><text fill="#e1ed5e" style="font-size:6.75px; font-family:Arial;" text-anchor="middle"><textPath startOffset="21.46611528233685" xlink:href="#id57">September</textPath></text><path d="M 81.87401531095188 110.60418214915194 l -16.104234174092152 9.421404435911976 a39.65768527655613,39.65768527655613 0 0,0 -0.33963597781932764,-0.5921839553297725 l 16.264022148063855 -9.142800634723896" fill="#ffb911" stroke="none" /><path d="M 81.51974371655577 109.97397251340807 l -17.734522871004547 9.571492999924978 a41.15258741972842,41.15258741972842 0 0,0 -0.3310774487913916,-0.6262737633190848 l 17.896652828020823 -9.264804221519766" fill="#ffce13" stroke="none" /><path d="M 80.45479744820244 107.68017299344265 l -19.952533887651473 7.840231458772826 a42.43765000798855,42.43765000798855 0 0,0 -0.2613062336495945,-0.6821881200799803 l 20.08453440089458 -7.495619771859688" fill="#ffe015" stroke="none" /><path d="M 79.76711848015287 105.62410040840567 l -6.108771360930181 1.6980450101565119 a27.340382038697527,27.340382038697527 0 0,0 -0.1221358967905269,-0.4545131076263786 l 6.13709533406248 -1.5926409693545944" fill="#ff0000" stroke="none" /><path d="M 79.50377843672027 104.57218783832718 l -19.856662107110093 4.429518324419071 a41.344720755574556,41.344720755574556 0 0,0 -0.14897085903048166,-0.6959422584377766 l 19.929967004865016 -4.0870622465651305" fill="#ffd113" stroke="none" /><path d="M 79.04373962182676 101.35467743843564 l -22.624922817819506 1.4625449357162237 a43.672145249210075,43.672145249210075 0 0,0 -0.04203682952648976,-0.7505958299403269 l 22.64674599823353 -1.072877389440459" fill="#fff016" stroke="none" /><line stroke="#e1ed5e" stroke-width="0.3" x1="15.007084014347285" x2="10.007500721073583" y1="101.09737516637583" y2="101.16192664675087" /><path d="M 14.007167355692545 101.11028546245083 a86.0,86.0 0 0,1 10.666146001902534,-42.60595125391555" fill="none" id="id58" stroke="none" /><text fill="#e1ed5e" style="font-size:6.75px; font-family:Arial;" text-anchor="middle"><textPath startOffset="22.20632615414155" xlink:href="#id58">October</textPath></text><path d="M 79.00175016825051 100.2711162175752 l -23.08006429288387 0.29799529878047304 a44.08198797681318,44.08198797681318 0 0,0 -0.0032656413418868497,-0.7588200397884526 l 23.081774231515258 0.09933421921165496" fill="#fff617" stroke="none" /><path d="M 79.01574976396665 99.18683210126434 l -22.656602550503255 -0.8779737985036629 a43.67360750128505,43.67360750128505 0 0,0 0.03557608760825654,-0.7509549810676223 l 22.6381328546615 1.2678398861942943" fill="#fff016" stroke="none" /><path d="M 79.05617556472873 98.46500227214037 l -22.870735527445824 -1.6762233267189446 a43.93207945667835,43.93207945667835 0 0,0 0.06176749156387127,-0.7537198483982512 l 22.838493552062452 2.069657092324974" fill="#fff417" stroke="none" /><path d="M 79.26566170972629 96.67025291283419 l -27.89859201023511 -4.480261399308027 a49.25604675745855,49.25604675745855 0 0,0 0.1416419510740846,-0.8359788131303956 l 27.8173381976408 4.9598260007542505" fill="#c5ff1e" stroke="none" /><path d="M 79.46518482838121 95.60439243477599 l -22.25231018571559 -4.763248277551065 a43.75640223662113,43.75640223662113 0 0,0 0.16399402193422283,-0.7351530443349011 l 22.167021776779332 5.145579491435925" fill="#fff216" stroke="none" /><path d="M 79.81627453868168 94.20196356495316 l -17.764863294660543 -5.103186963351639 a39.48331369264991,39.48331369264991 0 0,0 0.19326913381395258,-0.6516074399876401 l 17.674388263734883 5.4082237900858185" fill="#ffb711" stroke="none" /><path d="M 80.14247586403 93.16781622104843 l -22.65070068896577 -7.793204669897267 a44.95387819807104,44.95387819807104 0 0,0 0.25805007249659684,-0.7295423043443634 l 22.513197535659366 8.181944600668242" fill="#fcff18" stroke="none" /><path d="M 80.52162464483688 92.15188598940014 l -12.30341872943229 -4.957222106469954 a34.264545353860406,34.264545353860406 0 0,0 0.22513162702556577,-0.5451740921228859 l 12.216265415520523 5.168270769046152" fill="#ff6b09" stroke="none" /><path d="M 80.65960295795067 91.81776055985345 l -8.639143566602161 -3.654916756158298 a30.380470034002037,30.380470034002037 0 0,0 0.20790265634439106,-0.4798679951495078 l 8.574950200415092 3.8030838958944044" fill="#ff3004" stroke="none" /><path d="M 81.6062741919709 89.86733742301443 l -20.421478511207734 -11.249702927881229 a44.3150723899648,44.3150723899648 0 0,0 0.3738131642597641,-0.664971908024364 l 20.22480770565554 11.599558345840379" fill="#fff917" stroke="none" /><line stroke="#e1ed5e" stroke-width="0.3" x1="26.266209847984243" x2="21.928928074336255" y1="57.711370442889674" y2="55.22380399835377" /><path d="M 25.398753493254645 57.213857153982495 a86.0,86.0 0 0,1 29.58750427330803,-30.492523968695096" fill="none" id="id59" stroke="none" /><text fill="#e1ed5e" style="font-size:6.75px; font-family:Arial;" text-anchor="middle"><textPath startOffset="21.46611528233685" xlink:href="#id59">November</textPath></text><path d="M 82.15384107792192 88.93136811851018 l -24.378387443162378 -15.120082570758447 a49.68662878895829,49.68662878895829 0 0,0 0.4570516913141726,-0.722946014457942 l 24.11450815560224 15.537476232930604" fill="#bfff1e" stroke="none" /><path d="M 83.17141714833178 87.43820079747577 l -50.48574855500465 -37.685397607572696 a84.0,84.0 0 0,0 0.8748962391035646,-1.151260896475903 l 49.82957637567698 38.54884327992962" fill="#4dd2ff" stroke="none" /><path d="M 84.80347519578584 85.50635884689758 l -16.84505950991438 -16.065926314393263 a44.278101688756124,44.278101688756124 0 0,0 0.5307800252594013,-0.5470154729112321 l 16.566015220951865 16.353505982854617" fill="#fff917" stroke="none" /><path d="M 86.65592168130627 83.78471172551755 l -14.886750286653903 -18.089892880061992 a44.427751887650416,44.427751887650416 0 0,0 0.5946900030970539,-0.48086462458688967 l 14.57315688499235 18.343463601913015" fill="#fffb17" stroke="none" /><path d="M 88.39885842347998 82.49532879139004 l -12.784919476469105 -19.290843956002913 a44.14283531796943,44.14283531796943 0 0,0 0.6369873655580328,-0.41431430151524995 l 12.450965085126784 19.5080571816777" fill="#fff717" stroke="none" /><line stroke="#e1ed5e" stroke-width="0.3" x1="56.76296977257108" x2="54.21961505331056" y1="26.818313649435495" y2="22.513508569990535" /><path d="M 56.25429882871898 25.957352633546506 a86.0,86.0 0 0,1 42.26535254187918,-11.944610805530505" fill="none" id="id60" stroke="none" /><text fill="#e1ed5e" style="font-size:6.75px; font-family:Arial;" text-anchor="middle"><textPath startOffset="22.20632615414155" xlink:href="#id60">December</textPath></text><path d="M 89.94658935756843 81.56283822128135 l -11.655101361480758 -21.374536164078442 a45.34568101277694,45.34568101277694 0 0,0 0.6885092861653,-0.36777781608293375 l 11.285447028787154 21.571992706663124" fill="#f7ff18" stroke="none" /><path d="M 90.91171255644093 81.06846463323043 l -12.369861362326596 -25.767282264920837 a49.582622438175335,49.582622438175335 0 0,0 0.7725959239369476,-0.3627441456687151 l 11.924487227090038 25.97639139322956" fill="#c1ff1e" stroke="none" /><path d="M 92.57280143429618 80.3572730644239 l -10.206210354012562 -26.992384983034405 a49.85750468877541,49.85750468877541 0 0,0 0.8053593706337936,-0.29662065291174095 l 9.7400686576062 27.16406890375247" fill="#bdff1f" stroke="none" /><path d="M 92.91201910852362 80.23233633223022 l -5.696633355535881 -15.887335749768976 a37.8777684784835,37.8777684784835 0 0,0 0.6156363822681358,-0.21478344543611336 l 5.42231496920446 15.9830400483773" fill="#ffa00e" stroke="none" /><path d="M 94.28887869178378 79.79150937346287 l -4.712879199263202 -16.676265479652162 a38.32942759281697,38.32942759281697 0 0,0 0.6364548717362748,-0.17396715866759074 l 4.425126438303205 16.75491917914605" fill="#ffa60f" stroke="none" /><path d="M 94.98787191387505 79.60689891045804 l -4.138422945741597 -16.838212438628506 a38.33931782413092,38.33931782413092 0 0,0 0.6422316127878276,-0.1519954730756794 l 3.8479676459912358 16.906953823845058" fill="#ffa70f" stroke="none" /><path d="M 95.33964822691252 79.52364482259891 l -3.91642856683425 -17.207753033691997 a38.647809416118804,38.647809416118804 0 0,0 0.6499407186109724,-0.1420518673851322 l 3.619645124069757 17.272618399173" fill="#ffab0f" stroke="none" /><path d="M 97.83486435360386 79.11191278185805 l -3.653222502888869 -35.24436466354295 a56.43319453834792,56.43319453834792 0 0,0 0.9670899386847585,-0.09183684260080606 l 3.0460074371138743 35.30202705065894" fill="#6fff28" stroke="none" /><path d="M 98.91598698831166 79.02799685794201 l -0.8759640856835605 -16.94695668705434 a37.96958025504176,37.96958025504176 0 0,0 0.6530029523541733,-0.028119680756572982 l 0.5841203009400633 16.959524094335105" fill="#ffa10e" stroke="none" /></svg>