<?xml version="1.0" encoding="utf-8" ?>
<svg baseProfile="full" height="200mm" version="1.1" viewBox="0,0,200,200" width="200mm" xmlns="http://www.w3.org/2000/svg" xmlns:ev="http://www.w3.org/2001/xml-events" xmlns:xlink="http://www.w3.org/1999/xlink"><defs /><rect fill="#1a1a1a" height="200" width="200" x="0" y="0" /><text alignment-baseline="middle" fill="#e1ed5e" style="dominant-baseline: central; font-size:9.0px; font-family:Arial;" text-anchor="middle" x="100.0" y="100.0">2022</text><line stroke="#e1ed5e" stroke-width="0.3" x1="100.0" x2="100.0" y1="15.0" y2="10.0" /><path d="M 100.0 14.0 a86.0,86.0 0 0,1 42.46469731375804,11.215312516191453" fill="none" id="id133" stroke="none" /><text fill="#e1ed5e" style="font-size:6.75px; font-family:Arial;" text-anchor="middle"><textPath startOffset="22.20632615414155" xlink:href="#id133">January</textPath></text><path d="M 100.72285384407766 79.0124445844662 l 0.9210015811118305 -26.740636270728743 a47.75649214818385,47.75649214818385 0 0,0 0.8213188072496906,0.03536771553017622 l -1.3811612207508528 26.720820828674373" fill="#ff0200" stroke="none" /><path d="M 105.36241919743992 79.69619591428918 l 6.816032934684734 -25.807642456162494 a47.692559152539644,47.692559152539644 0 0,0 0.791928383086362,0.21646394236548397 l -7.259259206994806 25.686491972970718" fill="#ff0000" stroke="none" /><line stroke="#e1ed5e" stroke-width="0.3" x1="143.23703022742887" x2="145.7803849466894" y1="26.81831364943548" y2="22.513508569990506" /><path d="M 143.74570117128098 25.957352633546492 a86.0,86.0 0 0,1 28.547481713284135,27.462654790039103" fill="none" id="id134" stroke="none" /><text fill="#e1ed5e" style="font-size:6.75px; font-family:Arial;" text-anchor="middle"><textPath startOffset="19.985693538727396" xlink:href="#id134">February</textPath></text><path d="M 112.19680574252982 82.90503203632743 l 15.60033084593586 -21.86532782956755 a47.8600611242253,47.8600611242253 0 0,0 0.6665190016844593,0.4842544004474335 l -15.974395163974108 21.593554194303444" fill="#ff0400" stroke="none" /><path d="M 115.9244219780498 86.31012108654704 l 20.648765072725574 -17.75129382702833 a48.23012911394483,48.23012911394483 0 0,0 0.5357893920204436,0.6342056434785015 l -20.951265078233135 17.39322923392072" fill="#ff0d01" stroke="none" /><path d="M 117.2510076193507 88.02491185347247 l 51.75302285805209 -35.92526443958259 a84.0,84.0 0 0,0 0.8143021373250665,1.1948879069183742 l -52.36374946104589 35.02909850939381" fill="#4dd2ff" stroke="none" /><line stroke="#e1ed5e" stroke-width="0.3" x1="172.23445277983987" x2="176.4835382374775" y1="55.19839476539836" y2="52.563006222186495" /><path d="M 173.08426987136738 54.67131705675599 a86.0,86.0 0 0,1 12.851231095245387,41.99856678651699" fill="none" id="id135" stroke="none" /><text fill="#e1ed5e" style="font-size:6.75px; font-family:Arial;" text-anchor="middle"><textPath startOffset="22.20632615414155" xlink:href="#id135">March</textPath></text><path d="M 118.03404312379186 89.2402003453031 l 33.525960216617804 -20.002869721778627 a60.03978490658841,60.03978490658841 0 0,0 0.5218896134085865,0.8920785223190211 l -33.86530950449672 19.42281178710571" fill="#e7ff1a" stroke="none" /><path d="M 118.3937258080291 89.86733742301442 l 34.84918142392945 -19.197578573161724 a60.78708922490646,60.78708922490646 0 0,0 0.4969833758095698,0.9208347166813969 l -35.17447289895748 18.594862873147868" fill="#d8ff1c" stroke="none" /><path d="M 118.73160827565052 90.50648371742162 l 33.67855276037058 -17.068896823978125 a58.75701464391319,58.75701464391319 0 0,0 0.44946314625212497,0.906090276231337 l -33.96737591957611 16.48664695924784" fill="#fffd17" stroke="none" /><path d="M 119.04729006885535 91.15688171328212 l 33.315633782477114 -15.467506887877422 a57.73112064251057,57.73112064251057 0 0,0 0.4107093172905033,0.9049435390665787 l -33.576945416730965 14.891741339968782" fill="#ffe715" stroke="none" /><path d="M 119.34039704204932 91.81776055985345 l 36.56170295948108 -15.467966211012696 a60.6990692838303,60.6990692838303 0 0,0 0.3988169136838445,0.9657667903592625 l -36.82254156005113 14.83632485020013" fill="#d9ff1c" stroke="none" /><path d="M 119.61058180528143 92.48833698450437 l 34.33278556784451 -13.15087528405019 a57.76527826066647,57.76527826066647 0 0,0 0.3476793388607171,0.9316077728547701 l -34.55406949520685 12.557944374166087" fill="#ffe815" stroke="none" /><path d="M 119.85752413597 93.16781622104841 l 35.32561335681295 -12.154137691352394 a58.35802486823138,58.35802486823138 0 0,0 0.31864233626313104,0.9527000278646761 l -35.52959298684785 11.544264560565404" fill="#fff517" stroke="none" /><path d="M 120.37134235888165 94.90015583598534 l 41.16076614513774 -10.304352521969804 a63.43098337950398,63.43098337950398 0 0,0 0.25604127798966936,1.061456396663069 l -41.33204022338823 9.594310893647329" fill="#a4ff21" stroke="none" /><path d="M 120.67395015179393 96.31383870115 l 37.5250877158472 -6.6907158553879205 a59.11689765365966,59.11689765365966 0 0,0 0.16999806676209536,1.0033382130686874 l -37.63469764412952 6.043791854003396" fill="#faff18" stroke="none" /><line stroke="#e1ed5e" stroke-width="0.3" x1="184.98032266829074" x2="189.97916517819016" y1="98.17113171792111" y2="98.06355123074" /><path d="M 185.9800911702706 98.14961562048488 a86.0,86.0 0 0,1 -9.607161424134198,41.387399972396054" fill="none" id="id136" stroke="none" /><text fill="#e1ed5e" style="font-size:6.75px; font-family:Arial;" text-anchor="middle"><textPath startOffset="21.466115282336823" xlink:href="#id136">April</textPath></text><line stroke="#e1ed5e" stroke-width="0.3" x1="174.80103733775053" x2="179.2010983576182" y1="140.37084112569926" y2="142.7455964860345" /><path d="M 175.68104954172406 140.8457921977663 a86.0,86.0 0 0,1 -30.038265399797805,32.042727171017184" fill="none" id="id137" stroke="none" /><text fill="#e1ed5e" style="font-size:6.75px; font-family:Arial;" text-anchor="middle"><textPath startOffset="22.206326154141568" xlink:href="#id137">May</textPath></text><line stroke="#e1ed5e" stroke-width="0.3" x1="143.8653032363475" x2="146.44561519142675" y1="172.8068346515853" y2="177.08958963109032" /><path d="M 144.38136562736335 173.6633856474863 a86.0,86.0 0 0,1 -40.68145358897372,12.25698825130547" fill="none" id="id138" stroke="none" /><text fill="#e1ed5e" style="font-size:6.75px; font-family:Arial;" text-anchor="middle"><textPath startOffset="21.466115282336833" xlink:href="#id138">June</textPath></text><line stroke="#e1ed5e" stroke-width="0.3" x1="102.19456741930631" x2="102.32365962044197" y1="184.97166512339345" y2="189.96999836594603" /><path d="M 102.22038585953345 185.97133177190398 a86.0,86.0 0 0,1 -42.740103519485714,-10.115201625700543" fill="none" id="id139" stroke="none" /><text fill="#e1ed5e" style="font-size:6.75px; font-family:Arial;" text-anchor="middle"><textPath startOffset="22.20632615414155" xlink:href="#id139">July</textPath></text><line stroke="#e1ed5e" stroke-width="0.3" x1="58.666819895761336" x2="56.23545636021788" y1="174.27360380694188" y2="178.64263932499728" /><path d="M 58.180547188652646 175.14741091055294 a86.0,86.0 0 0,1 -31.652253787137756,-30.449443065178592" fill="none" id="id140" stroke="none" /><text fill="#e1ed5e" style="font-size:6.75px; font-family:Arial;" text-anchor="middle"><textPath startOffset="22.20632615414155" xlink:href="#id140">August</textPath></text><line stroke="#e1ed5e" stroke-width="0.3" x1="26.63291911575756" x2="22.317208475507996" y1="142.92168965132927" y2="145.44649492493687" /><path d="M 25.769776987707644 143.4266507060508 a86.0,86.0 0 0,1 -11.730757126820373,-40.83630448921669" fill="none" id="id141" stroke="none" /><text fill="#e1ed5e" style="font-size:6.75px; font-family:Arial;" text-anchor="middle"><textPath startOffset="21.46611528233685" xlink:href="#id141">September</textPath></text><line stroke="#e1ed5e" stroke-width="0.3" x1="15.007084014347285" x2="10.007500721073583" y1="101.09737516637583" y2="101.16192664675087" /><path d="M 14.007167355692545 101.11028546245083 a86.0,86.0 0 0,1 10.666146001902534,-42.60595125391555" fill="none" id="id142" stroke="none" /><text fill="#e1ed5e" style="font-size:6.75px; font-family:Arial;" text-anchor="middle"><textPath startOffset="22.20632615414155" xlink:href="#id142">October</textPath></text><line stroke="#e1ed5e" stroke-width="0.3" x1="26.266209847984243" x2="21.928928074336255" y1="57.711370442889674" y2="55.22380399835377" /><path d="M 25.398753493254645 57.213857153982495 a86.0,86.0 0 0,1 29.58750427330803,-30.492523968695096" fill="none" id="id143" stroke="none" /><text fill="#e1ed5e" style="font-size:6.75px; font-family:Arial;" text-anchor="middle"><textPath startOffset="21.46611528233685" xlink:href="#id143">November</textPath></text><line stroke="#e1ed5e" stroke-width="0.3" x1="56.76296977257108" x2="54.21961505331056" y1="26.818313649435495" y2="22.513508569990535" /><path d="M 56.25429882871898 25.957352633546506 a86.0,86.0 0 0,1 42.26535254187918,-11.944610805530505" fill="none" id="id144" stroke="none" /><text fill="#e1ed5e" style="font-size:6.75px; font-family:Arial;" text-anchor="middle"><textPath startOffset="22.20632615414155" xlink:href="#id144">December</textPath></text></svg>