<?xml version="1.0" encoding="utf-8" ?>
<svg baseProfile="full" height="200mm" version="1.1" viewBox="0,0,200,200" width="200mm" xmlns="http://www.w3.org/2000/svg" xmlns:ev="http://www.w3.org/2001/xml-events" xmlns:xlink="http://www.w3.org/1999/xlink"><defs /><rect fill="#1a1a1a" height="200" width="200" x="0" y="0" /><text alignment-baseline="middle" fill="#e1ed5e" style="dominant-baseline: central; font-size:9.0px; font-family:Arial;" text-anchor="middle" x="100.0" y="100.0">2024</text><line stroke="#e1ed5e" stroke-width="0.3" x1="100.0" x2="100.0" y1="15.0" y2="10.0" /><path d="M 100.0 14.0 a86.0,86.0 0 0,1 42.35913384403234,11.155469271406648" fill="none" id="id157" stroke="none" /><text fill="#e1ed5e" style="font-size:6.75px; font-family:Arial;" text-anchor="middle"><textPath startOffset="22.145653131862478" xlink:href="#id157">January</textPath></text><path d="M 100.0 79.0 l 0.0 -62.50288372276759 a83.50288372276759,83.50288372276759 0 0,0 1.433438037454015,0.012304341553420969 l -1.0729451126051603 62.4936737794086" fill="#4cd8ff" stroke="none" /><path d="M 101.80034050326958 79.07731436759882 l 5.401021509808744 -62.76805689720356 a84.0,84.0 0 0,0 1.4356017464599482,0.1359529779792652 l -6.477722819653705 62.666092163719114" fill="#4dd2ff" stroke="none" /><path d="M 102.15924093988457 79.11130261209362 l 6.271795487922233 -60.67393203143315 a81.99722491062434,81.99722491062434 0 0,0 1.3988886597067394,0.1567483921226609 l -7.31242004922977 60.55732787880351" fill="#4aecff" stroke="none" /><path d="M 104.29559338865022 79.4440306129975 l 5.390511966550848 -25.79555114724403 a47.352762250883885,47.352762250883885 0 0,0 0.7942582162695253,0.17310488149243053 l -5.832532599439508 25.699214807617878" fill="#ff940d" stroke="none" /><path d="M 109.06512990194946 81.05736502329252 l 13.910853560354903 -29.068333720354868 a53.225453791305384,53.225453791305384 0 0,0 0.8207865566042716,0.40148783497401563 l -14.407800366221242 28.82525213528363" fill="#fffd17" stroke="none" /><line stroke="#e1ed5e" stroke-width="0.3" x1="143.13028292997686" x2="145.6673583964461" y1="26.7553504044142" y2="22.446841604673864" /><path d="M 143.63769802327073 25.89364864446614 a86.0,86.0 0 0,1 29.32050498858742,28.57503671076993" fill="none" id="id158" stroke="none" /><text fill="#e1ed5e" style="font-size:6.75px; font-family:Arial;" text-anchor="middle"><textPath startOffset="20.669276256404974" xlink:href="#id158">February</textPath></text><path d="M 113.59037401385872 83.9905735841838 l 20.188264512854172 -23.781724833473156 a52.195135199194134,52.195135199194134 0 0,0 0.6780906637567614,0.585718565070825 l -20.593534656373794 23.43166213593761" fill="#ffeb16" stroke="none" /><path d="M 113.86319453409587 84.22622945171908 l 20.71018165456703 -23.56438500728739 a52.37183234904897,52.37183234904897 0 0,0 0.6701972838824927,0.5992945438892527 l -21.111643965272897 23.205394933514754" fill="#ffee16" stroke="none" /><path d="M 114.13192950727249 84.46653392183569 l 21.062238456122266 -23.151089624386877 a52.298415927630415,52.298415927630415 0 0,0 0.6588858981852647,0.6098549507649828 l -21.456554125621494 22.78611692748952" fill="#ffed16" stroke="none" /><path d="M 114.39649973595853 84.71141617570332 l 22.115115293894217 -23.485486066462652 a53.25905113670031,53.25905113670031 0 0,0 0.6602283994090198,0.6324838716632314 l -22.515016179168548 23.102390064493843" fill="#fffe18" stroke="none" /><path d="M 114.65682725009322 84.96080404539774 l 13.079804862827364 -13.421032057177943 a39.74047482668036,39.74047482668036 0 0,0 0.4844706025477143,0.48032985304839176 l -13.30826738550504 13.194522193900891" fill="#ff0000" stroke="none" /><path d="M 114.91283532996326 85.21462403516908 l 31.060429507685814 -30.794957346410566 a64.7387663196982,64.7387663196982 0 0,0 0.7756727658690167,0.7959085908226293 l -31.58448907470564 30.257226063520193" fill="#4eff2b" stroke="none" /><path d="M 115.16444852881244 85.47280134310134 l 32.322209288939874 -30.96394534085021 a65.76037448892927,65.76037448892927 0 0,0 0.7739187107741783,0.8218748515175078 l -32.84898383345031 30.404529029388208" fill="#40ff2d" stroke="none" /><line stroke="#e1ed5e" stroke-width="0.3" x1="172.87174338648825" x2="177.1583165268699" y1="56.24261187166439" y2="53.66864786411523" /><path d="M 173.72905801456457 55.72781907015455 a86.0,86.0 0 0,1 12.242430191666344,42.057860355516425" fill="none" id="id159" stroke="none" /><text fill="#e1ed5e" style="font-size:6.75px; font-family:Arial;" text-anchor="middle"><textPath startOffset="22.145653131862474" xlink:href="#id159">March</textPath></text><path d="M 119.31412917781788 91.75594674310238 l 29.44614075020236 -12.568806510498748 a53.01640364218136,53.01640364218136 0 0,0 0.3500954762282103,0.8401016951646185 l -29.657562070967053 12.061472305892853" fill="#fff917" stroke="none" /><path d="M 119.4528033332814 92.08871423366111 l 30.252338573760312 -12.303362731662524 a53.658486243062285,53.658486243062285 0 0,0 0.33968715526022303,0.856233531329051 l -30.45908440398666 11.782228183119908" fill="#faff18" stroke="none" /><path d="M 120.16314734710363 94.1308016681162 l 37.545891897316096 -10.92906193161712 a60.10419917438623,60.10419917438623 0 0,0 0.2798609156152927,0.9931276596984324 l -37.727971305005966 10.282926348015673" fill="#92ff23" stroke="none" /><path d="M 120.26092885502905 94.47779374421319 l 42.18862514929641 -11.498697388923604 a64.72756720456655,64.72756720456655 0 0,0 0.2829843595856176,1.0745377062872274 l -42.37979898968676 10.772779178263578" fill="#4eff2b" stroke="none" /><path d="M 120.51834098615036 95.52812308129327 l 32.75197981327372 -7.1381415616295785 a54.52081810819886,54.52081810819886 0 0,0 0.19145190166794757,0.9161666558497237 l -32.86968942576603 6.574858454494451" fill="#ebff1a" stroke="none" /><path d="M 120.592083275326 95.88100663000786 l 33.85376071859527 -6.771700273584221 a55.52438325860673,55.52438325860673 0 0,0 0.17893051827887868,0.9362400804752293 l -33.965017529156306 6.189557628075677" fill="#dbff1b" stroke="none" /><path d="M 120.7213421655516 96.59031103205396 l 45.46118159655323 -7.480620131704335 a67.07253747852022,67.07253747852022 0 0,0 0.17719449037183743,1.1377157389378683 l -45.58289757906333 6.699116210835025" fill="#30ff31" stroke="none" /><path d="M 120.77682067341334 96.94652285012252 l 31.19293124902371 -4.584286706024956 a52.52799778782911,52.52799778782911 0 0,0 0.12345451072404914,0.8932553408035149 l -31.267030276302975 4.048143057021355" fill="#fff116" stroke="none" /><path d="M 120.96210409425399 98.7389718711861 l 31.329503934664043 -1.884705158688101 a52.38614232949496,52.38614232949496 0 0,0 0.046295406482723046,0.8981185178475909 l -31.35724093060334 1.3466148474637796" fill="#ffef16" stroke="none" /><path d="M 120.98066250479742 99.09900007780936 l 33.076586932546974 -1.4204509626777668 a54.1070730213909,54.1070730213909 0 0,0 0.031885331634481255,0.9283066405894693 l -33.0960969511783 0.8524380575241775" fill="#f2ff19" stroke="none" /><line stroke="#e1ed5e" stroke-width="0.3" x1="184.99686870605535" x2="189.99668451229388" y1="99.2704041080226" y2="99.22748670261217" /><path d="M 185.99683186730306 99.26182062694052 a86.0,86.0 0 0,1 -10.086455211305974,41.156179273409016" fill="none" id="id160" stroke="none" /><text fill="#e1ed5e" style="font-size:6.75px; font-family:Arial;" text-anchor="middle"><textPath startOffset="21.40746469413373" xlink:href="#id160">April</textPath></text><line stroke="#e1ed5e" stroke-width="0.3" x1="174.33088141563837" x2="178.70328620479359" y1="141.23008692659167" y2="143.65538615756765" /><path d="M 175.20536237346943 141.71514677278685 a86.0,86.0 0 0,1 -30.301960400862466,31.631185727798858" fill="none" id="id161" stroke="none" /><text fill="#e1ed5e" style="font-size:6.75px; font-family:Arial;" text-anchor="middle"><textPath startOffset="22.145653131862474" xlink:href="#id161">May</textPath></text><line stroke="#e1ed5e" stroke-width="0.3" x1="143.1302829299769" x2="145.66735839644613" y1="173.24464959558577" y2="177.55315839532614" /><path d="M 143.63769802327073 174.10635135553383 a86.0,86.0 0 0,1 -40.68552437913181,11.842963189579606" fill="none" id="id162" stroke="none" /><text fill="#e1ed5e" style="font-size:6.75px; font-family:Arial;" text-anchor="middle"><textPath startOffset="21.407464694133747" xlink:href="#id162">June</textPath></text><line stroke="#e1ed5e" stroke-width="0.3" x1="101.45913802915013" x2="101.54496967792366" y1="184.9874750549273" y2="189.98673829345242" /><path d="M 101.47630435890484 185.9873277026323 a86.0,86.0 0 0,1 -42.54439059252881,-10.42667462771756" fill="none" id="id163" stroke="none" /><text fill="#e1ed5e" style="font-size:6.75px; font-family:Arial;" text-anchor="middle"><textPath startOffset="22.145653131862474" xlink:href="#id163">July</textPath></text><line stroke="#e1ed5e" stroke-width="0.3" x1="58.13341422392154" x2="55.67067388415222" y1="173.97424548756322" y2="178.32567169271397" /><path d="M 57.64086615596768 174.84453072859336 a86.0,86.0 0 0,1 -31.369924170532247,-30.572349798747897" fill="none" id="id164" stroke="none" /><text fill="#e1ed5e" style="font-size:6.75px; font-family:Arial;" text-anchor="middle"><textPath startOffset="22.145653131862474" xlink:href="#id164">August</textPath></text><line stroke="#e1ed5e" stroke-width="0.3" x1="26.387840678322732" x2="22.057713659400548" y1="142.50000000000003" y2="145.00000000000006" /><path d="M 25.521815274538298 143.00000000000003 a86.0,86.0 0 0,1 -11.493303480769221,-40.785679425670985" fill="none" id="id165" stroke="none" /><text fill="#e1ed5e" style="font-size:6.75px; font-family:Arial;" text-anchor="middle"><textPath startOffset="21.40746469413373" xlink:href="#id165">September</textPath></text><line stroke="#e1ed5e" stroke-width="0.3" x1="15.003131293944662" x2="10.003315487706104" y1="100.72959589197737" y2="100.7725132973878" /><path d="M 14.003168132696942 100.73817937305945 a86.0,86.0 0 0,1 10.791469493833604,-42.45332614584628" fill="none" id="id166" stroke="none" /><text fill="#e1ed5e" style="font-size:6.75px; font-family:Arial;" text-anchor="middle"><textPath startOffset="22.145653131862435" xlink:href="#id166">October</textPath></text><line stroke="#e1ed5e" stroke-width="0.3" x1="26.387840678322718" x2="22.05771365940052" y1="57.49999999999999" y2="54.99999999999999" /><path d="M 25.521815274538284 56.99999999999999 a86.0,86.0 0 0,1 29.574782752854787,-30.34633250058573" fill="none" id="id167" stroke="none" /><text fill="#e1ed5e" style="font-size:6.75px; font-family:Arial;" text-anchor="middle"><textPath startOffset="21.40746469413373" xlink:href="#id167">November</textPath></text><line stroke="#e1ed5e" stroke-width="0.3" x1="56.869717070023135" x2="54.33264160355391" y1="26.7553504044142" y2="22.446841604673864" /><path d="M 56.362301976729285 25.89364864446614 a86.0,86.0 0 0,1 42.16139366436587,-11.88097634709845" fill="none" id="id168" stroke="none" /><text fill="#e1ed5e" style="font-size:6.75px; font-family:Arial;" text-anchor="middle"><textPath startOffset="22.145653131862474" xlink:href="#id168">December</textPath></text></svg>