<?xml version="1.0" encoding="utf-8" ?>
<svg baseProfile="full" height="200mm" version="1.1" viewBox="0,0,200,200" width="200mm" xmlns="http://www.w3.org/2000/svg" xmlns:ev="http://www.w3.org/2001/xml-events" xmlns:xlink="http://www.w3.org/1999/xlink"><defs /><rect fill="#1a1a1a" height="200" width="200" x="0" y="0" /><text alignment-baseline="middle" fill="#e1ed5e" style="dominant-baseline: central; font-size:9.0px; font-family:Arial;" text-anchor="middle" x="100.0" y="100.0">2016</text><line stroke="#e1ed5e" stroke-width="0.3" x1="100.0" x2="100.0" y1="15.0" y2="10.0" /><path d="M 100.0 14.0 a86.0,86.0 0 0,1 42.35913384403234,11.155469271406648" fill="none" id="id61" stroke="none" /><text fill="#e1ed5e" style="font-size:6.75px; font-family:Arial;" text-anchor="middle"><textPath startOffset="22.145653131862478" xlink:href="#id61">January</textPath></text><path d="M 100.0 79.0 l 0.0 -18.626017862597948 a39.62601786259795,39.62601786259795 0 0,0 0.680233289495281,0.005838984672698506 l -0.31974036464642613 18.623273276119683" fill="#ff4506" stroke="none" /><path d="M 100.36049292484886 79.00309439819443 l 0.31971840219690784 -18.62199407354029 a39.62473847149734,39.62473847149734 0 0,0 0.6800108656455487,0.017514667734427624 l -0.6393425819131979 18.613761688455817" fill="#ff4506" stroke="none" /><path d="M 101.80034050326958 79.07731436759882 l 1.6102197553884896 -18.713194354007474 a39.78234411865304,39.78234411865304 0 0,0 0.67990003208344,0.06438723992769985 l -1.9312193508569424 18.68279535857459" fill="#ff4806" stroke="none" /><path d="M 102.87502721639298 79.19773525538626 l 2.5358503255490756 -18.34814972324643 a39.52255746759219,39.52255746759219 0 0,0 0.6712716195651317,0.09865381156830584 l -2.8504470507218893 18.30191483837924" fill="#ff4306" stroke="none" /><path d="M 103.23170211078529 79.25015418208739 l 2.8073724041128805 -18.02534470748286 a39.24265308662517,39.24265308662517 0 0,0 0.6647378353712587,0.10938235784792771 l -3.1163877425372095 17.974496351139262" fill="#ff3e05" stroke="none" /><path d="M 105.3480935250658 79.69241777938227 l 4.662266770474921 -17.70338632488825 a39.30701010015876,39.30701010015876 0 0,0 0.6510337707849096,0.17744214924601276 l -4.965481942194524 17.620743681498094" fill="#ff3f05" stroke="none" /><path d="M 106.04205211174951 79.88797359093562 l 5.349762598929395 -17.80761977584771 a39.59385064869744,39.59385064869744 0 0,0 0.6492625405505069,0.20114319471795516 l -5.654665772351532 17.713159993323107" fill="#ff4406" stroke="none" /><path d="M 107.74402155503746 80.48000691201159 l 8.159734833531655 -20.567862113806516 a43.127318510974334,43.127318510974334 0 0,0 0.6858178865504213,0.2789161639692399 l -8.511607181272515 20.424758693257985" fill="#ff830c" stroke="none" /><path d="M 109.06512990194946 81.05736502329252 l 7.991214144528723 -16.69856407992082 a39.51219991883563,39.51219991883563 0 0,0 0.6093152844201477,0.29804663878817306 l -8.276689678210937 16.558923691035428" fill="#ff4306" stroke="none" /><path d="M 110.02825361518725 81.54914285379988 l 9.598025166002806 -17.65928525734086 a41.09906572175332,41.09906572175332 0 0,0 0.616986634768435,0.34223208577069175 l -9.89975598892734 17.491920256137018" fill="#ff5f08" stroke="none" /><path d="M 110.34350942703115 81.72400993836675 l 9.933680409741061 -17.551861457139644 a41.16794107224378,41.16794107224378 0 0,0 0.612044823115896,0.3533642433820795 l -10.233517700717355 17.378750316481394" fill="#ff6108" stroke="none" /><line stroke="#e1ed5e" stroke-width="0.3" x1="143.13028292997686" x2="145.6673583964461" y1="26.7553504044142" y2="22.446841604673864" /><path d="M 143.63769802327073 25.89364864446614 a86.0,86.0 0 0,1 29.32050498858742,28.57503671076993" fill="none" id="id62" stroke="none" /><text fill="#e1ed5e" style="font-size:6.75px; font-family:Arial;" text-anchor="middle"><textPath startOffset="20.669276256404974" xlink:href="#id62">February</textPath></text><path d="M 111.8722381534696 82.67804972795209 l 11.309149789493832 -16.500387520907633 a41.00399103432444,41.00399103432444 0 0,0 0.5771895729149197,0.40292314869585494 l -11.590734453582515 16.30381955640665" fill="#ff5e08" stroke="none" /><path d="M 112.16784306229584 82.88440491214696 l 13.557582860463206 -19.070438155858493 a44.398497055895476,44.398497055895476 0 0,0 0.6173906786274791,0.44694323951481507 l -13.882954549464651 18.834894144970605" fill="#ff990e" stroke="none" /><path d="M 112.45986205192187 83.09580414077388 l 12.935586711196551 -17.549607725098447 a42.80179201046831,42.80179201046831 0 0,0 0.5877032759753132,0.4410234947651642 l -13.23494297608263 17.32496520306927" fill="#ff7d0b" stroke="none" /><path d="M 114.13192950727249 84.46653392183569 l 13.82488844414832 -15.195974164113329 a41.54373800673932,41.54373800673932 0 0,0 0.5233922030912261,0.4844440093893498 l -14.08371041855351 14.956412408591602" fill="#ff6709" stroke="none" /><path d="M 116.1254893667686 86.54754324733833 l 15.618377926074858 -13.029406352791577 a41.339595840327505,41.339595840327505 0 0,0 0.44991886289030725,0.548827856942366 l -15.839743608203793 12.759376214150715" fill="#ff6409" stroke="none" /><path d="M 117.42321728460499 88.27688183743584 l 17.038144448462084 -11.464023973152552 a41.53587621465604,41.53587621465604 0 0,0 0.39296016723172045,0.594991777913649 l -17.232429054614528 11.169852316899844" fill="#ff6709" stroke="none" /><path d="M 117.62189284568427 88.57770195909679 l 17.65787978896026 -11.4456243427528 a42.04288562048434,42.04288562048434 0 0,0 0.38735974097904713,0.6089938515619064 l -17.851757221565194 11.140816816512222" fill="#ff700a" stroke="none" /><line stroke="#e1ed5e" stroke-width="0.3" x1="172.87174338648825" x2="177.1583165268699" y1="56.24261187166439" y2="53.66864786411523" /><path d="M 173.72905801456457 55.72781907015455 a86.0,86.0 0 0,1 12.242430191666344,42.057860355516425" fill="none" id="id63" stroke="none" /><text fill="#e1ed5e" style="font-size:6.75px; font-family:Arial;" text-anchor="middle"><textPath startOffset="22.145653131862474" xlink:href="#id63">March</textPath></text><path d="M 118.53625476483649 90.13048839642627 l 19.150628132205185 -10.196630816980017 a42.696032768130564,42.696032768130564 0 0,0 0.33890876901089173,0.6499022513745898 l -19.32284497019102 9.866382322500929" fill="#ff7b0b" stroke="none" /><path d="M 118.70294669586156 90.45014215332178 l 19.390808195226523 -9.901084829461206 a42.77234308163113,42.77234308163113 0 0,0 0.3282880938111746,0.6567960990981352 l -19.557916202249434 9.56675687419932" fill="#ff7d0b" stroke="none" /><path d="M 118.8641267826498 90.77261029715802 l 18.158841652120067 -8.88239940321128 a41.21485961625603,41.21485961625603 0 0,0 0.3054231922171343,0.6382170036356336 l -18.308644102297116 8.569369897510544" fill="#ff6109" stroke="none" /><path d="M 119.4528033332814 92.08871423366111 l 22.12250947721039 -8.997032013546239 a44.88204368604244,44.88204368604244 0 0,0 0.28412754085003666,0.7161870087890069 l -22.27369569302655 8.615943987543666" fill="#ffa10e" stroke="none" /><path d="M 119.71291397450082 92.76114493625339 l 22.52365064097407 -8.270996500435109 a44.99425392269702,44.99425392269702 0 0,0 0.26002357166943574,0.7273322081179261 l -22.66231438268745 7.883129335936266" fill="#ffa30f" stroke="none" /><path d="M 119.83427380445688 93.10060997987247 l 21.816462789119342 -7.5888982438021335 a44.098688819580474,44.098688819580474 0 0,0 0.2425734022954905,0.717125161417702 l -21.943521612987197 7.213271407910271" fill="#ff930d" stroke="none" /><path d="M 120.35273937422433 94.82641323984039 l 23.091053619235794 -5.869655533146968 a44.825398492453914,44.825398492453914 0 0,0 0.18317039616811343,0.7473977234168486 l -23.188411541920196 5.4724019851220245" fill="#ffa00e" stroke="none" /><path d="M 120.43855184770803 95.1765574152323 l 23.215475421520775 -5.478788987016637 a44.85320581832744,44.85320581832744 0 0,0 0.1704189832676672,0.7508974846900108 l -23.30610526634611 5.0794571683876" fill="#ffa00e" stroke="none" /><path d="M 120.51834098615036 95.52812308129327 l 22.97086296115387 -5.006392668300817 a44.51009384773542,44.51009384773542 0 0,0 0.15629886722639413,0.7479466605051697 l -23.05341953920463 4.611329556510244" fill="#ff9a0e" stroke="none" /><path d="M 120.65975698304385 96.23510406497455 l 23.35417968726946 -4.255909507678073 a44.73879682298187,44.73879682298187 0 0,0 0.1312022365486279,0.7567396347749149 l -23.423796741310323 3.854376839982565" fill="#ff9e0e" stroke="none" /><path d="M 120.82617615685814 97.30363454192243 l 23.379010300280335 -3.0268809474636504 a44.57414114852824,44.57414114852824 0 0,0 0.09173339939079382,0.759684141084121 l -23.427525785930793 2.6251031294561167" fill="#ff9c0e" stroke="none" /><path d="M 120.9064616781168 98.02013634271609 l 23.449959811399882 -2.2207355749708615 a44.554878086082525,44.554878086082525 0 0,0 0.06557285108498223,0.7620559259649614 l -23.484626285182607 1.817858601630238" fill="#ff9b0e" stroke="none" /><path d="M 120.93736805541906 98.37931529534042 l 20.076509820962418 -1.554048832864649 a41.13656659825921,41.13656659825921 0 0,0 0.048455033757637385,0.704525556417957 l -20.10022881588512 1.2091798522923578" fill="#ff6008" stroke="none" /><path d="M 120.98066250479742 99.09900007780936 l 23.56708395183255 -1.0120719878128783 a44.58880530466176,44.58880530466176 0 0,0 0.02627621057532322,0.765003201039989 l -23.58098484940472 0.6073625222087694" fill="#ff9c0e" stroke="none" /><line stroke="#e1ed5e" stroke-width="0.3" x1="184.99686870605535" x2="189.99668451229388" y1="99.2704041080226" y2="99.22748670261217" /><path d="M 185.99683186730306 99.26182062694052 a86.0,86.0 0 0,1 -10.086455211305974,41.156179273409016" fill="none" id="id64" stroke="none" /><text fill="#e1ed5e" style="font-size:6.75px; font-family:Arial;" text-anchor="middle"><textPath startOffset="21.40746469413373" xlink:href="#id64">April</textPath></text><path d="M 120.99922638620191 99.81974689727618 l 23.462056961371324 -0.20139354116155533 a44.46292130611732,44.46292130611732 0 0,0 0.0,0.7632932877707616 l -23.462056961371324 -0.20139354116155248" fill="#ff9a0e" stroke="none" /><path d="M 120.99922638620191 100.18025310272382 l 21.01423436277347 0.18038192815257606 a42.01500852946706,42.01500852946706 0 0,0 -0.012381559722244723,0.7211637809539136 l -21.008041371452556 -0.5410926250755608" fill="#ff6f0a" stroke="none" /><path d="M 120.98066250479742 100.90099992219065 l 29.659096072673645 1.2736892005966618 a50.686432322321956,50.686432322321956 0 0,0 -0.04479331523901407,0.8689783490065375 l -29.632861167978056 -1.7826393429799299" fill="#ffff18" stroke="none" /><path d="M 120.77682067341334 103.0534771498775 l 24.394182384171785 3.5851047506670946 a45.65621849078834,45.65621849078834 0 0,0 -0.12061613697515126,0.7744421235589828 l -24.329044755058366 -4.003335056157528" fill="#ffae10" stroke="none" /><path d="M 120.592083275326 104.11899336999214 l 24.286859347278604 4.858052062621543 a45.76796735296693,45.76796735296693 0 0,0 -0.16071593731064443,0.7690839398556434 l -24.199885699143596 -5.274252453762595" fill="#ffb010" stroke="none" /><path d="M 120.51834098615036 104.47187691870673 l 20.865255528088166 4.547485328465707 a42.355058207952155,42.355058207952155 0 0,0 -0.16092731443273767,0.7090754404728765 l -20.784117352097766 -4.9049951028776" fill="#ff750a" stroke="none" /><path d="M 120.26092885502905 105.52220625578681 l 59.797414909279944 16.298051340817036 a82.97868429823663,82.97868429823663 0 0,0 -0.38637051792137966,1.3710926636400933 l -59.508825899283984 -17.32215192836014" fill="#4bdeff" stroke="none" /><path d="M 119.83427380445688 106.89939002012753 l 19.965678407488216 6.945099362233589 a42.139127688306786,42.139127688306786 0 0,0 -0.24352368432140356,0.6811790866086183 l -19.84351455312287 -7.286813405223129" fill="#ff720a" stroke="none" /><path d="M 119.4528033332814 107.91128576633889 l 23.071922918718315 9.383150194945927 a45.90696960186432,45.90696960186432 0 0,0 -0.3031481066394174,0.72744509874133 l -22.90744896754241 -9.777827803128535" fill="#ffb210" stroke="none" /><path d="M 119.16976305983485 108.57439118712176 l 23.159076955783192 10.358760550755232 a46.370194433464064,46.370194433464064 0 0,0 -0.3312499777481529,0.7238409824826963 l -22.977842513179983 -10.754790515452617" fill="#ffba11" stroke="none" /><path d="M 118.8641267826498 109.22738970284198 l 22.26876107501512 10.892766943637918 a45.79012084489544,45.79012084489544 0 0,0 -0.3514502691345482,0.7031359654710098 l -22.07849089266884 -11.273434765272674" fill="#ffb010" stroke="none" /><line stroke="#e1ed5e" stroke-width="0.3" x1="174.33088141563837" x2="178.70328620479359" y1="141.23008692659167" y2="143.65538615756765" /><path d="M 175.20536237346943 141.71514677278685 a86.0,86.0 0 0,1 -30.301960400862466,31.631185727798858" fill="none" id="id65" stroke="none" /><text fill="#e1ed5e" style="font-size:6.75px; font-family:Arial;" text-anchor="middle"><textPath startOffset="22.145653131862474" xlink:href="#id65">May</textPath></text><path d="M 118.36410011445183 110.18625677009912 l 20.927409471367508 11.608081260709072 a44.93123519038471,44.93123519038471 0 0,0 -0.3799184875328402,0.6712795643841551 l -20.72505761881329 -11.96561759519235" fill="#ffa20e" stroke="none" /><path d="M 117.62189284568427 111.42229804090321 l 20.572208777440885 13.334657183162006 a45.515889871164575,45.515889871164575 0 0,0 -0.4306140456274302,0.6520045489785536 l -20.340270292892725 -13.68584161047962" fill="#ffab0f" stroke="none" /><path d="M 117.21940702142032 112.02048342749411 l 20.144685899122223 14.062555272736661 a45.56753611522872,45.56753611522872 0 0,0 -0.45325572817438653,0.6375609444472065 l -19.90031507241788 -14.406293443893372" fill="#ffac0f" stroke="none" /><path d="M 117.01052211995028 112.31430620078461 l 16.992424385443545 12.30120483665922 a41.97765780368401,41.97765780368401 0 0,0 -0.4275683917528129,0.580078640299956 l -16.778753974106902 -12.591089786228057" fill="#ff6f0a" stroke="none" /><path d="M 116.35404254752997 113.17365903436017 l 19.104491974588164 15.389226398698987 a45.53181409430451,45.53181409430451 0 0,0 -0.4955448065280373,0.6044840895057381 l -18.8375003488215 -15.714912769903219" fill="#ffac0f" stroke="none" /><path d="M 115.6541949942343 113.99807769240083 l 18.353528096474328 16.411837997337763 a45.62113766743796,45.62113766743796 0 0,0 -0.5270377565871223,0.5793068179150586 l -18.069092639045326 -16.724482390810493" fill="#ffad10" stroke="none" /><path d="M 114.65682725009322 115.03919595460226 l 17.10524422922972 17.551487468959504 a45.508041384709614,45.508041384709614 0 0,0 -0.5641426327057121,0.5404358807094394 l -16.801429110658695 -17.842535479974522" fill="#ffab0f" stroke="none" /><path d="M 113.86319453409587 115.77377054828091 l 18.989725427073058 21.60682164019287 a49.76568117021969,49.76568117021969 0 0,0 -0.6465285250864381,0.5584559414120184 l -18.616017422223763 -21.929621714069604" fill="#fff116" stroke="none" /><path d="M 112.45986205192187 116.90419585922612 l 10.779593360399012 14.62458867422948 a39.168055121722844,39.168055121722844 0 0,0 -0.5446578991553447,0.3942903161690004 l -10.5269544508697 -14.807479761771557" fill="#ff3d05" stroke="none" /><path d="M 111.8722381534696 117.32195027204791 l 8.41389207382334 12.276119987919277 a35.88276526011676,35.88276526011676 0 0,0 -0.5110794420307058,0.34387705734906227 l -8.201916343695629 -12.41874671932546" fill="#ff0000" stroke="none" /><path d="M 111.5731344415666 117.5232005979908 l 12.022850413613963 18.20412789820451 a42.81603090853891,42.81603090853891 0 0,0 -0.6167840247409991,0.39979195306393805 l -11.708580756615953 -18.407833692972343" fill="#ff7d0b" stroke="none" /><line stroke="#e1ed5e" stroke-width="0.3" x1="143.1302829299769" x2="145.66735839644613" y1="173.24464959558577" y2="177.55315839532614" /><path d="M 143.63769802327073 174.10635135553383 a86.0,86.0 0 0,1 -40.68552437913181,11.842963189579606" fill="none" id="id66" stroke="none" /><text fill="#e1ed5e" style="font-size:6.75px; font-family:Arial;" text-anchor="middle"><textPath startOffset="21.407464694133747" xlink:href="#id66">June</textPath></text><path d="M 110.34350942703117 118.27599006163325 l 11.759442131813305 20.777807478931965 a44.87470969212038,44.87470969212038 0 0,0 -0.673667287392809,0.3736718883164353 l -11.401030656264401 -20.976612282681547" fill="#ffa10e" stroke="none" /><path d="M 109.71004243097381 118.62028667847754 l 11.44724224333285 21.95159637705717 a45.757058356734824,45.757058356734824 0 0,0 -0.6995878977528854,0.3572145653537463 l -11.068727123866383 -22.144868894083753" fill="#ffaf10" stroke="none" /><path d="M 109.3889696526874 118.78422872680471 l 11.009432358388457 22.026239643139185 a45.62443570258874,45.62443570258874 0 0,0 -0.7035717088326228,0.3441521792179729 l -10.629700400293766 -22.21198557245438" fill="#ffad10" stroke="none" /><path d="M 108.07796709384702 119.3841803445677 l 9.959299013365815 23.89869207657532 a46.89083080568473,46.89083080568473 0 0,0 -0.7456658932682029,0.30325582728553924 l -9.54757865890717 -24.06613516044015" fill="#ffc212" stroke="none" /><path d="M 107.74402155503746 119.51999308798841 l 9.073228316591864 22.870462429227704 a45.60450210452795,45.60450210452795 0 0,0 -0.7301665982245006,0.2824441259582795 l -8.679289455873835 -23.022846443324024" fill="#ffad10" stroke="none" /><path d="M 107.407793817531 119.65005319985036 l 8.289878502510419 21.989887624723163 a44.50057963826291,44.50057963826291 0 0,0 -0.7171180432032207,0.2633356785841281 l -7.911171307653071 -22.128954152316016" fill="#ff9a0e" stroke="none" /><path d="M 106.38641147887787 120.00534299687104 l 7.128056126264856 22.328534291675744 a44.43869936139208,44.43869936139208 0 0,0 -0.7287086851474823,0.22575581339561912 l -6.74370680824575 -22.447606692878008" fill="#ff990e" stroke="none" /><path d="M 105.3480935250658 120.30758222061773 l 6.0063379393601375 22.80704347758594 a44.58468417491089,44.58468417491089 0 0,0 -0.7417929835205361,0.18856087565201984 l -5.613939662614204 -22.906789585073227" fill="#ff9c0e" stroke="none" /><path d="M 103.58742460773223 120.69131181640829 l 4.024246073998187 23.21078195304291 a44.55705744221447,44.55705744221447 0 0,0 -0.7547594157120106,0.12419537463576519 l -3.625209155233104 -23.276443326174345" fill="#ff9b0e" stroke="none" /><path d="M 102.51750503828377 120.84855314841334 l 2.9234584555300063 24.210429794748883 a45.38629779584581,45.38629779584581 0 0,0 -0.77429909807173,0.08676182897230357 l -2.507423455857477 -24.25704738422816" fill="#ffa90f" stroke="none" /><path d="M 102.15924093988457 120.88869738790638 l 2.5054225512799313 24.237690447514712 a45.36683771830083,45.36683771830083 0 0,0 -0.7753418030923488,0.07342567487267918 l -2.088981184802567 -24.277127877892575" fill="#ffa90f" stroke="none" /><line stroke="#e1ed5e" stroke-width="0.3" x1="101.45913802915013" x2="101.54496967792366" y1="184.9874750549273" y2="189.98673829345242" /><path d="M 101.47630435890484 185.9873277026323 a86.0,86.0 0 0,1 -42.54439059252881,-10.42667462771756" fill="none" id="id67" stroke="none" /><text fill="#e1ed5e" style="font-size:6.75px; font-family:Arial;" text-anchor="middle"><textPath startOffset="22.145653131862474" xlink:href="#id67">July</textPath></text><path d="M 100.36049292484886 120.99690560180557 l 0.42171516584824426 24.562794212612943 a45.566414130114275,45.566414130114275 0 0,0 -0.7822080906970935,0.00671431569576662 l -3.0085180430972756e-15 -24.566414130114275" fill="#ffac0f" stroke="none" /><path d="M 100.0 121.0 l 2.108707044398503e-15 17.218899733920566 a38.218899733920566,38.218899733920566 0 0,0 -0.6560782356945735,-0.005631642587139652 l 0.2955853108457192 -17.21636248952786" fill="#ff2b04" stroke="none" /><path d="M 99.63950707515114 120.99690560180557 l -0.3218206366533772 18.744438691431068 a39.747201134542564,39.747201134542564 0 0,0 -0.6821124805638744,-0.017568797879778067 l 0.6435464312879955 -18.73615217620124" fill="#ff4706" stroke="none" /><path d="M 98.19965949673042 120.92268563240118 l -2.047919631073931 23.79993038181777 a44.88787686243192,44.88787686243192 0 0,0 -0.7671561240307851,-0.07265048255493066 l 2.4561753184897315 -23.761268143757654" fill="#ffa10e" stroke="none" /><path d="M 97.48249496171623 120.84855314841334 l -2.633689056856613 21.81072349142225 a42.969159685055885,42.969159685055885 0 0,0 -0.7315441696249269,-0.0947130387824518 l 3.0077110483723337 -21.762298856439404" fill="#ff800b" stroke="none" /><path d="M 96.41257539226777 120.69131181640829 l -3.201895078941254 18.46767994482739 a39.743194355315424,39.743194355315424 0 0,0 -0.6712157435980983,-0.12231786785641262 l 3.5184455560904095 -18.40999390303961" fill="#ff4706" stroke="none" /><path d="M 95.35216902796893 120.47920084513623 l -5.225474076281046 23.024402944767154 a44.609928214310344,44.609928214310344 0 0,0 -0.7453423540177752,-0.17589876608618368 l 5.619948584038709 -22.931308035034743" fill="#ff9c0e" stroke="none" /><path d="M 95.00130118170881 120.39639698878247 l -4.089279484947554 16.685655768631975 a38.179444552583604,38.179444552583604 0 0,0 -0.6352236111556124,-0.16147135793314968 l 4.375108389328545 -16.612999178863564" fill="#ff2b04" stroke="none" /><path d="M 94.6519064749342 120.30758222061772 l -5.175772102051832 19.65324970944738 a41.32335703062542,41.32335703062542 0 0,0 -0.684430102431788,-0.1865444679432565 l 5.512383605418315 -19.56150474735998" fill="#ff6309" stroke="none" /><path d="M 93.27111125876986 119.89276391827306 l -6.761823406479817 19.990129403977253 a42.10278487233792,42.10278487233792 0 0,0 -0.6826550109457731,-0.2374628492146258 l 7.103984189470611 -19.871108122194034" fill="#ff710a" stroke="none" /><path d="M 92.59220618246901 119.65005319985036 l -8.653062308822312 22.953275819797362 a45.53015202113627,45.53015202113627 0 0,0 -0.7289761905901124,-0.2819836507124286 l 9.045810761905953 -22.801352280946894" fill="#ffac0f" stroke="none" /><path d="M 91.92203290615298 119.3841803445677 l -9.459608360813794 22.699616416445334 a45.591803020391424,45.591803020391424 0 0,0 -0.7198401305381235,-0.307256947386683 l 9.847883566522349 -22.533884819399248" fill="#ffad10" stroke="none" /><path d="M 90.6110303473126 118.78422872680471 l -10.896658113307122 21.80061560850464 a45.37219725318335,45.37219725318335 0 0,0 -0.6937036870970927,-0.3542100454662377 l 11.269289022117798 -21.610347611365565" fill="#ffa90f" stroke="none" /><path d="M 90.28995756902619 118.62028667847754 l -7.421476420643253 14.231659594929265 a37.050496786333625,37.050496786333625 0 0,0 -0.561422974194067,-0.2989261114835625 l 7.664688210623882 -14.10216301572313" fill="#ff1602" stroke="none" /><line stroke="#e1ed5e" stroke-width="0.3" x1="58.13341422392154" x2="55.67067388415222" y1="173.97424548756322" y2="178.32567169271397" /><path d="M 57.64086615596768 174.84453072859336 a86.0,86.0 0 0,1 -31.369924170532247,-30.572349798747897" fill="none" id="id68" stroke="none" /><text fill="#e1ed5e" style="font-size:6.75px; font-family:Arial;" text-anchor="middle"><textPath startOffset="22.145653131862474" xlink:href="#id68">August</textPath></text><path d="M 89.65649057296885 118.27599006163327 l -11.55512410861336 20.41679710931255 a44.45989124800648,44.45989124800648 0 0,0 -0.6609863297969103,-0.3816206354389118 l 11.903902906270668 -20.215429576597465" fill="#ff9a0e" stroke="none" /><path d="M 88.4268655584334 117.5232005979908 l -8.812975915935079 13.343968794273112 a36.99156176479916,36.99156176479916 0 0,0 -0.5268720682352569,-0.3545030410619983 l 9.040744272267338 -13.190716079153992" fill="#ff1502" stroke="none" /><path d="M 88.1277618465304 117.32195027204791 l -18.592607370975582 27.127169801056453 a53.88720709130839,53.88720709130839 0 0,0 -0.758539187577459,-0.5295192640511477 l 19.055541649726806 -26.804005721200177" fill="#ceff1d" stroke="none" /><path d="M 87.83215693770417 117.11559508785305 l -9.321435765282871 13.111766759252632 a37.08749801166536,37.08749801166536 0 0,0 -0.5157263665297387,-0.3733461176842394 l 9.545143142186562 -12.949819870195327" fill="#ff1702" stroke="none" /><path d="M 86.68645165197938 116.24036423190432 l -10.21745854717173 12.463638092028507 a37.11641193480226,37.11641193480226 0 0,0 -0.48927502130348133,-0.40817062444050617 l 10.429907902637106 -12.28640528367613" fill="#ff1702" stroke="none" /><path d="M 86.13680546590413 115.77377054828092 l -15.124945020429644 17.209410985386636 a43.91130263287022,43.91130263287022 0 0,0 -0.5619287016759629,-0.5024801100629723 l 15.418138748928978 -16.947235345440284" fill="#ff900d" stroke="none" /><path d="M 85.86807049272751 115.53346607816431 l -10.965574811486517 12.053087603794143 a37.294807508253776,37.294807508253776 0 0,0 -0.46986170244096537,-0.4348969771514399 l 11.17086628524145 -11.863072880510323" fill="#ff1a02" stroke="none" /><path d="M 85.08716467003676 114.78537596483092 l -11.579113057528245 11.480146873938555 a37.305509236028854,37.305509236028854 0 0,0 -0.4469789768369163,-0.45863980693333767 l 11.77447883551597 -11.27968437493748" fill="#ff1b02" stroke="none" /><path d="M 84.58840730492382 114.26474011684316 l -11.945861491959771 11.056911055601184 a37.277557829003804,37.277557829003804 0 0,0 -0.43064863030077105,-0.47335828323672197 l 12.133907823102419 -10.850215196806788" fill="#ff1a02" stroke="none" /><path d="M 84.1078160697243 113.72728997021213 l -17.791885930525595 15.368207312273729 a44.51027437011015,44.51027437011015 0 0,0 -0.49449947573032127,-0.5825191390090718 l 18.05307996976303 -15.060521390815103" fill="#ff9a0e" stroke="none" /><path d="M 83.4222238831116 112.89097897827486 l -19.352531792759443 15.048645774791838 a45.514938842365595,45.514938842365595 0 0,0 -0.4743263984043762,-0.6209084815932636 l 19.608010168518117 -14.714216379957705" fill="#ffab0f" stroke="none" /><path d="M 82.78059297857968 112.02048342749411 l -20.555571993770545 14.349385677823426 a46.06863397399244,46.06863397399244 0 0,0 -0.44710763879989807,-0.6523434069827195 l 20.79886936938577 -13.994407535770655" fill="#ffb510" stroke="none" /><line stroke="#e1ed5e" stroke-width="0.3" x1="26.387840678322732" x2="22.057713659400534" y1="142.50000000000003" y2="145.00000000000006" /><path d="M 25.521815274538284 143.00000000000003 a86.0,86.0 0 0,1 -11.493303480769212,-40.785679425670985" fill="none" id="id69" stroke="none" /><text fill="#e1ed5e" style="font-size:6.75px; font-family:Arial;" text-anchor="middle"><textPath startOffset="21.40746469413373" xlink:href="#id69">September</textPath></text><path d="M 81.81346652052679 110.50000000000001 l -15.326668698456817 8.848856298834264 a38.69771259766851,38.69771259766851 0 0,0 -0.32721060034941546,-0.5781497781032586 l 15.476312663827613 -8.584449750631885" fill="#ff3405" stroke="none" /><path d="M 81.4637452351635 109.86951160357371 l -23.089383064372303 12.29379596710517 a47.15830708540088,47.15830708540088 0 0,0 -0.3743290129494193,-0.7178252394609491 l 23.29702014629667 -11.895624484539718" fill="#ffc712" stroke="none" /><path d="M 81.29705330413844 109.54985784667822 l -14.481304866636437 7.394257448286919 a37.25986573905254,37.25986573905254 0 0,0 -0.2859784949304532,-0.5721485592600005 l 14.606103274778626 -7.144577032863165" fill="#ff1a02" stroke="none" /><path d="M 80.68587082218212 108.24405325689762 l -16.909815608528195 7.21779476349009 a39.38582130779827,39.38582130779827 0 0,0 -0.26008550033789607,-0.6241105200090543 l 17.031226953402577 -6.9264517340397544" fill="#ff4106" stroke="none" /><path d="M 80.41425534168474 107.57618678355246 l -20.529575226600233 7.941280723154986 a43.01198306624351,43.01198306624351 0 0,0 -0.26046687972948795,-0.6909193438093447 l 20.662872790144156 -7.587693099151496" fill="#ff810b" stroke="none" /><path d="M 80.16572619554312 106.89939002012753 l -18.404775107463948 6.402136168484009 a40.48648491329659,40.48648491329659 0 0,0 -0.22270377317981746,-0.6583841335389478 l 18.511964302216136 -6.085250360470899" fill="#ff5407" stroke="none" /><path d="M 79.64726062577567 105.17358676015961 l -19.57279943327983 4.975329077102928 a41.195256301440324,41.195256301440324 0 0,0 -0.1683365161438971,-0.6868704308440863 l 19.655323475940023 -4.638602821650742" fill="#ff6109" stroke="none" /><path d="M 79.407916724674 104.11899336999214 l -15.886757275483657 3.177796389683433 a37.20146433580675,37.20146433580675 0 0,0 -0.11988385829224521,-0.6272830046816095 l 15.938967426058058 -2.904610819968509" fill="#ff1902" stroke="none" /><path d="M 79.17382384314188 102.69636545807758 l -19.263227939470173 2.4940105200232896 a40.42400677311381,40.42400677311381 0 0,0 -0.08319243989329995,-0.6889527441994652 l 19.303202465623134 -2.1629640989004253" fill="#ff5307" stroke="none" /><path d="M 79.06263194458094 101.62068470465958 l -16.05586915182979 1.2428258167650206 a37.10389860349031,37.10389860349031 0 0,0 -0.04370492746587555,-0.6354600534407507 l 16.074838040460733 -0.9670223391699264" fill="#ff1702" stroke="none" /><line stroke="#e1ed5e" stroke-width="0.3" x1="15.003131293944662" x2="10.003315487706104" y1="100.72959589197737" y2="100.7725132973878" /><path d="M 14.003168132696942 100.73817937305945 a86.0,86.0 0 0,1 10.791469493833604,-42.45332614584628" fill="none" id="id70" stroke="none" /><text fill="#e1ed5e" style="font-size:6.75px; font-family:Arial;" text-anchor="middle"><textPath startOffset="22.145653131862435" xlink:href="#id70">October</textPath></text><path d="M 79.00077361379809 99.81974689727619 l -23.73843276262214 -0.20376589501767806 a44.7393072890829,44.7393072890829 0 0,0 0.013184393494609004,-0.7679248233218184 l 23.731436937528866 0.6112376343085488" fill="#ff9e0e" stroke="none" /><path d="M 79.01933749520258 99.09900007780938 l -17.42307165354477 -0.7482216636665285 a38.43913018193669,38.43913018193669 0 0,0 0.033969959945177104,-0.6590081477886557 l 17.407660104143023 1.0472016048318962" fill="#ff2f04" stroke="none" /><path d="M 79.0935383218832 98.0201363427161 l -19.638599783541125 -1.8597958176765474 a40.726465520755326,40.726465520755326 0 0,0 0.07188726854916251,-0.695444112340178 l 19.603780122510297 2.1966444522996382" fill="#ff5908" stroke="none" /><path d="M 79.22317932658666 96.9465228501225 l -23.55197135488526 -3.4613287324916113 a44.80496064469983,44.80496064469983 0 0,0 0.11836725530340922,-0.760002689987541 l 23.489082607443585 3.8651196044106024" fill="#ff9f0e" stroke="none" /><path d="M 79.56144815229197 95.17655741523228 l -22.376574832785735 -5.2808107322830535 a43.991260583914396,43.991260583914396 0 0,0 0.17976185154151286,-0.7334896981716249 l 22.282625454727924 5.664156255062797" fill="#ff920d" stroke="none" /><path d="M 79.64726062577567 94.8264132398404 l -15.603594470342308 -3.966372696979473 a37.09982213461507,37.09982213461507 0 0,0 0.16219780629673058,-0.6158914895442337 l 15.533207183240853 4.233644690896491" fill="#ff1702" stroke="none" /><path d="M 80.41425534168474 92.42381321644754 l -16.6086701499926 -6.424590408888739 a38.80795569607136,38.80795569607136 0 0,0 0.24567528819482828,-0.6192622132273266 l 16.49593618683164 6.7087536393296485" fill="#ff3605" stroke="none" /><path d="M 81.1358732173502 90.77261029715801 l -18.313410557391602 -8.95800680032622 a41.386929442127204,41.386929442127204 0 0,0 0.31765470854197114,-0.6355222055373222 l 18.156935935637886 9.271060862027314" fill="#ff6409" stroke="none" /><path d="M 81.29705330413844 90.45014215332179 l -15.35123945493985 -7.8384522476039855 a38.236643711606675,38.236643711606675 0 0,0 0.3035114274383346,-0.5820231815947754 l 15.214419958526578 8.100821672303248" fill="#ff2c04" stroke="none" /><path d="M 81.46374523516351 90.13048839642627 l -55.60876429450947 -29.60853481072118 a84.0,84.0 0 0,0 0.6886186015385976,-1.2669806661015215 l 55.092300343355525 30.558770310297323" fill="#4dd2ff" stroke="none" /><line stroke="#e1ed5e" stroke-width="0.3" x1="26.387840678322718" x2="22.05771365940052" y1="57.49999999999999" y2="54.99999999999999" /><path d="M 25.521815274538284 56.99999999999999 a86.0,86.0 0 0,1 29.574782752854787,-30.34633250058573" fill="none" id="id71" stroke="none" /><text fill="#e1ed5e" style="font-size:6.75px; font-family:Arial;" text-anchor="middle"><textPath startOffset="21.40746469413373" xlink:href="#id71">November</textPath></text><path d="M 82.576782715395 88.27688183743585 l -20.389806595516767 -13.719171845620016 a45.57559539730893,45.57559539730893 0 0,0 0.4423225758440155,-0.6453618571267465 l 20.15129428285744 14.067168437816797" fill="#ffac10" stroke="none" /><path d="M 83.42222388311158 87.10902102172516 l -16.75610706545729 -13.02965020250711 a42.22590182745509,42.22590182745509 0 0,0 0.449873892154073,-0.5684009665161 l 16.529966742661657 13.315371112937893" fill="#ff730a" stroke="none" /><path d="M 83.8745106332314 86.54754324733833 l -16.061670541909717 -13.39921681916923 a41.91688963407222,41.91688963407222 0 0,0 0.46568753488101555,-0.5485787451351853 l 15.829288443521586 13.672962346753971" fill="#ff6e0a" stroke="none" /><path d="M 84.10781606972428 86.27271002978789 l -16.129939539308364 -13.932657602600127 a42.31417128140417,42.31417128140417 0 0,0 0.4795383144159647,-0.5456265741711397 l 15.888390160933804 14.207496454582566" fill="#ff750a" stroke="none" /><path d="M 84.58840730492382 85.73525988315684 l -15.700093999029205 -14.531772616707702 a42.39311494294481,42.39311494294481 0 0,0 0.49891481180459524,-0.5298302407776107 l 15.448323353488338 14.799144317429825" fill="#ff760a" stroke="none" /><path d="M 85.86807049272753 84.46653392183569 l -14.041595094758804 -15.434172734551892 a41.865763365023085,41.865763365023085 0 0,0 0.5357521330913191,-0.4790728610218475 l 13.774577934844093 15.67294112545714" fill="#ff6d0a" stroke="none" /><path d="M 86.68645165197937 83.75963576809568 l -13.792741069724684 -16.824901436736596 a42.755850122952474,42.755850122952474 0 0,0 0.5716034278488328,-0.46044325979140077 l 13.501886871520606 17.059192990321396" fill="#ff7c0b" stroke="none" /><path d="M 88.12776184653039 82.6780497279521 l -11.993567413516294 -17.49897328842489 a42.21461113128326,42.21461113128326 0 0,0 0.6012641374242369,-0.40455734522491094 l 11.691406987995068 17.70228030770691" fill="#ff730a" stroke="none" /><line stroke="#e1ed5e" stroke-width="0.3" x1="56.869717070023135" x2="54.33264160355391" y1="26.7553504044142" y2="22.446841604673864" /><path d="M 56.362301976729285 25.89364864446614 a86.0,86.0 0 0,1 42.16139366436587,-11.88097634709845" fill="none" id="id72" stroke="none" /><text fill="#e1ed5e" style="font-size:6.75px; font-family:Arial;" text-anchor="middle"><textPath startOffset="22.145653131862474" xlink:href="#id72">December</textPath></text><path d="M 89.65649057296885 81.72400993836675 l -10.438394872149924 -18.443643551410375 a42.19264200043042,42.19264200043042 0 0,0 0.633403600365934,-0.35133829984706 l 10.120247083627888 18.62011476669058" fill="#ff730a" stroke="none" /><path d="M 89.97174638481275 81.54914285379989 l -9.049670084942417 -16.650373670709687 a39.950764417842464,39.950764417842464 0 0,0 0.6053704788397019,-0.32232568235431536 l 8.762510790316153 16.80326982078658" fill="#ff4b07" stroke="none" /><path d="M 91.26138138417902 80.90454125486306 l -8.940815792721684 -19.537296067445567 a42.48590525592081,42.48590525592081 0 0,0 0.6657877136795028,-0.29779837585101043 l 8.604114676186564 19.687898194206426" fill="#ff780b" stroke="none" /><path d="M 92.25597844496254 80.48000691201159 l -8.08824650436917 -20.387664824684066 a42.93345865382612,42.93345865382612 0 0,0 0.6874009365001694,-0.26590144929225884 l 7.737073305375471 20.523506162114366" fill="#ff7f0b" stroke="none" /><path d="M 92.592206182469 80.34994680014964 l -6.462467293723947 -17.142462283904838 a39.320139100933474,39.320139100933474 0 0,0 0.6336362681059347,-0.23268001442533143 l 6.167241873963885 17.25087314733889" fill="#ff3f06" stroke="none" /><path d="M 93.27111125876988 80.10723608172694 l -7.044548476843892 -20.825955837555874 a42.985133608655445,42.985133608655445 0 0,0 0.7010205181017874,-0.2304393683368155 l 6.686005221094344 20.943816127294717" fill="#ff800b" stroke="none" /><path d="M 95.00130118170881 79.60360301121753 l -4.9340222323551535 -20.13249444722438 a41.72828762963539,41.72828762963539 0 0,0 0.6971959242253283,-0.164536339751097 l 4.5876941543899195 20.21422693062171" fill="#ff6a09" stroke="none" /><path d="M 96.76829788921471 79.25015418208739 l -2.3963150817827086 -15.386061825496418 a36.571551768182175,36.571551768182175 0 0,0 0.6211502078418791,-0.09128769007058969 l 2.131839768333145 15.424930588865893" fill="#ff0d01" stroke="none" /><path d="M 99.63950707515114 79.00309439819443 l -0.35978932762388594 -20.955924590817315 a41.95901294947579,41.95901294947579 0 0,0 0.7202822524727329,-0.006182756852910902 l 5.133477624372691e-15 20.95901294947579" fill="#ff6e0a" stroke="none" /></svg>