<?xml version="1.0" encoding="utf-8" ?>
<svg baseProfile="full" height="200mm" version="1.1" viewBox="0,0,200,200" width="200mm" xmlns="http://www.w3.org/2000/svg" xmlns:ev="http://www.w3.org/2001/xml-events" xmlns:xlink="http://www.w3.org/1999/xlink"><defs /><rect fill="#1a1a1a" height="200" width="200" x="0" y="0" /><text alignment-baseline="middle" fill="#e1ed5e" style="dominant-baseline: central; font-size:9.0px; font-family:Arial;" text-anchor="middle" x="100.0" y="100.0">2014</text><line stroke="#e1ed5e" stroke-width="0.3" x1="100.0" x2="100.0" y1="15.0" y2="10.0" /><path d="M 100.0 14.0 a86.0,86.0 0 0,1 42.46469731375804,11.215312516191453" fill="none" id="id37" stroke="none" /><text fill="#e1ed5e" style="font-size:6.75px; font-family:Arial;" text-anchor="middle"><textPath startOffset="22.20632615414155" xlink:href="#id37">January</textPath></text><path d="M 100.0 79.0 l 0.0 -50.71541031920546 a71.71541031920546,71.71541031920546 0 0,0 1.2344628996863056,0.010625411911446534 l -0.8729824204137772 50.70789628390257" fill="#3bff99" stroke="none" /><path d="M 101.80526077348638 79.07773832637324 l 3.4670757477328213 -40.182043005488644 a61.331342580373594,61.331342580373594 0 0,0 1.0510290055474591,0.09980786842082535 l -4.158229880370524 40.11640959255264" fill="#51ff2b" stroke="none" /><path d="M 102.88285421437855 79.19881850522331 l 6.3113403996255375 -45.53936042729346 a66.97462741302954,66.97462741302954 0 0,0 1.1405811565301263,0.16809201361574436 l -7.09429053658432 45.42397392951675" fill="#34ff58" stroke="none" /><path d="M 103.95276090670814 79.375362276772 l 9.105372014723557 -47.50983010892211 a69.37449489664107,69.37449489664107 0 0,0 1.1708881579819563,0.23486914934728953 l -9.921826582172638 47.34605700349761" fill="#37ff79" stroke="none" /><path d="M 104.66035177308747 79.52364482259891 l 2.5358911691464714 -11.142036223646974 a32.426973143873944,32.426973143873944 0 0,0 0.5431924312151069,0.12855609862503686 l -2.7273072873241015 11.096734212881069" fill="#ff0000" stroke="none" /><path d="M 106.0581310904928 79.89281104454417 l 13.629381861834858 -45.23648503942884 a68.2451016366584,68.2451016366584 0 0,0 1.1218670155151516,0.3485695426893645 l -14.406034250060728 44.99517536185696" fill="#35ff6a" stroke="none" /><path d="M 106.74666289553966 80.11325718540242 l 15.060043679521508 -44.39160812810909 a67.87664437466377,67.87664437466377 0 0,0 1.1032152489938147,0.3848901381746878 l -15.821940932578595 44.125797136762195" fill="#35ff65" stroke="none" /><path d="M 108.09893153111575 80.62456947434976 l 17.915314256565075 -42.85959516877745 a67.45323867011831,67.45323867011831 0 0,0 1.0674193714155575,0.45701326849633167 l -18.650417385770947 42.54486237231833" fill="#34ff5f" stroke="none" /><path d="M 110.05341064243156 81.56283822128135 l 23.198131581983816 -42.54354269941479 a69.45726296760853,69.45726296760853 0 0,0 1.0447560100217403,0.5814055884437668 l -23.92701168107759 42.13792171341085" fill="#37ff7a" stroke="none" /><path d="M 110.36928655335952 81.73862282372117 l 26.96450090760589 -47.48725179017929 a75.60882155641308,75.60882155641308 0 0,0 1.1262231636805682,0.6523811490790312 l -27.777920803751787 47.01606648371021" fill="#40ffca" stroke="none" /><line stroke="#e1ed5e" stroke-width="0.3" x1="143.23703022742887" x2="145.7803849466894" y1="26.81831364943548" y2="22.513508569990506" /><path d="M 143.74570117128098 25.957352633546492 a86.0,86.0 0 0,1 28.547481713284135,27.462654790039103" fill="none" id="id38" stroke="none" /><text fill="#e1ed5e" style="font-size:6.75px; font-family:Arial;" text-anchor="middle"><textPath startOffset="19.985693538727396" xlink:href="#id38">February</textPath></text><path d="M 110.68208982089419 81.91981866633111 l 22.399111734243295 -37.91205734631508 a65.03458071463153,65.03458071463153 0 0,0 0.9589130093752756,0.57773435879771 l -23.04838680983621 37.52087637805876" fill="#31ff3c" stroke="none" /><path d="M 111.60114157652 82.49532879139004 l 20.410172590690735 -30.796396902363764 a57.945814476740175,57.945814476740175 0 0,0 0.8266806664771812,0.5581784762283718 l -20.937257951574455 30.440506513836723" fill="#7bff26" stroke="none" /><path d="M 113.89432698308785 84.25364557470407 l 22.052008732768588 -24.991404457269063 a54.32958724462261,54.32958724462261 0 0,0 0.6959077151070729,0.6247928177491092 l -22.47892743547165 24.608112630750657" fill="#aaff21" stroke="none" /><path d="M 114.42810811169701 84.74124197986012 l 32.96246989566516 -34.86017348846591 a68.97662052780055,68.97662052780055 0 0,0 0.8556935926895088,0.8231765582021626 l -33.55764673196708 34.28761384350145" fill="#37ff74" stroke="none" /><path d="M 114.68862486808459 84.99185889309783 l 27.60329107028667 -28.20373527939222 a60.463810784324934,60.463810784324934 0 0,0 0.7375554146857625,0.7343881173407628 l -28.084682285139753 27.724411311401337" fill="#5bff2a" stroke="none" /><path d="M 116.38621287248628 86.86637796730983 l 31.113100558905273 -24.937287595711673 a60.87346660399353,60.87346660399353 0 0,0 0.6482905907658456,0.8232632153323747 l -31.537745230265084 24.39803198642626" fill="#56ff2a" stroke="none" /><path d="M 117.45458315368197 88.32363383020206 l 46.125682045899936 -30.856099435751407 a76.49484135114213,76.49484135114213 0 0,0 0.7227063762775398,1.1007313931051814 l -46.6499850575354 30.057549978668554" fill="#42ffd5" stroke="none" /><line stroke="#e1ed5e" stroke-width="0.3" x1="172.23445277983987" x2="176.4835382374775" y1="55.19839476539836" y2="52.563006222186495" /><path d="M 173.08426987136738 54.67131705675599 a86.0,86.0 0 0,1 12.851231095245387,41.99856678651699" fill="none" id="id39" stroke="none" /><text fill="#e1ed5e" style="font-size:6.75px; font-family:Arial;" text-anchor="middle"><textPath startOffset="22.20632615414155" xlink:href="#id39">March</textPath></text><path d="M 119.34039704204932 91.81776055985345 l 32.856064178851824 -13.900241219851472 a56.67544897117467,56.67544897117467 0 0,0 0.3723801354290514,0.9017480348688398 l -33.09046600116707 13.332618614529329" fill="#8bff24" stroke="none" /><path d="M 120.08093135843002 93.85539295169968 l 50.009197867740845 -15.302421198156521 a73.29803022964293,73.29803022964293 0 0,0 0.3587907267112129,1.2096639660456543 l -50.26519449156376 14.439327845364337" fill="#3dffad" stroke="none" /><path d="M 120.28053869075195 94.5502522615342 l 45.49617662080672 -12.225645947025326 a68.1101741233638,68.1101741233638 0 0,0 0.2945073165406583,1.1348568277264375 l -45.69988026921768 11.440692693750037" fill="#35ff68" stroke="none" /><path d="M 120.67395015179393 96.31383870115 l 56.322261138562226 -10.042248227761922 a78.21052218978939,78.21052218978939 0 0,0 0.22490418307488913,1.327397219603831 l -56.486777183157336 9.071265219842253" fill="#44ffea" stroke="none" /><path d="M 120.94382443527127 98.46500227214037 l 54.54121275682718 -3.9973901574272914 a75.6875032987993,75.6875032987993 0 0,0 0.08404704025139767,1.3001705125885876 l -54.60194038808299 3.0579605805856684" fill="#41ffcb" stroke="none" /><path d="M 120.96714384426684 98.82574320788733 l 46.903855237099506 -2.626832295209988 a67.97735501292027,67.97735501292027 0 0,0 0.0553736793381765,1.168850852205279 l -46.942122524671184 1.819070336381709" fill="#35ff66" stroke="none" /><line stroke="#e1ed5e" stroke-width="0.3" x1="184.98032266829074" x2="189.97916517819016" y1="98.17113171792111" y2="98.06355123074" /><path d="M 185.9800911702706 98.14961562048488 a86.0,86.0 0 0,1 -9.607161424134198,41.387399972396054" fill="none" id="id40" stroke="none" /><text fill="#e1ed5e" style="font-size:6.75px; font-family:Arial;" text-anchor="middle"><textPath startOffset="21.466115282336823" xlink:href="#id40">April</textPath></text><path d="M 120.9904718944345 100.63252640178507 l 41.11133741625502 1.2388481049523485 a62.129998891080874,62.129998891080874 0 0,0 -0.041413689068202045,1.0687032972596655 l -41.083921594335614 -1.9463286492260203" fill="#47ff2c" stroke="none" /><path d="M 120.9764740272857 100.99374915477107 l 34.31490045495814 1.6256499199441647 a55.353386017915334,55.353386017915334 0 0,0 -0.05328066295968011,0.9513620290699504 l -34.28183344111093 -2.2160836653495384" fill="#9dff22" stroke="none" /><path d="M 120.95626037817324 101.35467743843564 l 39.95137657554847 2.582580455896179 a61.03476254572344,61.03476254572344 0 0,0 -0.07679754607442872,1.0478415002511463 l -39.90100247080971 -3.269895092644096" fill="#54ff2b" stroke="none" /><path d="M 120.92983693683757 101.71520430193887 l 40.719085066662075 3.336937124169799 a61.855587598720504,61.855587598720504 0 0,0 -0.09609826275842802,1.0604363218001722 l -40.65561220762657 -4.037354834518542" fill="#4aff2c" stroke="none" /><path d="M 120.64145759157962 103.86396538481128 l 52.61069996879069 9.848428709464134 a74.52454856653637,74.52454856653637 0 0,0 -0.24688942089201474,1.2588838381160494 l -52.43338061492302 -10.752576274648128" fill="#3fffbd" stroke="none" /><path d="M 120.49622156327973 104.57218783832717 l 40.942670650780705 9.133272698101116 a62.949004162151205,62.949004162151205 0 0,0 -0.24501980835473874,1.0555389216280513 l -40.77939027649541 -9.836680277077733" fill="#3dff2e" stroke="none" /><path d="M 120.23288151984713 105.62410040840565 l 45.94100908099166 12.770145848060373 a68.68283695797149,68.68283695797149 0 0,0 -0.3264310879979568,1.1363494410564197 l -45.714385356107606 -13.559052764621375" fill="#36ff70" stroke="none" /><path d="M 118.81262510543309 109.33194174019688 l 42.953068342523714 21.306730405176936 a68.9472923176732,68.9472923176732 0 0,0 -0.5365456297709099,1.0586554296350907 l -42.57994404296653 -22.04294004651472" fill="#37ff73" stroke="none" /><line stroke="#e1ed5e" stroke-width="0.3" x1="174.80103733775053" x2="179.2010983576182" y1="140.37084112569926" y2="142.7455964860345" /><path d="M 175.68104954172406 140.8457921977663 a86.0,86.0 0 0,1 -30.038265399797805,32.042727171017184" fill="none" id="id41" stroke="none" /><text fill="#e1ed5e" style="font-size:6.75px; font-family:Arial;" text-anchor="middle"><textPath startOffset="22.206326154141568" xlink:href="#id41">May</textPath></text><path d="M 118.30583269289576 110.29060199501025 l 47.80220803747527 26.87195418251815 a75.83751466692686,75.83751466692686 0 0,0 -0.6494869347434017,1.1324352161417721 l -47.332569106579484 -27.690809244518235" fill="#41ffcd" stroke="none" /><path d="M 117.35343817320211 111.8261652097733 l 38.82711248490562 26.46022317202959 a67.98604127003173,67.98604127003173 0 0,0 -0.6673609939543768,0.9613832859261819 l -38.36589058378911 -27.12464772014279" fill="#35ff66" stroke="none" /><path d="M 116.498646956653 112.99209946851258 l 37.32085935015664 29.388853413344815 a68.5031709213737,68.5031709213737 0 0,0 -0.7374923767984467,0.9201351346929184 l -36.80944906130334 -30.026916381615983" fill="#36ff6d" stroke="none" /><path d="M 115.32070863581623 114.36230785411682 l 35.21906659671154 33.015906040671524 a69.27455544725454,69.27455544725454 0 0,0 -0.8230260828678417,0.8629395574720145 l -34.64553396246474 -33.61725271472604" fill="#37ff78" stroke="none" /><path d="M 114.81725581225074 114.88116024355365 l 15.352906938771916 15.419121546874829 a42.759160387016095,42.759160387016095 0 0,0 -0.5260395772550791,0.5148404429987741 l -15.085217409141043 -15.681112092796175" fill="#ffac0f" stroke="none" /><path d="M 113.75828350139079 115.86535959552629 l 32.12368313601042 37.043413477708114 a70.0320864363658,70.0320864363658 0 0,0 -0.9175354631421209,0.7819436271964841 l -31.48128219629125 -37.59088149512755" fill="#38ff82" stroke="none" /><path d="M 112.04921762599082 117.19931262002967 l 25.519112170083023 36.42653005553708 a65.4760292498805,65.4760292498805 0 0,0 -0.9286468825860774,0.6387317936970727 l -24.888308402874063 -36.86040263859924" fill="#31ff43" stroke="none" /><path d="M 111.1453310114006 117.79835938074945 l 24.726443789921124 39.48650177646109 a67.58949286092943,67.58949286092943 0 0,0 -0.9913795079615709,0.608986265262326 l -24.043085082027243 -39.9062765085518" fill="#34ff61" stroke="none" /><line stroke="#e1ed5e" stroke-width="0.3" x1="143.8653032363475" x2="146.44561519142675" y1="172.8068346515853" y2="177.08958963109032" /><path d="M 144.38136562736335 173.6633856474863 a86.0,86.0 0 0,1 -40.68145358897372,12.25698825130547" fill="none" id="id42" stroke="none" /><text fill="#e1ed5e" style="font-size:6.75px; font-family:Arial;" text-anchor="middle"><textPath startOffset="21.466115282336833" xlink:href="#id42">June</textPath></text><path d="M 110.8373102113329 117.98757091392108 l 25.115474210633565 41.686208532454955 a69.66751510644775,69.66751510644775 0 0,0 -1.0325128117496232,0.610026768691447 l -24.39419352785556 -42.112353873440156" fill="#38ff7d" stroke="none" /><path d="M 109.57404056367764 118.69057910512821 l 22.90321035688952 44.71197527205807 a71.23661789353523,71.23661789353523 0 0,0 -1.0961826048662977,0.5496487144575503 l -22.13017384434046 -45.09959182742492" fill="#3aff92" stroke="none" /><path d="M 108.59647513512805 119.15986991738527 l 24.85676015342355 55.40088043308776 a81.72162776215828,81.72162776215828 0 0,0 -1.2883972088269304,0.5647954738459594 l -23.899442269938866 -55.820540460228166" fill="#4aebff" stroke="none" /><path d="M 107.59598834532513 119.57807347666477 l 19.3574971011418 49.89245419310317 a74.51606935707827,74.51606935707827 0 0,0 -1.19981438483433,0.45366713630848177 l -18.495812495547195 -50.218269579518285" fill="#3fffbd" stroke="none" /><path d="M 106.91757812671514 119.82793768551818 l 15.135177292609736 43.382141367970355 a66.94653176627475,66.94653176627475 0 0,0 -1.0913249570702501,0.3702366779459558 l -14.38618260260226 -43.63624103281443" fill="#34ff58" stroke="none" /><path d="M 105.53697534728816 120.25689768951611 l 12.487586642863025 45.685550169071334 a68.36147500251386,68.36147500251386 0 0,0 -1.1377613741372146,0.30049311986184896 l -11.699334825914313 -45.893734638236765" fill="#36ff6b" stroke="none" /><path d="M 103.41894727170886 120.7198165907248 l 7.749413931086246 46.96370624559538 a68.59877225935442,68.59877225935442 0 0,0 -1.1667152976918254,0.1822169347874855 l -6.939862769785904 -47.09014148772997" fill="#36ff6f" stroke="none" /><path d="M 100.90346689309514 120.98055641714683 l 1.9677029006751066 45.694537381847425 a66.73688447245152,66.73688447245152 0 0,0 -1.1481275310731736,0.03954383361453362 l -1.1808550179272808 -45.721638013888054" fill="#33ff55" stroke="none" /><line stroke="#e1ed5e" stroke-width="0.3" x1="102.19456741930631" x2="102.32365962044197" y1="184.97166512339345" y2="189.96999836594603" /><path d="M 102.22038585953345 185.97133177190398 a86.0,86.0 0 0,1 -42.740103519485714,-10.115201625700543" fill="none" id="id43" stroke="none" /><text fill="#e1ed5e" style="font-size:6.75px; font-family:Arial;" text-anchor="middle"><textPath startOffset="22.20632615414155" xlink:href="#id43">July</textPath></text><path d="M 98.37488393609728 120.93702456842531 l -3.876273756136379 49.93959549650226 a71.08980631412723,71.08980631412723 0 0,0 -1.219209414032674,-0.1051985184084047 l 4.735327487910594 -49.86547272581519" fill="#3aff90" stroke="none" /><path d="M 95.86986931433489 120.58985236759428 l -9.484479796775412 47.282774725949984 a69.22464248494099,69.22464248494099 0 0,0 -1.166298551936674,-0.2444092012667505 l 10.296969810141473 -47.11250954395669" fill="#37ff77" stroke="none" /><path d="M 91.07499286063937 119.00905698771935 l -20.50521888376441 43.67334033696469 a69.2475352495797,69.2475352495797 0 0,0 -1.074614024287844,-0.5158800358448835 l 21.253945576052494 -43.313906024620245" fill="#37ff77" stroke="none" /><line stroke="#e1ed5e" stroke-width="0.3" x1="58.666819895761336" x2="56.23545636021788" y1="174.27360380694188" y2="178.64263932499728" /><path d="M 58.180547188652646 175.14741091055294 a86.0,86.0 0 0,1 -31.652253787137756,-30.449443065178592" fill="none" id="id44" stroke="none" /><text fill="#e1ed5e" style="font-size:6.75px; font-family:Arial;" text-anchor="middle"><textPath startOffset="22.20632615414155" xlink:href="#id44">August</textPath></text><path d="M 88.8546689885994 117.79835938074946 l -25.91110634929118 41.37832983926326 a69.82163058042144,69.82163058042144 0 0,0 -1.0131391166005448,-0.6466333192326954 l 26.619527267938647 -40.92618209120676" fill="#38ff7f" stroke="none" /><path d="M 86.79598089348748 116.32954008644616 l -32.16600704400665 39.78001676678488 a72.15761666771402,72.15761666771402 0 0,0 -0.9591117269038398,-0.7892836552479222 l 32.84598889945517 -39.22043799267978" fill="#3bff9e" stroke="none" /><path d="M 83.72743513129214 113.27417163493432 l -37.324721407643445 30.447244315118773 a69.16813796009484,69.16813796009484 0 0,0 -0.7446512880616987,-0.9290669772267509 l 37.843290607760004 -29.80024950431376" fill="#37ff76" stroke="none" /><path d="M 83.06392112726016 112.41649034213515 l -38.46577761315718 28.200739960253795 a68.6958885197741,68.6958885197741 0 0,0 -0.6909504683851814,-0.9596697683512703 l 38.94550787391797 -27.534436586451385" fill="#36ff70" stroke="none" /><path d="M 82.24976979558568 111.22182372390057 l -40.8889826556469 25.850310127087 a69.37507040077946,69.37507040077946 0 0,0 -0.6294478112796877,-1.0148702923291677 l 41.32789510659454 -25.14264350339257" fill="#37ff79" stroke="none" /><line stroke="#e1ed5e" stroke-width="0.3" x1="26.63291911575756" x2="22.317208475507996" y1="142.92168965132927" y2="145.44649492493687" /><path d="M 25.769776987707644 143.4266507060508 a86.0,86.0 0 0,1 -11.730757126820373,-40.83630448921669" fill="none" id="id45" stroke="none" /><text fill="#e1ed5e" style="font-size:6.75px; font-family:Arial;" text-anchor="middle"><textPath startOffset="21.46611528233685" xlink:href="#id45">September</textPath></text><path d="M 81.02952815118164 109.00673069616217 l -48.639243273763825 23.092760629419715 a74.84284149013736,74.84284149013736 0 0,0 -0.5425228677443941,-1.1685459920213164 l 49.02954075834805 -22.25209457011957" fill="#3fffc1" stroke="none" /><path d="M 80.73074385275274 108.34839909993369 l -49.582526804504 21.481613975342402 a75.03597600955297,75.03597600955297 0 0,0 -0.5032735045820551,-1.1895899002420547 l 49.94495129027836 -20.624949549434188" fill="#40ffc3" stroke="none" /><path d="M 80.58989483394504 108.01547362559985 l -47.51001523484526 19.619433836594133 a72.40159269598291,72.40159269598291 0 0,0 -0.4657745665156523,-1.156014276197657 l 47.84069241561831 -18.79872019255367" fill="#3cffa1" stroke="none" /><path d="M 80.0844068197444 106.66101706037122 l -50.127602661919255 16.76579821170402 a73.85705760167541,73.85705760167541 0 0,0 -0.3928764595831606,-1.2091494118027972 l 50.408771372518665 -15.90044989992342" fill="#3effb4" stroke="none" /><line stroke="#e1ed5e" stroke-width="0.3" x1="15.007084014347285" x2="10.007500721073583" y1="101.09737516637583" y2="101.16192664675087" /><path d="M 14.007167355692545 101.11028546245083 a86.0,86.0 0 0,1 10.666146001902534,-42.60595125391555" fill="none" id="id46" stroke="none" /><text fill="#e1ed5e" style="font-size:6.75px; font-family:Arial;" text-anchor="middle"><textPath startOffset="22.20632615414155" xlink:href="#id46">October</textPath></text><path d="M 79.00486145842228 99.54816195383935 l -62.98541562473312 -1.3555141384819447 a84.0,84.0 0 0,0 0.04355322217741975,-1.4453194103000224 l 62.95275070810006 2.4395036962069616" fill="#4dd2ff" stroke="none" /><path d="M 79.08570108090925 98.10471618934814 l -55.38333429694522 -5.018917310066031 a76.61028006414344,76.61028006414344 0 0,0 0.13032092410384086,-1.312313920888522 l 55.28873624715915 5.971506761658983" fill="#42ffd7" stroke="none" /><path d="M 79.91906864156998 93.8553929516997 l -47.30476242320737 -14.474885223975823 a70.46981756751651,70.46981756751651 0 0,0 0.36491458192011966,-1.1568789465886786 l 47.04859235751905 15.287014336990916" fill="#39ff88" stroke="none" /><line stroke="#e1ed5e" stroke-width="0.3" x1="26.266209847984243" x2="21.928928074336255" y1="57.711370442889674" y2="55.22380399835377" /><path d="M 25.398753493254645 57.213857153982495 a86.0,86.0 0 0,1 29.58750427330803,-30.492523968695096" fill="none" id="id47" stroke="none" /><text fill="#e1ed5e" style="font-size:6.75px; font-family:Arial;" text-anchor="middle"><textPath startOffset="21.46611528233685" xlink:href="#id47">November</textPath></text><path d="M 85.05521093208273 85.24692304244772 l -25.689940629430993 -25.360389458729472 a57.098786725347516,57.098786725347516 0 0,0 0.6965078577578993,-0.6935168316672187 l 25.24959697150578 25.798842141046798" fill="#86ff25" stroke="none" /><path d="M 86.10567301691215 84.25364557470407 l -23.892261106988983 -27.07695103694419 a57.110959808091664,57.110959808091664 0 0,0 0.7427312994678432,-0.6440892639027499 l 23.422636008874367 27.48420529426662" fill="#86ff25" stroke="none" /><path d="M 87.80319425747018 82.90503203632743 l -22.765357250513535 -31.90778479992162 a60.19653328524882,60.19653328524882 0 0,0 0.8486818576560896,-0.5945558769726403 l 22.212744253273787 32.29492551965821" fill="#5fff29" stroke="none" /><line stroke="#e1ed5e" stroke-width="0.3" x1="56.762969772571076" x2="54.21961505331055" y1="26.818313649435495" y2="22.513508569990535" /><path d="M 56.25429882871897 25.957352633546506 a86.0,86.0 0 0,1 42.265352541879196,-11.944610805530505" fill="none" id="id48" stroke="none" /><text fill="#e1ed5e" style="font-size:6.75px; font-family:Arial;" text-anchor="middle"><textPath startOffset="22.20632615414155" xlink:href="#id48">December</textPath></text><path d="M 98.19473922651362 79.07773832637324 l -3.6141199156088386 -41.88622702314783 a63.041858629217145,63.041858629217145 0 0,0 1.0819478252763166,-0.08397997458592295 l 2.8925819009701876 41.942232259922214" fill="#3cff2e" stroke="none" /><path d="M 98.55514903715128 79.0497635885617 l -2.9474292965794464 -42.737515603402926 a63.83903102790075,63.83903102790075 0 0,0 1.0969307219129258,-0.06616985673364649 l 2.2113365258268973 42.781918729516875" fill="#33ff2f" stroke="none" /></svg>