<?xml version="1.0" encoding="utf-8" ?>
<svg baseProfile="full" height="200mm" version="1.1" viewBox="0,0,200,200" width="200mm" xmlns="http://www.w3.org/2000/svg" xmlns:ev="http://www.w3.org/2001/xml-events" xmlns:xlink="http://www.w3.org/1999/xlink"><defs /><rect fill="#1a1a1a" height="200" width="200" x="0" y="0" /><text alignment-baseline="middle" fill="#e1ed5e" style="dominant-baseline: central; font-size:9.0px; font-family:Arial;" text-anchor="middle" x="100.0" y="100.0">2021</text><line stroke="#e1ed5e" stroke-width="0.3" x1="100.0" x2="100.0" y1="15.0" y2="10.0" /><path d="M 100.0 14.0 a86.0,86.0 0 0,1 42.46469731375804,11.215312516191453" fill="none" id="id121" stroke="none" /><text fill="#e1ed5e" style="font-size:6.75px; font-family:Arial;" text-anchor="middle"><textPath startOffset="22.20632615414155" xlink:href="#id121">January</textPath></text><path d="M 100.72285384407766 79.0124445844662 l 1.5345150821993867 -44.553571358156844 a65.5799894269152,65.5799894269152 0 0,0 1.127848304444816,0.04856752048132386 l -2.3012042190335342 44.52055611115133" fill="#83ff25" stroke="none" /><path d="M 103.2404852339499 79.25152402106235 l 7.0143152787612895 -44.91190101572419 a66.45634688001304,66.45634688001304 0 0,0 1.1287160951811686,0.18624782691758962 l -7.786360580081333 44.78450692586698" fill="#72ff27" stroke="none" /><path d="M 105.36241919743992 79.69619591428918 l 11.075646828679707 -41.9358791344392 a64.37381596599423,64.37381596599423 0 0,0 1.0689183574317414,0.29217576571097514 l -11.79586307533516 41.73901682790193" fill="#99ff23" stroke="none" /><path d="M 107.76421540070413 80.48803036053334 l 16.30823449886895 -40.9836358206105 a65.10914777624396,65.10914777624396 0 0,0 1.0377658094315345,0.4233307304147966 l -17.01128417788887 40.69684420401212" fill="#8bff24" stroke="none" /><path d="M 110.05341064243156 81.56283822128135 l 21.303355182879184 -39.06867230494927 a65.49937188005484,65.49937188005484 0 0,0 0.985222559896275,0.5482752879044462 l -21.972701831847495 38.69618161948464" fill="#84ff25" stroke="none" /><line stroke="#e1ed5e" stroke-width="0.3" x1="143.23703022742887" x2="145.7803849466894" y1="26.81831364943548" y2="22.513508569990506" /><path d="M 143.74570117128098 25.957352633546492 a86.0,86.0 0 0,1 28.547481713284135,27.462654790039103" fill="none" id="id122" stroke="none" /><text fill="#e1ed5e" style="font-size:6.75px; font-family:Arial;" text-anchor="middle"><textPath startOffset="19.985693538727396" xlink:href="#id122">February</textPath></text><path d="M 114.16331599549186 84.49514656593476 l 30.625722999213274 -33.52656585267358 a66.4088705772143,66.4088705772143 0 0,0 0.8373593035683194,0.7782342139531039 l -31.19829018657644 32.99442705264583" fill="#73ff27" stroke="none" /><path d="M 114.42810811169701 84.74124197986012 l 35.52386075824795 -37.56902783475839 a72.70470515939762,72.70470515939762 0 0,0 0.9019425696305514,0.8676680373764368 l -36.165286571490924 36.95197671061965" fill="#35ff61" stroke="none" /><line stroke="#e1ed5e" stroke-width="0.3" x1="172.23445277983987" x2="176.4835382374775" y1="55.19839476539836" y2="52.563006222186495" /><path d="M 173.08426987136738 54.67131705675599 a86.0,86.0 0 0,1 12.851231095245387,41.99856678651699" fill="none" id="id123" stroke="none" /><text fill="#e1ed5e" style="font-size:6.75px; font-family:Arial;" text-anchor="middle"><textPath startOffset="22.20632615414155" xlink:href="#id123">March</textPath></text><path d="M 120.91429891909075 98.10471618934814 l 45.22953326915092 -4.098765275374022 a66.41487153486005,66.41487153486005 0 0,0 0.09337777924422325,1.1394454240211425 l -45.29338553221464 3.3196059341451103" fill="#73ff27" stroke="none" /><line stroke="#e1ed5e" stroke-width="0.3" x1="184.98032266829074" x2="189.97916517819016" y1="98.17113171792111" y2="98.06355123074" /><path d="M 185.9800911702706 98.14961562048488 a86.0,86.0 0 0,1 -9.607161424134198,41.387399972396054" fill="none" id="id124" stroke="none" /><text fill="#e1ed5e" style="font-size:6.75px; font-family:Arial;" text-anchor="middle"><textPath startOffset="21.466115282336823" xlink:href="#id124">April</textPath></text><line stroke="#e1ed5e" stroke-width="0.3" x1="174.80103733775053" x2="179.2010983576182" y1="140.37084112569926" y2="142.7455964860345" /><path d="M 175.68104954172406 140.8457921977663 a86.0,86.0 0 0,1 -30.038265399797805,32.042727171017184" fill="none" id="id125" stroke="none" /><text fill="#e1ed5e" style="font-size:6.75px; font-family:Arial;" text-anchor="middle"><textPath startOffset="22.206326154141568" xlink:href="#id125">May</textPath></text><path d="M 112.92097659922987 116.55440617244103 l 26.398412513304535 33.82175021344285 a63.904393373209636,63.904393373209636 0 0,0 -0.8729683134202191,0.6693548774520836 l -25.81231547139082 -34.2711444327223" fill="#a2ff22" stroke="none" /><path d="M 112.34349029814194 116.9893568818739 l 37.03047089442582 50.96807064562168 a84.0,84.0 0 0,0 -1.1770906886044616,0.8398229526231229 l -36.14765287797247 -51.597937860089026" fill="#4dd2ff" stroke="none" /><path d="M 111.7513745106137 117.40417183066458 l 24.227340041454568 35.88148677421353 a64.29486226577384,64.29486226577384 0 0,0 -0.9225556543669913,0.6114195822921978 l -23.606109688347612 -36.29320437759704" fill="#9bff22" stroke="none" /><line stroke="#e1ed5e" stroke-width="0.3" x1="143.8653032363475" x2="146.44561519142675" y1="172.8068346515853" y2="177.08958963109032" /><path d="M 144.38136562736335 173.6633856474863 a86.0,86.0 0 0,1 -40.68145358897372,12.25698825130547" fill="none" id="id126" stroke="none" /><text fill="#e1ed5e" style="font-size:6.75px; font-family:Arial;" text-anchor="middle"><textPath startOffset="21.466115282336833" xlink:href="#id126">June</textPath></text><path d="M 110.5260780823613 118.17145234162733 l 21.669500017102003 37.408642017153724 a64.23162879835483,64.23162879835483 0 0,0 -0.961490081686797,0.545959161731472 l -21.022361168494008 -37.77610434467983" fill="#9cff22" stroke="none" /><line stroke="#e1ed5e" stroke-width="0.3" x1="102.19456741930631" x2="102.32365962044197" y1="184.97166512339345" y2="189.96999836594603" /><path d="M 102.22038585953345 185.97133177190398 a86.0,86.0 0 0,1 -42.740103519485714,-10.115201625700543" fill="none" id="id127" stroke="none" /><text fill="#e1ed5e" style="font-size:6.75px; font-family:Arial;" text-anchor="middle"><textPath startOffset="22.20632615414155" xlink:href="#id127">July</textPath></text><line stroke="#e1ed5e" stroke-width="0.3" x1="58.666819895761336" x2="56.23545636021788" y1="174.27360380694188" y2="178.64263932499728" /><path d="M 58.180547188652646 175.14741091055294 a86.0,86.0 0 0,1 -31.652253787137756,-30.449443065178592" fill="none" id="id128" stroke="none" /><text fill="#e1ed5e" style="font-size:6.75px; font-family:Arial;" text-anchor="middle"><textPath startOffset="22.20632615414155" xlink:href="#id128">August</textPath></text><path d="M 87.65650970185807 116.9893568818739 l -31.755008221208268 43.707019200084545 a75.02484682519298,75.02484682519298 0 0,0 -1.0382546704498161,-0.7680759840352007 l 32.50264786207665 -43.153933267309576" fill="#3aff8f" stroke="none" /><line stroke="#e1ed5e" stroke-width="0.3" x1="26.63291911575756" x2="22.317208475507996" y1="142.92168965132927" y2="145.44649492493687" /><path d="M 25.769776987707644 143.4266507060508 a86.0,86.0 0 0,1 -11.730757126820373,-40.83630448921669" fill="none" id="id129" stroke="none" /><text fill="#e1ed5e" style="font-size:6.75px; font-family:Arial;" text-anchor="middle"><textPath startOffset="21.46611528233685" xlink:href="#id129">September</textPath></text><line stroke="#e1ed5e" stroke-width="0.3" x1="15.007084014347285" x2="10.007500721073583" y1="101.09737516637583" y2="101.16192664675087" /><path d="M 14.007167355692545 101.11028546245083 a86.0,86.0 0 0,1 10.666146001902534,-42.60595125391555" fill="none" id="id130" stroke="none" /><text fill="#e1ed5e" style="font-size:6.75px; font-family:Arial;" text-anchor="middle"><textPath startOffset="22.20632615414155" xlink:href="#id130">October</textPath></text><path d="M 79.05617556472873 98.46500227214037 l -27.295780077235197 -2.000540088951027 a48.36899286916291,48.36899286916291 0 0,0 0.06800568959967142,-0.8298416652112193 l 27.25729990381603 2.4700956713700246" fill="#ff0000" stroke="none" /><path d="M 79.71946130924805 94.55025226153421 l -42.59160496456918 -11.445134982491084 a65.10256147011594,65.10256147011594 0 0,0 0.30013282001542557,-1.0797374418340406 l 42.388285373987394 12.176583727744067" fill="#8cff24" stroke="none" /><path d="M 80.52162464483688 92.15188598940014 l -40.40710328429278 -16.28059566729495 a64.56365217827182,64.56365217827182 0 0,0 0.42420875314399675,-1.0272551436746704 l 40.12087284426258 16.97372538142293" fill="#96ff23" stroke="none" /><path d="M 81.6062741919709 89.86733742301443 l -38.98923983513683 -21.47823749825361 a65.5137676337693,65.5137676337693 0 0,0 0.5526315869745481,-0.9830699289381665 l 38.61375060686985 22.14619093712656" fill="#84ff25" stroke="none" /><line stroke="#e1ed5e" stroke-width="0.3" x1="26.266209847984243" x2="21.928928074336255" y1="57.711370442889674" y2="55.22380399835377" /><path d="M 25.398753493254645 57.213857153982495 a86.0,86.0 0 0,1 29.58750427330803,-30.492523968695096" fill="none" id="id131" stroke="none" /><text fill="#e1ed5e" style="font-size:6.75px; font-family:Arial;" text-anchor="middle"><textPath startOffset="21.46611528233685" xlink:href="#id131">November</textPath></text><path d="M 82.95767976084542 87.72973835380427 l -36.14148229034661 -26.021424181728754 a65.53449515363226,65.53449515363226 0 0,0 0.6670081802083483,-0.909798408205318 l 35.68821149762463 26.639685033605573" fill="#83ff25" stroke="none" /><path d="M 84.31358615837235 86.03803664274999 l -39.15775846018297 -34.85303870552434 a73.42198350534639,73.42198350534639 0 0,0 0.848395772197912,-0.9368198015903904 l 38.55201904736901 35.52191129438429" fill="#36ff70" stroke="none" /><path d="M 88.39885842347998 82.49532879139004 l -24.623470291653614 -37.15373600325165 a65.57258561272013,65.57258561272013 0 0,0 0.9462216973922402,-0.6154489128527683 l 23.980281568477086 37.57208384026396" fill="#83ff25" stroke="none" /><line stroke="#e1ed5e" stroke-width="0.3" x1="56.76296977257108" x2="54.21961505331056" y1="26.818313649435495" y2="22.513508569990535" /><path d="M 56.25429882871898 25.957352633546506 a86.0,86.0 0 0,1 42.26535254187918,-11.944610805530505" fill="none" id="id132" stroke="none" /><text fill="#e1ed5e" style="font-size:6.75px; font-family:Arial;" text-anchor="middle"><textPath startOffset="22.20632615414155" xlink:href="#id132">December</textPath></text><path d="M 92.91201910852362 80.23233633223022 l -14.91206416350743 -41.5882426165821 a65.18089611531502,65.18089611531502 0 0,0 1.0594006112113579,-0.3696040713753589 l 14.193981548232786 41.83876754112967" fill="#8aff24" stroke="none" /><path d="M 97.83486435360386 79.11191278185805 l -4.525417609907986 -43.65884321918289 a64.89275561845322,64.89275561845322 0 0,0 1.112060580045486,-0.10560355181762368 l 3.773231902772264 43.73027231551569" fill="#8fff24" stroke="none" /></svg>