<?xml version="1.0" encoding="utf-8" ?>
<svg baseProfile="full" height="200mm" version="1.1" viewBox="0,0,200,200" width="200mm" xmlns="http://www.w3.org/2000/svg" xmlns:ev="http://www.w3.org/2001/xml-events" xmlns:xlink="http://www.w3.org/1999/xlink"><defs /><rect fill="#1a1a1a" height="200" width="200" x="0" y="0" /><text alignment-baseline="middle" fill="#e1ed5e" style="dominant-baseline: central; font-size:9.0px; font-family:Arial;" text-anchor="middle" x="100.0" y="100.0">2025</text><line stroke="#e1ed5e" stroke-width="0.3" x1="100.0" x2="100.0" y1="15.0" y2="10.0" /><path d="M 100.0 14.0 a86.0,86.0 0 0,1 42.46469731375804,11.215312516191453" fill="none" id="id169" stroke="none" /><text fill="#e1ed5e" style="font-size:6.75px; font-family:Arial;" text-anchor="middle"><textPath startOffset="22.20632615414155" xlink:href="#id169">January</textPath></text><path d="M 100.0 79.0 l 0.0 -60.58024773701763 a81.58024773701763,81.58024773701763 0 0,0 1.404269859578511,0.01208699402520925 l -1.0427893803059827 60.57127211960098" fill="#49eeff" stroke="none" /><path d="M 101.08401301168833 79.027996857942 l 3.1205630786497354 -60.37239219896813 a81.45298713673179,81.45298713673179 0 0,0 1.399587094967226,0.08442691567499036 l -4.159312222456573 60.309732013912836" fill="#49f0ff" stroke="none" /><path d="M 101.44485096284872 79.0497635885617 l 3.0111409951904173 -43.661330711254855 a64.76504049547404,64.76504049547404 0 0,0 1.111521713376862,0.08627547748639829 l -3.7622528979296206 43.60302997157999" fill="#35ff2f" stroke="none" /><path d="M 102.88285421437855 79.19881850522331 l 4.886211275484393 -35.256367476454166 a56.59334921391138,56.59334921391138 0 0,0 0.9637874847775362,0.14203722206560102 l -5.492367740690584 35.1670357702276" fill="#a2ff22" stroke="none" /><path d="M 106.0581310904928 79.89281104454417 l 10.555348195106442 -35.03363949695757 a57.58922343973321,57.58922343973321 0 0,0 0.946697252648889,0.29414344468410325 l -11.156830820466048 34.846755917390944" fill="#94ff23" stroke="none" /><path d="M 106.40334571778207 80.00007090966166 l 14.68510786827835 -45.8668216576109 a69.1603334921391,69.1603334921391 0 0,0 1.1306633574902099,0.37276193223640175 l -15.472454048010977 45.607246001115264" fill="#36ff6a" stroke="none" /><path d="M 108.43124777332544 80.76684994638697 l 15.004648609957927 -34.228226470829156 a58.372596474511674,58.372596474511674 0 0,0 0.9167774337531873,0.41133131110429194 l -15.591608162177895 33.964874829208334" fill="#89ff24" stroke="none" /><path d="M 109.41281617654863 81.2277094730956 l 18.95971677600282 -37.81199005178613 a63.29914244878513,63.29914244878513 0 0,0 0.9698016775010492,0.49677008651755133 l -19.607778941092626 37.48002743995608" fill="#48ff2c" stroke="none" /><path d="M 110.05341064243156 81.56283822128135 l 20.23738630349708 -37.11376949840342 a63.272729871367325,63.272729871367325 0 0,0 0.9517300564293909,0.5296367459866873 l -20.873240448998505 36.759917354856555" fill="#48ff2c" stroke="none" /><path d="M 110.36928655335952 81.73862282372117 l 14.922880442556604 -26.280723067658908 a51.221991424487854,51.221991424487854 0 0,0 0.7629717279625111,0.44196247125332067 l -15.373048902984443 26.019956439015537" fill="#f1ff19" stroke="none" /><line stroke="#e1ed5e" stroke-width="0.3" x1="143.23703022742887" x2="145.7803849466894" y1="26.81831364943548" y2="22.513508569990506" /><path d="M 143.74570117128098 25.957352633546492 a86.0,86.0 0 0,1 28.547481713284135,27.462654790039103" fill="none" id="id170" stroke="none" /><text fill="#e1ed5e" style="font-size:6.75px; font-family:Arial;" text-anchor="middle"><textPath startOffset="19.985693538727396" xlink:href="#id170">February</textPath></text><path d="M 110.99172775467656 82.1063720568725 l 31.63386780567671 -51.497332680572256 a81.43737970462125,81.43737970462125 0 0,0 1.1881358772611288,0.7440105773411241 l -32.515622835310104 50.94517776190819" fill="#49f0ff" stroke="none" /><path d="M 111.60114157652 82.49532879139004 l 33.46268870115021 -50.49101069977721 a81.57304430681278,81.57304430681278 0 0,0 1.1637571970137275,0.7857740543238577 l -34.32685059257049 49.90752473315469" fill="#49efff" stroke="none" /><path d="M 113.06298171725822 83.55741782278167 l 39.188945151774654 -49.32774653165496 a84.0,84.0 0 0,0 1.1243864057420354,0.9091756109434814 l -40.032234956081176 48.64586482344735" fill="#4dd2ff" stroke="none" /><path d="M 114.94478906791727 85.2469230424477 l 42.79022764138922 -42.24131358132137 a81.12763220581229,81.12763220581229 0 0,0 0.9725106774930248,1.0022577392585412 l -43.511002582585355 41.49849164651271" fill="#48f4ff" stroke="none" /><path d="M 115.9244219780498 86.31012108654704 l 22.939361252839696 -19.72046949874841 a51.25080514530728,51.25080514530728 0 0,0 0.5693461376495254,0.6739262459609116 l -23.275418003976338 19.32268430315839" fill="#f0ff19" stroke="none" /><path d="M 116.38621287248628 86.86637796730983 l 33.259718459360656 -26.657811329449196 a63.62449737970462,63.62449737970462 0 0,0 0.6775885339633793,0.8604686279405283 l -33.713661073918 26.081350307555628" fill="#44ff2d" stroke="none" /><path d="M 116.60985879189232 87.15038557335679 l 43.91934705957953 -33.97660887165365 a76.52764173415913,76.52764173415913 0 0,0 0.797068404055707,1.0488485884291896 l -44.49769140385935 33.21557550734343" fill="#41ffd0" stroke="none" /><path d="M 117.65298651832404 88.62581576622439 l 25.379427068292735 -16.352489643765914 a51.191376846117194,51.191376846117194 0 0,0 0.4708933960401708,0.7448402672418871 l -25.65714806057886 15.913201728809822" fill="#f1ff19" stroke="none" /><line stroke="#e1ed5e" stroke-width="0.3" x1="172.23445277983987" x2="176.4835382374775" y1="55.19839476539836" y2="52.563006222186495" /><path d="M 173.08426987136738 54.67131705675599 a86.0,86.0 0 0,1 12.851231095245387,41.99856678651699" fill="none" id="id171" stroke="none" /><text fill="#e1ed5e" style="font-size:6.75px; font-family:Arial;" text-anchor="middle"><textPath startOffset="22.20632615414155" xlink:href="#id171">March</textPath></text><path d="M 117.84615892207809 88.93136811851018 l 46.10991746494884 -28.598518299307333 a75.25863744640304,75.25863744640304 0 0,0 0.6733290008897109,1.1067758375225514 l -46.59536226412478 27.800574688577697" fill="#3fffbf" stroke="none" /><path d="M 118.03404312379186 89.2402003453031 l 29.91778161216916 -17.850092408575204 a55.83818961410196,55.83818961410196 0 0,0 0.4853676813878933,0.8296507017374625 l -30.22060896802738 17.332462294483847" fill="#acff20" stroke="none" /><path d="M 118.73160827565052 90.50648371742162 l 31.0396759906468 -15.731466571731378 a55.798570747975226,55.798570747975226 0 0,0 0.426832461055861,0.860468195818798 l -31.30586846465607 15.19483878741363" fill="#adff20" stroke="none" /><path d="M 119.04729006885535 91.15688171328212 l 28.613948040360864 -13.284647120729057 a52.54742258218199,52.54742258218199 0 0,0 0.3738315801583756,0.823688333625233 l -28.838381937482584 12.790136778261761" fill="#ddff1b" stroke="none" /><path d="M 119.196687751892 91.48605970444005 l 29.152808866929963 -12.929588549277174 a52.89138637446403,52.89138637446403 0 0,0 0.36195159958622536,0.8354341954481057 l -29.37105117635887 12.425855209242465" fill="#d8ff1c" stroke="none" /><path d="M 119.7369772167798 92.82701384747503 l 28.75919238566986 -10.451919079322352 a51.59957122439257,51.59957122439257 0 0,0 0.2961985401254918,0.8373931594591403 l -28.93484400660516 9.955328293436596" fill="#ebff1a" stroke="none" /><path d="M 120.08093135843002 93.85539295169968 l 40.38764164971328 -12.358300674180379 a63.23611243449262,63.23611243449262 0 0,0 0.3095380689451046,1.043608488866071 l -40.594385615770086 11.661262798567778" fill="#49ff2c" stroke="none" /><path d="M 120.37134235888165 94.90015583598534 l 29.259031962773722 -7.324824293427727 a51.161962839447355,51.161962839447355 0 0,0 0.20651696776476036,0.856146158051165 l -29.380781730799303 6.820092903717156" fill="#f2ff19" stroke="none" /><path d="M 120.6074358757038 95.95851677861258 l 51.78347230951984 -10.155656227510036 a73.76992853739875,73.76992853739875 0 0,0 0.23365492351840433,1.2481939444456134 l -51.950612956948106 9.26278420560186" fill="#3dffab" stroke="none" /><path d="M 120.67395015179393 96.31383870115 l 30.935872583500025 -5.5158600763849295 a52.42376369699858,52.42376369699858 0 0,0 0.15075111913168834,0.8897416386467878 l -31.026235564151936 4.9825326494223035" fill="#dfff1b" stroke="none" /><path d="M 120.83666639777658 97.38593545837742 l 30.230538437898527 -3.792573010292155 a51.46750833730348,51.46750833730348 0 0,0 0.10271357648577302,0.8799871972060315 l -30.29134236738789 3.271642074761271" fill="#edff1a" stroke="none" /><path d="M 120.96714384426684 98.82574320788733 l 39.13973401446409 -2.1920056851489003 a60.20106717484516,60.20106717484516 0 0,0 0.04903919237402366,1.0351398441085378 l -39.17166681507161 1.5179547344173627" fill="#70ff27" stroke="none" /><line stroke="#e1ed5e" stroke-width="0.3" x1="184.98032266829074" x2="189.97916517819016" y1="98.17113171792111" y2="98.06355123074" /><path d="M 185.9800911702706 98.14961562048488 a86.0,86.0 0 0,1 -9.607161424134198,41.387399972396054" fill="none" id="id172" stroke="none" /><text fill="#e1ed5e" style="font-size:6.75px; font-family:Arial;" text-anchor="middle"><textPath startOffset="21.466115282336823" xlink:href="#id172">April</textPath></text><path d="M 120.9904718944345 100.63252640178507 l 30.323481713223373 0.9137671070056376 a51.337246307765604,51.337246307765604 0 0,0 -0.034219616838150585,0.8830562591433875 l -30.303259963534018 -1.4356006131630312" fill="#efff19" stroke="none" /><path d="M 120.95626037817324 101.35467743843564 l 42.84481975306578 2.7696215653901577 a63.93424487851358,63.93424487851358 0 0,0 -0.08044584613748919,1.097619656023711 l -42.79079734826395 -3.506714357910639" fill="#40ff2d" stroke="none" /><path d="M 120.76222939487914 103.15116336523771 l 30.033519348104605 4.558302680262622 a51.37746545974274,51.37746545974274 0 0,0 -0.1402317231198073,0.873223073728673 l -29.95060587062351 -5.0746049836845" fill="#eeff19" stroke="none" /><path d="M 120.64145759157962 103.86396538481128 l 29.791553175505875 5.57681208893301 a51.30903287279658,51.30903287279658 0 0,0 -0.16997965980544338,0.8667226232878168 l -29.69114358272477 -6.088798439288771" fill="#efff19" stroke="none" /><path d="M 120.32669344350535 105.2749913415812 l 29.218726056032967 7.582567592017934 a51.186574559313954,51.186574559313954 0 0,0 -0.2286624297563947,0.8509379656353484 l -29.083875549934795 -8.084396490828832" fill="#f1ff19" stroke="none" /><path d="M 120.13307415673323 105.97154293290107 l 27.44064151121097 8.138993956655254 a49.62222963315865,49.62222963315865 0 0,0 -0.24993825636861972,0.8168126831433797 l -27.296476482336217 -8.61013361235069" fill="#fff517" stroke="none" /><path d="M 119.54520255179757 107.68017299344265 l 29.127845689508327 11.44561655111384 a52.295902810862316,52.295902810862316 0 0,0 -0.33643046451414194,0.8349928224625199 l -28.92651261073679 -11.945308741419172" fill="#e0ff1b" stroke="none" /><path d="M 119.26925614724726 108.34839909993367 l 36.6174620127542 15.864503776021643 a60.90640304907098,60.90640304907098 0 0,0 -0.4250655411329398,0.9584105812291592 l -36.338955386889985 -16.49246269374349" fill="#67ff28" stroke="none" /><line stroke="#e1ed5e" stroke-width="0.3" x1="174.80103733775053" x2="179.2010983576182" y1="140.37084112569926" y2="142.7455964860345" /><path d="M 175.68104954172406 140.8457921977663 a86.0,86.0 0 0,1 -30.038265399797805,32.042727171017184" fill="none" id="id173" stroke="none" /><text fill="#e1ed5e" style="font-size:6.75px; font-family:Arial;" text-anchor="middle"><textPath startOffset="22.206326154141568" xlink:href="#id173">May</textPath></text><path d="M 118.48025628344425 109.97397251340804 l 26.586740881070956 14.349120418122352 a51.21178656503096,51.21178656503096 0 0,0 -0.4253592233845545,0.7721505443813336 l -26.33580524823489 -14.804641480901491" fill="#f1ff19" stroke="none" /><path d="M 118.30583269289576 110.29060199501025 l 28.53773790107068 16.04245529305022 a53.73778942353501,53.73778942353501 0 0,0 -0.4602206742384068,0.8024335376507388 l -28.257365230679895 -16.531308676559277" fill="#cbff1d" stroke="none" /><path d="M 118.12598468904814 110.60418214915192 l 23.50298594035006 13.749870599362005 a48.22956646021916,48.22956646021916 0 0,0 -0.42538276501028305,0.7129659821281628 l -23.26282229964155 -14.152398675376272" fill="#ffdf14" stroke="none" /><path d="M 117.94076556474637 110.91462005526583 l 25.893678726906405 15.752932288054128 a51.30903287279658,51.30903287279658 0 0,0 -0.4655326222241254,0.7505868158391852 l -25.618681465014316 -16.196315435258587" fill="#efff19" stroke="none" /><path d="M 117.75023020441432 111.22182372390056 l 25.772928343970246 16.293831426075133 a51.49151977131967,51.49151977131967 0 0,0 -0.4800851975499452,0.7451028878914998 l -25.48863828304325 -16.735055913888086" fill="#edff1a" stroke="none" /><path d="M 117.35343817320211 111.8261652097733 l 25.191338852441028 17.16760287793597 a51.484916626965216,51.484916626965216 0 0,0 -0.5053835242055076,0.7280426599023867 l -24.892094421073384 -17.598686800025376" fill="#edff1a" stroke="none" /><path d="M 117.14729908036423 112.12312394758627 l 24.846019734644965 17.566112041061878 a51.42848975702715,51.42848975702715 0 0,0 -0.5172731563946885,0.7184471722434517 l -24.539966785874675 -17.99119281875646" fill="#eeff19" stroke="none" /><path d="M 116.71984013943494 112.70617746262583 l 24.260097726852322 18.436366879548935 a51.4705097665555,51.4705097665555 0 0,0 -0.5421393273653764,0.7007881617365223 l -23.939151582268877 -18.85123303539871" fill="#edff1a" stroke="none" /><path d="M 116.498646956653 112.99209946851258 l 28.561916826740894 22.49149675117842 a57.35451167222487,57.35451167222487 0 0,0 -0.6174679881871833,0.7703862553069523 l -28.170530926498856 -22.97981084006362" fill="#97ff23" stroke="none" /><path d="M 116.0416608686014 113.55231037782055 l 23.254523514894224 19.645878499964187 a51.442296331586476,51.442296331586476 0 0,0 -0.5772744026389525,0.6715005474384177 l -22.91290660268449 -20.043256146564133" fill="#edff19" stroke="none" /><path d="M 115.56566222782051 114.09645910891815 l 24.307350000166785 22.01304128976271 a53.793616007622674,53.793616007622674 0 0,0 -0.6274733079983811,0.6809983483488247 l -23.924830284172682 -22.42819089291287" fill="#caff1d" stroke="none" /><path d="M 115.07121518719521 114.62390073753431 l 19.428297035643883 18.85166417038356 a48.07109099571224,48.07109099571224 0 0,0 -0.5813382962937882,0.5888926249222595 l -19.10091811429456 -19.183297289286486" fill="#ffdc14" stroke="none" /><path d="M 114.55890576462653 115.13401014063108 l 23.02734751124293 23.93697138927295 a54.21501667460695,54.21501667460695 0 0,0 -0.6781115294440041,0.6411967766768896 l -22.611900147408118 -24.329802802695763" fill="#c4ff1e" stroke="none" /><path d="M 113.20401910651253 116.32954008644616 l 20.83982975551165 25.772822096227863 a54.144182944259164,54.144182944259164 0 0,0 -0.7297669188244547,0.5797709760983796 l -20.393105343969847 -26.12772698633137" fill="#c5ff1e" stroke="none" /><path d="M 112.34349029814194 116.9893568818739 l 18.204736977588375 25.05667084288567 a51.97174845164364,51.97174845164364 0 0,0 -0.7282792996776557,0.5196079433053045 l -17.770730350061836 -25.36632304803519" fill="#e5ff1a" stroke="none" /><path d="M 111.7513745106137 117.40417183066458 l 16.90686318705189 25.039619983111365 a51.21298713673178,51.21298713673178 0 0,0 -0.7348461322572403,0.4870159465252472 l -16.473342356054683 -25.32693395072793" fill="#f1ff19" stroke="none" /><path d="M 111.1453310114006 117.79835938074945 l 16.443690752427745 26.259490835960044 a51.98315388280133,51.98315388280133 0 0,0 -0.7624710785248752,0.4683720116791042 l -15.98924047397056 -26.538651314467526" fill="#e5ff1a" stroke="none" /><line stroke="#e1ed5e" stroke-width="0.3" x1="143.8653032363475" x2="146.44561519142675" y1="172.8068346515853" y2="177.08958963109032" /><path d="M 144.38136562736335 173.6633856474863 a86.0,86.0 0 0,1 -40.68145358897372,12.25698825130547" fill="none" id="id174" stroke="none" /><text fill="#e1ed5e" style="font-size:6.75px; font-family:Arial;" text-anchor="middle"><textPath startOffset="21.466115282336833" xlink:href="#id174">June</textPath></text><path d="M 110.21172684928248 118.3499491758327 l 15.58409737101935 28.00382334252566 a53.048060981419724,53.048060981419724 0 0,0 -0.8017259252430211,0.4371648980405927 l -15.09974863390768 -28.267928892326026" fill="#d5ff1c" stroke="none" /><path d="M 108.92500713936063 119.00905698771935 l 12.375187841132902 26.35747481572089 a50.11806574559314,50.11806574559314 0 0,0 -0.7840661232219027,0.3599263011563036 l -11.91965372214358 -26.56658818721127" fill="#fffc17" stroke="none" /><path d="M 107.59598834532513 119.57807347666477 l 10.951251115335445 28.226004207786517 a51.276017151024305,51.276017151024305 0 0,0 -0.8256165885508672,0.3121775485867078 l -10.463764306024302 -28.410330006479853" fill="#f0ff19" stroke="none" /><path d="M 106.57524785965236 119.94407469862006 l 9.62191511231587 29.185241049446123 a51.73043353978085,51.73043353978085 0 0,0 -0.8480801941399169,0.2715284966737753 l -9.118113573085013 -29.346542392779604" fill="#e9ff1a" stroke="none" /><path d="M 106.2309692047433 120.05430185196036 l 9.741329235230706 31.352354746662673 a53.830833730347784,53.830833730347784 0 0,0 -0.8872475571818811,0.2673204107762084 l -9.200206703608579 -31.515390526544607" fill="#caff1d" stroke="none" /><path d="M 104.13013068566511 120.58985236759428 l 6.20511306454137 30.934217739544177 a52.55042401143401,52.55042401143401 0 0,0 -0.8884334472403714,0.17027038465304295 l -5.671712002729294 -31.03644532254569" fill="#ddff1b" stroke="none" /><path d="M 101.62511606390274 120.93702456842531 l 2.463548978586652 31.73889338483272 a52.83435921867556,52.83435921867556 0 0,0 -0.9073351164113059,0.06257514191379675 l -1.9168511013964156 -31.776596871262804" fill="#d8ff1c" stroke="none" /><path d="M 101.26447882468166 120.96189622390904 l 1.8271387685847944 30.289390779950498 a51.344449737970464,51.344449737970464 0 0,0 -0.8826647131500823,0.0456236835142353 l -1.3054859870212325 -30.316354270226935" fill="#efff19" stroke="none" /><line stroke="#e1ed5e" stroke-width="0.3" x1="102.19456741930631" x2="102.32365962044197" y1="184.97166512339345" y2="189.96999836594603" /><path d="M 102.22038585953345 185.97133177190398 a86.0,86.0 0 0,1 -42.740103519485714,-10.115201625700543" fill="none" id="id175" stroke="none" /><text fill="#e1ed5e" style="font-size:6.75px; font-family:Arial;" text-anchor="middle"><textPath startOffset="22.20632615414155" xlink:href="#id175">July</textPath></text><path d="M 99.09653310690486 120.98055641714683 l -1.4091500968511592 32.72367071020103 a53.753997141495944,53.753997141495944 0 0,0 -0.9240873494546308,-0.04776476066496959 l 1.9722255147192789 -32.69456614277386" fill="#cbff1d" stroke="none" /><path d="M 96.58105272829116 120.7198165907248 l -4.9553397560188275 30.03080267983164 a51.436893758932825,51.436893758932825 0 0,0 -0.8723477436441344,-0.15166883704843362 l 5.471536471135011 -29.941055264262204" fill="#edff19" stroke="none" /><path d="M 94.11515582081647 120.15858648285463 l -6.848175508372418 23.458486585526785 a45.437636969985704,45.437636969985704 0 0,0 -0.7489096789338634,-0.22564034286299983 l 7.250960161746528 -23.33713087355806" fill="#ffb110" stroke="none" /><path d="M 93.76903079525671 120.05430185196036 l -7.722245855383997 24.853958392384758 a47.02599333015722,47.02599333015722 0 0,0 -0.7709545585461398,-0.24683530370394552 l 8.148921759021079 -24.71735024202111" fill="#ffcb13" stroke="none" /><path d="M 91.40352486487194 119.15986991738527 l -12.349927984981392 27.52558577345257 a51.169166269652216,51.169166269652216 0 0,0 -0.8005099404513809,-0.36747485112805306 l 12.821905921200191 -27.308923851990443" fill="#f1ff19" stroke="none" /><line stroke="#e1ed5e" stroke-width="0.3" x1="58.666819895761336" x2="56.23545636021788" y1="174.27360380694188" y2="178.64263932499728" /><path d="M 58.180547188652646 175.14741091055294 a86.0,86.0 0 0,1 -31.652253787137756,-30.449443065178592" fill="none" id="id176" stroke="none" /><text fill="#e1ed5e" style="font-size:6.75px; font-family:Arial;" text-anchor="middle"><textPath startOffset="22.20632615414155" xlink:href="#id176">August</textPath></text><path d="M 89.4739219176387 118.17145234162733 l -15.366970742897253 26.528415835872057 a51.657798951881844,51.657798951881844 0 0,0 -0.7655984164658094,-0.4523290392111659 l 15.821337030391444 -26.259968224367142" fill="#eaff1a" stroke="none" /><path d="M 89.1626897886671 117.98757091392108 l -15.709194878037875 26.073836714004898 a51.44049547403526,51.44049547403526 0 0,0 -0.7545115510376568,-0.4634826197976232 l 16.15568562900784 -25.799565627378897" fill="#edff19" stroke="none" /><path d="M 87.95078237400918 117.19931262002967 l -8.789442151433818 12.5462389352226 a36.31869461648404,36.31869461648404 0 0,0 -0.5089333006587144,-0.36311039700277553 l 9.004102779941418 -12.393084276375607" fill="#ff1202" stroke="none" /><path d="M 87.36589467227662 116.77436683061367 l -18.12918875692383 24.07021745202407 a51.13374940447832,51.13374940447832 0 0,0 -0.698514462312291,-0.5355911035163592 l 18.54083194772961 -23.754587006680342" fill="#f2ff19" stroke="none" /><path d="M 87.07902340077011 116.55440617244103 l -18.699281656002206 23.95759339776116 a51.39127203430205,51.39127203430205 0 0,0 -0.6926625947158652,-0.5502930569833852 l 19.10890174343543 -23.632166426772645" fill="#eeff19" stroke="none" /><path d="M 85.44109423537348 115.13401014063109 l -22.540016058635647 23.43038942048749 a53.51208194378276,53.51208194378276 0 0,0 -0.6583261389831752,-0.6443106862802137 l 22.93999214999462 -23.038928631284705" fill="#ceff1d" stroke="none" /><path d="M 85.18274418774928 114.88116024355367 l -21.28729280232232 21.379101458240022 a51.16976655550262,51.16976655550262 0 0,0 -0.6188115204995107,-0.6268528031996814 l 21.652144947877364 -21.009508161059674" fill="#f1ff19" stroke="none" /><path d="M 83.72743513129214 113.27417163493432 l -23.480404059290244 19.15388975587946 a51.30182944259171,51.30182944259171 0 0,0 -0.5523059388469783,-0.6890865796319271 l 23.806627910192084 -18.746875342669274" fill="#efff19" stroke="none" /><path d="M 83.50135304334701 112.99209946851258 l -23.68447975692558 18.650688003107252 a51.14635540733683,51.14635540733683 0 0,0 -0.5387250066783185,-0.6963746919934396 l 24.002011580821968 -18.240235317000558" fill="#f2ff19" stroke="none" /><path d="M 82.24976979558568 111.22182372390057 l -25.39644418546594 16.055815422174227 a51.0461076703192,51.0461076703192 0 0,0 -0.4631470723101233,-0.7467405498021803 l 25.669055897444018 -15.616278541006782" fill="#f3ff19" stroke="none" /><path d="M 82.05923443525364 110.91462005526583 l -25.7475200365028 15.664013754016477 a51.13795140543117,51.13795140543117 0 0,0 -0.4510345989476349,-0.7559599312978977 l 26.013335511148664 -15.218491728832468" fill="#f2ff19" stroke="none" /><line stroke="#e1ed5e" stroke-width="0.3" x1="26.63291911575756" x2="22.317208475507996" y1="142.92168965132927" y2="145.44649492493687" /><path d="M 25.769776987707644 143.4266507060508 a86.0,86.0 0 0,1 -11.730757126820373,-40.83630448921669" fill="none" id="id177" stroke="none" /><text fill="#e1ed5e" style="font-size:6.75px; font-family:Arial;" text-anchor="middle"><textPath startOffset="21.46611528233685" xlink:href="#id177">September</textPath></text><path d="M 81.02952815118164 109.00673069616217 l -27.223666457157563 12.9251520097026 a51.13615054787995,51.13615054787995 0 0,0 -0.3706771481184444,-0.7984056000599355 l 27.442118222115834 -12.454626342363838" fill="#f2ff19" stroke="none" /><path d="M 80.87730276802145 108.67885076344099 l -24.35533771895291 11.053688650287098 a47.74633635064317,47.74633635064317 0 0,0 -0.3332214887431297,-0.7513264892118715 l 24.54200029242732 -10.63281382458253" fill="#ffd714" stroke="none" /><path d="M 80.0844068197444 106.66101706037122 l -26.28345940559945 8.790828870708308 a48.71459742734635,48.71459742734635 0 0,0 -0.2591332391075463,-0.7975301039361973 l 26.430884895723246 -8.337099866794308" fill="#ffe615" stroke="none" /><path d="M 79.97269907076064 106.31721596034903 l -28.783782660921162 9.079274929120212 a51.18177227251071,51.18177227251071 0 0,0 -0.2577933924818907,-0.8424837224566873 l 28.93580282590918 -8.582464234111477" fill="#f1ff19" stroke="none" /><path d="M 79.76711848015287 105.62410040840567 l -19.660114573725487 5.464889333480725 a41.40551691281563,41.40551691281563 0 0,0 -0.18496815198354324,-0.6883353033722621 l 19.751270802050804 -5.125663096932924" fill="#ff6d0a" stroke="none" /><path d="M 79.35854240842038 103.8639653848113 l -14.08241071953018 2.636148504219853 a35.32702239161505,35.32702239161505 0 0,0 -0.10674405963386273,-0.5986773743620809 l 14.125701221503233 -2.393352379124558" fill="#ff0000" stroke="none" /><path d="M 79.04373962182676 101.35467743843564 l -30.10572971393575 1.9461274137244409 a51.16856598380181,51.16856598380181 0 0,0 -0.04925254468498832,-0.8794372713385952 l 30.13476860950827 -1.4276184260504081" fill="#f2ff19" stroke="none" /><line stroke="#e1ed5e" stroke-width="0.3" x1="15.007084014347285" x2="10.007500721073583" y1="101.09737516637583" y2="101.16192664675087" /><path d="M 14.007167355692545 101.11028546245083 a86.0,86.0 0 0,1 10.666146001902534,-42.60595125391555" fill="none" id="id178" stroke="none" /><text fill="#e1ed5e" style="font-size:6.75px; font-family:Arial;" text-anchor="middle"><textPath startOffset="22.20632615414155" xlink:href="#id178">October</textPath></text><path d="M 79.00175016825051 100.2711162175752 l -31.183451412836106 0.40262114536828064 a52.18605050023821,52.18605050023821 0 0,0 -0.0038659990577787243,-0.8983220298009742 l 31.18576170918339 0.1342103626363689" fill="#e2ff1b" stroke="none" /><path d="M 79.00019446554 99.90962569577889 l -30.430008822059467 -0.13095792102566692 a51.43029061457837,51.43029061457837 0 0,0 0.011429752392002758,-0.8852469187896612 l 30.423246062549747 0.6547410978758" fill="#eeff19" stroke="none" /><path d="M 79.00486145842228 99.54816195383935 l -30.133375116892335 -0.6485027622027485 a51.14035254883278,51.14035254883278 0 0,0 0.026515799247510578,-0.8799302879573123 l 30.117747623189178 1.1671031975850552" fill="#f2ff19" stroke="none" /><path d="M 79.01574976396665 99.18683210126434 l -30.663598058104576 -1.1882556355416853 a51.68661267270129,51.68661267270129 0 0,0 0.04210340216488732,-0.8887362748757553 l 30.63860104770619 1.7159030170404497" fill="#eaff1a" stroke="none" /><path d="M 79.03285615573316 98.82574320788736 l -30.17830281600356 -1.6901241923712973 a51.22559313959028,51.22559313959028 0 0,0 0.05688335987922058,-0.8799604001604904 l 30.144738865119926 2.2093436567847995" fill="#f1ff19" stroke="none" /><path d="M 79.08570108090925 98.10471618934814 l -30.14409090324138 -2.7317008185046534 a51.267613149118624,51.267613149118624 0 0,0 0.08721078576657548,-0.8782007110532032 l 30.092602991792575 3.250177060262287" fill="#f0ff19" stroke="none" /><path d="M 79.12142395522702 97.74499172005258 l -19.099271765168897 -2.062833015003644 a40.21034778465936,40.21034778465936 0 0,0 0.08024768958371402,-0.6875131979150937 l 19.060933722581595 2.3912899512435994" fill="#ff5808" stroke="none" /><line stroke="#e1ed5e" stroke-width="0.3" x1="26.266209847984243" x2="21.928928074336255" y1="57.711370442889674" y2="55.22380399835377" /><path d="M 25.398753493254645 57.213857153982495 a86.0,86.0 0 0,1 29.58750427330803,-30.492523968695096" fill="none" id="id179" stroke="none" /><text fill="#e1ed5e" style="font-size:6.75px; font-family:Arial;" text-anchor="middle"><textPath startOffset="21.46611528233685" xlink:href="#id179">November</textPath></text><line stroke="#e1ed5e" stroke-width="0.3" x1="56.762969772571076" x2="54.21961505331055" y1="26.818313649435495" y2="22.513508569990535" /><path d="M 56.25429882871897 25.957352633546506 a86.0,86.0 0 0,1 42.265352541879196,-11.944610805530505" fill="none" id="id180" stroke="none" /><text fill="#e1ed5e" style="font-size:6.75px; font-family:Arial;" text-anchor="middle"><textPath startOffset="22.20632615414155" xlink:href="#id180">December</textPath></text></svg>