<?xml version="1.0" encoding="utf-8" ?>
<svg baseProfile="full" height="200mm" version="1.1" viewBox="0,0,200,200" width="200mm" xmlns="http://www.w3.org/2000/svg" xmlns:ev="http://www.w3.org/2001/xml-events" xmlns:xlink="http://www.w3.org/1999/xlink"><defs /><rect fill="#1a1a1a" height="200" width="200" x="0" y="0" /><text alignment-baseline="middle" fill="#e1ed5e" style="dominant-baseline: central; font-size:9.0px; font-family:Arial;" text-anchor="middle" x="100.0" y="100.0">2020</text><line stroke="#e1ed5e" stroke-width="0.3" x1="100.0" x2="100.0" y1="15.0" y2="10.0" /><path d="M 100.0 14.0 a86.0,86.0 0 0,1 42.35913384403234,11.155469271406648" fill="none" id="id109" stroke="none" /><text fill="#e1ed5e" style="font-size:6.75px; font-family:Arial;" text-anchor="middle"><textPath startOffset="22.145653131862478" xlink:href="#id109">January</textPath></text><path d="M 109.71004243097381 81.37971332152246 l 26.810123057449648 -51.41194600989068 a78.98250504143044,78.98250504143044 0 0,0 1.1968150695894102,0.6372366136794795 l -27.688726942825618 50.94413892848862" fill="#42ffda" stroke="none" /><path d="M 110.02825361518725 81.54914285379988 l 14.89955727298163 -27.413507210176167 a52.20091640470261,52.20091640470261 0 0,0 0.7836496323885745,0.434677241114686 l -15.367951093526305 27.153697053628335" fill="#ff6c09" stroke="none" /><line stroke="#e1ed5e" stroke-width="0.3" x1="143.13028292997686" x2="145.6673583964461" y1="26.7553504044142" y2="22.446841604673864" /><path d="M 143.63769802327073 25.89364864446614 a86.0,86.0 0 0,1 29.32050498858742,28.57503671076993" fill="none" id="id110" stroke="none" /><text fill="#e1ed5e" style="font-size:6.75px; font-family:Arial;" text-anchor="middle"><textPath startOffset="20.669276256404974" xlink:href="#id110">February</textPath></text><path d="M 111.5731344415666 82.4767994020092 l 17.940719042849427 -27.164535264613058 a53.554283526394286,53.554283526394286 0 0,0 0.7627754757642934,0.5132293816821105 l -18.40439080671072 26.85255620887383" fill="#ff8b0c" stroke="none" /><path d="M 112.16784306229584 82.88440491214696 l 17.86930334918 -25.135412994788766 a51.83992523667351,51.83992523667351 0 0,0 0.7208686947572649,0.5218533431957265 l -18.298153054311232 24.824958880219963" fill="#ff6309" stroke="none" /><path d="M 112.7482090630111 83.31218511350987 l 20.62092269453097 -26.993449747652317 a54.96864410088889,54.96864410088889 0 0,0 0.7449299746665965,0.5792620539694158 l -21.081262613832795 26.635486642062112" fill="#ffab0f" stroke="none" /><path d="M 113.31354834802062 83.75963576809568 l 21.766825727299953 -26.55198815094952 a55.33369739790358,55.33369739790358 0 0,0 0.7294184583551906,0.6085068206263468 l -22.219418519817037 26.174419146411303" fill="#ffb310" stroke="none" /><path d="M 113.86319453409587 84.22622945171908 l 22.666183552079072 -25.789956108340206 a55.33478866815193,55.33478866815193 0 0,0 0.7081139499271424,0.6331998604721496 l -23.10556252882959 25.39706071798467" fill="#ffb310" stroke="none" /><path d="M 114.39649973595853 84.71141617570332 l 22.797361844312586 -24.210008260482894 a54.2542359261669,54.2542359261669 0 0,0 0.6725652557112336,0.6443023009297725 l -23.20959958588913 23.81509382924754" fill="#ff9b0e" stroke="none" /><path d="M 114.91283532996326 85.21462403516908 l 24.33637263046998 -24.128370695460937 a55.270064272286774,55.270064272286774 0 0,0 0.6622227462928716,0.6794988763362859 l -24.74698217791366 23.707049127056912" fill="#ffb210" stroke="none" /><line stroke="#e1ed5e" stroke-width="0.3" x1="172.87174338648825" x2="177.1583165268699" y1="56.24261187166439" y2="53.66864786411523" /><path d="M 173.72905801456457 55.72781907015455 a86.0,86.0 0 0,1 12.242430191666344,42.057860355516425" fill="none" id="id111" stroke="none" /><text fill="#e1ed5e" style="font-size:6.75px; font-family:Arial;" text-anchor="middle"><textPath startOffset="22.145653131862474" xlink:href="#id111">March</textPath></text><line stroke="#e1ed5e" stroke-width="0.3" x1="184.99686870605535" x2="189.99668451229388" y1="99.2704041080226" y2="99.22748670261217" /><path d="M 185.99683186730306 99.26182062694052 a86.0,86.0 0 0,1 -10.086455211305974,41.156179273409016" fill="none" id="id112" stroke="none" /><text fill="#e1ed5e" style="font-size:6.75px; font-family:Arial;" text-anchor="middle"><textPath startOffset="21.40746469413373" xlink:href="#id112">April</textPath></text><line stroke="#e1ed5e" stroke-width="0.3" x1="174.33088141563837" x2="178.70328620479359" y1="141.23008692659167" y2="143.65538615756765" /><path d="M 175.20536237346943 141.71514677278685 a86.0,86.0 0 0,1 -30.301960400862466,31.631185727798858" fill="none" id="id113" stroke="none" /><text fill="#e1ed5e" style="font-size:6.75px; font-family:Arial;" text-anchor="middle"><textPath startOffset="22.145653131862474" xlink:href="#id113">May</textPath></text><path d="M 116.57777611688842 112.89097897827486 l 24.353828150462867 18.937684072612594 a51.85036180689559,51.85036180689559 0 0,0 -0.5524126914087237,0.6979553896960585 l -24.02514902841258 -19.352959406223334" fill="#ff6409" stroke="none" /><path d="M 115.16444852881244 114.52719865689866 l 26.948887526962945 25.816424642332024 a58.31930224768554,58.31930224768554 0 0,0 -0.6987574377710927,0.7169866883235909 l -26.501743288041045 -26.275234022723353" fill="#fff316" stroke="none" /><path d="M 114.65682725009322 115.03919595460226 l 20.695583876218148 21.23549223842918 a50.65220603236742,50.65220603236742 0 0,0 -0.6279125181830597,0.6015259884635691 l -20.32799887216978 -21.58763035719833" fill="#ff4706" stroke="none" /><path d="M 113.03279911837588 116.46651593811092 l 19.150878022874487 24.196508772075592 a51.858178264507906,51.858178264507906 0 0,0 -0.702777229686304,0.5464838245141448 l -18.732690848552952 -24.52169364821053" fill="#ff6409" stroke="none" /><path d="M 112.16784306229584 117.11559508785304 l 16.489503795203056 23.194552125088016 a49.45858365582239,49.45858365582239 0 0,0 -0.6962000053454485,0.48600167334833383 l -16.08890869868385 -23.474198614241473" fill="#ff2a04" stroke="none" /><path d="M 110.96478420261333 117.91015095944535 l 17.362930349631526 28.361041851249496 a54.25387263484482,54.25387263484482 0 0,0 -0.7984807076826387,0.4794647227492567 l -16.87351688539145 -28.654920574534675" fill="#ff9b0e" stroke="none" /><line stroke="#e1ed5e" stroke-width="0.3" x1="143.1302829299769" x2="145.66735839644613" y1="173.24464959558577" y2="177.55315839532614" /><path d="M 143.63769802327073 174.10635135553383 a86.0,86.0 0 0,1 -40.68552437913181,11.842963189579606" fill="none" id="id114" stroke="none" /><text fill="#e1ed5e" style="font-size:6.75px; font-family:Arial;" text-anchor="middle"><textPath startOffset="21.407464694133747" xlink:href="#id114">June</textPath></text><path d="M 110.02825361518725 118.45085714620011 l 14.363864069701705 26.42789205252404 a51.079130129588705,51.079130129588705 0 0,0 -0.773997642244245,0.41211014890448927 l -13.908077611670906 -26.6705726691511" fill="#ff5107" stroke="none" /><path d="M 109.06512990194946 118.94263497670748 l 19.63053438493371 41.020266810687055 a66.47548976600493,66.47548976600493 0 0,0 -1.0335713171199903,0.4837635644873954 l -18.923474353942215 -41.35120660674498" fill="#6cff28" stroke="none" /><path d="M 108.73861861582097 119.09545874513695 l 12.765083920168006 27.8940120964278 a51.67610272385644,51.67610272385644 0 0,0 -0.8098053713846182,0.36221564231185416 l -12.284365145927762 -28.109031489649507" fill="#ff6008" stroke="none" /><path d="M 106.38641147887787 120.00534299687104 l 9.176772021259817 28.74610765319004 a51.17535169536501,51.17535169536501 0 0,0 -0.83917674868514,0.2599791018598365 l -8.681954639703052 -28.89940334285652" fill="#ff5407" stroke="none" /><path d="M 104.29559338865022 120.5559693870025 l 9.882804878050882 47.292798957111735 a69.31437328016804,69.31437328016804 0 0,0 -1.1668035503694483,0.2333933883131579 l -9.069504842150476 -47.455481742087755" fill="#3bff2e" stroke="none" /><path d="M 102.51750503828377 120.84855314841334 l 7.552515114851298 62.54565944524002 a84.0,84.0 0 0,0 -1.4330563935968028,0.16057695797211657 l -6.477722819653695 -62.666092163719114" fill="#4dd2ff" stroke="none" /><path d="M 102.15924093988457 120.88869738790638 l 3.074358242137703 29.7416271597108 a50.90010141635388,50.90010141635388 0 0,0 -0.8699080296226862,0.08238119484523719 l -2.5633506491300015 -29.79002011006122" fill="#ff4d07" stroke="none" /><path d="M 101.80034050326958 120.92268563240118 l 2.847558240317393 33.092943125988825 a54.21522952911707,54.21522952911707 0 0,0 -0.9279349737210413,0.07182803563694014 l -2.2790542718211158 -33.13694892862082" fill="#ff9a0e" stroke="none" /><line stroke="#e1ed5e" stroke-width="0.3" x1="101.45913802915013" x2="101.54496967792366" y1="184.9874750549273" y2="189.98673829345242" /><path d="M 101.47630435890484 185.9873277026323 a86.0,86.0 0 0,1 -42.54439059252881,-10.42667462771756" fill="none" id="id115" stroke="none" /><text fill="#e1ed5e" style="font-size:6.75px; font-family:Arial;" text-anchor="middle"><textPath startOffset="22.145653131862474" xlink:href="#id115">July</textPath></text><path d="M 99.27912038922189 120.98762331915562 l -1.127141550526643 32.8154964242757 a53.83484815933485,53.83484815933485 0 0,0 -0.923329785188465,-0.03965175381954378 l 1.6902970963159467 -32.79131210203033" fill="#ff910d" stroke="none" /><path d="M 98.91894614982273 120.97215588758144 l -1.3763396097506035 26.7006207370794 a47.73607036321387,47.73607036321387 0 0,0 -0.8180045012954978,-0.04920911951356805 l 1.8344884631785476 -26.67305963974114" fill="#ff0000" stroke="none" /><path d="M 97.84075906011543 120.88869738790638 l -3.2051324582856786 31.006749072136948 a52.17196436058565,52.17196436058565 0 0,0 -0.8900638939695452,-0.09973351581491101 l 3.736932253856023 -30.947159795815065" fill="#ff6b09" stroke="none" /><path d="M 96.76829788921471 120.74984581791261 l -4.866598323593336 31.24705229954989 a52.623757788314904,52.623757788314904 0 0,0 -0.891402596151913,-0.1466799579783242 l 5.402278422798313 -31.1589063430759" fill="#ff760a" stroke="none" /><path d="M 96.41257539226777 120.69131181640829 l -5.101434745845536 29.42371996050834 a50.862684621121005,50.862684621121005 0 0,0 -0.8590108377837347,-0.15654038980076573 l 5.6057803171803275 -29.331811396776207" fill="#ff4c07" stroke="none" /><path d="M 94.30408787586889 120.21278271476187 l -7.8093034262439485 27.712462880103384 a49.79176651204739,49.79176651204739 0 0,0 -0.8207105449513338,-0.23889687847169505 l 8.283873983576889 -27.574322307329176" fill="#ff3304" stroke="none" /><line stroke="#e1ed5e" stroke-width="0.3" x1="58.13341422392154" x2="55.67067388415222" y1="173.97424548756322" y2="178.32567169271397" /><path d="M 57.64086615596768 174.84453072859336 a86.0,86.0 0 0,1 -31.369924170532247,-30.572349798747897" fill="none" id="id116" stroke="none" /><text fill="#e1ed5e" style="font-size:6.75px; font-family:Arial;" text-anchor="middle"><textPath startOffset="22.145653131862474" xlink:href="#id116">August</textPath></text><path d="M 87.54013794807813 116.9041958592261 l -18.03912235334243 24.473533986069235 a51.40335180611086,51.40335180611086 0 0,0 -0.705809659679068,-0.5296527269379203 l 18.456585001932268 -24.1602622318673" fill="#ff5908" stroke="none" /><path d="M 87.2517909369889 116.68781488649013 l -18.08928497761195 23.679454709542828 a50.798302071469564,50.798302071469564 0 0,0 -0.6884138856645675,-0.5353148013269285 l 18.493108807911746 -23.365438856595105" fill="#ff4b07" stroke="none" /><line stroke="#e1ed5e" stroke-width="0.3" x1="26.387840678322732" x2="22.057713659400534" y1="142.50000000000003" y2="145.00000000000006" /><path d="M 25.521815274538284 143.00000000000003 a86.0,86.0 0 0,1 -11.493303480769212,-40.785679425670985" fill="none" id="id117" stroke="none" /><text fill="#e1ed5e" style="font-size:6.75px; font-family:Arial;" text-anchor="middle"><textPath startOffset="21.40746469413373" xlink:href="#id117">September</textPath></text><line stroke="#e1ed5e" stroke-width="0.3" x1="15.003131293944662" x2="10.003315487706104" y1="100.72959589197737" y2="100.7725132973878" /><path d="M 14.003168132696942 100.73817937305945 a86.0,86.0 0 0,1 10.791469493833604,-42.45332614584628" fill="none" id="id118" stroke="none" /><text fill="#e1ed5e" style="font-size:6.75px; font-family:Arial;" text-anchor="middle"><textPath startOffset="22.145653131862435" xlink:href="#id118">October</textPath></text><path d="M 79.00077361379809 99.81974689727619 l -33.1175661823859 -0.28427447512822424 a54.11878623714824,54.11878623714824 0 0,0 0.015948467163131592,-0.9289182572948422 l 33.10780628362411 0.8527396483921189" fill="#ff980e" stroke="none" /><path d="M 79.01933749520258 99.09900007780938 l -61.07086078208109 -2.622645533723612 a82.1271486841967,82.1271486841967 0 0,0 0.0725785400972672,-1.4080042883740698 l 61.01684065252725 3.670621615474394" fill="#49f0ff" stroke="none" /><path d="M 79.03789590574601 98.7389718711861 l -31.489084973505257 -1.8943051577101107 a52.5460118636122,52.5460118636122 0 0,0 0.061894294765682485,-0.8999294619625229 l 31.451926717574512 2.4345780438269586" fill="#ff740a" stroke="none" /><path d="M 79.06263194458094 98.37931529534042 l -56.27205170604216 -4.355812691375576 a77.44038365753578,77.44038365753578 0 0,0 0.11397151027387274,-1.324521709187579 l 56.18898657307055 5.3211554479388345" fill="#3fffbf" stroke="none" /><path d="M 79.0935383218832 98.0201363427161 l -30.230510034558456 -2.8628607308154517 a51.365765403058504,51.365765403058504 0 0,0 0.09066695389711944,-0.877120532524457 l 30.176910688179674 3.3813857856228213" fill="#ff5808" stroke="none" /><path d="M 79.2786578344484 96.59031103205396 l -31.032768474481134 -5.106430243122488 a52.450092989029876,52.450092989029876 0 0,0 0.15381659758469934,-0.8871732596983899 l 30.9405370594042 5.63839653574147" fill="#ff720a" stroke="none" /><path d="M 80.5471966667186 92.08871423366112 l -28.637080812507723 -11.646451462030575 a51.9147574649961,51.9147574649961 0 0,0 0.3428207213119943,-0.8226449316472461 l 28.43293424665925 12.136328903119084" fill="#ff6509" stroke="none" /><line stroke="#e1ed5e" stroke-width="0.3" x1="26.387840678322718" x2="22.05771365940052" y1="57.49999999999999" y2="54.99999999999999" /><path d="M 25.521815274538284 56.99999999999999 a86.0,86.0 0 0,1 29.574782752854787,-30.34633250058573" fill="none" id="id119" stroke="none" /><text fill="#e1ed5e" style="font-size:6.75px; font-family:Arial;" text-anchor="middle"><textPath startOffset="21.40746469413373" xlink:href="#id119">November</textPath></text><path d="M 86.40962598614128 83.9905735841838 l -19.55203319405883 -23.032245939713146 a51.212023352450444,51.212023352450444 0 0,0 0.6750858315932361,-0.5631806109746958 l 19.153773028303682 23.36448873459972" fill="#ff5507" stroke="none" /><line stroke="#e1ed5e" stroke-width="0.3" x1="56.869717070023135" x2="54.33264160355391" y1="26.7553504044142" y2="22.446841604673864" /><path d="M 56.362301976729285 25.89364864446614 a86.0,86.0 0 0,1 42.16139366436587,-11.88097634709845" fill="none" id="id120" stroke="none" /><text fill="#e1ed5e" style="font-size:6.75px; font-family:Arial;" text-anchor="middle"><textPath startOffset="22.145653131862474" xlink:href="#id120">December</textPath></text><path d="M 90.93487009805054 81.0573650232925 l -13.211996028584391 -27.607990264911987 a51.60650201389902,51.60650201389902 0 0,0 0.8023859688166681,-0.3755571482488769 l 12.7361213458962 27.830723644731407" fill="#ff5e08" stroke="none" /></svg>