<?xml version="1.0" encoding="utf-8" ?>
<svg baseProfile="full" height="200mm" version="1.1" viewBox="0,0,200,200" width="200mm" xmlns="http://www.w3.org/2000/svg" xmlns:ev="http://www.w3.org/2001/xml-events" xmlns:xlink="http://www.w3.org/1999/xlink"><defs /><rect fill="#1a1a1a" height="200" width="200" x="0" y="0" /><text alignment-baseline="middle" fill="#e1ed5e" style="dominant-baseline: central; font-size:9.0px; font-family:Arial;" text-anchor="middle" x="100.0" y="100.0">2012</text><line stroke="#e1ed5e" stroke-width="0.3" x1="100.0" x2="100.0" y1="15.0" y2="10.0" /><path d="M 100.0 14.0 a86.0,86.0 0 0,1 42.35913384403234,11.155469271406648" fill="none" id="id13" stroke="none" /><text fill="#e1ed5e" style="font-size:6.75px; font-family:Arial;" text-anchor="middle"><textPath startOffset="22.145653131862478" xlink:href="#id13">January</textPath></text><path d="M 100.36049292484886 79.00309439819443 l 0.5643541382733375 -32.87079925987967 a53.87564356140716,53.87564356140716 0 0,0 0.9245745064476918,0.023813759594533523 l -1.1285419587917707 32.85626778293509" fill="#bbff1f" stroke="none" /><path d="M 101.08105385017728 79.02784411241856 l 1.6401838794107853 -31.819129081923407 a52.86137440052426,52.86137440052426 0 0,0 0.9058316253366251,0.05449258120189626 l -2.186159856879873 31.786284522896818" fill="#c9ff1d" stroke="none" /><path d="M 102.15924093988457 79.11130261209362 l 1.3109874685110714 -12.682614525884814 a33.750192130112296,33.750192130112296 0 0,0 0.5757848644902176,0.0645178950384274 l -1.5285082346020857 12.658240870339416" fill="#ff0000" stroke="none" /><path d="M 102.51750503828377 79.15144685158666 l 3.4793402940560596 -28.813928845796923 a50.023237317923204,50.023237317923204 0 0,0 0.8516388934275112,0.11026170515882847 l -3.9734570093743624 28.749955544437697" fill="#f3ff19" stroke="none" /><path d="M 105.3480935250658 79.69241777938227 l 8.10843526783739 -30.78904942675592 a52.83884870870692,52.83884870870692 0 0,0 0.8751587778136265,0.23852841655132637 l -8.63577544658571 30.64532051606045" fill="#caff1d" stroke="none" /><path d="M 106.38641147887787 79.99465700312896 l 9.734444560675229 -30.493008940061348 a53.00910815882756,53.00910815882756 0 0,0 0.864495916284285,0.2841769787533994 l -10.256463214607257 30.32141103990593" fill="#c7ff1e" stroke="none" /><path d="M 108.07796709384702 80.6158196554323 l 9.19150226110051 -22.05625937773201 a44.8948172529862,44.8948172529862 0 0,0 0.7088355575106501,0.30255974953361975 l -9.56877289378159 21.89522497853899" fill="#ffbd11" stroke="none" /><path d="M 108.73861861582097 80.90454125486305 l 13.436242388232435 -29.360614473967274 a53.28898096571446,53.28898096571446 0 0,0 0.8285454148377293,0.38780108985459955 l -13.938276516941668 29.12563715254214" fill="#c3ff1e" stroke="none" /><path d="M 109.71004243097381 81.37971332152246 l 14.219712281813173 -27.26817323972036 a51.753105358791814,51.753105358791814 0 0,0 0.7842103306163855,0.41754783023069003 l -14.685711428216118 27.020054941767093" fill="#d9ff1c" stroke="none" /><path d="M 110.34350942703115 81.72400993836675 l 11.931928749214647 -21.0825748045317 a45.22490214768699,45.22490214768699 0 0,0 0.6723597662278271,0.3881870920239099 l -12.292080983302872 20.874640815231615" fill="#ffc212" stroke="none" /><line stroke="#e1ed5e" stroke-width="0.3" x1="143.13028292997686" x2="145.6673583964461" y1="26.7553504044142" y2="22.446841604673864" /><path d="M 143.63769802327073 25.89364864446614 a86.0,86.0 0 0,1 29.32050498858742,28.57503671076993" fill="none" id="id14" stroke="none" /><text fill="#e1ed5e" style="font-size:6.75px; font-family:Arial;" text-anchor="middle"><textPath startOffset="20.669276256404974" xlink:href="#id14">February</textPath></text><path d="M 111.8722381534696 82.67804972795209 l 18.03098424049221 -26.307744869370588 a52.89378987816865,52.89378987816865 0 0,0 0.7445554254481095,0.5197575120511627 l -18.479934757114076 25.9943425415143" fill="#c9ff1d" stroke="none" /><path d="M 113.03279911837588 83.53348406188908 l 39.09839735512764 -49.399547814332756 a84.0,84.0 0 0,0 1.122996918578962,0.904606824826367 l -39.94064504406186 48.72109269571298" fill="#4dd2ff" stroke="none" /><path d="M 113.86319453409587 84.22622945171908 l 19.558832115444723 -22.254360582085983 a50.62776533317446,50.62776533317446 0 0,0 0.6478786266096702,0.5793370629322248 l -19.937975768877767 21.91532798927037" fill="#eaff1a" stroke="none" /><path d="M 114.65682725009322 84.96080404539774 l 16.89768328989247 -17.338511660078744 a45.210652348753385,45.210652348753385 0 0,0 0.5511567760702931,0.5464460627007723 l -17.192831986092727 17.04588558714931" fill="#ffc212" stroke="none" /><path d="M 116.1254893667686 86.54754324733833 l 24.16479346509144 -20.15913015924095 a52.46947365285514,52.46947365285514 0 0,0 0.5710507188683367,0.6965890254712827 l -24.507291003198404 19.74133885207117" fill="#cfff1d" stroke="none" /><path d="M 116.57777611688842 87.10902102172516 l 25.277906204833776 -19.656252756927554 a53.02094337374519,53.02094337374519 0 0,0 0.5525489817215908,0.7233043541341635 l -25.611607163909675 19.21942748955251" fill="#c7ff1e" stroke="none" /><path d="M 117.01052211995028 87.68569379921539 l 25.549742406414914 -18.496043162294438 a52.54192368413213,52.54192368413213 0 0,0 0.522629264371727,0.7351435109947284 l -25.863486769316605 18.054722424590203" fill="#ceff1d" stroke="none" /><path d="M 117.21940702142032 87.97951657250589 l 26.020318734133543 -18.164203316216625 a52.73318876411187,52.73318876411187 0 0,0 0.5117888133609898,0.7467151736876789 l -26.32829728430986 17.714853407458897" fill="#cbff1d" stroke="none" /><path d="M 117.62189284568427 88.57770195909679 l 16.63547417970441 -10.782913379187294 a40.824485418962794,40.824485418962794 0 0,0 0.376134079859339,0.5913452477489729 l -16.81812595118964 10.495754456759649" fill="#ff7b0b" stroke="none" /><line stroke="#e1ed5e" stroke-width="0.3" x1="172.87174338648825" x2="177.1583165268699" y1="56.24261187166439" y2="53.66864786411523" /><path d="M 173.72905801456457 55.72781907015455 a86.0,86.0 0 0,1 12.242430191666344,42.057860355516425" fill="none" id="id15" stroke="none" /><text fill="#e1ed5e" style="font-size:6.75px; font-family:Arial;" text-anchor="middle"><textPath startOffset="22.145653131862474" xlink:href="#id15">March</textPath></text><path d="M 118.18653347947321 89.5 l 26.75268815996635 -15.44567171070269 a51.891343421405374,51.891343421405374 0 0,0 0.43877005885043385,0.7752646518536954 l -27.01389158383816 14.984150288749877" fill="#d7ff1c" stroke="none" /><path d="M 119.16976305983485 91.42560881287824 l 29.138371043423867 -13.0332227426065 a52.9203628131423,52.9203628131423 0 0,0 0.3638051115041351,0.8324572913525969 l -29.357810036944972 12.531103381478053" fill="#c9ff1d" stroke="none" /><path d="M 119.4528033332814 92.08871423366111 l 20.981700615189276 -8.533074980845468 a43.650499538291974,43.650499538291974 0 0,0 0.27633120223862423,0.6965351425429227 l -21.125090492394026 8.17163882108898" fill="#ffa90f" stroke="none" /><path d="M 119.94978838288452 93.4421083053983 l 29.952553208956584 -9.845999173086494 a52.52933782133388,52.52933782133388 0 0,0 0.27424137533687687,0.8590572022634412 l -30.117159300070718 9.330372937131665" fill="#ceff1d" stroke="none" /><path d="M 120.26092885502905 94.47779374421319 l 30.742511902461928 -8.379008324894112 a52.86392660331834,52.86392660331834 0 0,0 0.23111735943577563,0.8775902585391541 l -30.881818742702436 7.850037561982161" fill="#c9ff1d" stroke="none" /><line stroke="#e1ed5e" stroke-width="0.3" x1="184.99686870605535" x2="189.99668451229388" y1="99.2704041080226" y2="99.22748670261217" /><path d="M 185.99683186730306 99.26182062694052 a86.0,86.0 0 0,1 -10.086455211305974,41.156179273409016" fill="none" id="id16" stroke="none" /><text fill="#e1ed5e" style="font-size:6.75px; font-family:Arial;" text-anchor="middle"><textPath startOffset="21.40746469413373" xlink:href="#id16">April</textPath></text><line stroke="#e1ed5e" stroke-width="0.3" x1="174.33088141563837" x2="178.70328620479359" y1="141.23008692659167" y2="143.65538615756765" /><path d="M 175.20536237346943 141.71514677278685 a86.0,86.0 0 0,1 -30.301960400862466,31.631185727798858" fill="none" id="id17" stroke="none" /><text fill="#e1ed5e" style="font-size:6.75px; font-family:Arial;" text-anchor="middle"><textPath startOffset="22.145653131862474" xlink:href="#id17">May</textPath></text><line stroke="#e1ed5e" stroke-width="0.3" x1="143.1302829299769" x2="145.66735839644613" y1="173.24464959558577" y2="177.55315839532614" /><path d="M 143.63769802327073 174.10635135553383 a86.0,86.0 0 0,1 -40.68552437913181,11.842963189579606" fill="none" id="id18" stroke="none" /><text fill="#e1ed5e" style="font-size:6.75px; font-family:Arial;" text-anchor="middle"><textPath startOffset="21.407464694133747" xlink:href="#id18">June</textPath></text><line stroke="#e1ed5e" stroke-width="0.3" x1="101.45913802915013" x2="101.54496967792366" y1="184.9874750549273" y2="189.98673829345242" /><path d="M 101.47630435890484 185.9873277026323 a86.0,86.0 0 0,1 -42.54439059252881,-10.42667462771756" fill="none" id="id19" stroke="none" /><text fill="#e1ed5e" style="font-size:6.75px; font-family:Arial;" text-anchor="middle"><textPath startOffset="22.145653131862474" xlink:href="#id19">July</textPath></text><line stroke="#e1ed5e" stroke-width="0.3" x1="58.13341422392154" x2="55.67067388415222" y1="173.97424548756322" y2="178.32567169271397" /><path d="M 57.64086615596768 174.84453072859336 a86.0,86.0 0 0,1 -31.369924170532247,-30.572349798747897" fill="none" id="id20" stroke="none" /><text fill="#e1ed5e" style="font-size:6.75px; font-family:Arial;" text-anchor="middle"><textPath startOffset="22.145653131862474" xlink:href="#id20">August</textPath></text><line stroke="#e1ed5e" stroke-width="0.3" x1="26.387840678322732" x2="22.057713659400548" y1="142.50000000000003" y2="145.00000000000006" /><path d="M 25.521815274538298 143.00000000000003 a86.0,86.0 0 0,1 -11.493303480769221,-40.785679425670985" fill="none" id="id21" stroke="none" /><text fill="#e1ed5e" style="font-size:6.75px; font-family:Arial;" text-anchor="middle"><textPath startOffset="21.40746469413373" xlink:href="#id21">September</textPath></text><line stroke="#e1ed5e" stroke-width="0.3" x1="15.003131293944662" x2="10.003315487706104" y1="100.72959589197737" y2="100.7725132973878" /><path d="M 14.003168132696942 100.73817937305945 a86.0,86.0 0 0,1 10.791469493833604,-42.45332614584628" fill="none" id="id22" stroke="none" /><text fill="#e1ed5e" style="font-size:6.75px; font-family:Arial;" text-anchor="middle"><textPath startOffset="22.145653131862435" xlink:href="#id22">October</textPath></text><line stroke="#e1ed5e" stroke-width="0.3" x1="26.387840678322718" x2="22.05771365940052" y1="57.49999999999999" y2="54.99999999999999" /><path d="M 25.521815274538284 56.99999999999999 a86.0,86.0 0 0,1 29.574782752854787,-30.34633250058573" fill="none" id="id23" stroke="none" /><text fill="#e1ed5e" style="font-size:6.75px; font-family:Arial;" text-anchor="middle"><textPath startOffset="21.40746469413373" xlink:href="#id23">November</textPath></text><path d="M 85.60350026404147 84.71141617570332 l -11.07610113763403 -11.762435577736008 a37.15657473388118,37.15657473388118 0 0,0 0.46812016545395857,-0.4332850365159058 l 10.872551200866118 11.95083836038428" fill="#ff3c05" stroke="none" /><line stroke="#e1ed5e" stroke-width="0.3" x1="56.869717070023135" x2="54.33264160355391" y1="26.7553504044142" y2="22.446841604673864" /><path d="M 56.362301976729285 25.89364864446614 a86.0,86.0 0 0,1 42.16139366436587,-11.88097634709845" fill="none" id="id24" stroke="none" /><text fill="#e1ed5e" style="font-size:6.75px; font-family:Arial;" text-anchor="middle"><textPath startOffset="22.145653131862474" xlink:href="#id24">December</textPath></text></svg>