<?xml version="1.0" encoding="utf-8" ?>
<svg baseProfile="full" height="200mm" version="1.1" viewBox="0,0,200,200" width="200mm" xmlns="http://www.w3.org/2000/svg" xmlns:ev="http://www.w3.org/2001/xml-events" xmlns:xlink="http://www.w3.org/1999/xlink"><defs /><rect fill="#1a1a1a" height="200" width="200" x="0" y="0" /><text alignment-baseline="middle" fill="#e1ed5e" style="dominant-baseline: central; font-size:9.0px; font-family:Arial;" text-anchor="middle" x="100.0" y="100.0">2017</text><line stroke="#e1ed5e" stroke-width="0.3" x1="100.0" x2="100.0" y1="15.0" y2="10.0" /><path d="M 100.0 14.0 a86.0,86.0 0 0,1 42.46469731375804,11.215312516191453" fill="none" id="id73" stroke="none" /><text fill="#e1ed5e" style="font-size:6.75px; font-family:Arial;" text-anchor="middle"><textPath startOffset="22.20632615414155" xlink:href="#id73">January</textPath></text><path d="M 100.36148047927253 79.00311137660856 l 0.3931444042863832 -22.83611354705347 a43.83949746506128,43.83949746506128 0 0,0 0.7544012719197741,0.019483959153138785 l -0.7861723114010252 22.82596279575797" fill="#ffaa0f" stroke="none" /><path d="M 101.44485096284872 79.0497635885617 l 1.4818699444405858 -21.487009017057925 a42.53804761419579,42.53804761419579 0 0,0 0.7300537945489534,0.056666225191511405 l -1.8515139283518802 21.45831752967795" fill="#ff940d" stroke="none" /><path d="M 102.52436894288641 79.15227682838746 l 2.73074978551925 -22.552137531192653 a43.71686381560936,43.71686381560936 0 0,0 0.7462786568440114,0.09688838799921602 l -3.1185431708711078 22.501790820029303" fill="#ffa80f" stroke="none" /><path d="M 104.66035177308747 79.52364482259891 l 5.411302408098982 -23.775833987560404 a45.38385686383371,45.38385686383371 0 0,0 0.7602364685228568,0.17992340984418348 l -5.819762563584362 23.67916466557535" fill="#ffc212" stroke="none" /><path d="M 105.01212808612495 79.60689891045804 l 4.275780513637325 -17.397086178361047 a38.914823652442735,38.914823652442735 0 0,0 0.6491198487543066,0.16547510270381005 l -4.574609251076656 17.32090807948837" fill="#ff5808" stroke="none" /><path d="M 107.08798089147638 80.2323363322302 l 8.142478933246814 -22.708552328051987 a45.12422666147546,45.12422666147546 0 0,0 0.7289016771150859,0.26846063913578394 l -8.532162936134476 22.56502842110988" fill="#ffbe11" stroke="none" /><path d="M 108.43124777332544 80.76684994638697 l 9.379244038878136 -21.395695256391306 a44.36120703741989,44.36120703741989 0 0,0 0.6967199679684947,0.312597940727863 l -9.74614612531341 21.231076985146913" fill="#ffb210" stroke="none" /><path d="M 109.08828744355905 81.06846463323043 l 9.871401076432777 -20.562815575391845 a43.809514321865244,43.809514321865244 0 0,0 0.6770212464649176,0.3322113853693436 l -10.223893589908126 20.38984902988767" fill="#ffa90f" stroke="none" /><path d="M 109.41281617654863 81.2277094730956 l 11.183740451117629 -22.30410336164164 a45.950933394259195,45.950933394259195 0 0,0 0.7040109954814534,0.36062177582101645 l -11.566011934187838 22.108289060508124" fill="#ffcb12" stroke="none" /><path d="M 109.73455568895987 81.39251694778311 l 16.823689041729242 -32.15827395951678 a57.29312740765303,57.29312740765303 0 0,0 0.86991416541975,0.4646780201318438 l -17.374748253677303 31.86391721288318" fill="#8eff24" stroke="none" /><line stroke="#e1ed5e" stroke-width="0.3" x1="143.23703022742887" x2="145.7803849466894" y1="26.81831364943548" y2="22.513508569990506" /><path d="M 143.74570117128098 25.957352633546492 a86.0,86.0 0 0,1 28.547481713284135,27.462654790039103" fill="none" id="id74" stroke="none" /><text fill="#e1ed5e" style="font-size:6.75px; font-family:Arial;" text-anchor="middle"><textPath startOffset="19.985693538727396" xlink:href="#id74">February</textPath></text><path d="M 113.06298171725822 83.55741782278167 l 14.387907712705493 -18.110287531968453 a44.12994601895781,44.12994601895781 0 0,0 0.5907037070219764,0.4776413170558193 l -14.69751481829196 17.859940117648502" fill="#ffae10" stroke="none" /><path d="M 113.6212207817346 84.01681056812373 l 14.678300896968304 -17.223571039162586 a43.62971313479295,43.62971313479295 0 0,0 0.5674069152559372,0.49204968558935924 l -14.972601610871004 16.968356360153553" fill="#ffa60f" stroke="none" /><path d="M 113.89432698308785 84.25364557470407 l 12.248751906574874 -13.881434417313795 a39.512864304342685,39.512864304342685 0 0,0 0.5061203022132761,0.4543998045649049 l -12.48588319638414 13.668535603979592" fill="#ff6209" stroke="none" /><path d="M 115.4437574822437 85.77008943001954 l 16.869303018278384 -15.543411219970043 a43.9384179200656,43.9384179200656 0 0,0 0.5077112633130599,0.560627457784156 l -17.134357922207478 15.250730974916339" fill="#ffab0f" stroke="none" /><path d="M 115.68641384162765 86.03803664274999 l 14.227325573362405 -12.663276663006902 a40.04666293118842,40.04666293118842 0 0,0 0.4538776959132487,0.5188606671219252 l -14.443195132853502 12.416500439682029" fill="#ff6b09" stroke="none" /><path d="M 117.04232023915458 87.72973835380427 l 18.164795070186077 -13.078429763843376 a43.38314332326094,43.38314332326094 0 0,0 0.4311197392763807,0.6097882972063967 l -18.38722742926634 12.763814966305185" fill="#ffa20f" stroke="none" /><path d="M 117.2510076193507 88.02491185347247 l 18.390423459646026 -12.766033546596853 a43.387033915593534,43.387033915593534 0 0,0 0.42059707678170194,0.6171743112238104 l -18.607445002096462 12.447581212102637" fill="#ffa20f" stroke="none" /><line stroke="#e1ed5e" stroke-width="0.3" x1="172.23445277983987" x2="176.4835382374775" y1="55.19839476539836" y2="52.563006222186495" /><path d="M 173.08426987136738 54.67131705675599 a86.0,86.0 0 0,1 12.851231095245387,41.99856678651699" fill="none" id="id75" stroke="none" /><text fill="#e1ed5e" style="font-size:6.75px; font-family:Arial;" text-anchor="middle"><textPath startOffset="22.20632615414155" xlink:href="#id75">March</textPath></text><path d="M 119.47837535516314 92.15188598940014 l 20.176396103347727 -8.129356481474858 a42.75254919594673,42.75254919594673 0 0,0 0.2691506077478133,0.68495893905801 l -20.31334026097724 7.780848537521064" fill="#ff980e" stroke="none" /><path d="M 120.28053869075195 94.5502522615342 l 21.655272193872552 -5.819163507635727 a43.42350279771894,43.42350279771894 0 0,0 0.18776253986062158,0.7235256592433976 l -21.752231065603475 5.445541422843479" fill="#ffa30f" stroke="none" /><path d="M 120.37134235888165 94.90015583598534 l 15.043629962387037 -3.7660831140971127 a36.50787491784469,36.50787491784469 0 0,0 0.1473652535816172,0.6109241146124652 l -15.106228016229474 3.5065737678252415" fill="#ff2e04" stroke="none" /><path d="M 120.78858239683441 97.02765380044208 l 22.953627281738406 -3.2819037640264073 a44.18706315395066,44.18706315395066 0 0,0 0.10117575172981025,0.7538768688614678 l -23.006719032526053 2.886308553100275" fill="#ffaf10" stroke="none" /><path d="M 120.83666639777658 97.38593545837742 l 30.73239036387409 -3.8555328571214775 a51.97329415948333,51.97329415948333 0 0,0 0.10372297197450384,0.8886350813260405 l -30.794203688852182 3.3259540374705843" fill="#d8ff1c" stroke="none" /><path d="M 120.87857604477298 97.74499172005257 l 16.862810929766905 -1.821282169256569 a37.96088031893151,37.96088031893151 0 0,0 0.06457484555357854,0.6502598822247665 l -16.891662901002714 1.5307467563273676" fill="#ff4706" stroke="none" /><path d="M 120.98425023603335 99.18683210126433 l 17.73671960921499 -0.6873217223802721 a38.750031933660495,38.750031933660495 0 0,0 0.020091532740343164,0.6667401583745773 l -17.74592283641098 0.3819114165806957" fill="#ff5507" stroke="none" /><line stroke="#e1ed5e" stroke-width="0.3" x1="184.98032266829074" x2="189.97916517819016" y1="98.17113171792111" y2="98.06355123074" /><path d="M 185.9800911702706 98.14961562048488 a86.0,86.0 0 0,1 -9.607161424134198,41.387399972396054" fill="none" id="id76" stroke="none" /><text fill="#e1ed5e" style="font-size:6.75px; font-family:Arial;" text-anchor="middle"><textPath startOffset="21.466115282336823" xlink:href="#id76">April</textPath></text><path d="M 120.99513854157772 99.54816195383933 l 18.675397187645814 -0.40191470800869517 a39.67972150619069,39.67972150619069 0 0,0 0.008818332278115291,0.6829895530831628 l -18.679548527041646 0.08038889686506967" fill="#ff6509" stroke="none" /><path d="M 120.99980553446 99.90962569577887 l 16.820147880472604 -0.07238682087316368 a37.82030364092168,37.82030364092168 0 0,0 -0.002801768994571472,0.6510324427453267 l -16.81890181418853 -0.21715510007584773" fill="#ff4506" stroke="none" /><path d="M 120.9904718944345 100.63252640178507 l 17.314591148071035 0.5217574951315335 a38.32245067848616,38.32245067848616 0 0,0 -0.025544408257798443,0.6591876731072732 l -17.303044606962033 -0.819722415252813" fill="#ff4e07" stroke="none" /><path d="M 120.89721153311464 102.0752229133903 l 25.240883336603446 2.506576505258918 a46.365037303121426,46.365037303121426 0 0,0 -0.08570400185357381,0.7935126163186044 l -25.19399703324882 -2.940685443462314" fill="#ffd213" stroke="none" /><path d="M 120.49622156327973 104.57218783832717 l 33.74455294650827 7.5275549747289086 a55.573963288250106,55.573963288250106 0 0,0 -0.216313538484657,0.9318730623406225 l -33.609978842093064 -8.107296694418096" fill="#a5ff21" stroke="none" /><path d="M 120.41448212921028 104.9243191809786 l 14.703146129693263 3.5466481123016695 a36.124854344541866,36.124854344541866 0 0,0 -0.15101683258046147,0.6032371773549935 l -14.639917982817739 -3.799213129054059" fill="#ff2703" stroke="none" /><path d="M 119.79798401119884 107.00284435728193 l 12.18685171630414 4.310672527378417 a33.92676496241346,33.92676496241346 0 0,0 -0.19948249406838012,0.548890149354056 l -12.110844961230534 -4.5198104737386045" fill="#ff0000" stroke="none" /><path d="M 119.67450827220406 107.3425965602758 l 59.02352481661219 22.027789680827375 a84.0,84.0 0 0,0 -0.517222881625973,1.3503057326674246 l -58.635607655392704 -23.040518980327946" fill="#4dd2ff" stroke="none" /><path d="M 118.97047184881838 109.00673069616215 l 13.734904430165157 6.521007296280164 a36.20431306780775,36.20431306780775 0 0,0 -0.2721301387740379,0.5606686881591324 l -13.620621034776406 -6.756464940404572" fill="#ff2904" stroke="none" /><line stroke="#e1ed5e" stroke-width="0.3" x1="174.80103733775053" x2="179.2010983576182" y1="140.37084112569926" y2="142.7455964860345" /><path d="M 175.68104954172406 140.8457921977663 a86.0,86.0 0 0,1 -30.038265399797805,32.042727171017184" fill="none" id="id77" stroke="none" /><text fill="#e1ed5e" style="font-size:6.75px; font-family:Arial;" text-anchor="middle"><textPath startOffset="22.206326154141568" xlink:href="#id77">May</textPath></text><path d="M 117.35343817320211 111.8261652097733 l 17.71504481354592 12.07259590707804 a42.437592791205304,42.437592791205304 0 0,0 -0.4165736609619871,0.6001054281475031 l -17.504610245421798 -12.375742597412565" fill="#ff930d" stroke="none" /><path d="M 116.0416608686014 113.55231037782055 l 11.66008215200803 9.850666564345328 a36.26411306147485,36.26411306147485 0 0,0 -0.40694808936708127,0.47337256517837184 l -11.48879155307017 -10.049916228685227" fill="#ff2a04" stroke="none" /><path d="M 115.80600337817218 113.82643327865902 l 11.469010884262456 10.03261292367298 a36.23783228479631,36.23783228479631 0 0,0 -0.4147353475037396,0.4659595594996837 l -11.294616687110377 -10.228546652913531" fill="#ff2904" stroke="none" /><path d="M 114.29624159901734 115.38237550388516 l 10.649145439811221 11.458197094397311 a36.64271649210287,36.64271649210287 0 0,0 -0.4657122638333443,0.42541711108056146 l -10.450333626511012 -11.639806972064457" fill="#ff3004" stroke="none" /><path d="M 112.04921762599082 117.19931262002967 l 8.88068703071817 12.676483840120259 a36.47772091382953,36.47772091382953 0 0,0 -0.5173637161348568,0.3558474815317864 l -8.66116642996043 -12.82747211101714" fill="#ff2e04" stroke="none" /><path d="M 111.45004920935366 117.60387380957326 l 8.407210731820454 12.925662947592832 a36.41927219177388,36.41927219177388 0 0,0 -0.528457856811413,0.337286807335158 l -8.18347107296211 -13.0684641837518" fill="#ff2d04" stroke="none" /><line stroke="#e1ed5e" stroke-width="0.3" x1="143.8653032363475" x2="146.44561519142675" y1="172.8068346515853" y2="177.08958963109032" /><path d="M 144.38136562736335 173.6633856474863 a86.0,86.0 0 0,1 -40.68145358897372,12.25698825130547" fill="none" id="id78" stroke="none" /><text fill="#e1ed5e" style="font-size:6.75px; font-family:Arial;" text-anchor="middle"><textPath startOffset="21.466115282336833" xlink:href="#id78">June</textPath></text><path d="M 105.53697534728816 120.25689768951611 l 4.064721814313979 14.870691806354088 a36.41620699871815,36.41620699871815 0 0,0 -0.6060863039336586,0.16007290150157402 l -3.808145067568823 -14.938456057159247" fill="#ff2c04" stroke="none" /><path d="M 102.70371172650421 120.8252237178851 l 1.8611903760417132 14.335739118444451 a35.45605221656206,35.45605221656206 0 0,0 -0.6059145155896403,0.07336780964557398 l -1.6141484374006927 -14.365652456815376" fill="#ff1b02" stroke="none" /><line stroke="#e1ed5e" stroke-width="0.3" x1="102.19456741930631" x2="102.32365962044197" y1="184.97166512339345" y2="189.96999836594603" /><path d="M 102.22038585953345 185.97133177190398 a86.0,86.0 0 0,1 -42.740103519485714,-10.115201625700543" fill="none" id="id79" stroke="none" /><text fill="#e1ed5e" style="font-size:6.75px; font-family:Arial;" text-anchor="middle"><textPath startOffset="22.20632615414155" xlink:href="#id79">July</textPath></text><path d="M 98.01472825383883 120.90594882070398 l -1.4207983562125546 14.961749078913517 a36.02905863550295,36.02905863550295 0 0,0 -0.616898812395839,-0.06394408425188677 l 1.678129765213987 -14.935075626205869" fill="#ff2603" stroke="none" /><path d="M 95.51606077576429 120.51570834832081 l -3.4834650788006503 15.938162857329058 a37.314397452004386,37.314397452004386 0 0,0 -0.6263130113989454,-0.1425468022942969 l 3.757298239592458 -15.875839321457073" fill="#ff3c05" stroke="none" /><path d="M 93.08242187328487 119.8279376855182 l -4.99776388527844 14.325150951535479 a36.17193440657029,36.17193440657029 0 0,0 -0.5861238920352593,-0.21016317439461885 l 5.243607337943426 -14.237000236100902" fill="#ff2803" stroke="none" /><line stroke="#e1ed5e" stroke-width="0.3" x1="58.666819895761336" x2="56.23545636021788" y1="174.27360380694188" y2="178.64263932499728" /><path d="M 58.180547188652646 175.14741091055294 a86.0,86.0 0 0,1 -31.652253787137756,-30.449443065178592" fill="none" id="id80" stroke="none" /><text fill="#e1ed5e" style="font-size:6.75px; font-family:Arial;" text-anchor="middle"><textPath startOffset="22.20632615414155" xlink:href="#id80">August</textPath></text><path d="M 88.54995079064634 117.60387380957326 l -8.00461146558309 12.306686858574832 a35.68088369785561,35.68088369785561 0 0,0 -0.5119787156895586,-0.3393115754129658 l 8.21526488001261 -12.167077262070547" fill="#ff1f03" stroke="none" /><path d="M 86.51685102203217 116.09983520530335 l -9.370894972659068 11.18951255619483 a35.595165769317205,35.595165769317205 0 0,0 -0.4663551890524647,-0.397438009470275 l 9.562115638288589 -11.026550156501601" fill="#ff1e03" stroke="none" /><path d="M 84.67929136418377 114.36230785411682 l -10.79760529672155 10.122151334189594 a35.8002103963432,35.8002103963432 0 0,0 -0.41759000624251974,-0.45321147674836737 l 10.970241710959797 -9.934788602639882" fill="#ff2203" stroke="none" /><path d="M 83.72743513129214 113.27417163493432 l -11.86007581583625 9.674730643445596 a36.30561372113543,36.30561372113543 0 0,0 -0.3908594740097137,-0.4876572912186445 l 12.024853201900825 -9.469145518648693" fill="#ff2a04" stroke="none" /><path d="M 83.06392112726016 112.41649034213515 l -10.943128452397223 8.022828056182357 a34.56900255526295,34.56900255526295 0 0,0 -0.3476986617662284,-0.48292303060894676 l 11.079606906539059 -7.833271420122272" fill="#ff0c01" stroke="none" /><line stroke="#e1ed5e" stroke-width="0.3" x1="26.63291911575756" x2="22.317208475507996" y1="142.92168965132927" y2="145.44649492493687" /><path d="M 25.769776987707644 143.4266507060508 a86.0,86.0 0 0,1 -11.730757126820373,-40.83630448921669" fill="none" id="id81" stroke="none" /><text fill="#e1ed5e" style="font-size:6.75px; font-family:Arial;" text-anchor="middle"><textPath startOffset="21.46611528233685" xlink:href="#id81">September</textPath></text><path d="M 81.51974371655577 109.97397251340807 l -13.964893902781599 7.536987896849904 a36.86897754340867,36.86897754340867 0 0,0 -0.2966152990605665,-0.5610843634285815 l 14.09256171006705 -7.295488518335196" fill="#ff3405" stroke="none" /><path d="M 80.45479744820244 107.68017299344265 l -15.72947855894832 6.180806574361121 a37.900262295185854,37.900262295185854 0 0,0 -0.23336765331780818,-0.6092493029379331 l 15.833540491859639 -5.9091337045900305" fill="#ff4606" stroke="none" /><path d="M 80.0844068197444 106.66101706037122 l -14.64862735122936 4.899415036971899 a36.446247148731345,36.446247148731345 0 0,0 -0.19387277275667716,-0.5966790410197468 l 14.730792375002286 -4.646537095974349" fill="#ff2d04" stroke="none" /><line stroke="#e1ed5e" stroke-width="0.3" x1="15.007084014347285" x2="10.007500721073583" y1="101.09737516637583" y2="101.16192664675087" /><path d="M 14.007167355692545 101.11028546245083 a86.0,86.0 0 0,1 10.666146001902534,-42.60595125391555" fill="none" id="id82" stroke="none" /><text fill="#e1ed5e" style="font-size:6.75px; font-family:Arial;" text-anchor="middle"><textPath startOffset="22.20632615414155" xlink:href="#id82">October</textPath></text><path d="M 81.10775173730289 90.83032412892265 l -13.907821719835217 -6.750399183321539 a36.45947586837627,36.45947586837627 0 0,0 0.27889760624863447,-0.5622405556346264 l 13.78956410063317 6.988799327455127" fill="#ff2d04" stroke="none" /><line stroke="#e1ed5e" stroke-width="0.3" x1="26.266209847984243" x2="21.928928074336255" y1="57.711370442889674" y2="55.22380399835377" /><path d="M 25.398753493254645 57.213857153982495 a86.0,86.0 0 0,1 29.58750427330803,-30.492523968695096" fill="none" id="id83" stroke="none" /><text fill="#e1ed5e" style="font-size:6.75px; font-family:Arial;" text-anchor="middle"><textPath startOffset="21.46611528233685" xlink:href="#id83">November</textPath></text><path d="M 82.15384107792192 88.93136811851018 l -12.942376536707467 -8.027184010965028 a36.22960254122899,36.22960254122899 0 0,0 0.33326473380678967,-0.5271447751834073 l 12.802284206654715 8.248776433862652" fill="#ff2904" stroke="none" /><path d="M 85.83668400450813 84.49514656593479 l -12.030357914399886 -13.169863348490436 a38.837455316453514,38.837455316453514 0 0,0 0.49746898808849627,-0.44663256932392226 l 11.80187793871542 13.374994926583637" fill="#ff5608" stroke="none" /><path d="M 87.80319425747018 82.90503203632743 l -36.58687864904177 -51.27994424107436 a83.9939074089503,83.9939074089503 0 0,0 1.1841895451658797,-0.8296004529570608 l 35.698757964292234 51.902129536795364" fill="#4dd2ff" stroke="none" /><line stroke="#e1ed5e" stroke-width="0.3" x1="56.762969772571076" x2="54.21961505331055" y1="26.818313649435495" y2="22.513508569990535" /><path d="M 56.25429882871897 25.957352633546506 a86.0,86.0 0 0,1 42.265352541879196,-11.944610805530505" fill="none" id="id84" stroke="none" /><text fill="#e1ed5e" style="font-size:6.75px; font-family:Arial;" text-anchor="middle"><textPath startOffset="22.20632615414155" xlink:href="#id84">December</textPath></text><path d="M 94.63758080256005 79.69619591428918 l -4.16287447122317 -15.761950825752987 a37.302411407415065,37.302411407415065 0 0,0 0.6222239593634656,-0.15861874163612308 l 3.8909416231747054 15.831272563557972" fill="#ff3c05" stroke="none" /></svg>