<?xml version="1.0" encoding="utf-8" ?>
<svg baseProfile="full" height="200mm" version="1.1" viewBox="0,0,200,200" width="200mm" xmlns="http://www.w3.org/2000/svg" xmlns:ev="http://www.w3.org/2001/xml-events" xmlns:xlink="http://www.w3.org/1999/xlink"><defs /><rect fill="#1a1a1a" height="200" width="200" x="0" y="0" /><text alignment-baseline="middle" fill="#e1ed5e" style="dominant-baseline: central; font-size:9.0px; font-family:Arial;" text-anchor="middle" x="100.0" y="100.0">2024</text><line stroke="#e1ed5e" stroke-width="0.3" x1="100.0" x2="100.0" y1="15.0" y2="10.0" /><path d="M 100.0 14.0 a86.0,86.0 0 0,1 42.35913384403234,11.155469271406648" fill="none" id="id157" stroke="none" /><text fill="#e1ed5e" style="font-size:6.75px; font-family:Arial;" text-anchor="middle"><textPath startOffset="22.145653131862478" xlink:href="#id157">January</textPath></text><path d="M 100.0 79.0 l 0.0 -60.72185017461719 a81.72185017461719,81.72185017461719 0 0,0 1.4028642282622688,0.012041902172676939 l -1.0423713034134139 60.71290267063895" fill="#49edff" stroke="none" /><path d="M 101.80034050326958 79.07731436759882 l 5.247118202788251 -60.97946718057564 a82.20480101316345,82.20480101316345 0 0,0 1.4049209035939283,0.13304747026110103 l -6.293138669767192 60.88040795480936" fill="#4ae7ff" stroke="none" /><path d="M 102.15924093988457 79.11130261209362 l 6.0930792830720115 -58.945014867778895 a80.25909544460222,80.25909544460222 0 0,0 1.3692358317998106,0.15342573090580933 l -7.104051016472619 58.83173337636611" fill="#47ffff" stroke="none" /><path d="M 104.29559338865022 79.4440306129975 l 5.236908131298747 -25.060501190348425 a46.6018344398818,46.6018344398818 0 0,0 0.781662740200913,0.1703597561068368 l -5.6663332881187936 24.966909976107868" fill="#ffbf11" stroke="none" /><path d="M 109.06512990194946 81.05736502329252 l 13.514460699758382 -28.240025097437282 a52.307182331043485,52.307182331043485 0 0,0 0.8066259470423205,0.39456117124007106 l -13.997246896062771 28.00387017609999" fill="#e5ff1a" stroke="none" /><line stroke="#e1ed5e" stroke-width="0.3" x1="143.13028292997686" x2="145.6673583964461" y1="26.7553504044142" y2="22.446841604673864" /><path d="M 143.63769802327073 25.89364864446614 a86.0,86.0 0 0,1 29.32050498858742,28.57503671076993" fill="none" id="id158" stroke="none" /><text fill="#e1ed5e" style="font-size:6.75px; font-family:Arial;" text-anchor="middle"><textPath startOffset="20.669276256404974" xlink:href="#id158">February</textPath></text><path d="M 113.59037401385872 83.9905735841838 l 19.6129954334976 -23.104059304484636 a51.306222895958854,51.306222895958854 0 0,0 0.6665424010418165,0.5757434507859823 l -20.006717314302275 22.763971721233933" fill="#f4ff19" stroke="none" /><path d="M 113.86319453409587 84.22622945171908 l 20.12004043038481 -22.89291262489836 a51.477885021299464,51.477885021299464 0 0,0 0.6587575262089651,0.5890650420365381 l -20.51006298341715 22.544152052978436" fill="#f1ff19" stroke="none" /><path d="M 114.13192950727249 84.46653392183569 l 20.462065295218448 -22.491394185690663 a51.40656061710865,51.40656061710865 0 0,0 0.6476497856395695,0.5994549727381075 l -20.845144852171984 22.13682146682018" fill="#f3ff19" stroke="none" /><path d="M 114.39649973595853 84.71141617570332 l 21.48494017374545 -22.81626192690904 a52.339822312622324,52.339822312622324 0 0,0 0.6488331348998211,0.6215674660347307 l -21.87344579451058 22.44408233056873" fill="#e4ff1a" stroke="none" /><path d="M 114.65682725009322 84.96080404539774 l 12.707092919370735 -13.038596769061325 a39.20646083585984,39.20646083585984 0 0,0 0.4779605122423002,0.4738754042061148 l -12.929045351742998 12.818541354626552" fill="#ff3f05" stroke="none" /><path d="M 114.91283532996326 85.21462403516908 l 30.175355673036517 -29.917448199935155 a63.49242046283149,63.49242046283149 0 0,0 0.7607395721586041,0.7805858185331831 l -30.684482046345934 29.39503968933423" fill="#48ff2c" stroke="none" /><path d="M 115.16444852881244 85.47280134310134 l 31.401180759291883 -30.081620843955665 a64.48491768046975,64.48491768046975 0 0,0 0.7589081531774098,0.8059341595245487 l -31.912944746205554 29.538145224486623" fill="#3bff2e" stroke="none" /><line stroke="#e1ed5e" stroke-width="0.3" x1="172.87174338648825" x2="177.1583165268699" y1="56.24261187166439" y2="53.66864786411523" /><path d="M 173.72905801456457 55.72781907015455 a86.0,86.0 0 0,1 12.242430191666344,42.057860355516425" fill="none" id="id159" stroke="none" /><text fill="#e1ed5e" style="font-size:6.75px; font-family:Arial;" text-anchor="middle"><textPath startOffset="22.145653131862474" xlink:href="#id159">March</textPath></text><path d="M 119.31412917781788 91.75594674310238 l 28.60706643209109 -12.210655578540143 a52.104089112330655,52.104089112330655 0 0,0 0.34407097875467973,0.8256450943694433 l -28.81246325538225 11.717777974729422" fill="#e8ff1a" stroke="none" /><path d="M 119.4528033332814 92.08871423366111 l 29.390291469680136 -11.9527756791139 a52.727875426948614,52.727875426948614 0 0,0 0.33379588692760365,0.8413836866695393 l -29.591146031573864 11.446490975230796" fill="#deff1b" stroke="none" /><path d="M 120.16314734710363 94.1308016681162 l 36.476013372015515 -10.617635885478819 a58.98991633726063,58.98991633726063 0 0,0 0.27467252246912344,0.9747158827930299 l -36.65290438655922 9.989912078782776" fill="#84ff25" stroke="none" /><path d="M 120.26092885502905 94.47779374421319 l 40.986450909232225 -11.17103945396272 a63.48154046897187,63.48154046897187 0 0,0 0.2775368185605635,1.0538525057109882 l -41.17217720859752 10.465806443878932" fill="#48ff2c" stroke="none" /><path d="M 120.51834098615036 95.52812308129327 l 31.818704877120062 -6.934738633068732 a53.565634954139,53.565634954139 0 0,0 0.18809774012688207,0.9001157786555787 l -31.93306032807131 6.387506403127748" fill="#d2ff1c" stroke="none" /><path d="M 120.592083275326 95.88100663000786 l 32.88909029093448 -6.578739170881059 a54.54060329278121,54.54060329278121 0 0,0 0.17576023076145267,0.9196517965480661 l -32.99717681397809 6.013184809299679" fill="#c3ff1e" stroke="none" /><path d="M 120.7213421655516 96.59031103205396 l 44.165755133973484 -7.267458200254421 a65.7596902943547,65.7596902943547 0 0,0 0.17372616642764777,1.1154466112084498 l -44.2840027925394 6.508223407114529" fill="#30ff35" stroke="none" /><path d="M 120.77682067341334 96.94652285012252 l 30.30408174783785 -4.453656438564253 a51.62960049123076,51.62960049123076 0 0,0 0.1213430424907586,0.877977808494148 l -30.376069306883817 3.9327903218700198" fill="#efff19" stroke="none" /><path d="M 120.96210409425399 98.7389718711861 l 30.436762764479912 -1.8310000667617123 a51.491787235675645,51.491787235675645 0 0,0 0.04550503462545141,0.8827855149660597 l -30.463709388561934 1.308242758418922" fill="#f1ff19" stroke="none" /><path d="M 120.98066250479742 99.09900007780936 l 32.134062244462534 -1.3799748971372885 a53.163679625436544,53.163679625436544 0 0,0 0.031329389322098326,0.9121209867507105 l -32.15301632078148 0.828147645822458" fill="#d8ff1c" stroke="none" /><line stroke="#e1ed5e" stroke-width="0.3" x1="184.99686870605535" x2="189.99668451229388" y1="99.2704041080226" y2="99.22748670261217" /><path d="M 185.99683186730306 99.26182062694052 a86.0,86.0 0 0,1 -10.086455211305974,41.156179273409016" fill="none" id="id160" stroke="none" /><text fill="#e1ed5e" style="font-size:6.75px; font-family:Arial;" text-anchor="middle"><textPath startOffset="21.40746469413373" xlink:href="#id160">April</textPath></text><path d="M 120.98066250479742 100.90099992219065 l 30.958897147722634 1.329508251459077 a51.98743140039146,51.98743140039146 0 0,0 -0.04594305214412999,0.8912829378111037 l -30.931512506121933 -1.8607629826469114" fill="#eaff1a" stroke="none" /><path d="M 120.96210409425399 101.26102812881392 l 60.82706732151293 3.6592053231293318 a81.93703227539625,81.93703227539625 0 0,0 -0.09651417201825882,1.4032948791963837 l -60.755289188329606 -4.7028436264800595" fill="#4aeaff" stroke="none" /><path d="M 120.82617615685814 102.69636545807757 l 38.15141751266174 4.939464815002124 a59.46984495529033,59.46984495529033 0 0,0 -0.1397696641978594,1.0113036639553508 l -38.061003331908665 -5.593656787157559" fill="#7dff26" stroke="none" /><path d="M 120.77682067341334 103.0534771498775 l 14.618606747560802 2.148431772520489 a35.7756361054611,35.7756361054611 0 0,0 -0.09451328137787161,0.6068430656992924 l -14.579571974044663 -2.3990630201512317" fill="#ff0000" stroke="none" /><path d="M 120.51834098615036 104.47187691870673 l 61.555022958451104 13.415630756120176 a84.0,84.0 0 0,0 -0.3191565537693437,1.4062626642439322 l -61.315655543124095 -14.470327754303124" fill="#4dd2ff" stroke="none" /><path d="M 120.16314734710363 105.8691983318838 l 29.751997987563843 8.660373003915154 a51.98682695628814,51.98682695628814 0 0,0 -0.25677452396384337,0.8547188788877342 l -29.59894714359637 -9.169829486393612" fill="#eaff1a" stroke="none" /><path d="M 119.83427380445688 106.89939002012753 l 57.33914473189663 19.94553099478745 a81.70915684844763,81.70915684844763 0 0,0 -0.4722004467133512,1.320828690173162 l -56.988304115139336 -20.926894641341534" fill="#49edff" stroke="none" /><path d="M 119.0197475246899 108.90220220490707 l 54.844821917316125 25.670145934706756 a81.55502360210308,81.55502360210308 0 0,0 -0.6043644423836273,1.262889241389968 l -54.39607821697258 -26.60784767816183" fill="#49efff" stroke="none" /><line stroke="#e1ed5e" stroke-width="0.3" x1="174.33088141563837" x2="178.70328620479359" y1="141.23008692659167" y2="143.65538615756765" /><path d="M 175.20536237346943 141.71514677278685 a86.0,86.0 0 0,1 -30.301960400862466,31.631185727798858" fill="none" id="id161" stroke="none" /><text fill="#e1ed5e" style="font-size:6.75px; font-family:Arial;" text-anchor="middle"><textPath startOffset="22.145653131862474" xlink:href="#id161">May</textPath></text><path d="M 118.18653347947321 110.5 l 52.55473351514426 30.342489542157566 a81.68497908431516,81.68497908431516 0 0,0 -0.7115395315248327,1.2083496819289692 l -52.02612027348965 -31.240190392380086" fill="#49edff" stroke="none" /><path d="M 118.00360718960297 110.81064883170644 l 26.220857844165987 15.744871748983371 a51.584871627585684,51.584871627585684 0 0,0 -0.46237739951271883,0.7552587330934291 l -25.946712480197867 -16.192667598201357" fill="#f0ff19" stroke="none" /><path d="M 117.81537515405839 111.11811171558189 l 25.805697738457656 16.104663969950263 a51.41864949917489,51.41864949917489 0 0,0 -0.47374280945617314,0.744802383054255 l -25.525437237375595 -16.545280027683187" fill="#f2ff19" stroke="none" /><path d="M 117.21940702142032 112.02048342749411 l 25.032637787280077 17.47472530814498 a51.52865832597766,51.52865832597766 0 0,0 -0.5125504151097698,0.7209663472989125 l -24.728972273640345 -17.901868882153398" fill="#f1ff19" stroke="none" /><path d="M 116.57777611688842 112.89097897827486 l 23.96197070953782 18.632973356420734 a51.353973980120514,51.353973980120514 0 0,0 -0.5471241856815586,0.6912735354716373 l -23.6385800932147 -19.041566835807053" fill="#f3ff19" stroke="none" /><path d="M 115.89218393027572 113.72728997021213 l 23.045099965670186 19.90580847850731 a51.451893924857046,51.451893924857046 0 0,0 -0.5830943567853545,0.6634543408670002 l -22.699994544926245 -20.298475097185605" fill="#f2ff19" stroke="none" /><path d="M 114.65682725009322 115.03919595460226 l 41.10684021325602 42.17923937377032 a79.89703342671835,79.89703342671835 0 0,0 -0.9904474332720787,0.9488262362472925 l -40.37672029411863 -42.87867774032319" fill="#46fffb" stroke="none" /><path d="M 114.39649973595853 115.28858382429668 l 21.162556261709085 22.473901384195877 a51.86956480024563,51.86956480024563 0 0,0 -0.6534829819545704,0.6048540921627018 l -20.773643508440546 -22.83387322249096" fill="#ebff1a" stroke="none" /><path d="M 112.7482090630111 116.68781488649013 l 19.051495646868396 24.939019362976957 a52.383342288060796,52.383342288060796 0 0,0 -0.7192657228393614,0.5397504075929838 l -18.62057693511827 -25.262388797833957" fill="#e4ff1b" stroke="none" /><path d="M 112.45986205192187 116.90419585922612 l 18.079758576108265 24.528664826663647 a51.471840580266345,51.471840580266345 0 0,0 -0.7157502324019799,0.5181479711750598 l -17.656027333332318 -24.835413569211784" fill="#f1ff19" stroke="none" /><line stroke="#e1ed5e" stroke-width="0.3" x1="143.1302829299769" x2="145.66735839644613" y1="173.24464959558577" y2="177.55315839532614" /><path d="M 143.63769802327073 174.10635135553383 a86.0,86.0 0 0,1 -40.68552437913181,11.842963189579606" fill="none" id="id162" stroke="none" /><text fill="#e1ed5e" style="font-size:6.75px; font-family:Arial;" text-anchor="middle"><textPath startOffset="21.407464694133747" xlink:href="#id162">June</textPath></text><path d="M 110.65571695917076 118.09573695890943 l 23.773858590009283 40.37320934776371 a67.85288022412404,67.85288022412404 0 0,0 -1.0087704896827492,0.5824139137688881 l -23.077295632466132 -40.77537015880877" fill="#33ff55" stroke="none" /><path d="M 109.71004243097381 118.62028667847754 l 11.945453914751843 22.906982948674315 a46.83454541965691,46.83454541965691 0 0,0 -0.7160617913176506,0.36562625278905425 l -11.55046490172061 -23.108667153136206" fill="#ffc312" stroke="none" /><path d="M 109.3889696526874 118.78422872680471 l 13.576478223079478 27.162050968373617 a51.36606286218675,51.36606286218675 0 0,0 -0.7921129996990205,0.3874621614413944 l -13.108204974118388 -27.391106879912236" fill="#f3ff19" stroke="none" /><path d="M 108.4095320186766 119.2426549942271 l 12.796079081456178 29.27993311595202 a52.95393752158729,52.95393752158729 0 0,0 -0.8360794435130845,0.3568725980788895 l -12.291564562772662 -29.495280363690313" fill="#dbff1b" stroke="none" /><path d="M 108.07796709384702 119.3841803445677 l 12.731470741771355 30.550895051065744 a54.09754576505354,54.09754576505354 0 0,0 -0.8602682889897899,0.34986362393710774 l -12.205147991591124 -30.76494593158214" fill="#caff1d" stroke="none" /><path d="M 106.72888874123015 119.89276391827305 l 9.778412751867853 28.90813979081734 a51.51717388801474,51.51717388801474 0 0,0 -0.8401647941568057,0.2761788556326026 l -9.280725220063314 -29.07173956785196" fill="#f1ff19" stroke="none" /><path d="M 106.38641147887787 120.00534299687104 l 9.382745551570506 29.391316803237753 a51.85264036535288,51.85264036535288 0 0,0 -0.8502829723880088,0.26341983835289395 l -8.876821946310873 -29.548053229397294" fill="#ecff1a" stroke="none" /><path d="M 106.0420521117495 120.11202640906438 l 14.573723251431096 48.5111848574089 a71.6530203016464,71.6530203016464 0 0,0 -1.1810464552396363,0.34378541036478805 l -13.738816783809852 -48.75421396207621" fill="#39ff8c" stroke="none" /><path d="M 105.69591212413111 120.21278271476187 l 13.890958428603776 49.294110986655944 a72.2139444295199,72.2139444295199 0 0,0 -1.196064427831209,0.32599267846766056 l -13.042712599837872 -49.52530415926774" fill="#3aff94" stroke="none" /><path d="M 104.9986988182912 120.39639698878246 l 7.390283747213637 30.154879629144123 a52.04727136661934,52.04727136661934 0 0,0 -0.8696054289581803,0.2052245134213089 l -6.8715461645155775 -30.277300286211656" fill="#e9ff1a" stroke="none" /><path d="M 104.64783097203109 120.47920084513623 l 6.7312122420668885 29.658963130556323 a51.41320950224508,51.41320950224508 0 0,0 -0.8623649842345185,0.1879484345787138 l -6.2210848412132345 -29.770143023268755" fill="#f2ff19" stroke="none" /><path d="M 103.94208987418118 120.62667999033965 l 5.7039046506242395 29.845239372751312 a51.385405073492734,51.385405073492734 0 0,0 -0.8678389705703409,0.15814916967506704 l -5.190730946502841 -29.93875671635774" fill="#f3ff19" stroke="none" /><path d="M 103.2317021107853 120.74984581791261 l 4.93536239572994 31.688566970683727 a53.070595233526504,53.070595233526504 0 0,0 -0.9013785214407303,0.1324716019776622 l -4.390658768681525 -31.76861964596027" fill="#d9ff1c" stroke="none" /><path d="M 101.08105385017728 120.97215588758144 l 1.3790002072041128 26.7522356168928 a47.78775377057988,47.78775377057988 0 0,0 -0.819615136519688,0.035197800549032605 l -0.9195593100835953 -26.771965985867666" fill="#ffd213" stroke="none" /><line stroke="#e1ed5e" stroke-width="0.3" x1="101.45913802915013" x2="101.54496967792366" y1="184.9874750549273" y2="189.98673829345242" /><path d="M 101.47630435890484 185.9873277026323 a86.0,86.0 0 0,1 -42.54439059252881,-10.42667462771756" fill="none" id="id163" stroke="none" /><text fill="#e1ed5e" style="font-size:6.75px; font-family:Arial;" text-anchor="middle"><textPath startOffset="22.145653131862474" xlink:href="#id163">July</textPath></text><path d="M 99.63950707515114 120.99690560180557 l -0.5312556439419667 30.942977898811595 a51.94753808957286,51.94753808957286 0 0,0 -0.891485766394522,-0.022961511024599632 l 1.0623547244072324 -30.929298670436946" fill="#eaff1a" stroke="none" /><path d="M 98.55909050195518 120.95050786540614 l -2.1382218812948186 31.089276878829455 a52.162720190351926,52.162720190351926 0 0,0 -0.8928047120607753,-0.06910873120513289 l 2.6715955881308298 -31.04799038062927" fill="#e7ff1a" stroke="none" /><path d="M 98.19965949673042 120.92268563240118 l -2.6028313832768917 30.248846086364868 a51.360622865256936,51.360622865256936 0 0,0 -0.8777785700551564,-0.08312654320716216 l 3.1217095167170634 -30.19970778765252" fill="#f3ff19" stroke="none" /><path d="M 97.12497278360702 120.80226474461374 l -4.186674942212357 30.292694292059032 a51.580640518862495,51.580640518862495 0 0,0 -0.8760723576072976,-0.12875246735975948 l 4.7060724054273395 -30.21636075140039" fill="#f0ff19" stroke="none" /><path d="M 96.76829788921471 120.74984581791261 l -4.945315348655831 31.752472068234766 a53.13527075258088,53.13527075258088 0 0,0 -0.9000671994314092,-0.14810571515069704 l 5.489660051140304 -31.662900354588402" fill="#d8ff1c" stroke="none" /><path d="M 96.41257539226777 120.69131181640829 l -5.177720560601512 29.86371626785443 a51.30924511647542,51.30924511647542 0 0,0 -0.866552718596613,-0.15791477171814047 l 5.689608012749182 -29.770433322204923" fill="#f4ff19" stroke="none" /><path d="M 96.05791012581884 120.62667999033965 l -4.88162104204906 25.542704068706577 a47.00499865679088,47.00499865679088 0 0,0 -0.7912586772756272,-0.15827389594681282 l 5.319376204855645 -25.4551407760969" fill="#ffc512" stroke="none" /><path d="M 95.70440661134978 120.55596938700252 l -6.187701962861858 29.610393865619457 a51.25000959435086,51.25000959435086 0 0,0 -0.8596275965600103,-0.18735183367577327 l 6.695091976041005 -29.499810573809967" fill="#f5ff19" stroke="none" /><path d="M 94.30408787586889 120.21278271476187 l -8.228600532167885 29.200400388665614 a51.33765398933109,51.33765398933109 0 0,0 -0.846191186486877,-0.2463139218638431 l 8.72865173103637 -29.054842772499256" fill="#f4ff19" stroke="none" /><path d="M 93.27111125876986 119.89276391827306 l -9.747617956519491 28.817100450246514 a51.42106727558813,51.42106727558813 0 0,0 -0.8337417429820178,-0.2900186574817437 l 10.240865471546531 -28.64552336019618" fill="#f2ff19" stroke="none" /><path d="M 92.25597844496254 119.51999308798841 l -11.193197521663553 28.214169692391124 a51.3533695360172,51.3533695360172 0 0,0 -0.8166299361615077,-0.3321162857420925 l 11.6758819190155 -28.01786615006974" fill="#f3ff19" stroke="none" /><path d="M 91.26138138417905 119.09545874513695 l -12.671785101845753 27.690137340637833 a51.451893924857046,51.451893924857046 0 0,0 -0.7999820980548928,-0.37443201535381826 l 13.145255913772136 -27.468529093713485" fill="#f2ff19" stroke="none" /><line stroke="#e1ed5e" stroke-width="0.3" x1="58.13341422392154" x2="55.67067388415222" y1="173.97424548756322" y2="178.32567169271397" /><path d="M 57.64086615596768 174.84453072859336 a86.0,86.0 0 0,1 -31.369924170532247,-30.572349798747897" fill="none" id="id164" stroke="none" /><text fill="#e1ed5e" style="font-size:6.75px; font-family:Arial;" text-anchor="middle"><textPath startOffset="22.145653131862474" xlink:href="#id164">August</textPath></text><line stroke="#e1ed5e" stroke-width="0.3" x1="26.387840678322732" x2="22.057713659400548" y1="142.50000000000003" y2="145.00000000000006" /><path d="M 25.521815274538298 143.00000000000003 a86.0,86.0 0 0,1 -11.493303480769221,-40.785679425670985" fill="none" id="id165" stroke="none" /><text fill="#e1ed5e" style="font-size:6.75px; font-family:Arial;" text-anchor="middle"><textPath startOffset="21.40746469413373" xlink:href="#id165">September</textPath></text><line stroke="#e1ed5e" stroke-width="0.3" x1="15.003131293944662" x2="10.003315487706104" y1="100.72959589197737" y2="100.7725132973878" /><path d="M 14.003168132696942 100.73817937305945 a86.0,86.0 0 0,1 10.791469493833604,-42.45332614584628" fill="none" id="id166" stroke="none" /><text fill="#e1ed5e" style="font-size:6.75px; font-family:Arial;" text-anchor="middle"><textPath startOffset="22.145653131862435" xlink:href="#id166">October</textPath></text><line stroke="#e1ed5e" stroke-width="0.3" x1="26.387840678322718" x2="22.05771365940052" y1="57.49999999999999" y2="54.99999999999999" /><path d="M 25.521815274538284 56.99999999999999 a86.0,86.0 0 0,1 29.574782752854787,-30.34633250058573" fill="none" id="id167" stroke="none" /><text fill="#e1ed5e" style="font-size:6.75px; font-family:Arial;" text-anchor="middle"><textPath startOffset="21.40746469413373" xlink:href="#id167">November</textPath></text><line stroke="#e1ed5e" stroke-width="0.3" x1="56.869717070023135" x2="54.33264160355391" y1="26.7553504044142" y2="22.446841604673864" /><path d="M 56.362301976729285 25.89364864446614 a86.0,86.0 0 0,1 42.16139366436587,-11.88097634709845" fill="none" id="id168" stroke="none" /><text fill="#e1ed5e" style="font-size:6.75px; font-family:Arial;" text-anchor="middle"><textPath startOffset="22.145653131862474" xlink:href="#id168">December</textPath></text></svg>