<?xml version="1.0" encoding="utf-8" ?>
<svg baseProfile="full" height="200mm" version="1.1" viewBox="0,0,200,200" width="200mm" xmlns="http://www.w3.org/2000/svg" xmlns:ev="http://www.w3.org/2001/xml-events" xmlns:xlink="http://www.w3.org/1999/xlink"><defs /><rect fill="#1a1a1a" height="200" width="200" x="0" y="0" /><text alignment-baseline="middle" fill="#e1ed5e" style="dominant-baseline: central; font-size:9.0px; font-family:Arial;" text-anchor="middle" x="100.0" y="100.0">2024</text><line stroke="#e1ed5e" stroke-width="0.3" x1="100.0" x2="100.0" y1="15.0" y2="10.0" /><path d="M 100.0 14.0 a86.0,86.0 0 0,1 42.35913384403234,11.155469271406648" fill="none" id="id157" stroke="none" /><text fill="#e1ed5e" style="font-size:6.75px; font-family:Arial;" text-anchor="middle"><textPath startOffset="22.145653131862478" xlink:href="#id157">January</textPath></text><path d="M 100.0 79.0 l 0.0 -60.72185017461719 a81.72185017461719,81.72185017461719 0 0,0 1.4028642282622688,0.012041902172676939 l -1.0423713034134139 60.71290267063895" fill="#49edff" stroke="none" /><path d="M 101.80034050326958 79.07731436759882 l 5.247118202788251 -60.97946718057564 a82.20480101316345,82.20480101316345 0 0,0 1.4049209035939283,0.13304747026110103 l -6.293138669767192 60.88040795480936" fill="#4ae7ff" stroke="none" /><path d="M 102.15924093988457 79.11130261209362 l 6.0930792830720115 -58.945014867778895 a80.25909544460222,80.25909544460222 0 0,0 1.3692358317998106,0.15342573090580933 l -7.104051016472619 58.83173337636611" fill="#47ffff" stroke="none" /><path d="M 104.29559338865022 79.4440306129975 l 5.236908131298747 -25.060501190348425 a46.6018344398818,46.6018344398818 0 0,0 0.781662740200913,0.1703597561068368 l -5.6663332881187936 24.966909976107868" fill="#ffbf11" stroke="none" /><path d="M 109.06512990194946 81.05736502329252 l 13.514460699758382 -28.240025097437282 a52.307182331043485,52.307182331043485 0 0,0 0.8066259470423205,0.39456117124007106 l -13.997246896062771 28.00387017609999" fill="#e5ff1a" stroke="none" /><line stroke="#e1ed5e" stroke-width="0.3" x1="143.13028292997686" x2="145.6673583964461" y1="26.7553504044142" y2="22.446841604673864" /><path d="M 143.63769802327073 25.89364864446614 a86.0,86.0 0 0,1 29.32050498858742,28.57503671076993" fill="none" id="id158" stroke="none" /><text fill="#e1ed5e" style="font-size:6.75px; font-family:Arial;" text-anchor="middle"><textPath startOffset="20.669276256404974" xlink:href="#id158">February</textPath></text><path d="M 113.59037401385872 83.9905735841838 l 19.6129954334976 -23.104059304484636 a51.306222895958854,51.306222895958854 0 0,0 0.6665424010418165,0.5757434507859823 l -20.006717314302275 22.763971721233933" fill="#f4ff19" stroke="none" /><path d="M 113.86319453409587 84.22622945171908 l 20.12004043038481 -22.89291262489836 a51.477885021299464,51.477885021299464 0 0,0 0.6587575262089651,0.5890650420365381 l -20.51006298341715 22.544152052978436" fill="#f1ff19" stroke="none" /><path d="M 114.13192950727249 84.46653392183569 l 20.462065295218448 -22.491394185690663 a51.40656061710865,51.40656061710865 0 0,0 0.6476497856395695,0.5994549727381075 l -20.845144852171984 22.13682146682018" fill="#f3ff19" stroke="none" /><path d="M 114.39649973595853 84.71141617570332 l 21.48494017374545 -22.81626192690904 a52.339822312622324,52.339822312622324 0 0,0 0.6488331348998211,0.6215674660347307 l -21.87344579451058 22.44408233056873" fill="#e4ff1a" stroke="none" /><path d="M 114.65682725009322 84.96080404539774 l 12.707092919370735 -13.038596769061325 a39.20646083585984,39.20646083585984 0 0,0 0.4779605122423002,0.4738754042061148 l -12.929045351742998 12.818541354626552" fill="#ff3f05" stroke="none" /><path d="M 114.91283532996326 85.21462403516908 l 30.175355673036517 -29.917448199935155 a63.49242046283149,63.49242046283149 0 0,0 0.7607395721586041,0.7805858185331831 l -30.684482046345934 29.39503968933423" fill="#48ff2c" stroke="none" /><path d="M 115.16444852881244 85.47280134310134 l 31.401180759291883 -30.081620843955665 a64.48491768046975,64.48491768046975 0 0,0 0.7589081531774098,0.8059341595245487 l -31.912944746205554 29.538145224486623" fill="#3bff2e" stroke="none" /><line stroke="#e1ed5e" stroke-width="0.3" x1="172.87174338648825" x2="177.1583165268699" y1="56.24261187166439" y2="53.66864786411523" /><path d="M 173.72905801456457 55.72781907015455 a86.0,86.0 0 0,1 12.242430191666344,42.057860355516425" fill="none" id="id159" stroke="none" /><text fill="#e1ed5e" style="font-size:6.75px; font-family:Arial;" text-anchor="middle"><textPath startOffset="22.145653131862474" xlink:href="#id159">March</textPath></text><path d="M 119.31412917781788 91.75594674310238 l 28.60706643209109 -12.210655578540143 a52.104089112330655,52.104089112330655 0 0,0 0.34407097875467973,0.8256450943694433 l -28.81246325538225 11.717777974729422" fill="#e8ff1a" stroke="none" /><path d="M 119.4528033332814 92.08871423366111 l 29.390291469680136 -11.9527756791139 a52.727875426948614,52.727875426948614 0 0,0 0.33379588692760365,0.8413836866695393 l -29.591146031573864 11.446490975230796" fill="#deff1b" stroke="none" /><path d="M 120.16314734710363 94.1308016681162 l 36.476013372015515 -10.617635885478819 a58.98991633726063,58.98991633726063 0 0,0 0.27467252246912344,0.9747158827930299 l -36.65290438655922 9.989912078782776" fill="#84ff25" stroke="none" /><path d="M 120.26092885502905 94.47779374421319 l 40.986450909232225 -11.17103945396272 a63.48154046897187,63.48154046897187 0 0,0 0.2775368185605635,1.0538525057109882 l -41.17217720859752 10.465806443878932" fill="#48ff2c" stroke="none" /><path d="M 120.51834098615036 95.52812308129327 l 31.818704877120062 -6.934738633068732 a53.565634954139,53.565634954139 0 0,0 0.18809774012688207,0.9001157786555787 l -31.93306032807131 6.387506403127748" fill="#d2ff1c" stroke="none" /><path d="M 120.592083275326 95.88100663000786 l 32.88909029093448 -6.578739170881059 a54.54060329278121,54.54060329278121 0 0,0 0.17576023076145267,0.9196517965480661 l -32.99717681397809 6.013184809299679" fill="#c3ff1e" stroke="none" /><path d="M 120.7213421655516 96.59031103205396 l 44.165755133973484 -7.267458200254421 a65.7596902943547,65.7596902943547 0 0,0 0.17372616642764777,1.1154466112084498 l -44.2840027925394 6.508223407114529" fill="#30ff35" stroke="none" /><path d="M 120.77682067341334 96.94652285012252 l 30.30408174783785 -4.453656438564253 a51.62960049123076,51.62960049123076 0 0,0 0.1213430424907586,0.877977808494148 l -30.376069306883817 3.9327903218700198" fill="#efff19" stroke="none" /><path d="M 120.96210409425399 98.7389718711861 l 30.436762764479912 -1.8310000667617123 a51.491787235675645,51.491787235675645 0 0,0 0.04550503462545141,0.8827855149660597 l -30.463709388561934 1.308242758418922" fill="#f1ff19" stroke="none" /><path d="M 120.98066250479742 99.09900007780936 l 32.134062244462534 -1.3799748971372885 a53.163679625436544,53.163679625436544 0 0,0 0.031329389322098326,0.9121209867507105 l -32.15301632078148 0.828147645822458" fill="#d8ff1c" stroke="none" /><line stroke="#e1ed5e" stroke-width="0.3" x1="184.99686870605535" x2="189.99668451229388" y1="99.2704041080226" y2="99.22748670261217" /><path d="M 185.99683186730306 99.26182062694052 a86.0,86.0 0 0,1 -10.086455211305974,41.156179273409016" fill="none" id="id160" stroke="none" /><text fill="#e1ed5e" style="font-size:6.75px; font-family:Arial;" text-anchor="middle"><textPath startOffset="21.40746469413373" xlink:href="#id160">April</textPath></text><path d="M 120.98066250479742 100.90099992219065 l 30.958897147722634 1.329508251459077 a51.98743140039146,51.98743140039146 0 0,0 -0.04594305214412999,0.8912829378111037 l -30.931512506121933 -1.8607629826469114" fill="#eaff1a" stroke="none" /><path d="M 120.96210409425399 101.26102812881392 l 60.82706732151293 3.6592053231293318 a81.93703227539625,81.93703227539625 0 0,0 -0.09651417201825882,1.4032948791963837 l -60.755289188329606 -4.7028436264800595" fill="#4aeaff" stroke="none" /><path d="M 120.82617615685814 102.69636545807757 l 38.15141751266174 4.939464815002124 a59.46984495529033,59.46984495529033 0 0,0 -0.1397696641978594,1.0113036639553508 l -38.061003331908665 -5.593656787157559" fill="#7dff26" stroke="none" /><path d="M 120.77682067341334 103.0534771498775 l 14.618606747560802 2.148431772520489 a35.7756361054611,35.7756361054611 0 0,0 -0.09451328137787161,0.6068430656992924 l -14.579571974044663 -2.3990630201512317" fill="#ff0000" stroke="none" /><path d="M 120.51834098615036 104.47187691870673 l 61.555022958451104 13.415630756120176 a84.0,84.0 0 0,0 -0.3191565537693437,1.4062626642439322 l -61.315655543124095 -14.470327754303124" fill="#4dd2ff" stroke="none" /><path d="M 120.16314734710363 105.8691983318838 l 29.751997987563843 8.660373003915154 a51.98682695628814,51.98682695628814 0 0,0 -0.25677452396384337,0.8547188788877342 l -29.59894714359637 -9.169829486393612" fill="#eaff1a" stroke="none" /><path d="M 119.83427380445688 106.89939002012753 l 57.33914473189663 19.94553099478745 a81.70915684844763,81.70915684844763 0 0,0 -0.4722004467133512,1.320828690173162 l -56.988304115139336 -20.926894641341534" fill="#49edff" stroke="none" /><path d="M 119.0197475246899 108.90220220490707 l 54.844821917316125 25.670145934706756 a81.55502360210308,81.55502360210308 0 0,0 -0.6043644423836273,1.262889241389968 l -54.39607821697258 -26.60784767816183" fill="#49efff" stroke="none" /><line stroke="#e1ed5e" stroke-width="0.3" x1="174.33088141563837" x2="178.70328620479359" y1="141.23008692659167" y2="143.65538615756765" /><path d="M 175.20536237346943 141.71514677278685 a86.0,86.0 0 0,1 -30.301960400862466,31.631185727798858" fill="none" id="id161" stroke="none" /><text fill="#e1ed5e" style="font-size:6.75px; font-family:Arial;" text-anchor="middle"><textPath startOffset="22.145653131862474" xlink:href="#id161">May</textPath></text><path d="M 118.18653347947321 110.5 l 52.55473351514426 30.342489542157566 a81.68497908431516,81.68497908431516 0 0,0 -0.7115395315248327,1.2083496819289692 l -52.02612027348965 -31.240190392380086" fill="#49edff" stroke="none" /><line stroke="#e1ed5e" stroke-width="0.3" x1="143.1302829299769" x2="145.66735839644613" y1="173.24464959558577" y2="177.55315839532614" /><path d="M 143.63769802327073 174.10635135553383 a86.0,86.0 0 0,1 -40.68552437913181,11.842963189579606" fill="none" id="id162" stroke="none" /><text fill="#e1ed5e" style="font-size:6.75px; font-family:Arial;" text-anchor="middle"><textPath startOffset="21.407464694133747" xlink:href="#id162">June</textPath></text><line stroke="#e1ed5e" stroke-width="0.3" x1="101.45913802915013" x2="101.54496967792366" y1="184.9874750549273" y2="189.98673829345242" /><path d="M 101.47630435890484 185.9873277026323 a86.0,86.0 0 0,1 -42.54439059252881,-10.42667462771756" fill="none" id="id163" stroke="none" /><text fill="#e1ed5e" style="font-size:6.75px; font-family:Arial;" text-anchor="middle"><textPath startOffset="22.145653131862474" xlink:href="#id163">July</textPath></text><line stroke="#e1ed5e" stroke-width="0.3" x1="58.13341422392154" x2="55.67067388415222" y1="173.97424548756322" y2="178.32567169271397" /><path d="M 57.64086615596768 174.84453072859336 a86.0,86.0 0 0,1 -31.369924170532247,-30.572349798747897" fill="none" id="id164" stroke="none" /><text fill="#e1ed5e" style="font-size:6.75px; font-family:Arial;" text-anchor="middle"><textPath startOffset="22.145653131862474" xlink:href="#id164">August</textPath></text><line stroke="#e1ed5e" stroke-width="0.3" x1="26.387840678322732" x2="22.057713659400548" y1="142.50000000000003" y2="145.00000000000006" /><path d="M 25.521815274538298 143.00000000000003 a86.0,86.0 0 0,1 -11.493303480769221,-40.785679425670985" fill="none" id="id165" stroke="none" /><text fill="#e1ed5e" style="font-size:6.75px; font-family:Arial;" text-anchor="middle"><textPath startOffset="21.40746469413373" xlink:href="#id165">September</textPath></text><line stroke="#e1ed5e" stroke-width="0.3" x1="15.003131293944662" x2="10.003315487706104" y1="100.72959589197737" y2="100.7725132973878" /><path d="M 14.003168132696942 100.73817937305945 a86.0,86.0 0 0,1 10.791469493833604,-42.45332614584628" fill="none" id="id166" stroke="none" /><text fill="#e1ed5e" style="font-size:6.75px; font-family:Arial;" text-anchor="middle"><textPath startOffset="22.145653131862435" xlink:href="#id166">October</textPath></text><line stroke="#e1ed5e" stroke-width="0.3" x1="26.387840678322718" x2="22.05771365940052" y1="57.49999999999999" y2="54.99999999999999" /><path d="M 25.521815274538284 56.99999999999999 a86.0,86.0 0 0,1 29.574782752854787,-30.34633250058573" fill="none" id="id167" stroke="none" /><text fill="#e1ed5e" style="font-size:6.75px; font-family:Arial;" text-anchor="middle"><textPath startOffset="21.40746469413373" xlink:href="#id167">November</textPath></text><line stroke="#e1ed5e" stroke-width="0.3" x1="56.869717070023135" x2="54.33264160355391" y1="26.7553504044142" y2="22.446841604673864" /><path d="M 56.362301976729285 25.89364864446614 a86.0,86.0 0 0,1 42.16139366436587,-11.88097634709845" fill="none" id="id168" stroke="none" /><text fill="#e1ed5e" style="font-size:6.75px; font-family:Arial;" text-anchor="middle"><textPath startOffset="22.145653131862474" xlink:href="#id168">December</textPath></text></svg>