<?xml version="1.0" encoding="utf-8" ?>
<svg baseProfile="full" height="200mm" version="1.1" viewBox="0,0,200,200" width="200mm" xmlns="http://www.w3.org/2000/svg" xmlns:ev="http://www.w3.org/2001/xml-events" xmlns:xlink="http://www.w3.org/1999/xlink"><defs /><rect fill="#1a1a1a" height="200" width="200" x="0" y="0" /><text alignment-baseline="middle" fill="#e1ed5e" style="dominant-baseline: central; font-size:9.0px; font-family:Arial;" text-anchor="middle" x="100.0" y="100.0">2019</text><line stroke="#e1ed5e" stroke-width="0.3" x1="100.0" x2="100.0" y1="15.0" y2="10.0" /><path d="M 100.0 14.0 a86.0,86.0 0 0,1 42.46469731375804,11.215312516191453" fill="none" id="id97" stroke="none" /><text fill="#e1ed5e" style="font-size:6.75px; font-family:Arial;" text-anchor="middle"><textPath startOffset="22.20632615414155" xlink:href="#id97">January</textPath></text><line stroke="#e1ed5e" stroke-width="0.3" x1="143.23703022742887" x2="145.7803849466894" y1="26.81831364943548" y2="22.513508569990506" /><path d="M 143.74570117128098 25.957352633546492 a86.0,86.0 0 0,1 28.547481713284135,27.462654790039103" fill="none" id="id98" stroke="none" /><text fill="#e1ed5e" style="font-size:6.75px; font-family:Arial;" text-anchor="middle"><textPath startOffset="19.985693538727396" xlink:href="#id98">February</textPath></text><path d="M 111.90073688211348 82.69761687909136 l 27.97568845239909 -40.67362252182036 a70.3658051026541,70.3658051026541 0 0,0 0.9920535109057961,0.694996882352822 l -28.671673102888537 40.18604079670361" fill="#42ff2d" stroke="none" /><line stroke="#e1ed5e" stroke-width="0.3" x1="172.23445277983987" x2="176.4835382374775" y1="55.19839476539836" y2="52.563006222186495" /><path d="M 173.08426987136738 54.67131705675599 a86.0,86.0 0 0,1 12.851231095245387,41.99856678651699" fill="none" id="id99" stroke="none" /><text fill="#e1ed5e" style="font-size:6.75px; font-family:Arial;" text-anchor="middle"><textPath startOffset="22.20632615414155" xlink:href="#id99">March</textPath></text><path d="M 120.08093135843002 93.85539295169968 l 36.18859772219807 -11.07342626011088 a58.84488570780988,58.84488570780988 0 0,0 0.28804320170946324,0.9711384822183823 l -36.373846821019235 10.448858391145967" fill="#ffc412" stroke="none" /><path d="M 120.67395015179393 96.31383870115 l 48.23684663997252 -8.600620392199215 a69.99759223573074,69.99759223573074 0 0,0 0.20128687110391758,1.188006507451781 l -48.37774537259666 7.7690280964315965" fill="#49ff2c" stroke="none" /><path d="M 120.98425023603335 99.18683210126433 l 47.840540240400365 -1.8538852303078166 a68.87644703756243,68.87644703756243 0 0,0 0.03571180000736001,1.18510078352249 l -47.86536373486337 1.0301142993603276" fill="#5fff29" stroke="none" /><line stroke="#e1ed5e" stroke-width="0.3" x1="184.98032266829074" x2="189.97916517819016" y1="98.17113171792111" y2="98.06355123074" /><path d="M 185.9800911702706 98.14961562048488 a86.0,86.0 0 0,1 -9.607161424134198,41.387399972396054" fill="none" id="id100" stroke="none" /><text fill="#e1ed5e" style="font-size:6.75px; font-family:Arial;" text-anchor="middle"><textPath startOffset="21.466115282336823" xlink:href="#id100">April</textPath></text><path d="M 120.5718875245553 104.21870165774334 l 47.81629057075022 9.805744079495772 a69.8113742984049,69.8113742984049 0 0,0 -0.2515402259169769,1.1751121934310176 l -47.6404163061088 -10.627370092342959" fill="#4dff2c" stroke="none" /><line stroke="#e1ed5e" stroke-width="0.3" x1="174.80103733775053" x2="179.2010983576182" y1="140.37084112569926" y2="142.7455964860345" /><path d="M 175.68104954172406 140.8457921977663 a86.0,86.0 0 0,1 -30.038265399797805,32.042727171017184" fill="none" id="id101" stroke="none" /><text fill="#e1ed5e" style="font-size:6.75px; font-family:Arial;" text-anchor="middle"><textPath startOffset="22.206326154141568" xlink:href="#id101">May</textPath></text><path d="M 112.63410532772338 116.77436683061366 l 18.215943212155995 24.185401789854538 a51.27794984547651,51.27794984547651 0 0,0 -0.7096258529151682,0.5249642412285023 l -17.796932388822263 -24.49537597982281" fill="#ff0000" stroke="none" /><line stroke="#e1ed5e" stroke-width="0.3" x1="143.8653032363475" x2="146.44561519142675" y1="172.8068346515853" y2="177.08958963109032" /><path d="M 144.38136562736335 173.6633856474863 a86.0,86.0 0 0,1 -40.68145358897372,12.25698825130547" fill="none" id="id102" stroke="none" /><text fill="#e1ed5e" style="font-size:6.75px; font-family:Arial;" text-anchor="middle"><textPath startOffset="21.466115282336833" xlink:href="#id102">June</textPath></text><path d="M 110.8373102113329 117.98757091392108 l 24.706689287736946 41.00771473226316 a68.87539204145955,68.87539204145955 0 0,0 -1.0207730904199181,0.6030907344005383 l -23.997148326288645 -41.426924038957445" fill="#5fff29" stroke="none" /><path d="M 108.59647513512805 119.15986991738527 l 19.527263944861996 43.52247068070307 a68.70240550878924,68.70240550878924 0 0,0 -1.083140288820922,0.474816872060174 l -18.77520298138332 -43.8521521060577" fill="#62ff29" stroke="none" /><path d="M 103.41894727170886 120.7198165907248 l 7.959524857333969 48.23703967532803 a69.88932432130441,69.88932432130441 0 0,0 -1.18866476972395,0.18564499090521183 l -7.128024224001502 -48.366902973580345" fill="#4bff2c" stroke="none" /><line stroke="#e1ed5e" stroke-width="0.3" x1="102.19456741930631" x2="102.32365962044197" y1="184.97166512339345" y2="189.96999836594603" /><path d="M 102.22038585953345 185.97133177190398 a86.0,86.0 0 0,1 -42.740103519485714,-10.115201625700543" fill="none" id="id103" stroke="none" /><text fill="#e1ed5e" style="font-size:6.75px; font-family:Arial;" text-anchor="middle"><textPath startOffset="22.20632615414155" xlink:href="#id103">July</textPath></text><path d="M 98.37488393609728 120.93702456842531 l -3.4897147365693457 44.95940000795045 a66.09463114404556,66.09463114404556 0 0,0 -1.1335408082526133,-0.09780667062700744 l 4.2630998625635 -44.89266908504478" fill="#97ff23" stroke="none" /><line stroke="#e1ed5e" stroke-width="0.3" x1="58.666819895761336" x2="56.23545636021788" y1="174.27360380694188" y2="178.64263932499728" /><path d="M 58.180547188652646 175.14741091055294 a86.0,86.0 0 0,1 -31.652253787137756,-30.449443065178592" fill="none" id="id104" stroke="none" /><text fill="#e1ed5e" style="font-size:6.75px; font-family:Arial;" text-anchor="middle"><textPath startOffset="22.20632615414155" xlink:href="#id104">August</textPath></text><line stroke="#e1ed5e" stroke-width="0.3" x1="26.63291911575756" x2="22.317208475507996" y1="142.92168965132927" y2="145.44649492493687" /><path d="M 25.769776987707644 143.4266507060508 a86.0,86.0 0 0,1 -11.730757126820373,-40.83630448921669" fill="none" id="id105" stroke="none" /><text fill="#e1ed5e" style="font-size:6.75px; font-family:Arial;" text-anchor="middle"><textPath startOffset="21.46611528233685" xlink:href="#id105">September</textPath></text><path d="M 80.73074385275274 108.34839909993369 l -57.80776844174178 25.045197299801067 a84.0,84.0 0 0,0 -0.5633960752307736,-1.3317018973353647 l 58.23031549816486 -24.046420876799544" fill="#4dd2ff" stroke="none" /><line stroke="#e1ed5e" stroke-width="0.3" x1="15.007084014347285" x2="10.007500721073583" y1="101.09737516637583" y2="101.16192664675087" /><path d="M 14.007167355692545 101.11028546245083 a86.0,86.0 0 0,1 10.666146001902534,-42.60595125391555" fill="none" id="id106" stroke="none" /><text fill="#e1ed5e" style="font-size:6.75px; font-family:Arial;" text-anchor="middle"><textPath startOffset="22.20632615414155" xlink:href="#id106">October</textPath></text><path d="M 79.05617556472873 98.46500227214037 l -45.50470672013781 -3.3350939145907628 a66.62675952886525,66.62675952886525 0 0,0 0.09367568888209467,-1.1430806761806755 l 45.44055654743622 4.117888507979217" fill="#8cff24" stroke="none" /><path d="M 80.95270993114464 91.15688171328213 l -40.95426236004707 -19.013906182242426 a66.15285410428321,66.15285410428321 0 0,0 0.4884027610881509,-1.0287007730847157 l 40.620901405117166 19.716049370967674" fill="#96ff23" stroke="none" /><line stroke="#e1ed5e" stroke-width="0.3" x1="26.266209847984243" x2="21.928928074336255" y1="57.711370442889674" y2="55.22380399835377" /><path d="M 25.398753493254645 57.213857153982495 a86.0,86.0 0 0,1 29.58750427330803,-30.492523968695096" fill="none" id="id107" stroke="none" /><text fill="#e1ed5e" style="font-size:6.75px; font-family:Arial;" text-anchor="middle"><textPath startOffset="21.46611528233685" xlink:href="#id107">November</textPath></text><path d="M 82.15384107792192 88.93136811851018 l -39.4328505491962 -24.457235233229238 a67.40157387081555,67.40157387081555 0 0,0 0.6200059067347978,-0.9807004497138934 l 39.00601704621544 25.132383330657348" fill="#7cff26" stroke="none" /><path d="M 83.6137871275137 86.86637796730984 l -37.2805531804857 -29.880528127657133 a68.77745918977621,68.77745918977621 0 0,0 0.7483691969532494,-0.9174121472947809 l 36.76068549145605 30.517824444559995" fill="#61ff29" stroke="none" /><path d="M 85.31137513191541 84.99185889309783 l -31.398528513042585 -32.081529122357104 a65.88977727292702,65.88977727292702 0 0,0 0.8173995740115493,-0.7863377425742683 l 30.841645695418606 32.61724995169369" fill="#9bff22" stroke="none" /><line stroke="#e1ed5e" stroke-width="0.3" x1="56.762969772571076" x2="54.21961505331055" y1="26.818313649435495" y2="22.513508569990535" /><path d="M 56.25429882871897 25.957352633546506 a86.0,86.0 0 0,1 42.265352541879196,-11.944610805530505" fill="none" id="id108" stroke="none" /><text fill="#e1ed5e" style="font-size:6.75px; font-family:Arial;" text-anchor="middle"><textPath startOffset="22.20632615414155" xlink:href="#id108">December</textPath></text></svg>