<?xml version="1.0" encoding="utf-8" ?>
<svg baseProfile="full" height="200mm" version="1.1" viewBox="0,0,200,200" width="200mm" xmlns="http://www.w3.org/2000/svg" xmlns:ev="http://www.w3.org/2001/xml-events" xmlns:xlink="http://www.w3.org/1999/xlink"><defs /><rect fill="#1a1a1a" height="200" width="200" x="0" y="0" /><text alignment-baseline="middle" fill="#e1ed5e" style="dominant-baseline: central; font-size:9.0px; font-family:Arial;" text-anchor="middle" x="100.0" y="100.0">2026</text><line stroke="#e1ed5e" stroke-width="0.3" x1="100.0" x2="100.0" y1="15.0" y2="10.0" /><path d="M 100.0 14.0 a86.0,86.0 0 0,1 42.46469731375804,11.215312516191453" fill="none" id="id181" stroke="none" /><text fill="#e1ed5e" style="font-size:6.75px; font-family:Arial;" text-anchor="middle"><textPath startOffset="22.20632615414155" xlink:href="#id181">January</textPath></text><path d="M 103.2404852339499 79.25152402106235 l 6.740096719263165 -43.15610927962345 a64.67927050604008,64.67927050604008 0 0,0 1.0985336551308453,0.1812674656961606 l -7.481959580532886 43.03369555098766" fill="#ffc011" stroke="none" /><path d="M 105.71112130821622 79.79150937346287 l 14.041126271692018 -49.68375794072169 a72.62973009894421,72.62973009894421 0 0,0 1.2001536584971848,0.35035776329555174 l -14.89427014791263 49.43470184850744" fill="#5bff2a" stroke="none" /><path d="M 106.0581310904928 79.89281104454417 l 14.729341811790434 -48.88729784404107 a72.05801994496595,72.05801994496595 0 0,0 1.1845467856430978,0.3680444523776043 l -15.56867397014425 48.626513256780946" fill="#69ff28" stroke="none" /><path d="M 108.43124777332544 80.76684994638697 l 15.266776475873364 -34.82618595605924 a59.02548740266584,59.02548740266584 0 0,0 0.9270314862672856,0.41593200556891136 l -15.863990080607431 34.5582336199738" fill="#ff0000" stroke="none" /><line stroke="#e1ed5e" stroke-width="0.3" x1="143.23703022742887" x2="145.7803849466894" y1="26.81831364943548" y2="22.513508569990506" /><path d="M 143.74570117128098 25.957352633546492 a86.0,86.0 0 0,1 28.547481713284135,27.462654790039103" fill="none" id="id182" stroke="none" /><text fill="#e1ed5e" style="font-size:6.75px; font-family:Arial;" text-anchor="middle"><textPath startOffset="19.985693538727396" xlink:href="#id182">February</textPath></text><path d="M 110.68208982089419 81.91981866633111 l 26.658736270780015 -45.121768678575926 a73.40860834097694,73.40860834097694 0 0,0 1.082385228978038,0.6521249895682797 l -27.43148356597569 44.65619707954903" fill="#47ff2c" stroke="none" /><path d="M 112.48926042617603 83.11751280151076 l 30.434300508867818 -41.13988108207408 a72.17359145996369,72.17359145996369 0 0,0 0.9924001014826495,0.7474551818249787 l -31.13794676410885 40.609909310743255" fill="#66ff29" stroke="none" /><path d="M 112.77801427241765 83.33499621200491 l 31.465620126337477 -41.03725879606606 a72.71210554048515,72.71210554048515 0 0,0 0.9866944249928516,0.7701306493945543 l -32.16734710648976 40.48954975744828" fill="#58ff2a" stroke="none" /><path d="M 114.16331599549186 84.49514656593476 l 35.364894258527414 -38.71462744771167 a73.43565699342324,73.43565699342324 0 0,0 0.9259610962002046,0.8605799240322483 l -36.02606323852246 38.10014293760479" fill="#46ff2c" stroke="none" /><path d="M 114.68862486808459 84.99185889309783 l 34.785476372529075 -35.542152009346395 a70.732021232997,70.732021232997 0 0,0 0.8628100772237443,0.8591048965520058 l -35.39212224992014 34.93811126214427" fill="#8cff24" stroke="none" /><path d="M 115.4437574822437 85.77008943001954 l 46.331272446731084 -42.689731709941405 a84.0,84.0 0 0,0 0.9706254375358574,1.0717888509218039 l -47.05924152488298 41.88589007175005" fill="#4dd2ff" stroke="none" /><path d="M 115.9244219780498 86.31012108654704 l 46.778475146465 -40.21443675593307 a82.68814035635525,82.68814035635525 0 0,0 0.9185840731250124,1.0873138062485619 l -47.46376983307713 39.40326400005541" fill="#49f0ff" stroke="none" /><path d="M 116.15771136456269 86.58626213691792 l 30.752027538838277 -25.529583172834563 a60.96807244198981,60.96807244198981 0 0,0 0.6633950708661626,0.8132439161657827 l -31.186921101780847 24.996455087060678" fill="#ff4506" stroke="none" /><path d="M 116.38621287248628 86.86637796730983 l 38.65171232526298 -30.979518241743197 a70.53468901855936,70.53468901855936 0 0,0 0.751180732170216,0.9539232462584741 l -39.17924713802715 30.309602601531683" fill="#91ff23" stroke="none" /><line stroke="#e1ed5e" stroke-width="0.3" x1="172.23445277983987" x2="176.4835382374775" y1="55.19839476539836" y2="52.563006222186495" /><path d="M 173.08426987136738 54.67131705675599 a86.0,86.0 0 0,1 12.851231095245387,41.99856678651699" fill="none" id="id183" stroke="none" /><text fill="#e1ed5e" style="font-size:6.75px; font-family:Arial;" text-anchor="middle"><textPath startOffset="22.20632615414155" xlink:href="#id183">March</textPath></text><line stroke="#e1ed5e" stroke-width="0.3" x1="184.98032266829074" x2="189.97916517819016" y1="98.17113171792111" y2="98.06355123074" /><path d="M 185.9800911702706 98.14961562048488 a86.0,86.0 0 0,1 -9.607161424134198,41.387399972396054" fill="none" id="id184" stroke="none" /><text fill="#e1ed5e" style="font-size:6.75px; font-family:Arial;" text-anchor="middle"><textPath startOffset="21.466115282336823" xlink:href="#id184">April</textPath></text><line stroke="#e1ed5e" stroke-width="0.3" x1="174.80103733775053" x2="179.2010983576182" y1="140.37084112569926" y2="142.7455964860345" /><path d="M 175.68104954172406 140.8457921977663 a86.0,86.0 0 0,1 -30.038265399797805,32.042727171017184" fill="none" id="id185" stroke="none" /><text fill="#e1ed5e" style="font-size:6.75px; font-family:Arial;" text-anchor="middle"><textPath startOffset="22.206326154141568" xlink:href="#id185">May</textPath></text><line stroke="#e1ed5e" stroke-width="0.3" x1="143.8653032363475" x2="146.44561519142675" y1="172.8068346515853" y2="177.08958963109032" /><path d="M 144.38136562736335 173.6633856474863 a86.0,86.0 0 0,1 -40.68145358897372,12.25698825130547" fill="none" id="id186" stroke="none" /><text fill="#e1ed5e" style="font-size:6.75px; font-family:Arial;" text-anchor="middle"><textPath startOffset="21.466115282336833" xlink:href="#id186">June</textPath></text><line stroke="#e1ed5e" stroke-width="0.3" x1="102.19456741930631" x2="102.32365962044197" y1="184.97166512339345" y2="189.96999836594603" /><path d="M 102.22038585953345 185.97133177190398 a86.0,86.0 0 0,1 -42.740103519485714,-10.115201625700543" fill="none" id="id187" stroke="none" /><text fill="#e1ed5e" style="font-size:6.75px; font-family:Arial;" text-anchor="middle"><textPath startOffset="22.20632615414155" xlink:href="#id187">July</textPath></text><line stroke="#e1ed5e" stroke-width="0.3" x1="58.666819895761336" x2="56.23545636021788" y1="174.27360380694188" y2="178.64263932499728" /><path d="M 58.180547188652646 175.14741091055294 a86.0,86.0 0 0,1 -31.652253787137756,-30.449443065178592" fill="none" id="id188" stroke="none" /><text fill="#e1ed5e" style="font-size:6.75px; font-family:Arial;" text-anchor="middle"><textPath startOffset="22.20632615414155" xlink:href="#id188">August</textPath></text><line stroke="#e1ed5e" stroke-width="0.3" x1="26.63291911575756" x2="22.317208475507996" y1="142.92168965132927" y2="145.44649492493687" /><path d="M 25.769776987707644 143.4266507060508 a86.0,86.0 0 0,1 -11.730757126820373,-40.83630448921669" fill="none" id="id189" stroke="none" /><text fill="#e1ed5e" style="font-size:6.75px; font-family:Arial;" text-anchor="middle"><textPath startOffset="21.46611528233685" xlink:href="#id189">September</textPath></text><line stroke="#e1ed5e" stroke-width="0.3" x1="15.007084014347285" x2="10.007500721073583" y1="101.09737516637583" y2="101.16192664675087" /><path d="M 14.007167355692545 101.11028546245083 a86.0,86.0 0 0,1 10.666146001902534,-42.60595125391555" fill="none" id="id190" stroke="none" /><text fill="#e1ed5e" style="font-size:6.75px; font-family:Arial;" text-anchor="middle"><textPath startOffset="22.20632615414155" xlink:href="#id190">October</textPath></text><line stroke="#e1ed5e" stroke-width="0.3" x1="26.266209847984243" x2="21.928928074336255" y1="57.711370442889674" y2="55.22380399835377" /><path d="M 25.398753493254645 57.213857153982495 a86.0,86.0 0 0,1 29.58750427330803,-30.492523968695096" fill="none" id="id191" stroke="none" /><text fill="#e1ed5e" style="font-size:6.75px; font-family:Arial;" text-anchor="middle"><textPath startOffset="21.46611528233685" xlink:href="#id191">November</textPath></text><line stroke="#e1ed5e" stroke-width="0.3" x1="56.762969772571076" x2="54.21961505331055" y1="26.818313649435495" y2="22.513508569990535" /><path d="M 56.25429882871897 25.957352633546506 a86.0,86.0 0 0,1 42.265352541879196,-11.944610805530505" fill="none" id="id192" stroke="none" /><text fill="#e1ed5e" style="font-size:6.75px; font-family:Arial;" text-anchor="middle"><textPath startOffset="22.20632615414155" xlink:href="#id192">December</textPath></text></svg>