<?xml version="1.0" encoding="utf-8" ?>
<svg baseProfile="full" height="200mm" version="1.1" viewBox="0,0,200,200" width="200mm" xmlns="http://www.w3.org/2000/svg" xmlns:ev="http://www.w3.org/2001/xml-events" xmlns:xlink="http://www.w3.org/1999/xlink"><defs /><rect fill="#1a1a1a" height="200" width="200" x="0" y="0" /><text alignment-baseline="middle" fill="#e1ed5e" style="dominant-baseline: central; font-size:9.0px; font-family:Arial;" text-anchor="middle" x="100.0" y="100.0">2025</text><line stroke="#e1ed5e" stroke-width="0.3" x1="100.0" x2="100.0" y1="15.0" y2="10.0" /><path d="M 100.0 14.0 a86.0,86.0 0 0,1 42.46469731375804,11.215312516191453" fill="none" id="id169" stroke="none" /><text fill="#e1ed5e" style="font-size:6.75px; font-family:Arial;" text-anchor="middle"><textPath startOffset="22.20632615414155" xlink:href="#id169">January</textPath></text><path d="M 100.0 79.0 l 0.0 -60.58024773701763 a81.58024773701763,81.58024773701763 0 0,0 1.404269859578511,0.01208699402520925 l -1.0427893803059827 60.57127211960098" fill="#47fdff" stroke="none" /><path d="M 101.08401301168833 79.027996857942 l 3.1205630786497354 -60.37239219896813 a81.45298713673179,81.45298713673179 0 0,0 1.399587094967226,0.08442691567499036 l -4.159312222456573 60.309732013912836" fill="#47ffff" stroke="none" /><path d="M 101.44485096284872 79.0497635885617 l 3.0111409951904173 -43.661330711254855 a64.76504049547404,64.76504049547404 0 0,0 1.111521713376862,0.08627547748639829 l -3.7622528979296206 43.60302997157999" fill="#b2ff20" stroke="none" /><path d="M 102.88285421437855 79.19881850522331 l 4.886211275484393 -35.256367476454166 a56.59334921391138,56.59334921391138 0 0,0 0.9637874847775362,0.14203722206560102 l -5.492367740690584 35.1670357702276" fill="#ff8e0d" stroke="none" /><path d="M 106.0581310904928 79.89281104454417 l 10.555348195106442 -35.03363949695757 a57.58922343973321,57.58922343973321 0 0,0 0.946697252648889,0.29414344468410325 l -11.156830820466048 34.846755917390944" fill="#ffa70f" stroke="none" /><path d="M 106.40334571778207 80.00007090966166 l 14.68510786827835 -45.8668216576109 a69.1603334921391,69.1603334921391 0 0,0 1.1306633574902099,0.37276193223640175 l -15.472454048010977 45.607246001115264" fill="#59ff2a" stroke="none" /><path d="M 108.43124777332544 80.76684994638697 l 15.004648609957927 -34.228226470829156 a58.372596474511674,58.372596474511674 0 0,0 0.9167774337531873,0.41133131110429194 l -15.591608162177895 33.964874829208334" fill="#ffba11" stroke="none" /><path d="M 109.41281617654863 81.2277094730956 l 18.95971677600282 -37.81199005178613 a63.29914244878513,63.29914244878513 0 0,0 0.9698016775010492,0.49677008651755133 l -19.607778941092626 37.48002743995608" fill="#d2ff1c" stroke="none" /><path d="M 110.05341064243156 81.56283822128135 l 20.23738630349708 -37.11376949840342 a63.272729871367325,63.272729871367325 0 0,0 0.9517300564293909,0.5296367459866873 l -20.873240448998505 36.759917354856555" fill="#d2ff1c" stroke="none" /><path d="M 110.36928655335952 81.73862282372117 l 14.922880442556604 -26.280723067658908 a51.221991424487854,51.221991424487854 0 0,0 0.7629717279625111,0.44196247125332067 l -15.373048902984443 26.019956439015537" fill="#ff0100" stroke="none" /><line stroke="#e1ed5e" stroke-width="0.3" x1="143.23703022742887" x2="145.7803849466894" y1="26.81831364943548" y2="22.513508569990506" /><path d="M 143.74570117128098 25.957352633546492 a86.0,86.0 0 0,1 28.547481713284135,27.462654790039103" fill="none" id="id170" stroke="none" /><text fill="#e1ed5e" style="font-size:6.75px; font-family:Arial;" text-anchor="middle"><textPath startOffset="19.985693538727396" xlink:href="#id170">February</textPath></text><path d="M 110.99172775467656 82.1063720568725 l 31.63386780567671 -51.497332680572256 a81.43737970462125,81.43737970462125 0 0,0 1.1881358772611288,0.7440105773411241 l -32.515622835310104 50.94517776190819" fill="#47ffff" stroke="none" /><path d="M 111.60114157652 82.49532879139004 l 33.46268870115021 -50.49101069977721 a81.57304430681278,81.57304430681278 0 0,0 1.1637571970137275,0.7857740543238577 l -34.32685059257049 49.90752473315469" fill="#47fdff" stroke="none" /><path d="M 113.06298171725822 83.55741782278167 l 39.188945151774654 -49.32774653165496 a84.0,84.0 0 0,0 1.1243864057420354,0.9091756109434814 l -40.032234956081176 48.64586482344735" fill="#4dd2ff" stroke="none" /><path d="M 114.94478906791727 85.2469230424477 l 42.79022764138922 -42.24131358132137 a81.12763220581229,81.12763220581229 0 0,0 0.9725106774930248,1.0022577392585412 l -43.511002582585355 41.49849164651271" fill="#46fff9" stroke="none" /><path d="M 115.9244219780498 86.31012108654704 l 22.939361252839696 -19.72046949874841 a51.25080514530728,51.25080514530728 0 0,0 0.5693461376495254,0.6739262459609116 l -23.275418003976338 19.32268430315839" fill="#ff0200" stroke="none" /><path d="M 116.38621287248628 86.86637796730983 l 33.259718459360656 -26.657811329449196 a63.62449737970462,63.62449737970462 0 0,0 0.6775885339633793,0.8604686279405283 l -33.713661073918 26.081350307555628" fill="#caff1d" stroke="none" /><path d="M 116.60985879189232 87.15038557335679 l 43.91934705957953 -33.97660887165365 a76.52764173415913,76.52764173415913 0 0,0 0.797068404055707,1.0488485884291896 l -44.49769140385935 33.21557550734343" fill="#3bffa0" stroke="none" /><path d="M 117.65298651832404 88.62581576622439 l 25.379427068292735 -16.352489643765914 a51.191376846117194,51.191376846117194 0 0,0 0.4708933960401708,0.7448402672418871 l -25.65714806057886 15.913201728809822" fill="#ff0000" stroke="none" /><line stroke="#e1ed5e" stroke-width="0.3" x1="172.23445277983987" x2="176.4835382374775" y1="55.19839476539836" y2="52.563006222186495" /><path d="M 173.08426987136738 54.67131705675599 a86.0,86.0 0 0,1 12.851231095245387,41.99856678651699" fill="none" id="id171" stroke="none" /><text fill="#e1ed5e" style="font-size:6.75px; font-family:Arial;" text-anchor="middle"><textPath startOffset="22.20632615414155" xlink:href="#id171">March</textPath></text><path d="M 117.84615892207809 88.93136811851018 l 46.10991746494884 -28.598518299307333 a75.25863744640304,75.25863744640304 0 0,0 0.6733290008897109,1.1067758375225514 l -46.59536226412478 27.800574688577697" fill="#38ff85" stroke="none" /><path d="M 118.03404312379186 89.2402003453031 l 29.91778161216916 -17.850092408575204 a55.83818961410196,55.83818961410196 0 0,0 0.4853676813878933,0.8296507017374625 l -30.22060896802738 17.332462294483847" fill="#ff7b0b" stroke="none" /><path d="M 118.73160827565052 90.50648371742162 l 31.0396759906468 -15.731466571731378 a55.798570747975226,55.798570747975226 0 0,0 0.426832461055861,0.860468195818798 l -31.30586846465607 15.19483878741363" fill="#ff7a0b" stroke="none" /><path d="M 119.04729006885535 91.15688171328212 l 28.613948040360864 -13.284647120729057 a52.54742258218199,52.54742258218199 0 0,0 0.3738315801583756,0.823688333625233 l -28.838381937482584 12.790136778261761" fill="#ff2503" stroke="none" /><path d="M 119.196687751892 91.48605970444005 l 29.152808866929963 -12.929588549277174 a52.89138637446403,52.89138637446403 0 0,0 0.36195159958622536,0.8354341954481057 l -29.37105117635887 12.425855209242465" fill="#ff2e04" stroke="none" /><line stroke="#e1ed5e" stroke-width="0.3" x1="184.98032266829074" x2="189.97916517819016" y1="98.17113171792111" y2="98.06355123074" /><path d="M 185.9800911702706 98.14961562048488 a86.0,86.0 0 0,1 -9.607161424134198,41.387399972396054" fill="none" id="id172" stroke="none" /><text fill="#e1ed5e" style="font-size:6.75px; font-family:Arial;" text-anchor="middle"><textPath startOffset="21.466115282336823" xlink:href="#id172">April</textPath></text><line stroke="#e1ed5e" stroke-width="0.3" x1="174.80103733775053" x2="179.2010983576182" y1="140.37084112569926" y2="142.7455964860345" /><path d="M 175.68104954172406 140.8457921977663 a86.0,86.0 0 0,1 -30.038265399797805,32.042727171017184" fill="none" id="id173" stroke="none" /><text fill="#e1ed5e" style="font-size:6.75px; font-family:Arial;" text-anchor="middle"><textPath startOffset="22.206326154141568" xlink:href="#id173">May</textPath></text><line stroke="#e1ed5e" stroke-width="0.3" x1="143.8653032363475" x2="146.44561519142675" y1="172.8068346515853" y2="177.08958963109032" /><path d="M 144.38136562736335 173.6633856474863 a86.0,86.0 0 0,1 -40.68145358897372,12.25698825130547" fill="none" id="id174" stroke="none" /><text fill="#e1ed5e" style="font-size:6.75px; font-family:Arial;" text-anchor="middle"><textPath startOffset="21.466115282336833" xlink:href="#id174">June</textPath></text><line stroke="#e1ed5e" stroke-width="0.3" x1="102.19456741930631" x2="102.32365962044197" y1="184.97166512339345" y2="189.96999836594603" /><path d="M 102.22038585953345 185.97133177190398 a86.0,86.0 0 0,1 -42.740103519485714,-10.115201625700543" fill="none" id="id175" stroke="none" /><text fill="#e1ed5e" style="font-size:6.75px; font-family:Arial;" text-anchor="middle"><textPath startOffset="22.20632615414155" xlink:href="#id175">July</textPath></text><line stroke="#e1ed5e" stroke-width="0.3" x1="58.666819895761336" x2="56.23545636021788" y1="174.27360380694188" y2="178.64263932499728" /><path d="M 58.180547188652646 175.14741091055294 a86.0,86.0 0 0,1 -31.652253787137756,-30.449443065178592" fill="none" id="id176" stroke="none" /><text fill="#e1ed5e" style="font-size:6.75px; font-family:Arial;" text-anchor="middle"><textPath startOffset="22.20632615414155" xlink:href="#id176">August</textPath></text><line stroke="#e1ed5e" stroke-width="0.3" x1="26.63291911575756" x2="22.317208475507996" y1="142.92168965132927" y2="145.44649492493687" /><path d="M 25.769776987707644 143.4266507060508 a86.0,86.0 0 0,1 -11.730757126820373,-40.83630448921669" fill="none" id="id177" stroke="none" /><text fill="#e1ed5e" style="font-size:6.75px; font-family:Arial;" text-anchor="middle"><textPath startOffset="21.46611528233685" xlink:href="#id177">September</textPath></text><line stroke="#e1ed5e" stroke-width="0.3" x1="15.007084014347285" x2="10.007500721073583" y1="101.09737516637583" y2="101.16192664675087" /><path d="M 14.007167355692545 101.11028546245083 a86.0,86.0 0 0,1 10.666146001902534,-42.60595125391555" fill="none" id="id178" stroke="none" /><text fill="#e1ed5e" style="font-size:6.75px; font-family:Arial;" text-anchor="middle"><textPath startOffset="22.20632615414155" xlink:href="#id178">October</textPath></text><line stroke="#e1ed5e" stroke-width="0.3" x1="26.266209847984243" x2="21.928928074336255" y1="57.711370442889674" y2="55.22380399835377" /><path d="M 25.398753493254645 57.213857153982495 a86.0,86.0 0 0,1 29.58750427330803,-30.492523968695096" fill="none" id="id179" stroke="none" /><text fill="#e1ed5e" style="font-size:6.75px; font-family:Arial;" text-anchor="middle"><textPath startOffset="21.46611528233685" xlink:href="#id179">November</textPath></text><line stroke="#e1ed5e" stroke-width="0.3" x1="56.762969772571076" x2="54.21961505331055" y1="26.818313649435495" y2="22.513508569990535" /><path d="M 56.25429882871897 25.957352633546506 a86.0,86.0 0 0,1 42.265352541879196,-11.944610805530505" fill="none" id="id180" stroke="none" /><text fill="#e1ed5e" style="font-size:6.75px; font-family:Arial;" text-anchor="middle"><textPath startOffset="22.20632615414155" xlink:href="#id180">December</textPath></text></svg>