<?xml version="1.0" encoding="utf-8" ?>
<svg baseProfile="full" height="200mm" version="1.1" viewBox="0,0,200,200" width="200mm" xmlns="http://www.w3.org/2000/svg" xmlns:ev="http://www.w3.org/2001/xml-events" xmlns:xlink="http://www.w3.org/1999/xlink"><defs /><rect fill="#1a1a1a" height="200" width="200" x="0" y="0" /><text alignment-baseline="middle" fill="#e1ed5e" style="dominant-baseline: central; font-size:9.0px; font-family:Arial;" text-anchor="middle" x="100.0" y="100.0">2013</text><line stroke="#e1ed5e" stroke-width="0.3" x1="100.0" x2="100.0" y1="15.0" y2="10.0" /><path d="M 100.0 14.0 a86.0,86.0 0 0,1 42.46469731375804,11.215312516191453" fill="none" id="id25" stroke="none" /><text fill="#e1ed5e" style="font-size:6.75px; font-family:Arial;" text-anchor="middle"><textPath startOffset="22.20632615414155" xlink:href="#id25">January</textPath></text><path d="M 105.71112130821622 79.79150937346287 l 4.037358029237222 -14.285970737907137 a35.84551177226926,35.84551177226926 0 0,0 0.5923211064613089,0.17291477349024584 l -4.282669353421958 14.214357635498187" fill="#ff8d0d" stroke="none" /><path d="M 107.4271985657038 80.35727306442388 l 5.2471140495105475 -13.877053045315206 a35.83592959915431,35.83592959915431 0 0,0 0.5751100748953208,0.2231337741882923 l -5.485207289405536 13.784676567236367" fill="#ff8d0d" stroke="none" /><path d="M 107.76421540070413 80.48803036053334 l 5.401987152645148 -13.57553904360279 a35.61084273824501,35.61084273824501 0 0,0 0.5675963562877068,0.23153680522551878 l -5.634867378521242 13.480541352193692" fill="#ff890c" stroke="none" /><path d="M 108.76106565485865 80.91482961587045 l 6.215830030739081 -13.540610228123963 a35.89914991940859,35.89914991940859 0 0,0 0.5593801928310844,0.26263650100368935 l -6.447988434869763 13.431608744480272" fill="#ff8e0d" stroke="none" /><path d="M 109.08828744355905 81.06846463323043 l 6.542449439614461 -13.628377592650033 a36.11741778471962,36.11741778471962 0 0,0 0.5581495158347598,0.2738815434033832 l -6.776070222459652 13.513740889111817" fill="#ff910d" stroke="none" /><line stroke="#e1ed5e" stroke-width="0.3" x1="143.23703022742887" x2="145.7803849466894" y1="26.81831364943548" y2="22.513508569990506" /><path d="M 143.74570117128098 25.957352633546492 a86.0,86.0 0 0,1 28.547481713284135,27.462654790039103" fill="none" id="id26" stroke="none" /><text fill="#e1ed5e" style="font-size:6.75px; font-family:Arial;" text-anchor="middle"><textPath startOffset="19.985693538727396" xlink:href="#id26">February</textPath></text><path d="M 110.68208982089419 81.91981866633111 l 6.680092440882326 -11.306521914895583 a34.1324435209426,34.1324435209426 0 0,0 0.503271394607993,0.3032153841092469 l -6.8737259017079575 11.189859921327722" fill="#ff740a" stroke="none" /><path d="M 110.99172775467656 82.1063720568725 l 9.103700337565492 -14.820074730909724 a38.39287138071052,38.39287138071052 0 0,0 0.5601352607849888,0.3507566489166524 l -9.357454750722743 14.661173740670128" fill="#ffb110" stroke="none" /><path d="M 111.90073688211348 82.69761687909136 l 8.66341470446627 -12.5956671285861 a36.28743224860561,36.28743224860561 0 0,0 0.5115989863466732,0.3584077840732175 l -8.878944830396593 12.444674501748947" fill="#ff930d" stroke="none" /><path d="M 112.19680574252982 82.90503203632743 l 9.024653186011745 -12.648898437413907 a36.53830739842033,36.53830739842033 0 0,0 0.5088475776749066,0.3696994054533287 l -9.24104608004044 12.491679797143904" fill="#ff970d" stroke="none" /><path d="M 113.6212207817346 84.01681056812373 l 9.403945508999515 -11.03462346627059 a35.498175960395905,35.498175960395905 0 0,0 0.4616558091196419,0.40034336843666424 l -9.592495116765921 10.871115104414253" fill="#ff880c" stroke="none" /><path d="M 113.89432698308785 84.25364557470405 l 9.738350818018679 -11.036412464241147 a35.71862346606035,35.71862346606035 0 0,0 0.45751986907458425,0.41076585583094716 l -9.926881674689254 10.867147599640905" fill="#ff8b0c" stroke="none" /><path d="M 114.16331599549186 84.49514656593476 l 9.807057071149854 -10.735973309929038 a35.540959091762105,35.540959091762105 0 0,0 0.44814122713659366,0.416498430428165 l -9.990406182081294 10.565570293426232" fill="#ff880c" stroke="none" /><path d="M 114.68862486808459 84.99185889309783 l 10.12047109284237 -10.340617967562634 a35.46901223622875,35.46901223622875 0 0,0 0.43266148277852695,0.4308034968721056 l -10.296968375788218 10.16487862004041" fill="#ff870c" stroke="none" /><path d="M 115.9244219780498 86.31012108654704 l 6.9641664133465575 -5.986942261594481 a30.183849491169283,30.183849491169283 0 0,0 0.3353129395424796,0.396904757272783 l -7.066189966376155 5.866178554692592" fill="#ff3905" stroke="none" /><path d="M 116.38621287248628 86.86637796730983 l 11.39223072299496 -9.130923270027946 a35.599886321786485,35.599886321786485 0 0,0 0.3791318717707763,0.4814589757045026 l -11.5477166753597 8.933471900370405" fill="#ff890c" stroke="none" /><path d="M 116.82858285166822 87.43820079747576 l 11.889494040199684 -8.874985972915232 a35.836625106518866,35.836625106518866 0 0,0 0.3647441250759966,0.49751057669596704 l -12.040500777789308 8.66901295254777" fill="#ff8d0d" stroke="none" /><path d="M 117.2510076193507 88.02491185347247 l 11.485556784696435 -7.972899783222283 a34.98160025203811,34.98160025203811 0 0,0 0.33911418871768717,0.49760822745015587 l -11.621095439082856 7.774013532501721" fill="#ff800b" stroke="none" /><line stroke="#e1ed5e" stroke-width="0.3" x1="172.23445277983987" x2="176.4835382374775" y1="55.19839476539836" y2="52.563006222186495" /><path d="M 173.08426987136738 54.67131705675599 a86.0,86.0 0 0,1 12.851231095245387,41.99856678651699" fill="none" id="id27" stroke="none" /><text fill="#e1ed5e" style="font-size:6.75px; font-family:Arial;" text-anchor="middle"><textPath startOffset="22.20632615414155" xlink:href="#id27">March</textPath></text><path d="M 118.03404312379186 89.2402003453031 l 12.794286392280188 -7.633560447913813 a35.89849017181406,35.89849017181406 0 0,0 0.31204390866603704,0.533384190429397 l -12.92378997541655 7.41219684513052" fill="#ff8e0d" stroke="none" /><path d="M 118.21658344932153 89.55222093294921 l 14.977058699289989 -8.589810531692255 a38.26548963256904,38.26548963256904 0 0,0 0.3227828138387211,0.5741946087448424 l -15.122699154421147 8.330732413012619" fill="#ffaf10" stroke="none" /><path d="M 118.56541770881063 90.18545643968196 l 12.899238466261728 -6.819137592685294 a35.59078443804376,35.59078443804376 0 0,0 0.28165964952545725,0.5440767924173368 l -13.014707548947301 6.596088078007613" fill="#ff890c" stroke="none" /><path d="M 119.196687751892 91.48605970444005 l 11.737405153939257 -5.205667144092983 a33.840001953380266,33.840001953380266 0 0,0 0.2315772695067893,0.5345122664346318 l -11.825273133288727 5.0028557330717485" fill="#ff700a" stroke="none" /><path d="M 119.47837535516314 92.15188598940014 l 18.845044960105987 -7.592936201559982 a41.317194681091586,41.317194681091586 0 0,0 0.2601142684587527,0.6619624412079937 l -18.97295277844644 7.267424755456204" fill="#ffd914" stroke="none" /><path d="M 119.7369772167798 92.82701384747503 l 19.304046059414507 -7.015646496980463 a41.53936440191349,41.53936440191349 0 0,0 0.23844963827473042,0.6741292373762814 l -19.421948778499047 6.682319633177567" fill="#ffdc14" stroke="none" /><path d="M 120.28053869075195 94.5502522615342 l 18.16388037115743 -4.8809633453976184 a39.80825226640778,39.80825226640778 0 0,0 0.17213025369629345,0.6632880838413885 l -18.245206956724026 4.56757883600738" fill="#ffc512" stroke="none" /><path d="M 120.53481517161879 95.60439243477599 l 26.22071735324426 -5.612711027602365 a47.814707598593984,47.814707598593984 0 0,0 0.1653494157823068,0.8063024740043058 l -26.313446064941562 5.160532897434647" fill="#d0ff1d" stroke="none" /><path d="M 120.73433829027371 96.67025291283417 l 20.593119310204546 -3.307068596974589 a41.85697163131347,41.85697163131347 0 0,0 0.10811876330843664,0.7123675625528975 l -20.646993966952284 2.952101922029609" fill="#ffe015" stroke="none" /><path d="M 120.87857604477298 97.74499172005257 l 19.150039352487628 -2.0683162112480282 a40.26141062205819,40.26141062205819 0 0,0 0.06848825292895087,0.6896673604338432 l -19.182804731098805 1.73837332010975" fill="#ffcb12" stroke="none" /><path d="M 120.94382443527127 98.46500227214037 l 19.997038018822852 -1.465606628707314 a41.05067411127011,41.05067411127011 0 0,0 0.045584640911674267,0.7051742186639658 l -20.019303250738943 1.121173345790313" fill="#ffd513" stroke="none" /><path d="M 120.98425023603335 99.18683210126433 l 20.291816743996687 -0.7863351703131495 a41.30704680085255,41.30704680085255 0 0,0 0.02141732127155484,0.7107366252790817 l -20.302345759723885 0.4369283976090688" fill="#ffd914" stroke="none" /><line stroke="#e1ed5e" stroke-width="0.3" x1="184.98032266829074" x2="189.97916517819016" y1="98.17113171792111" y2="98.06355123074" /><path d="M 185.9800911702706 98.14961562048488 a86.0,86.0 0 0,1 -9.607161424134198,41.387399972396054" fill="none" id="id28" stroke="none" /><text fill="#e1ed5e" style="font-size:6.75px; font-family:Arial;" text-anchor="middle"><textPath startOffset="21.466115282336823" xlink:href="#id28">April</textPath></text><path d="M 120.99980553446 99.90962569577887 l 20.867988996127004 -0.08980702144714754 a41.868182240999786,41.868182240999786 0 0,0 -0.003101640218852627,0.7207119545220111 l -20.866443058618646 -0.2694144112785483" fill="#ffe115" stroke="none" /><path d="M 120.9904718944345 100.63252640178507 l 20.66501002675965 0.6227189412804208 a41.674390396959865,41.674390396959865 0 0,0 -0.0277786942992256,0.7168446680096622 l -20.65122919960922 -0.9783408563040892" fill="#ffde14" stroke="none" /><path d="M 120.92983693683757 101.71520430193887 l 21.28197473905244 1.7440620649045815 a42.353318273277935,42.353318273277935 0 0,0 -0.065799719412915,0.7260944207193322 l -21.24880042336245 -2.110137874172484" fill="#ffe715" stroke="none" /><path d="M 120.8583938346157 102.4346265915055 l 20.416036940737666 2.3829939554880633 a41.55463997635224,41.55463997635224 0 0,0 -0.08904267060602103,0.7097576945950865 l -20.371992760884797 -2.7340694043705445" fill="#ffdc14" stroke="none" /><path d="M 120.70491114924044 103.5080841355445 l 19.31295613722719 3.27224176656073 a40.58820667997165,40.58820667997165 0 0,0 -0.12264124347221461,0.6878372237507925 l -19.253768451415787 -3.6041977410447408" fill="#ffcf13" stroke="none" /><path d="M 120.41448212921028 104.9243191809786 l 19.51274988116035 4.706806075474661 a41.07240472282403,41.07240472282403 0 0,0 -0.1716996394932408,0.685854709776062 l -19.42883892737205 -5.041988624648118" fill="#ffd614" stroke="none" /><path d="M 120.23288151984713 105.62410040840565 l 20.22755303836801 5.622619259275542 a41.99446949210118,41.99446949210118 0 0,0 -0.19958844120827443,0.6947935473895929 l -20.127771960273638 -5.969970282169717" fill="#ffe215" stroke="none" /><path d="M 120.02730092923936 106.31721596034902 l 19.781293173690482 6.239617679621431 a41.742043978628,41.742043978628 0 0,0 -0.22204332242063599,0.683379077953693 l -19.670957600253598 -6.579195657552919" fill="#ffdf14" stroke="none" /><path d="M 119.67450827220406 107.3425965602758 l 19.35142427810316 7.222020462975461 a41.65514950705506,41.65514950705506 0 0,0 -0.25648805312618744,0.6696093711249416 l -19.224241945383465 -7.5540534009335465" fill="#ffde14" stroke="none" /><line stroke="#e1ed5e" stroke-width="0.3" x1="174.80103733775053" x2="179.2010983576182" y1="140.37084112569926" y2="142.7455964860345" /><path d="M 175.68104954172406 140.8457921977663 a86.0,86.0 0 0,1 -30.038265399797805,32.042727171017184" fill="none" id="id29" stroke="none" /><text fill="#e1ed5e" style="font-size:6.75px; font-family:Arial;" text-anchor="middle"><textPath startOffset="22.206326154141568" xlink:href="#id29">May</textPath></text><path d="M 118.48025628344425 109.97397251340804 l 9.292422649016316 5.01521010654434 a31.559424752359188,31.559424752359188 0 0,0 -0.2621289609976889,0.47584020471442534 l -9.20471727856712 -5.1744208296565715" fill="#ff4e07" stroke="none" /><path d="M 118.30583269289576 110.29060199501023 l 14.37759156045832 8.082345931901463 a37.49361860970134,37.49361860970134 0 0,0 -0.32110249828469967,0.5598692715695113 l -14.236337066021239 -8.328635049329288" fill="#ffa40f" stroke="none" /><path d="M 117.35343817320211 111.8261652097733 l 11.279647773092103 7.686948069958417 a34.649894670482226,34.649894670482226 0 0,0 -0.3401284692524161,0.4899804279380533 l -11.145658396677552 -7.87996976008349" fill="#ff7c0b" stroke="none" /><path d="M 116.71984013943494 112.70617746262583 l 9.408881389118232 7.150242804831866 a32.81748793790564,32.81748793790564 0 0,0 -0.3456668860901427,0.44682104663667216 l -9.28440768581002 -7.3111418455817905" fill="#ff6108" stroke="none" /><path d="M 116.27256486870786 113.27417163493432 l 13.688141538026057 11.165955803835109 a38.66476118656104,38.66476118656104 0 0,0 -0.42513562005418143,0.5121032414488746 l -13.493909918078334 -11.399920302397755" fill="#ffb510" stroke="none" /><path d="M 114.55890576462653 115.13401014063108 l 12.094739938469463 12.572505093193588 a38.44564755168426,38.44564755168426 0 0,0 -0.4808711397842017,0.45469367712915887 l -11.876532964294453 -12.778833407068669" fill="#ffb210" stroke="none" /><line stroke="#e1ed5e" stroke-width="0.3" x1="143.8653032363475" x2="146.44561519142675" y1="172.8068346515853" y2="177.08958963109032" /><path d="M 144.38136562736335 173.6633856474863 a86.0,86.0 0 0,1 -40.68145358897372,12.25698825130547" fill="none" id="id30" stroke="none" /><text fill="#e1ed5e" style="font-size:6.75px; font-family:Arial;" text-anchor="middle"><textPath startOffset="21.466115282336833" xlink:href="#id30">June</textPath></text><path d="M 110.5260780823613 118.17145234162733 l 10.574269041149835 18.254645692851916 a42.096143133904285,42.096143133904285 0 0,0 -0.6301416429525981,0.35781087055514776 l -10.25847863127604 -18.433959729201693" fill="#ffe415" stroke="none" /><path d="M 109.89434966115114 118.52300852407294 l 10.894746483956382 20.39583084296004 a44.12326570197904,44.12326570197904 0 0,0 -0.6730039721230732,0.35208387008272746 l -10.542051609306814 -20.580344131987484" fill="#fffe18" stroke="none" /><path d="M 107.59598834532513 119.57807347666477 l 7.3172467804058785 18.859638614617076 a41.22938627638801,41.22938627638801 0 0,0 -0.6638515847535446,0.25101186583170787 l -6.99152497489206 -18.982798730555416" fill="#ffd814" stroke="none" /><path d="M 106.2309692047433 120.05430185196036 l 5.971832763433315 19.220274232161284 a41.12664224638324,41.12664224638324 0 0,0 -0.6778552427960126,0.20423222412309283 l -5.640102546197056 -19.320221825390103" fill="#ffd714" stroke="none" /><path d="M 105.53697534728816 120.25689768951611 l 2.6060972107183593 9.534347049659662 a30.884104225222835,30.884104225222835 0 0,0 -0.5140137900914854,0.13575571376180004 l -2.4415929778153767 -9.577794112725044" fill="#ff4406" stroke="none" /><path d="M 104.83641907484287 120.43548508189849 l 3.3443471456216223 14.130983098328995 a35.52134088697346,35.52134088697346 0 0,0 -0.5962169966288393,0.13569704731683638 l -3.100609999599921 -14.186456879223515" fill="#ff880c" stroke="none" /><path d="M 104.13013068566511 120.58985236759428 l 2.8699980399464846 14.307739980936436 a35.592748613999476,35.592748613999476 0 0,0 -0.6017418306846618,0.11532525400834297 l -2.6232885946901185 -14.355022433293247" fill="#ff890c" stroke="none" /><path d="M 100.90346689309514 120.98055641714683 l 0.6238512181210131 14.487244389059574 a35.5006703407356,35.5006703407356 0 0,0 -0.6107461760007171,0.02103533319326509 l -0.37438469044564365 -14.495836520678933" fill="#ff880c" stroke="none" /><line stroke="#e1ed5e" stroke-width="0.3" x1="102.19456741930631" x2="102.32365962044197" y1="184.97166512339345" y2="189.96999836594603" /><path d="M 102.22038585953345 185.97133177190398 a86.0,86.0 0 0,1 -42.740103519485714,-10.115201625700543" fill="none" id="id31" stroke="none" /><text fill="#e1ed5e" style="font-size:6.75px; font-family:Arial;" text-anchor="middle"><textPath startOffset="22.20632615414155" xlink:href="#id31">July</textPath></text><path d="M 98.73552117531835 120.96189622390904 l -0.3304256405611448 5.47763066645675 a26.487587705180452,26.487587705180452 0 0,0 -0.4548766906486778,-0.0313709598094252 l 0.4246650919887527 -5.47113136213104" fill="#ff0000" stroke="none" /><path d="M 97.65516085044442 120.86867818915974 l -1.024336840527261 9.116427404547364 a30.173794993635052,30.173794993635052 0 0,0 -0.5156451221754713,-0.06243744322848261 l 1.1811093857541217 -9.097444432593532" fill="#ff3905" stroke="none" /><path d="M 96.22490169976321 120.6578951692458 l -2.6817337536409704 14.67484297059716 a35.91786553556179,35.91786553556179 0 0,0 -0.6072383562182668,-0.11637867620869634 l 2.933939724430932 -14.626507096039996" fill="#ff8e0d" stroke="none" /><path d="M 94.81253420990036 120.34920634021253 l -2.2184746324456848 8.702553401378145 a29.98087219587515,29.98087219587515 0 0,0 -0.4989810173955075,-0.13178542186204764 l 2.367946092652682 -8.663076630212517" fill="#ff3605" stroke="none" /><path d="M 94.11515582081647 120.15858648285463 l -3.1540434985937758 10.804204274769644 a32.255168608331566,32.255168608331566 0 0,0 -0.5316343361425211,-0.16017706441678306 l 3.339552809176543 -10.748311841247135" fill="#ff5808" stroke="none" /><path d="M 93.42475214034765 119.94407469862007 l -4.567429589381847 13.853950277721614 a35.587438135311615,35.587438135311615 0 0,0 -0.5801265333781515,-0.1968104175706153 l 4.805225855697224 -13.773276873252875" fill="#ff890c" stroke="none" /><path d="M 92.7421414339146 119.70592522655815 l -3.1465576611652435 8.54326788368645 a30.104298503864317,30.104298503864317 0 0,0 -0.4847218955846755,-0.18328034490625317 l 3.293149777510202 -8.487839288673564" fill="#ff3805" stroke="none" /><path d="M 91.07499286063937 119.00905698771935 l -6.234703327325716 13.279074066841384 a35.66987844709102,35.66987844709102 0 0,0 -0.553541024756103,-0.26573333051561054 l 6.462357020082061 -13.169786459826211" fill="#ff8a0c" stroke="none" /><line stroke="#e1ed5e" stroke-width="0.3" x1="58.666819895761336" x2="56.23545636021788" y1="174.27360380694188" y2="178.64263932499728" /><path d="M 58.180547188652646 175.14741091055294 a86.0,86.0 0 0,1 -31.652253787137756,-30.449443065178592" fill="none" id="id32" stroke="none" /><text fill="#e1ed5e" style="font-size:6.75px; font-family:Arial;" text-anchor="middle"><textPath startOffset="22.20632615414155" xlink:href="#id32">August</textPath></text><path d="M 89.4739219176387 118.17145234162733 l -4.837881280832149 8.35176486828525 a30.65179111370267,30.65179111370267 0 0,0 -0.4542772478624286,-0.26839500532101945 l 4.98092639972296 -8.267251290670481" fill="#ff4006" stroke="none" /><path d="M 87.95078237400918 117.19931262002967 l -5.901773644067293 8.424318745642887 a31.285916511132953,31.285916511132953 0 0,0 -0.43840905963941884,-0.31279322357024036 l 6.0459100315555965 -8.321481260228428" fill="#ff4a06" stroke="none" /><path d="M 87.65650970185807 116.9893568818739 l -6.072266437799893 8.357757741271671 a31.330756707686884,31.330756707686884 0 0,0 -0.4335804184482471,-0.32075242812416327 l 6.215231826666705 -8.251995364407739" fill="#ff4b06" stroke="none" /><path d="M 87.07902340077011 116.55440617244103 l -6.272348727479938 8.03615792447804 a31.194223498936562,31.194223498936562 0 0,0 -0.42044243961305294,-0.3340249020883354 l 6.409748659810349 -7.9269991083845746" fill="#ff4906" stroke="none" /><path d="M 86.79598089348748 116.32954008644616 l -7.316335166021353 9.04818354288013 a32.63608119975138,32.63608119975138 0 0,0 -0.43379548333770007,-0.3569841501407757 l 7.4710007779037415 -8.920904273882174" fill="#ff5e08" stroke="none" /><path d="M 86.51685102203217 116.09983520530335 l -5.893902597877646 7.037737304319335 a30.179751314598715,30.179751314598715 0 0,0 -0.39540435690309844,-0.3369721710671531 l 6.0141724313578 -6.93524074302923" fill="#ff3905" stroke="none" /><path d="M 85.97065885151581 115.62618273729859 l -7.144580105852099 7.957787406672012 a31.69445675566203,31.69445675566203 0 0,0 -0.4028221327375912,-0.36796846743520445 l 7.280501788056547 -7.833626172650229" fill="#ff5007" stroke="none" /><path d="M 85.70375840098266 115.38237550388516 l -7.075464767974402 7.61301179555982 a31.393274281100254,31.393274281100254 0 0,0 -0.3926613426088332,-0.3712858081219127 l 7.20546194497405 -7.490091350691979" fill="#ff4b07" stroke="none" /><path d="M 84.9287848128048 114.62390073753433 l -7.344101101529901 7.126127799332231 a31.233157792290136,31.233157792290136 0 0,0 -0.371069916615412,-0.3890653240532824 l 7.465677569524271 -6.998655358696448" fill="#ff4906" stroke="none" /><path d="M 84.19399662182784 113.82643327865904 l -5.0495670813731115 4.417150918310898 a27.7089008000135,27.7089008000135 0 0,0 -0.3109433345277789,-0.36169734601643305 l 5.1248529254716715 -4.329576473132934" fill="#ff1302" stroke="none" /><path d="M 83.95833913139862 113.55231037782056 l -7.769913644604145 6.564175753562049 a31.1715269929474,31.1715269929474 0 0,0 -0.34274429867134093,-0.4128575872220405 l 7.881753943169023 -6.429456909226247" fill="#ff4806" stroke="none" /><path d="M 83.28015986056508 112.70617746262583 l -7.361380902177065 5.594252775924427 a30.245841925312988,30.245841925312988 0 0,0 -0.31144393074620813,-0.41723004067431607 l 7.456586099618358 -5.466709855740805" fill="#ff3a05" stroke="none" /><path d="M 82.6465618267979 111.8261652097733 l -11.745335240651237 8.00430863404421 a35.21343929611403,35.21343929611403 0 0,0 -0.33703771172984176,-0.5038256491588736 l 11.88137605779181 -7.800946070679512" fill="#ff840c" stroke="none" /><path d="M 82.05923443525364 110.91462005526583 l -9.430974685255102 5.737520233955797 a32.03913139467842,32.03913139467842 0 0,0 -0.2825838028719821,-0.4736267078034157 l 9.528339363825316 -5.57433143226627" fill="#ff5507" stroke="none" /><line stroke="#e1ed5e" stroke-width="0.3" x1="26.63291911575756" x2="22.317208475507996" y1="142.92168965132927" y2="145.44649492493687" /><path d="M 25.769776987707644 143.4266507060508 a86.0,86.0 0 0,1 -11.730757126820373,-40.83630448921669" fill="none" id="id33" stroke="none" /><text fill="#e1ed5e" style="font-size:6.75px; font-family:Arial;" text-anchor="middle"><textPath startOffset="21.46611528233685" xlink:href="#id33">September</textPath></text><path d="M 81.35079622478065 109.6543875284942 l -12.99557976788611 6.727598923196143 a35.63371725758294,35.63371725758294 0 0,0 -0.2773004511759175,-0.5471400976707128 l 13.109458888848295 -6.502904613822745" fill="#ff8a0c" stroke="none" /><path d="M 80.87730276802145 108.67885076344099 l -13.277781159290132 6.0261311337608126 a35.58128008630523,35.58128008630523 0 0,0 -0.2483216101581622,-0.559899675916137 l 13.379543854179575 -5.79668312135198" fill="#ff890c" stroke="none" /><path d="M 79.97269907076064 106.31721596034903 l -14.131821845453828 4.457603689400429 a35.81818542613779,35.81818542613779 0 0,0 -0.1804097654998323,-0.5895895520926271 l 14.20645838345979 -4.213687164755754" fill="#ff8c0c" stroke="none" /><path d="M 79.86692584326677 105.97154293290107 l -9.52444679957961 2.824985520494923 a30.934567430393145,30.934567430393145 0 0,0 -0.14702369544269273,-0.5118087715328141 l 9.571663131908407 -2.660619273457513" fill="#ff4506" stroke="none" /><path d="M 79.50377843672027 104.57218783832718 l -15.279895820620826 3.4085577005623295 a36.65546172704876,36.65546172704876 0 0,0 -0.13207479750364837,-0.6170094839729264 l 15.336304656848915 -3.1450343971732395" fill="#ff980e" stroke="none" /><path d="M 79.35854240842038 103.8639653848113 l -13.859363270796269 2.5943952696309407 a35.10010060556236,35.10010060556236 0 0,0 -0.10605839322263469,-0.594831792995115 l 13.901968106358092 -2.3554447259026117" fill="#ff820c" stroke="none" /><line stroke="#e1ed5e" stroke-width="0.3" x1="15.007084014347285" x2="10.007500721073583" y1="101.09737516637583" y2="101.16192664675087" /><path d="M 14.007167355692545 101.11028546245083 a86.0,86.0 0 0,1 10.666146001902534,-42.60595125391555" fill="none" id="id34" stroke="none" /><text fill="#e1ed5e" style="font-size:6.75px; font-family:Arial;" text-anchor="middle"><textPath startOffset="22.20632615414155" xlink:href="#id34">October</textPath></text><path d="M 79.00175016825051 100.2711162175752 l -9.990384985624024 0.1289895782327127 a30.99121766714521,30.99121766714521 0 0,0 -0.002295862920303805,-0.5334776878857046 l 9.99112514583383 0.04299758785666727" fill="#ff4506" stroke="none" /><path d="M 79.00019446554 99.90962569577889 l -9.954058689629122 -0.04283806946570187 a30.95415086769216,30.95415086769216 0 0,0 0.006879181036984681,-0.5328001524379379 l 9.951846501474423 0.21417447996411176" fill="#ff4506" stroke="none" /><path d="M 79.26566170972629 96.67025291283419 l -14.911230091795487 -2.3946086086338165 a36.102282385090355,36.102282385090355 0 0,0 0.10381664895746902,-0.6127317388705404 l 14.867801581317794 2.650926135820185" fill="#ff910d" stroke="none" /><path d="M 79.3925641242962 95.95851677861259 l -15.663796051434602 -3.071947878762732 a36.962185643287484,36.962185643287484 0 0,0 0.1278199974255341,-0.6232957017950327 l 15.608596758094073 3.341119236721167" fill="#ff9d0e" stroke="none" /><path d="M 80.02781315780177 93.51064311812611 l -14.16699226988668 -4.603134824865509 a35.896057202861385,35.896057202861385 0 0,0 0.19599709818111183,-0.5860063765799903 l 14.085657877933796 4.846314304367821" fill="#ff8e0d" stroke="none" /><path d="M 80.2630227832202 92.82701384747504 l -13.584383370692272 -4.936956289624979 a35.45368496154556,35.45368496154556 0 0,0 0.2133896714213433,-0.5717782287393459 l 13.497389110769301 5.170057655393666" fill="#ff870c" stroke="none" /><path d="M 80.803312248108 91.48605970444005 l -13.186456916135684 -5.848337397835083 a35.425175781251994,35.425175781251994 0 0,0 0.25202091347071603,-0.5552946761947167 l 13.083833685701617 6.0744540828718705" fill="#ff870c" stroke="none" /><path d="M 81.6062741919709 89.86733742301443 l -12.669334791083713 -6.979232802137249 a35.46449911179066,35.46449911179066 0 0,0 0.2991554772878617,-0.5321642134299248 l 12.54732167250342 7.196280525501958" fill="#ff870c" stroke="none" /><line stroke="#e1ed5e" stroke-width="0.3" x1="26.266209847984243" x2="21.928928074336255" y1="57.711370442889674" y2="55.22380399835377" /><path d="M 25.398753493254645 57.213857153982495 a86.0,86.0 0 0,1 29.58750427330803,-30.492523968695096" fill="none" id="id35" stroke="none" /><text fill="#e1ed5e" style="font-size:6.75px; font-family:Arial;" text-anchor="middle"><textPath startOffset="21.46611528233685" xlink:href="#id35">November</textPath></text><path d="M 81.96595687620814 89.24020034530311 l -8.728463748237099 -5.207735202785124 a31.16398471794486,31.16398471794486 0 0,0 0.2788200186167396,-0.4583067998182673 l 8.63752793133414 5.357209775810466" fill="#ff4806" stroke="none" /><path d="M 82.15384107792192 88.93136811851018 l -18.43371908681206 -11.433051317630907 a42.691396031677655,42.691396031677655 0 0,0 0.39270474243117826,-0.6211645942782434 l 18.23418674813492 11.748663559623367" fill="#ffec16" stroke="none" /><path d="M 83.39014120810768 87.1503855733568 l -16.516260755336717 -12.777205702649871 a41.881663125960635,41.881663125960635 0 0,0 0.4460315740980499,-0.5664148038889999 l 16.293875100644694 13.059612900491919" fill="#ffe115" stroke="none" /><path d="M 84.31358615837235 86.03803664274999 l -27.62934408909182 -24.591974536145802 a57.988455852872214,57.988455852872214 0 0,0 0.6700603611216748,-0.7398973864914052 l 27.2019400873541 25.063924709906765" fill="#59ff2a" stroke="none" /><path d="M 85.31137513191541 84.99185889309783 l -10.237585207056123 -10.460279621905025 a35.636447678319215,35.636447678319215 0 0,0 0.44209008373005515,-0.4252903102808021 l 10.05601187971364 10.634953018948137" fill="#ff8a0c" stroke="none" /><path d="M 86.93701828274178 83.55741782278169 l -11.74678943321999 -14.785870083475768 a39.884094262469475,39.884094262469475 0 0,0 0.5412223062741208,-0.42243259477292444 l 11.490534571786442 14.985881067471912" fill="#ffc612" stroke="none" /><path d="M 87.80319425747018 82.90503203632743 l -11.211107943720084 -15.713419987241483 a40.302862715700584,40.302862715700584 0 0,0 0.5682106017025552,-0.398067838440013 l 10.93896620243387 15.904072668445439" fill="#ffcb12" stroke="none" /><path d="M 89.00827224532344 82.1063720568725 l -13.023362349506822 -21.200961818897156 a45.88149410571815,45.88149410571815 0 0,0 0.676507192082942,-0.40758801373933795 l 12.656493091206235 21.421996442095114" fill="#e9ff1a" stroke="none" /><line stroke="#e1ed5e" stroke-width="0.3" x1="56.76296977257108" x2="54.21961505331056" y1="26.818313649435495" y2="22.513508569990535" /><path d="M 56.25429882871898 25.957352633546506 a86.0,86.0 0 0,1 42.26535254187918,-11.944610805530505" fill="none" id="id36" stroke="none" /><text fill="#e1ed5e" style="font-size:6.75px; font-family:Arial;" text-anchor="middle"><textPath startOffset="22.20632615414155" xlink:href="#id36">December</textPath></text><path d="M 89.3179101791058 81.91981866633112 l -32.04626946268261 -54.240544001006626 a84.0,84.0 0 0,0 1.25121307013871,-0.7247833704398112 l 31.107859660078574 54.78413152883649" fill="#4dd2ff" stroke="none" /><path d="M 91.56875222667455 80.76684994638697 l -5.817937076503947 -13.271731516288321 a35.490936797412374,35.490936797412374 0 0,0 0.5616292737627501,-0.24046034478946451 l 5.588624044950889 13.36991138904057" fill="#ff880c" stroke="none" /><path d="M 92.57280143429618 80.3572730644239 l -5.139327467056196 -13.591989654624864 a35.531168899474935,35.531168899474935 0 0,0 0.5739428798410449,-0.21138800634866797 l 4.904602261442583 13.678440928779855" fill="#ff880c" stroke="none" /><path d="M 93.25333710446033 80.11325718540243 l -6.779213250653373 -19.98268958868318 a42.10131786158157,42.10131786158157 0 0,0 0.6882907441958775,-0.22691863678717206 l 6.434239684215086 20.096421949729585" fill="#ffe415" stroke="none" /><path d="M 93.94186890950719 79.89281104454417 l -5.994682853071643 -19.896601617601732 a41.78006204125635,41.78006204125635 0 0,0 0.6903852491637293,-0.20154238584093845 l 5.6513073861844925 19.996842332361368" fill="#ffdf14" stroke="none" /><path d="M 96.40284397218896 79.31037775812273 l -3.52764744393294 -20.289832426843663 a41.59421269187252,41.59421269187252 0 0,0 0.7064495648018195,-0.11657023128574737 l 3.177868672992235 20.347548921069038" fill="#ffdd14" stroke="none" /><path d="M 98.91598698831166 79.02799685794201 l -0.6412400182593784 -12.405836030329347 a33.422397368158656,33.422397368158656 0 0,0 0.5748002482398774,-0.024752107813653067 l 0.42759893763017687 12.415035864667193" fill="#ff6a09" stroke="none" /><path d="M 99.27714615592234 79.0124445844662 l -0.5045505663925 -14.649272545009623 a35.657958840575986,35.657958840575986 0 0,0 0.6136112651572121,-0.01584776864944192 l 0.25231266604040886 14.655787105801425" fill="#ff8a0c" stroke="none" /></svg>