<?xml version="1.0" encoding="utf-8" ?>
<svg baseProfile="full" height="200mm" version="1.1" viewBox="0,0,200,200" width="200mm" xmlns="http://www.w3.org/2000/svg" xmlns:ev="http://www.w3.org/2001/xml-events" xmlns:xlink="http://www.w3.org/1999/xlink"><defs /><rect fill="#1a1a1a" height="200" width="200" x="0" y="0" /><text alignment-baseline="middle" fill="#e1ed5e" style="dominant-baseline: central; font-size:9.0px; font-family:Arial;" text-anchor="middle" x="100.0" y="100.0">2011</text><line stroke="#e1ed5e" stroke-width="0.3" x1="100.0" x2="100.0" y1="15.0" y2="10.0" /><path d="M 100.0 14.0 a86.0,86.0 0 0,1 42.46469731375804,11.215312516191453" fill="none" id="id1" stroke="none" /><text fill="#e1ed5e" style="font-size:6.75px; font-family:Arial;" text-anchor="middle"><textPath startOffset="22.20632615414155" xlink:href="#id1">January</textPath></text><line stroke="#e1ed5e" stroke-width="0.3" x1="143.23703022742887" x2="145.7803849466894" y1="26.81831364943548" y2="22.513508569990506" /><path d="M 143.74570117128098 25.957352633546492 a86.0,86.0 0 0,1 28.547481713284135,27.462654790039103" fill="none" id="id2" stroke="none" /><text fill="#e1ed5e" style="font-size:6.75px; font-family:Arial;" text-anchor="middle"><textPath startOffset="19.985693538727396" xlink:href="#id2">February</textPath></text><line stroke="#e1ed5e" stroke-width="0.3" x1="172.23445277983987" x2="176.4835382374775" y1="55.19839476539836" y2="52.563006222186495" /><path d="M 173.08426987136738 54.67131705675599 a86.0,86.0 0 0,1 12.851231095245387,41.99856678651699" fill="none" id="id3" stroke="none" /><text fill="#e1ed5e" style="font-size:6.75px; font-family:Arial;" text-anchor="middle"><textPath startOffset="22.20632615414155" xlink:href="#id3">March</textPath></text><line stroke="#e1ed5e" stroke-width="0.3" x1="184.98032266829074" x2="189.97916517819016" y1="98.17113171792111" y2="98.06355123074" /><path d="M 185.9800911702706 98.14961562048488 a86.0,86.0 0 0,1 -9.607161424134198,41.387399972396054" fill="none" id="id4" stroke="none" /><text fill="#e1ed5e" style="font-size:6.75px; font-family:Arial;" text-anchor="middle"><textPath startOffset="21.466115282336823" xlink:href="#id4">April</textPath></text><line stroke="#e1ed5e" stroke-width="0.3" x1="174.80103733775053" x2="179.2010983576182" y1="140.37084112569926" y2="142.7455964860345" /><path d="M 175.68104954172406 140.8457921977663 a86.0,86.0 0 0,1 -30.038265399797805,32.042727171017184" fill="none" id="id5" stroke="none" /><text fill="#e1ed5e" style="font-size:6.75px; font-family:Arial;" text-anchor="middle"><textPath startOffset="22.206326154141568" xlink:href="#id5">May</textPath></text><line stroke="#e1ed5e" stroke-width="0.3" x1="143.8653032363475" x2="146.44561519142675" y1="172.8068346515853" y2="177.08958963109032" /><path d="M 144.38136562736335 173.6633856474863 a86.0,86.0 0 0,1 -40.68145358897372,12.25698825130547" fill="none" id="id6" stroke="none" /><text fill="#e1ed5e" style="font-size:6.75px; font-family:Arial;" text-anchor="middle"><textPath startOffset="21.466115282336833" xlink:href="#id6">June</textPath></text><line stroke="#e1ed5e" stroke-width="0.3" x1="102.19456741930631" x2="102.32365962044197" y1="184.97166512339345" y2="189.96999836594603" /><path d="M 102.22038585953345 185.97133177190398 a86.0,86.0 0 0,1 -42.740103519485714,-10.115201625700543" fill="none" id="id7" stroke="none" /><text fill="#e1ed5e" style="font-size:6.75px; font-family:Arial;" text-anchor="middle"><textPath startOffset="22.20632615414155" xlink:href="#id7">July</textPath></text><line stroke="#e1ed5e" stroke-width="0.3" x1="58.666819895761336" x2="56.23545636021788" y1="174.27360380694188" y2="178.64263932499728" /><path d="M 58.180547188652646 175.14741091055294 a86.0,86.0 0 0,1 -31.652253787137756,-30.449443065178592" fill="none" id="id8" stroke="none" /><text fill="#e1ed5e" style="font-size:6.75px; font-family:Arial;" text-anchor="middle"><textPath startOffset="22.20632615414155" xlink:href="#id8">August</textPath></text><line stroke="#e1ed5e" stroke-width="0.3" x1="26.63291911575756" x2="22.317208475507996" y1="142.92168965132927" y2="145.44649492493687" /><path d="M 25.769776987707644 143.4266507060508 a86.0,86.0 0 0,1 -11.730757126820373,-40.83630448921669" fill="none" id="id9" stroke="none" /><text fill="#e1ed5e" style="font-size:6.75px; font-family:Arial;" text-anchor="middle"><textPath startOffset="21.46611528233685" xlink:href="#id9">September</textPath></text><line stroke="#e1ed5e" stroke-width="0.3" x1="15.007084014347285" x2="10.007500721073583" y1="101.09737516637583" y2="101.16192664675087" /><path d="M 14.007167355692545 101.11028546245083 a86.0,86.0 0 0,1 10.666146001902534,-42.60595125391555" fill="none" id="id10" stroke="none" /><text fill="#e1ed5e" style="font-size:6.75px; font-family:Arial;" text-anchor="middle"><textPath startOffset="22.20632615414155" xlink:href="#id10">October</textPath></text><line stroke="#e1ed5e" stroke-width="0.3" x1="26.266209847984243" x2="21.928928074336255" y1="57.711370442889674" y2="55.22380399835377" /><path d="M 25.398753493254645 57.213857153982495 a86.0,86.0 0 0,1 29.58750427330803,-30.492523968695096" fill="none" id="id11" stroke="none" /><text fill="#e1ed5e" style="font-size:6.75px; font-family:Arial;" text-anchor="middle"><textPath startOffset="21.46611528233685" xlink:href="#id11">November</textPath></text><path d="M 86.37877921826538 84.01681056812374 l -15.8049364468157 -18.545569243467703 a45.366660720175396,45.366660720175396 0 0,0 0.5987156234252281,-0.5014071164790621 l 15.483363286431363 18.814877517340577" fill="#ffaf10" stroke="none" /><path d="M 88.70189139769569 82.29822771554957 l -7.776619484414159 -12.184335635421595 a35.45454411186927,35.45454411186927 0 0,0 0.5172663465357255,-0.3239121387465669 l 7.565733985506191 12.316392115491093" fill="#ff0000" stroke="none" /><line stroke="#e1ed5e" stroke-width="0.3" x1="56.76296977257108" x2="54.21961505331056" y1="26.818313649435495" y2="22.513508569990535" /><path d="M 56.25429882871898 25.957352633546506 a86.0,86.0 0 0,1 42.26535254187918,-11.944610805530505" fill="none" id="id12" stroke="none" /><text fill="#e1ed5e" style="font-size:6.75px; font-family:Arial;" text-anchor="middle"><textPath startOffset="22.20632615414155" xlink:href="#id12">December</textPath></text><path d="M 89.63071344664047 81.73862282372117 l -12.07111976201307 -21.258480010154162 a45.44657245200207,45.44657245200207 0 0,0 0.6835941653252111,-0.38041941289178344 l 11.703401507615814 21.46311482060613" fill="#ffb010" stroke="none" /><path d="M 89.94658935756843 81.56283822128135 l -12.329004789950863 -22.610421872506176 a46.75335971020746,46.75335971020746 0 0,0 0.7098828730973146,-0.3791948460078254 l 11.937976870325244 22.81929544501575" fill="#ffc512" stroke="none" /><path d="M 90.26544431104013 81.39251694778311 l -11.702441993068339 -22.369073434191534 a46.24524895708859,46.24524895708859 0 0,0 0.7085201833709484,-0.3629315569958225 l 11.315661322108626 22.56719751649986" fill="#ffbd11" stroke="none" /><path d="M 90.58718382345135 81.22770947309562 l -12.613369448112604 -25.155259739701975 a49.14043676644788,49.14043676644788 0 0,0 0.7594039848747433,-0.37263623732273915 l 12.178494196227433 25.368651137159542" fill="#ffec16" stroke="none" /><path d="M 91.56875222667455 80.76684994638697 l -12.420115284542721 -28.332454148309846 a51.935210064704776,51.935210064704776 0 0,0 0.8218530403368406,-0.3518745811122883 l 11.930578486415572 28.542048257384923" fill="#e7ff1a" stroke="none" /><path d="M 92.57280143429618 80.3572730644239 l -22.281595697111445 -58.92818080672833 a84.0,84.0 0 0,0 1.3568706969097268,-0.4997469287747105 l 21.26394267442915 59.30299100330936" fill="#4dd2ff" stroke="none" /><path d="M 92.91201910852362 80.23233633223022 l -10.36158131290054 -28.89740500090467 a51.698898727644284,51.698898727644284 0 0,0 0.840274500278796,-0.2931552739249624 l 9.862624808558458 29.071481128001842" fill="#ebff1a" stroke="none" /><path d="M 93.59665428221793 80.00007090966166 l -9.290279672344138 -29.016851949804078 a51.46780257037287,51.46780257037287 0 0,0 0.8460684896061461,-0.2628775981710007 l 8.789425810027263 29.172469682857603" fill="#eeff19" stroke="none" /><path d="M 94.98787191387505 79.60689891045804 l -6.090335308027904 -24.780057786161585 a46.51751257567474,46.51751257567474 0 0,0 0.7792266221688009,-0.1844177656649221 l 5.662884998896569 24.88122146396738" fill="#ffc212" stroke="none" /><path d="M 96.04723909329186 79.375362276772 l -5.268010928695497 -27.487323288884415 a48.987584403311814,48.987584403311814 0 0,0 0.8295344771048329,-0.15159212343997147 l 4.79408133048777 27.573930893675122" fill="#ffe915" stroke="none" /><path d="M 97.47563105711357 79.15227682838746 l -3.372988103145541 -27.85611922285658 a49.05958707646927,49.05958707646927 0 0,0 0.8392303423777188,-0.09429730740323003 l 2.8929910572581043 27.91005248373041" fill="#ffea16" stroke="none" /></svg>