<?xml version="1.0" encoding="utf-8" ?>
<svg baseProfile="full" height="200mm" version="1.1" viewBox="0,0,200,200" width="200mm" xmlns="http://www.w3.org/2000/svg" xmlns:ev="http://www.w3.org/2001/xml-events" xmlns:xlink="http://www.w3.org/1999/xlink"><defs /><rect fill="#1a1a1a" height="200" width="200" x="0" y="0" /><text alignment-baseline="middle" fill="#e1ed5e" style="dominant-baseline: central; font-size:9.0px; font-family:Arial;" text-anchor="middle" x="100.0" y="100.0">2024</text><line stroke="#e1ed5e" stroke-width="0.3" x1="100.0" x2="100.0" y1="15.0" y2="10.0" /><path d="M 100.0 14.0 a86.0,86.0 0 0,1 42.35913384403234,11.155469271406648" fill="none" id="id157" stroke="none" /><text fill="#e1ed5e" style="font-size:6.75px; font-family:Arial;" text-anchor="middle"><textPath startOffset="22.145653131862478" xlink:href="#id157">January</textPath></text><path d="M 100.0 79.0 l 0.0 -59.89662515142338 a80.89662515142338,80.89662515142338 0 0,0 1.3886981433922878,0.01192030337164011 l -1.028205218543433 59.887799246246175" fill="#48f7ff" stroke="none" /><path d="M 101.80034050326958 79.07731436759882 l 5.175808563372708 -60.15074107829572 a81.37301256814052,81.37301256814052 0 0,0 1.3907052256848793,0.1317012307831295 l -6.2076133524426 60.0530280920074" fill="#49f1ff" stroke="none" /><path d="M 102.15924093988457 79.11130261209362 l 6.010272822494223 -58.14393747765424 a79.45374962144155,79.45374962144155 0 0,0 1.3554964748838951,0.15188620730582492 l -7.007505198978914 58.03219550984144" fill="#46fff5" stroke="none" /><path d="M 104.29559338865022 79.4440306129975 l 5.165737249290259 -24.7199227557885 a46.25389915202908,46.25389915202908 0 0,0 0.7758267456787145,0.16908782826339497 l -5.589326411588107 24.627603469391385" fill="#ffbc11" stroke="none" /><path d="M 109.06512990194946 81.05736502329252 l 13.330795822743946 -27.85623614339503 a51.88170994851605,51.88170994851605 0 0,0 0.800064762742151,0.39135176721372 l -13.807020834748165 27.62329062608409" fill="#e9ff1a" stroke="none" /><line stroke="#e1ed5e" stroke-width="0.3" x1="143.13028292997686" x2="145.6673583964461" y1="26.7553504044142" y2="22.446841604673864" /><path d="M 143.63769802327073 25.89364864446614 a86.0,86.0 0 0,1 29.32050498858742,28.57503671076993" fill="none" id="id158" stroke="none" /><text fill="#e1ed5e" style="font-size:6.75px; font-family:Arial;" text-anchor="middle"><textPath startOffset="20.669276256404974" xlink:href="#id158">February</textPath></text><path d="M 113.59037401385872 83.9905735841838 l 19.346449954976038 -22.790069401005308 a50.89435380072683,50.89435380072683 0 0,0 0.6611916229070165,0.5711215760741789 l -19.734821057645917 22.45460369246641" fill="#f8ff18" stroke="none" /><path d="M 113.86319453409587 84.22622945171908 l 19.84660408443886 -22.581792257229576 a51.06368299515445,51.06368299515445 0 0,0 0.6534570228572611,0.5843252992549188 l -20.231326134119495 22.23777142809127" fill="#f6ff19" stroke="none" /><path d="M 114.13192950727249 84.46653392183569 l 20.183980746422886 -22.185730553321527 a50.99332790732889,50.99332790732889 0 0,0 0.6424436393287609,0.5946362414360745 l -20.561854157065614 21.83597656575308" fill="#f7ff19" stroke="none" /><path d="M 114.39649973595853 84.71141617570332 l 21.192954501335752 -22.506183261260936 a51.913906344639614,51.913906344639614 0 0,0 0.6435532470343349,0.6165094528954904 l -21.576180234235398 22.139061678059868" fill="#e9ff1a" stroke="none" /><path d="M 114.65682725009322 84.96080404539774 l 12.534400370988918 -12.861399001038423 a38.95903051181102,38.95903051181102 0 0,0 0.4749441235679497,0.47088479647662945 l -12.75333641468683 12.644334194333133" fill="#ff3e05" stroke="none" /><path d="M 114.91283532996326 85.21462403516908 l 29.765265095862826 -29.510862649368196 a62.914937916414296,62.914937916414296 0 0,0 0.7538204183117657,0.7734861571421423 l -30.267472315325406 28.99555380015831" fill="#4eff2b" stroke="none" /><path d="M 115.16444852881244 85.47280134310134 l 30.974430914781514 -29.67280414638676 a63.893946850393704,63.893946850393704 0 0,0 0.7519531535066796,0.7985481908923036 l -31.479239902024453 29.136714495549963" fill="#42ff2d" stroke="none" /><line stroke="#e1ed5e" stroke-width="0.3" x1="172.87174338648825" x2="177.1583165268699" y1="56.24261187166439" y2="53.66864786411523" /><path d="M 173.72905801456457 55.72781907015455 a86.0,86.0 0 0,1 12.242430191666344,42.057860355516425" fill="none" id="id159" stroke="none" /><text fill="#e1ed5e" style="font-size:6.75px; font-family:Arial;" text-anchor="middle"><textPath startOffset="22.145653131862474" xlink:href="#id159">March</textPath></text><path d="M 119.31412917781788 91.75594674310238 l 28.21828929516193 -12.044709736902655 a51.681376817080555,51.681376817080555 0 0,0 0.34127958491906774,0.8189467653352198 l -28.420894724617483 11.558530462126157" fill="#ecff1a" stroke="none" /><path d="M 119.4528033332814 92.08871423366111 l 28.99087010998847 -11.790334489350052 a52.296685720775294,52.296685720775294 0 0,0 0.33106622355238224,0.8345031518158887 l -29.188995008506975 11.290930320320598" fill="#e3ff1b" stroke="none" /><path d="M 120.16314734710363 94.1308016681162 l 35.98029529204301 -10.47333957707153 a58.47362394003635,58.47362394003635 0 0,0 0.2722685296533606,0.9661849603746516 l -36.15478231377095 9.854146692793865" fill="#89ff24" stroke="none" /><path d="M 120.26092885502905 94.47779374421319 l 40.429434863032405 -11.019222253630623 a62.904205784373104,62.904205784373104 0 0,0 0.27501275202997066,1.0442682139703732 l -40.61263709586711 10.323573535287451" fill="#4eff2b" stroke="none" /><path d="M 120.51834098615036 95.52812308129327 l 31.386280776162835 -6.840493812911566 a53.123059887946695,53.123059887946695 0 0,0 0.18654362115006884,0.8926787567541246 l -31.49908210813727 6.3006986048720375" fill="#d6ff1c" stroke="none" /><path d="M 120.592083275326 95.88100663000786 l 32.44211938639006 -6.489332471821918 a54.08477816474864,54.08477816474864 0 0,0 0.17429130807169435,0.9119657723276045 l -32.54873698674392 5.931464134460998" fill="#c8ff1d" stroke="none" /><path d="M 120.7213421655516 96.59031103205396 l 43.565531553829 -7.168691638553505 a65.15139498788614,65.15139498788614 0 0,0 0.17211915138278241,1.105128421825605 l -43.68217219735004 6.419775034796459" fill="#32ff2f" stroke="none" /><path d="M 120.77682067341334 96.94652285012252 l 29.89224175134051 -4.393130141568321 a51.21333661417323,51.21333661417323 0 0,0 0.12036471368634069,0.8708991086193286 l -29.96325098158206 3.8793427247489065" fill="#f3ff19" stroke="none" /><path d="M 120.96210409425399 98.7389718711861 l 30.023119600017147 -1.8061163211542222 a51.077396274984864,51.077396274984864 0 0,0 0.045138823312404514,0.8756811133270885 l -30.049700012786122 1.290463414450403" fill="#f5ff19" stroke="none" /><path d="M 120.98066250479742 99.09900007780936 l 31.69735235856906 -1.3612206955900334 a52.72656723198062,52.72656723198062 0 0,0 0.031071798717975756,0.9046215173676841 l -31.716048844283883 0.8168929136582295" fill="#dcff1b" stroke="none" /><line stroke="#e1ed5e" stroke-width="0.3" x1="184.99686870605535" x2="189.99668451229388" y1="99.2704041080226" y2="99.22748670261217" /><path d="M 185.99683186730306 99.26182062694052 a86.0,86.0 0 0,1 -10.086455211305974,41.156179273409016" fill="none" id="id160" stroke="none" /><text fill="#e1ed5e" style="font-size:6.75px; font-family:Arial;" text-anchor="middle"><textPath startOffset="21.40746469413373" xlink:href="#id160">April</textPath></text><path d="M 120.98066250479742 100.90099992219065 l 30.538158047327702 1.3114399041591902 a51.56630451241672,51.56630451241672 0 0,0 -0.04557088806422946,0.8840630540854664 l -30.5111455698069 -1.8354747516213872" fill="#eeff19" stroke="none" /><path d="M 120.96210409425399 101.26102812881392 l 60.000412371163776 3.609475814081655 a81.10888287401575,81.10888287401575 0 0,0 -0.0955386893633219,1.389111575482615 l -59.92960972063539 -4.638930813718614" fill="#48f4ff" stroke="none" /><path d="M 120.82617615685814 102.69636545807757 l 37.63293027435746 4.872336261527495 a58.947030208964264,58.947030208964264 0 0,0 -0.13854091302847904,1.0024130325954248 l -37.54374484477378 -5.517637602323005" fill="#83ff25" stroke="none" /><path d="M 120.77682067341334 103.0534771498775 l 14.419936251559353 2.119234051202543 a35.574831541490006,35.574831541490006 0 0,0 -0.09398278911211246,0.6034369248036444 l -14.381431970308972 -2.3664591579376384" fill="#ff0000" stroke="none" /><path d="M 120.51834098615036 104.47187691870673 l 60.71847491021957 13.233309002582654 a83.1438143549364,83.1438143549364 0 0,0 -0.31590349115189986,1.39192907012114 l -60.482360557510006 -14.273672406642811" fill="#4cdcff" stroke="none" /><path d="M 120.16314734710363 105.8691983318838 l 29.347660946469983 8.542676384123908 a51.56570828285888,51.56570828285888 0 0,0 -0.25469452498654466,0.8477952387753113 l -29.19669010147981 -9.045209226489943" fill="#eeff19" stroke="none" /><path d="M 119.83427380445688 106.89939002012753 l 56.55989151571132 19.674466275407955 a80.88410433070865,80.88410433070865 0 0,0 -0.4674324356058456,1.3074917145101959 l -56.21381891006153 -20.642492946299072" fill="#48f7ff" stroke="none" /><path d="M 119.0197475246899 108.90220220490707 l 54.09946716760699 25.32128227667527 a80.7320657934585,80.7320657934585 0 0,0 -0.5982659040574867,1.2501456418328674 l -53.65682200558959 -26.24624042057324" fill="#48f9ff" stroke="none" /><line stroke="#e1ed5e" stroke-width="0.3" x1="174.33088141563837" x2="178.70328620479359" y1="141.23008692659167" y2="143.65538615756765" /><path d="M 175.20536237346943 141.71514677278685 a86.0,86.0 0 0,1 -30.301960400862466,31.631185727798858" fill="none" id="id161" stroke="none" /><text fill="#e1ed5e" style="font-size:6.75px; font-family:Arial;" text-anchor="middle"><textPath startOffset="22.145653131862474" xlink:href="#id161">May</textPath></text><path d="M 118.18653347947321 110.5 l 51.84050163552823 29.930127574197442 a80.86025514839491,80.86025514839491 0 0,0 -0.7043555462979247,1.1961497044444944 l -51.31907237910054 -30.815628446935488" fill="#48f7ff" stroke="none" /><path d="M 118.00360718960297 110.81064883170644 l 25.864509874524266 15.530895031922306 a51.16921562689279,51.16921562689279 0 0,0 -0.4586516959366832,0.7491730762994686 l -25.59409021413218 -15.972605224346331" fill="#f4ff19" stroke="none" /><path d="M 117.81537515405839 111.11811171558189 l 25.454991897751025 15.885797587257493 a51.00525249848577,51.00525249848577 0 0,0 -0.4699339996481605,0.7388143014095654 l -25.178540206476974 -16.32042556334573" fill="#f7ff19" stroke="none" /><path d="M 117.21940702142032 112.02048342749411 l 24.692438023287288 17.237239451632867 a51.11376627801332,51.11376627801332 0 0,0 -0.5084235253688302,0.7151613600537194 l -24.392899399388497 -17.65857803839609" fill="#f5ff19" stroke="none" /><path d="M 116.57777611688842 112.89097897827486 l 23.636321577014947 18.37974662129978 a50.94145593579649,50.94145593579649 0 0,0 -0.5427292268967312,0.6857206486189839 l -23.31732591947665 -18.782787213833448" fill="#f8ff18" stroke="none" /><path d="M 115.89218393027572 113.72728997021213 l 22.73191133424697 19.63528359798853 a51.03804512416717,51.03804512416717 0 0,0 -0.5784042884159165,0.6581179040065553 l -22.391495981872467 -20.022613779806377" fill="#f6ff19" stroke="none" /><path d="M 114.65682725009322 115.03919595460226 l 40.548188046517716 41.60601303612709 a79.09660811629315,79.09660811629315 0 0,0 -0.9805249222571513,0.9393206951512718 l -39.827990638395256 -42.29594586158394" fill="#45fff1" stroke="none" /><path d="M 114.39649973595853 115.28858382429668 l 20.874951866722952 22.168475483343123 a51.450039748637195,51.450039748637195 0 0,0 -0.648197561057258,0.5999619854869016 l -20.491324534351726 -22.523555214962403" fill="#f0ff19" stroke="none" /><path d="M 112.7482090630111 116.68781488649013 l 18.792581089886802 24.600091896619116 a51.956834872804365,51.956834872804365 0 0,0 -0.713409430534762,0.5353557366695411 l -18.367518670441275 -24.91906666055267" fill="#e8ff1a" stroke="none" /><path d="M 112.45986205192187 116.90419585922612 l 17.834050167233986 24.195314180359425 a51.057720699576016,51.057720699576016 0 0,0 -0.709991619585635,0.5139791795875832 l -17.416077537274383 -24.497894131320084" fill="#f6ff19" stroke="none" /><line stroke="#e1ed5e" stroke-width="0.3" x1="143.1302829299769" x2="145.66735839644613" y1="173.24464959558577" y2="177.55315839532614" /><path d="M 143.63769802327073 174.10635135553383 a86.0,86.0 0 0,1 -40.68552437913181,11.842963189579606" fill="none" id="id162" stroke="none" /><text fill="#e1ed5e" style="font-size:6.75px; font-family:Arial;" text-anchor="middle"><textPath startOffset="21.407464694133747" xlink:href="#id162">June</textPath></text><path d="M 110.65571695917076 118.09573695890943 l 23.450765947905502 39.824527406673184 a67.21613794669896,67.21613794669896 0 0,0 -0.9993040261092334,0.576948448476445 l -22.763669453935872 -40.2212227524258" fill="#32ff4c" stroke="none" /><path d="M 109.71004243097381 118.62028667847754 l 11.783112229583917 22.595671361811277 a46.483447531798916,46.483447531798916 0 0,0 -0.7106937925412191,0.3628853143653028 l -11.393491215329115 -22.794614627849416" fill="#ffbf11" stroke="none" /><path d="M 109.3889696526874 118.78422872680471 l 13.391970512522029 26.79291195044334 a50.95338052695337,50.95338052695337 0 0,0 -0.7857490499573098,0.3843492347211353 l -12.93006121330265 -27.0188549352617" fill="#f7ff18" stroke="none" /><path d="M 108.4095320186766 119.2426549942271 l 12.622177189033296 28.882011553693278 a52.51967557540884,52.51967557540884 0 0,0 -0.8292229659158941,0.35394597550400875 l -12.124519147946971 -29.094432178856692" fill="#dfff1b" stroke="none" /><path d="M 108.07796709384702 119.3841803445677 l 12.558446892729261 30.135700800485314 a53.64774189884918,53.64774189884918 0 0,0 -0.8531154321108263,0.34695461931470517 l -12.039276999427994 -30.34684267637931" fill="#cfff1d" stroke="none" /><path d="M 106.72888874123015 119.89276391827305 l 9.645521694254267 28.51527099217624 a51.1024379164143,51.1024379164143 0 0,0 -0.833401097006676,0.273955494035259 l -9.154597859599857 -28.67664740761352" fill="#f5ff19" stroke="none" /><path d="M 106.38641147887787 120.00534299687104 l 9.255231709466713 28.99188150900841 a51.43334532101757,51.43334532101757 0 0,0 -0.8434073449543243,0.2612897513983484 l -8.756183731640764 -29.146487848213404" fill="#f0ff19" stroke="none" /><path d="M 106.0420521117495 120.11202640906438 l 14.375662733288165 47.85190580820351 a70.96463317686252,70.96463317686252 0 0,0 -1.1696998690087146,0.3404825844798864 l -13.552102851897843 -48.09163208698592" fill="#38ff83" stroke="none" /><path d="M 105.69591212413111 120.21278271476187 l 13.70217685395702 48.62419177692664 a71.5179342065415,71.5179342065415 0 0,0 -1.1845365563697101,0.3228507058386616 l -12.865458896652614 -48.85224297690944" fill="#39ff8b" stroke="none" /><path d="M 104.9986988182912 120.39639698878246 l 7.289847955827745 29.74506732649183 a51.62533123864325,51.62533123864325 0 0,0 -0.8625556563889568,0.20356078629050767 l -6.778160145698909 -29.865824256428567" fill="#edff1a" stroke="none" /><path d="M 104.64783097203109 120.47920084513623 l 6.639733396106031 29.255890456272944 a50.999886432465175,50.999886432465175 0 0,0 -0.8554322261747644,0.18643747222696624 l -6.136538753312131 -29.365559386633628" fill="#f7ff19" stroke="none" /><path d="M 103.94208987418118 120.62667999033965 l 5.626387169946843 29.439635158077714 a50.972459872804365,50.972459872804365 0 0,0 -0.8608648124926765,0.15687824575188755 l -5.120187623903108 -29.531881577760963" fill="#f7ff18" stroke="none" /><path d="M 103.2317021107853 120.74984581791261 l 4.868289595151993 31.25791147619268 a52.63474788007269,52.63474788007269 0 0,0 -0.8939758638805251,0.13138366624082545 l -4.330988625663783 -31.33687621573239" fill="#deff1b" stroke="none" /><path d="M 101.08105385017728 120.97215588758144 l 1.360259251935099 26.388666091360385 a47.42370154451848,47.42370154451848 0 0,0 -0.813371220632867,0.034929659934936 l -0.9070622707014024 -26.40812831972115" fill="#ffcf13" stroke="none" /><line stroke="#e1ed5e" stroke-width="0.3" x1="101.45913802915013" x2="101.54496967792366" y1="184.9874750549273" y2="189.98673829345242" /><path d="M 101.47630435890484 185.9873277026323 a86.0,86.0 0 0,1 -42.54439059252881,-10.42667462771756" fill="none" id="id163" stroke="none" /><text fill="#e1ed5e" style="font-size:6.75px; font-family:Arial;" text-anchor="middle"><textPath startOffset="22.145653131862474" xlink:href="#id163">July</textPath></text><path d="M 99.63950707515114 120.99690560180557 l -0.5240357478117741 30.52245514496266 a51.52695336159903,51.52695336159903 0 0,0 -0.8842679980008579,-0.022775606913965987 l 1.0479170598833758 -30.508961820698644" fill="#efff19" stroke="none" /><path d="M 98.55909050195518 120.95050786540614 l -2.109162914934096 30.66676588551102 a51.7392110841914,51.7392110841914 0 0,0 -0.8855560309298649,-0.06854763744173696 l 2.635287940639197 -30.626040481074227" fill="#ebff1a" stroke="none" /><path d="M 98.19965949673042 120.92268563240118 l -2.567458258405738 29.837756756223857 a50.94801446093277,50.94801446093277 0 0,0 -0.8707268873664441,-0.08245874152493425 l 3.0792847091571973 -29.789286259193737" fill="#f7ff18" stroke="none" /><path d="M 97.12497278360702 120.80226474461374 l -4.129776990052521 29.881009053913626 a51.165042019987894,51.165042019987894 0 0,0 -0.8690136170979784,-0.1277150755859689 l 4.6421157127581845 -29.805712905028773" fill="#f4ff19" stroke="none" /><path d="M 96.76829788921471 120.74984581791261 l -4.878107284975962 31.320948087598175 a52.698544442761964,52.698544442761964 0 0,0 -0.8926694197451613,-0.1468884133185103 l 5.415054207774187 -31.232593675783995" fill="#ddff1b" stroke="none" /><path d="M 96.41257539226777 120.69131181640829 l -5.107354052377104 29.457860947587932 a50.89733494851605,50.89733494851605 0 0,0 -0.859596041002692,-0.15664703332140467 l 5.612284826930853 -29.36584574033516" fill="#f8ff18" stroke="none" /><path d="M 96.05791012581884 120.62667999033965 l -4.815278599813459 25.195572377282218 a46.651584267110835,46.651584267110835 0 0,0 -0.7853094759034449,-0.1570838890552746 l 5.247084561247862 -25.10919909156408" fill="#ffc212" stroke="none" /><path d="M 95.70440661134978 120.55596938700252 l -6.1036095565676645 29.20798125970798 a50.83890445184737,50.83890445184737 0 0,0 -0.8527320402785401,-0.18584897927845315 l 6.60410401346534 -29.09890082229581" fill="#f9ff18" stroke="none" /><path d="M 94.30408787586889 120.21278271476187 l -8.11677180749162 28.80355969592141 a50.925357737734714,50.925357737734714 0 0,0 -0.8393953665143685,-0.24433575771318733 l 8.610027186387594 -28.659980243905707" fill="#f8ff18" stroke="none" /><path d="M 93.27111125876986 119.89276391827306 l -9.615145407822093 28.42546889885196 a51.00763741671714,51.00763741671714 0 0,0 -0.8270383867625029,-0.2876868822194758 l 10.101689566629616 -28.256223584063896" fill="#f7ff19" stroke="none" /><path d="M 92.25597844496254 119.51999308798841 l -11.04107918768879 27.83073211972423 a50.94085970623864,50.94085970623864 0 0,0 -0.810070135334382,-0.32944847185303366 l 11.517203784213615 -27.63709639129191" fill="#f8ff18" stroke="none" /><path d="M 91.26138138417905 119.09545874513695 l -12.49957239547224 27.3138214977665 a51.03804512416717,51.03804512416717 0 0,0 -0.7935475121417503,-0.371420304245178 l 12.96660862148548 -27.095224961950795" fill="#f6ff19" stroke="none" /><path d="M 90.93487009805054 118.94263497670748 l -12.934951359467963 27.029073459959534 a50.964708888552394,50.964708888552394 0 0,0 -0.7859237439476192,-0.38443468630582883 l 13.397035352677651 -26.803045023556486" fill="#f7ff18" stroke="none" /><line stroke="#e1ed5e" stroke-width="0.3" x1="58.13341422392154" x2="55.67067388415222" y1="173.97424548756322" y2="178.32567169271397" /><path d="M 57.64086615596768 174.84453072859336 a86.0,86.0 0 0,1 -31.369924170532247,-30.572349798747897" fill="none" id="id164" stroke="none" /><text fill="#e1ed5e" style="font-size:6.75px; font-family:Arial;" text-anchor="middle"><textPath startOffset="22.145653131862474" xlink:href="#id164">August</textPath></text><path d="M 87.54013794807813 116.9041958592261 l -13.681627560704074 18.56175541874914 a44.059178149606296,44.059178149606296 0 0,0 -0.604968206213669,-0.4539794202838034 l 13.99824875582851 -18.324156971201322" fill="#ff970d" stroke="none" /><path d="M 86.96720088162412 116.46651593811092 l -18.549759216099183 23.437014796717104 a50.88958396426409,50.88958396426409 0 0,0 -0.6803434045194459,-0.5480364876981818 l 18.94935339097389 -23.115130015225514" fill="#f8ff18" stroke="none" /><path d="M 86.68645165197938 116.24036423190432 l -19.05179050112437 23.24008663356797 a51.05116217443973,51.05116217443973 0 0,0 -0.6729653314642132,-0.5614116143488596 l 19.447930166750474 -22.90961283530724" fill="#f6ff19" stroke="none" /><path d="M 85.60350026404147 115.28858382429668 l -20.60763345664997 21.884592595479038 a51.06010561780739,51.06010561780739 0 0,0 -0.6329690650922996,-0.6063700460189021 l 20.980275007607585 -21.527610419154556" fill="#f6ff19" stroke="none" /><path d="M 84.83555147118756 114.52719865689866 l -21.600125442212804 20.69243155903474 a50.912240687462145,50.912240687462145 0 0,0 -0.5991744417772404,-0.6363024934183829 l 21.952155717726296 -20.31858760567187" fill="#f8ff18" stroke="none" /><path d="M 84.1078160697243 113.72728997021213 l -22.662425142395556 19.575263080440102 a50.94622577225924,50.94622577225924 0 0,0 -0.5660014972124835,-0.6667483405257831 l 22.99512120311515 -19.183347957464765" fill="#f8ff18" stroke="none" /><path d="M 83.4222238831116 112.89097897827486 l -26.77195370784598 20.81803313193539 a54.91353725015142,54.91353725015142 0 0,0 -0.5722723354131857,-0.7491228572446109 l 27.125378020613464 -20.35538936144991" fill="#bcff1f" stroke="none" /><path d="M 83.20337586046588 112.60449989151573 l -26.936053564316286 20.21331675989408 a54.67683411568746,54.67683411568746 0 0,0 -0.5569173520426415,-0.755565347120218 l 27.279072935942757 -19.747945103504986" fill="#bfff1e" stroke="none" /><path d="M 82.18462484594161 111.11811171558189 l -25.518218405197004 15.925255604116064 a51.079781193216235,51.079781193216235 0 0,0 -0.4578500566272205,-0.7478636587329942 l 25.78783642627963 -15.484854829258511" fill="#f5ff19" stroke="none" /><path d="M 81.99639281039703 110.81064883170644 l -22.311973439189412 13.397698975166186 a47.025420199878866,47.025420199878866 0 0,0 -0.4096278879405909,-0.6956377069331834 l 22.538675037259775 -13.012710099939445" fill="#ffc812" stroke="none" /><line stroke="#e1ed5e" stroke-width="0.3" x1="26.387840678322732" x2="22.057713659400548" y1="142.50000000000003" y2="145.00000000000006" /><path d="M 25.521815274538298 143.00000000000003 a86.0,86.0 0 0,1 -11.493303480769221,-40.785679425670985" fill="none" id="id165" stroke="none" /><text fill="#e1ed5e" style="font-size:6.75px; font-family:Arial;" text-anchor="middle"><textPath startOffset="21.40746469413373" xlink:href="#id165">September</textPath></text><path d="M 81.81346652052679 110.50000000000001 l -26.203726936789437 15.128728800726847 a51.257457601453666,51.257457601453666 0 0,0 -0.4334102030404524,-0.7657943002089241 l 26.459570504851268 -14.6766777304188" fill="#f3ff19" stroke="none" /><path d="M 81.29705330413844 109.54985784667822 l -26.95628746030954 13.76407244838658 a51.266997274379165,51.266997274379165 0 0,0 -0.39348662238371795,-0.7872368310060474 l 27.18859399590499 -13.29930376121678" fill="#f3ff19" stroke="none" /><path d="M 80.68587082218212 108.24405325689762 l -27.820176661253626 11.874779126727745 a51.24851415808601,51.24851415808601 0 0,0 -0.33842116283964485,-0.8120875929166308 l 28.019923668629755 -11.395459024369833" fill="#f3ff19" stroke="none" /><path d="M 79.83685265289637 105.86919833188381 l -29.04825927525172 8.455524921158997 a51.2538802241066,51.2538802241066 0 0,0 -0.23865150930201243,-0.8468900146185687 l 29.18912927662831 -7.955626982637433" fill="#f3ff19" stroke="none" /><path d="M 79.64726062577567 105.17358676015961 l -29.13475071478506 7.405939701141933 a51.06129807692307,51.06129807692307 0 0,0 -0.2086522041556949,-0.8513721956944885 l 29.257590445457048 -6.904711680839345" fill="#f6ff19" stroke="none" /><path d="M 79.34024301695615 103.76489593502545 l -22.317206634252038 4.066938474028433 a43.68474598728044,43.68474598728044 0 0,0 -0.1281110978300976,-0.7389107680845807 l 22.38373254957437 -3.68323467302326" fill="#ff910d" stroke="none" /><path d="M 79.2786578344484 103.40968896794605 l -32.67047167826541 5.3759136820860425 a54.10981980617807,54.10981980617807 0 0,0 -0.142949145881618,-0.9178360613581109 l 32.75794231628529 -4.814289438796481" fill="#c8ff1d" stroke="none" /><path d="M 79.0935383218832 101.97986365728391 l -32.54921446986333 3.082444451586747 a53.69484403391884,53.69484403391884 0 0,0 -0.07902443375705986,-0.9183837067347692 l 32.597332526318134 -2.5232396974763156" fill="#ceff1d" stroke="none" /><path d="M 79.03789590574601 101.26102812881392 l -30.730162102590587 1.8486502423676328 a51.785716989703204,51.785716989703204 0 0,0 -0.045764790294316744,-0.8878247055477623 l 30.757368482341473 -1.3208537434431395" fill="#ebff1a" stroke="none" /><line stroke="#e1ed5e" stroke-width="0.3" x1="15.003131293944662" x2="10.003315487706104" y1="100.72959589197737" y2="100.7725132973878" /><path d="M 14.003168132696942 100.73817937305945 a86.0,86.0 0 0,1 10.791469493833604,-42.45332614584628" fill="none" id="id166" stroke="none" /><text fill="#e1ed5e" style="font-size:6.75px; font-family:Arial;" text-anchor="middle"><textPath startOffset="22.145653131862435" xlink:href="#id166">October</textPath></text><path d="M 79.00077361379809 99.81974689727619 l -36.391915299081376 -0.31238082423035834 a57.3932559812235,57.3932559812235 0 0,0 0.016913432876908177,-0.9851226724290305 l 36.3811904346058 0.9370504126284412" fill="#98ff23" stroke="none" /><path d="M 79.00696218219943 99.45929381324524 l -39.49724514703751 -1.0173089286136554 a60.51034410963052,60.51034410963052 0 0,0 0.03565878325166493,-1.0381665672270552 l 39.473961676788996 1.6951817604048491" fill="#6eff28" stroke="none" /><path d="M 79.01933749520258 99.09900007780938 l -29.977026988134806 -1.2873425220790684 a51.00465626892792,51.00465626892792 0 0,0 0.04507454050787036,-0.8744340440923506 l 29.950510858170365 1.801748359548131" fill="#f7ff19" stroke="none" /><path d="M 79.03789590574601 98.7389718711861 l -35.8586008607349 -2.157164383020715 a56.923427089642644,56.923427089642644 0 0,0 0.0670504811003363,-0.9748992796410386 l 35.8162864184695 2.7724070868160786" fill="#9fff22" stroke="none" /><path d="M 79.34024301695615 96.23510406497455 l -31.4377745096689 -5.7290097630306605 a52.95551938219262,52.95551938219262 0 0,0 0.17065220670080736,-0.8929244562172859 l 31.33479601068593 6.26783678428126" fill="#d9ff1c" stroke="none" /><path d="M 79.407916724674 95.88100663000787 l -36.679648334174445 -7.336956940298485 a58.40625,58.40625 0 0,0 0.2050957417697298,-0.9814573698624559 l 36.54829488158035 7.96553076144635" fill="#8aff24" stroke="none" /><path d="M 79.83685265289637 94.1308016681162 l -33.52325519095553 -9.758131012931084 a55.91460667777105,55.91460667777105 0 0,0 0.27617470334133504,-0.9192957664690176 l 33.35080416761057 10.332164382990825" fill="#adff20" stroke="none" /><path d="M 79.94057633289273 93.78553927170692 l -40.399812914046066 -12.51596531142672 a63.29413991520291,63.29413991520291 0 0,0 0.33044147710653915,-1.0351032206071615 l 40.179006721162274 13.207637565725275" fill="#49ff2c" stroke="none" /><path d="M 80.68587082218212 91.75594674310238 l -27.722567778559856 -11.833115698888705 a51.142385296789826,51.142385296789826 0 0,0 0.35158226808045545,-0.8044890336031758 l 27.515351628462422 12.307266802267746" fill="#f4ff19" stroke="none" /><path d="M 81.29705330413844 90.45014215332179 l -27.99069861728462 -14.292250155609347 a52.42845245305875,52.42845245305875 0 0,0 0.41616190381218626,-0.7980453235637156 l 27.741228644497497 14.77064172227755" fill="#e1ff1b" stroke="none" /><line stroke="#e1ed5e" stroke-width="0.3" x1="26.387840678322718" x2="22.05771365940052" y1="57.49999999999999" y2="54.99999999999999" /><path d="M 25.521815274538284 56.99999999999999 a86.0,86.0 0 0,1 29.574782752854787,-30.34633250058573" fill="none" id="id167" stroke="none" /><text fill="#e1ed5e" style="font-size:6.75px; font-family:Arial;" text-anchor="middle"><textPath startOffset="21.40746469413373" xlink:href="#id167">November</textPath></text><path d="M 81.99639281039701 89.18935116829357 l -25.884956127389525 -15.543172419299298 a51.19306480920655,51.19306480920655 0 0,0 0.45886546641923504,-0.7495222543172293 l 25.614322696514897 15.985231789741071" fill="#f4ff19" stroke="none" /><path d="M 82.37810715431573 88.57770195909679 l -25.16202968830879 -16.30972364494353 a50.98557692307692,50.98557692307692 0 0,0 0.48236133819726845,-0.730356545378722 l 24.878343911190793 16.739260068661313" fill="#f7ff19" stroke="none" /><path d="M 82.576782715395 88.27688183743585 l -26.196165993816514 -17.625949578382823 a52.57393246517263,52.57393246517263 0 0,0 0.5102431910657512,-0.7444600645674363 l 25.889733065935452 18.073044378020292" fill="#dfff1b" stroke="none" /><path d="M 84.34580500576568 86.00192230759919 l -34.18858764219088 -30.571645886940146 a66.86376627801332,66.86376627801332 0 0,0 0.7724430204484832,-0.8490501915733883 l 33.65874692090053 31.154033654071192" fill="#32ff47" stroke="none" /><path d="M 84.58840730492382 85.73525988315684 l -24.653239200465116 -22.818670152459987 a54.592765748031496,54.592765748031496 0 0,0 0.6424896940394415,-0.6823017902771259 l 24.257893672689402 23.238513402681622" fill="#c1ff1e" stroke="none" /><path d="M 85.08716467003674 85.21462403516908 l -25.545625950125 -25.327288578762168 a56.972914142943665,56.972914142943665 0 0,0 0.6945488740159387,-0.6886125945240299 l 25.107085155979085 25.76208118351487" fill="#9eff22" stroke="none" /><path d="M 85.34317274990677 84.96080404539775 l -10.678022426864178 -10.956591692395524 a36.29925045427014,36.29925045427014 0 0,0 0.449985411224429,-0.43107584487119305 l 10.488364529774449 11.138279667572286" fill="#ff0e01" stroke="none" /><path d="M 85.60350026404147 84.71141617570332 l -24.665232626060384 -26.193622301636093 a56.97887643852211,56.97887643852211 0 0,0 0.7178530652197045,-0.6644340802433687 l 24.211949789526724 26.613174128011828" fill="#9eff22" stroke="none" /><path d="M 86.13680546590413 84.22622945171909 l -25.84392091276315 -29.405637895597117 a60.14843276801938,60.14843276801938 0 0,0 0.781415558058113,-0.6749681478493158 l 25.335325874942185 29.844950175911144" fill="#73ff27" stroke="none" /><path d="M 86.40962598614128 83.9905735841838 l -23.991002461169746 -28.261340574740352 a58.07116898849183,58.07116898849183 0 0,0 0.7655042867255024,-0.6386109020898264 l 23.502323840282333 28.66901366074206" fill="#8fff24" stroke="none" /><path d="M 86.96720088162412 83.53348406188908 l -37.10654892082029 -46.88291238614007 a80.79049629012721,80.79049629012721 0 0,0 1.0948653243882553,-0.85137389847802 l 36.29627365179679 47.51298733623889" fill="#48f8ff" stroke="none" /><path d="M 87.25179093698888 83.31218511350988 l -36.274194965976335 -47.48408562776459 a80.75412628709873,80.75412628709873 0 0,0 1.1088195689527887,-0.832078876116578 l 35.453722408112796 48.09978353114517" fill="#48f9ff" stroke="none" /><path d="M 88.12776184653039 82.6780497279521 l -34.00111300287608 -49.608640006768944 a81.142271729255,81.142271729255 0 0,0 1.1557121269744235,-0.7776146968218647 l 33.14450458780467 50.18500437764792" fill="#48f4ff" stroke="none" /><path d="M 88.72937992617638 82.28071324371311 l -33.811860221470866 -53.157860268860674 a84.0,84.0 0 0,0 1.2233434848412057,-0.7634568126338559 l 32.89435260783996 53.73045287833607" fill="#4dd2ff" stroke="none" /><line stroke="#e1ed5e" stroke-width="0.3" x1="56.869717070023135" x2="54.33264160355391" y1="26.7553504044142" y2="22.446841604673864" /><path d="M 56.362301976729285 25.89364864446614 a86.0,86.0 0 0,1 42.16139366436587,-11.88097634709845" fill="none" id="id168" stroke="none" /><text fill="#e1ed5e" style="font-size:6.75px; font-family:Arial;" text-anchor="middle"><textPath startOffset="22.145653131862474" xlink:href="#id168">December</textPath></text></svg>